<?xml version="1.0" encoding="utf-8"?>
<!-- Generator: Adobe Illustrator 24.1.2, SVG Export Plug-In . SVG Version: 6.00 Build 0)  -->
<svg version="1.1" xmlns="http://www.w3.org/2000/svg" xmlns:xlink="http://www.w3.org/1999/xlink" x="0px" y="0px"
	 viewBox="0 0 565.1 782.8" style="enable-background:new 0 0 565.1 782.8;" xml:space="preserve">
<style type="text/css">
	.st0{fill:url(#SVGID_1_);}
	.st1{fill:url(#SVGID_2_);}
	.st2{opacity:0.23;fill:#444444;}
	.st3{fill:#3B435E;}
	.st4{fill:#202433;}
	.st5{fill:#333333;}
	.st6{fill:url(#SVGID_3_);}
	.st7{fill:url(#SVGID_4_);}
	.st8{fill:#9BA4A1;}
	.st9{fill:#E4EFEB;}
	.st10{fill:#444444;}
	.st11{fill:none;stroke:#FFFFFF;stroke-linecap:round;stroke-miterlimit:10;}
	.st12{fill:none;stroke:#000000;stroke-miterlimit:10;}
	.st13{fill:#EBF1FF;}
	.st14{fill:url(#SVGID_5_);}
	.st15{fill:url(#SVGID_6_);}
	.st16{fill:#BFD8F7;}
	.st17{fill:#6E7C89;}
	.st18{fill:#40484F;}
	.st19{fill:#A4B3D0;}
	.st20{fill:#8A9BB5;}
	.st21{fill:#C1DAF9;}
	.st22{fill:#4A5059;}
	.st23{fill:#605F68;}
	.st24{fill:#B4AA91;}
	.st25{fill:#837960;}
	.st26{fill:#1D3F1D;}
	.st27{fill:#459B45;}
	.st28{fill:#FFF0CF;}
	.st29{fill:#B77A37;}
	.st30{fill:#E29942;}
	.st31{fill:#D9B15C;}
	.st32{fill:#CEBE99;}
	.st33{fill:#3C3B41;}
	.st34{fill:#EEFFA6;}
	.st35{fill:#474135;}
	.st36{fill:#D8EF84;}
	.st37{fill:#AECFEE;}
	.st38{fill:#5483AD;}
	.st39{fill:#335066;}
	.st40{fill:#61A1C1;}
	.st41{fill:#6394B4;}
	.st42{fill:#88BBD6;}
	.st43{fill:#ABDAEF;}
	.st44{fill:#839945;}
	.st45{fill:#193019;}
	.st46{fill:#346B34;}
	.st47{fill:url(#SVGID_7_);}
	.st48{fill:url(#SVGID_8_);}
	.st49{fill:#5659BA;}
	.st50{fill:#D2E0FB;}
	.st51{fill:#3C3E4B;}
	.st52{fill:#FFFFFF;}
	.st53{opacity:0.3;}
	.st54{fill:#5465C1;}
	.st55{fill:#B95438;}
	.st56{fill:url(#SVGID_9_);}
	.st57{fill:url(#SVGID_10_);}
	.st58{fill:#7893A4;}
	.st59{fill:#BA77AD;}
	.st60{fill:#B48CCB;}
	.st61{fill:#9D7FB2;}
	.st62{fill:#88729B;}
	.st63{fill:#C5B0EB;}
	.st64{fill:#A0C3E9;}
	.st65{fill:url(#SVGID_11_);}
	.st66{fill:url(#SVGID_12_);}
	.st67{fill:#A3C0D8;}
	.st68{fill:#D88A5A;}
	.st69{fill:#9C9777;}
	.st70{fill:#A2A793;}
	.st71{fill:#636864;}
	.st72{fill:#0C0C0C;}
	.st73{fill:#26240B;}
	.st74{fill:#A5A174;}
	.st75{fill:#F2B879;}
	.st76{fill:#8D897E;}
	.st77{fill:#D8AD5E;}
	.st78{fill:#B3AF80;}
	.st79{fill:url(#SVGID_13_);}
	.st80{fill:url(#SVGID_14_);}
	.st81{fill:#231F1E;}
	.st82{fill:#302C2D;}
	.st83{fill:#C96B49;}
	.st84{fill:#535454;}
	.st85{fill:#494949;}
	.st86{fill:#71797C;}
	.st87{fill:#DFC571;}
	.st88{fill:#C05648;}
	.st89{fill:#D3CF78;}
	.st90{fill:#BD5B42;}
	.st91{fill:#5086F3;}
	.st92{fill:#4B4724;}
	.st93{fill:#877D40;}
	.st94{fill:#62AAFC;}
	.st95{fill:#A64C34;}
	.st96{fill:#BB5338;}
	.st97{fill:#A0A035;}
	.st98{fill:#3750B5;}
	.st99{fill:#A3A034;}
	.st100{fill:#D1D540;}
	.st101{fill:#2A417A;}
	.st102{fill:#C0664E;}
	.st103{fill:#7F7F7F;}
	.st104{fill:#6C8AA4;}
	.st105{fill:#4F5249;}
	.st106{fill:url(#SVGID_15_);}
	.st107{fill:url(#SVGID_16_);}
	.st108{fill:#5B969C;}
	.st109{fill:#9FACC1;}
	.st110{fill:#D8BF48;}
	.st111{fill:#CB8142;}
	.st112{fill:#D7A23C;}
	.st113{fill:#5B5D5C;}
	.st114{fill:#60868F;}
	.st115{fill:#6BADBB;}
	.st116{fill:#798293;}
	.st117{fill:#52575A;}
	.st118{fill:#757C84;}
	.st119{fill:#54483A;}
	.st120{fill:#9B8973;}
	.st121{fill:none;}
	.st122{fill:#495370;}
	.st123{fill:url(#SVGID_17_);}
	.st124{fill:url(#SVGID_18_);}
	.st125{fill:#BFAF5C;}
	.st126{fill:#E28D4D;}
	.st127{fill:#C78636;}
	.st128{fill:#BE7A33;}
	.st129{fill:#CB9336;}
	.st130{fill:#767C7A;}
	.st131{fill:#D8DCE5;}
	.st132{fill:#CFD3D1;}
	.st133{stroke:#000000;stroke-miterlimit:10;}
	.st134{fill:#FFFFFF;stroke:#000000;stroke-miterlimit:10;}
	.st135{stroke:#000000;stroke-linecap:round;stroke-linejoin:round;stroke-miterlimit:10;}
</style>
<g id="IMG_x5F_1254_xA0_Image_1_">
</g>
<g id="Layer_2">
	<g>
		<radialGradient id="SVGID_1_" cx="278.7172" cy="425.0093" r="5.0515" gradientUnits="userSpaceOnUse">
			<stop  offset="0" style="stop-color:#534E55"/>
			<stop  offset="1" style="stop-color:#7179AF"/>
		</radialGradient>
		<rect class="st0" width="565.1" height="782.8"/>
		
			<linearGradient id="SVGID_2_" gradientUnits="userSpaceOnUse" x1="282.4524" y1="760.5668" x2="282.6494" y2="3.6232" gradientTransform="matrix(1 0 0 0.4621 0 420.9854)">
			<stop  offset="0" style="stop-color:#707AAF"/>
			<stop  offset="1" style="stop-color:#545059"/>
		</linearGradient>
		<rect y="421.1" class="st1" width="565.1" height="361.7"/>
	</g>
	<polygon class="st2" points="96.9,444.7 79,451.5 44.5,431 	"/>
	<polygon class="st3" points="76.5,436.8 79,436.9 79,451.5 76.5,450.6 	"/>
	<polygon class="st4" points="81.5,436.8 79,436.9 79,451.5 81.5,450.5 	"/>
	<polygon class="st4" points="79,372.4 79,441.7 60.5,435.2 	"/>
	<polygon class="st3" points="96.9,435 79,441.7 79,372.6 	"/>
	<polygon class="st2" points="116.3,466 98.4,472.7 63.9,452.3 	"/>
	<polygon class="st3" points="95.9,458.1 98.4,458.2 98.4,472.7 95.9,471.8 	"/>
	<polygon class="st4" points="101,458.1 98.4,458.2 98.4,472.7 101,471.8 	"/>
	<polygon class="st4" points="98.4,393.6 98.4,463 80,456.4 	"/>
	<polygon class="st3" points="116.3,456.2 98.4,463 98.4,393.8 	"/>
	<polygon class="st2" points="168.7,455.5 150.8,462.2 116.3,441.7 	"/>
	<polygon class="st3" points="148.3,447.5 150.8,447.7 150.8,462.2 148.3,461.3 	"/>
	<polygon class="st4" points="153.4,447.5 150.8,447.7 150.8,462.2 153.4,461.3 	"/>
	<polygon class="st4" points="150.8,383.1 150.8,452.5 132.4,445.9 	"/>
	<polygon class="st3" points="168.7,445.7 150.8,452.5 150.8,383.3 	"/>
	<polygon class="st2" points="443.2,448.8 425.3,455.5 390.8,435.1 	"/>
	<polygon class="st5" points="422.8,440.8 425.3,441 425.3,455.5 422.8,454.6 	"/>
	<polygon points="427.9,440.8 425.3,441 425.3,455.5 427.9,454.6 	"/>
	<polygon class="st4" points="425.3,376.4 425.3,445.8 406.8,439.2 	"/>
	<polygon class="st3" points="443.2,439 425.3,445.8 425.3,376.6 	"/>
	<polygon class="st2" points="462.6,470 444.7,476.8 410.2,456.3 	"/>
	<polygon class="st5" points="442.2,462.1 444.7,462.2 444.7,476.8 442.2,475.9 	"/>
	<polygon points="447.3,462.1 444.7,462.2 444.7,476.8 447.3,475.8 	"/>
	<polygon class="st4" points="444.7,397.6 444.7,467 426.3,460.5 	"/>
	<polygon class="st3" points="462.6,460.3 444.7,467 444.7,397.8 	"/>
	<polygon class="st3" points="81,585.6 67.3,625.7 84.1,782.8 101.5,782.8 	"/>
	<polygon class="st3" points="53.2,664.2 38.2,691.1 49.3,782.8 66.6,782.8 	"/>
	<polygon class="st3" points="140.7,618.9 126.3,652.2 140.2,782.8 157.6,782.8 	"/>
	<polygon class="st4" points="174.1,672.9 158.7,696.3 168.3,782.8 185.6,782.8 	"/>
	<polygon class="st4" points="102.2,564.9 88.8,608.3 107,782.8 124.4,782.8 	"/>
	<polygon class="st3" points="95.5,645.5 105.1,674 102.9,782.8 92.9,782.8 	"/>
	<polygon class="st3" points="114.8,701.3 124.5,720.1 123.1,782.8 113.1,782.8 	"/>
	<polygon class="st3" points="62.6,673.3 72.3,696.9 70.5,782.8 60.4,782.8 	"/>
	<polygon class="st4" points="45.7,714.7 55.5,730.9 54.2,782.8 44.2,782.8 	"/>
	<polygon class="st4" points="82.5,631.6 92,662.6 89.7,782.8 79.6,782.8 	"/>
	<polygon class="st3" points="290.3,609.2 301.4,648.8 289.5,782.8 275.9,782.8 	"/>
	<polygon class="st3" points="312.6,686.6 324.5,712.8 316.7,782.8 303.1,782.8 	"/>
	<polygon class="st3" points="244,645 255.4,677.7 245.6,782.8 232.1,782.8 	"/>
	<polygon class="st4" points="218.3,700.3 230.4,723 223.7,782.8 210.2,782.8 	"/>
	<polygon class="st4" points="273.6,589.5 284.4,632.3 271.6,782.8 258,782.8 	"/>
	<polygon class="st3" points="446.6,590.4 432.3,628.8 429.2,782.8 442.8,782.8 	"/>
	<polygon class="st3" points="418,665.6 404,690.7 401.9,782.8 415.5,782.8 	"/>
	<polygon class="st3" points="489.8,629.8 475.7,661.5 473.1,782.8 486.7,782.8 	"/>
	<polygon class="st4" points="510.8,687.1 496.8,708.7 495.1,782.8 508.7,782.8 	"/>
	<polygon class="st4" points="464.9,572 450.5,613.8 447.2,782.8 460.8,782.8 	"/>
	<polygon class="st3" points="241.6,669.7 251.5,691.1 261.6,782.8 253.9,782.8 	"/>
	<polygon class="st3" points="261.5,711.6 270.7,725.4 277.3,782.8 269.5,782.8 	"/>
	<polygon class="st3" points="218.6,694.4 228.1,711.9 236.5,782.8 228.7,782.8 	"/>
	<polygon class="st4" points="209.1,728.2 218.2,740 223.9,782.8 216.1,782.8 	"/>
	<polygon class="st4" points="230.2,660 240.4,683.3 251.4,782.8 243.6,782.8 	"/>
	<rect x="12.2" y="534.7" class="st121" width="510.7" height="248.1"/>
	<polygon class="st3" points="522.5,416.1 504.1,422.6 504.1,451.4 522.5,444.9 	"/>
	<polygon class="st122" points="522.5,416.1 504.1,422.6 491.1,398.9 509.6,392.4 	"/>
	<polygon class="st4" points="504.1,422.1 491.1,398.9 478.2,413.4 478.2,441.7 504.1,451.4 	"/>
	<path class="st52" d="M480,56.1c0,0,12.8,53.7-50.6,77.8c0,0,40.8,22.7,63.5-15.1S480,56.1,480,56.1z"/>
	<circle class="st52" cx="84.4" cy="69.3" r="4"/>
	<circle class="st52" cx="204.4" cy="169.3" r="6.6"/>
	<circle class="st52" cx="474.4" cy="219.3" r="4"/>
	<circle class="st52" cx="314.4" cy="359.3" r="5"/>
	<circle class="st52" cx="114.4" cy="339.3" r="4"/>
</g>
</svg>
