<?xml version="1.0" encoding="utf-8"?>
<!-- Generator: Adobe Illustrator 24.1.2, SVG Export Plug-In . SVG Version: 6.00 Build 0)  -->
<svg version="1.1" xmlns="http://www.w3.org/2000/svg" xmlns:xlink="http://www.w3.org/1999/xlink" x="0px" y="0px"
	 viewBox="0 0 565.1 782.8" style="enable-background:new 0 0 565.1 782.8;" xml:space="preserve">
<style type="text/css">
	.st0{fill:url(#SVGID_1_);}
	.st1{fill:url(#SVGID_2_);}
	.st2{opacity:0.23;fill:#444444;}
	.st3{fill:#3B435E;}
	.st4{fill:#202433;}
	.st5{fill:#333333;}
	.st6{fill:url(#SVGID_3_);}
	.st7{fill:url(#SVGID_4_);}
	.st8{fill:#9BA4A1;}
	.st9{fill:#E4EFEB;}
	.st10{fill:#444444;}
	.st11{fill:none;stroke:#FFFFFF;stroke-linecap:round;stroke-miterlimit:10;}
	.st12{fill:none;stroke:#000000;stroke-miterlimit:10;}
	.st13{fill:#EBF1FF;}
	.st14{fill:url(#SVGID_5_);}
	.st15{fill:url(#SVGID_6_);}
	.st16{fill:#BFD8F7;}
	.st17{fill:#6E7C89;}
	.st18{fill:#40484F;}
	.st19{fill:#A4B3D0;}
	.st20{fill:#8A9BB5;}
	.st21{fill:#C1DAF9;}
	.st22{fill:#4A5059;}
	.st23{fill:#605F68;}
	.st24{fill:#B4AA91;}
	.st25{fill:#837960;}
	.st26{fill:#1D3F1D;}
	.st27{fill:#459B45;}
	.st28{fill:#FFF0CF;}
	.st29{fill:#B77A37;}
	.st30{fill:#E29942;}
	.st31{fill:#D9B15C;}
	.st32{fill:#CEBE99;}
	.st33{fill:#3C3B41;}
	.st34{fill:#EEFFA6;}
	.st35{fill:#474135;}
	.st36{fill:#D8EF84;}
	.st37{fill:#AECFEE;}
	.st38{fill:#5483AD;}
	.st39{fill:#335066;}
	.st40{fill:#61A1C1;}
	.st41{fill:#6394B4;}
	.st42{fill:#88BBD6;}
	.st43{fill:#ABDAEF;}
	.st44{fill:#839945;}
	.st45{fill:#193019;}
	.st46{fill:#346B34;}
	.st47{fill:url(#SVGID_7_);}
	.st48{fill:url(#SVGID_8_);}
	.st49{fill:#5659BA;}
	.st50{fill:#D2E0FB;}
	.st51{fill:#3C3E4B;}
	.st52{fill:#FFFFFF;}
	.st53{opacity:0.3;}
	.st54{fill:#5465C1;}
	.st55{fill:#B95438;}
	.st56{fill:url(#SVGID_9_);}
	.st57{fill:url(#SVGID_10_);}
	.st58{fill:#7893A4;}
	.st59{fill:#BA77AD;}
	.st60{fill:#B48CCB;}
	.st61{fill:#9D7FB2;}
	.st62{fill:#88729B;}
	.st63{fill:#C5B0EB;}
	.st64{fill:#A0C3E9;}
	.st65{fill:url(#SVGID_11_);}
	.st66{fill:url(#SVGID_12_);}
	.st67{fill:#A3C0D8;}
	.st68{fill:#D88A5A;}
	.st69{fill:#9C9777;}
	.st70{fill:#A2A793;}
	.st71{fill:#636864;}
	.st72{fill:#0C0C0C;}
	.st73{fill:#26240B;}
	.st74{fill:#A5A174;}
	.st75{fill:#F2B879;}
	.st76{fill:#8D897E;}
	.st77{fill:#D8AD5E;}
	.st78{fill:#B3AF80;}
	.st79{fill:url(#SVGID_13_);}
	.st80{fill:url(#SVGID_14_);}
	.st81{fill:#231F1E;}
	.st82{fill:#302C2D;}
	.st83{fill:#C96B49;}
	.st84{fill:#535454;}
	.st85{fill:#494949;}
	.st86{fill:#71797C;}
	.st87{fill:#DFC571;}
	.st88{fill:#C05648;}
	.st89{fill:#D3CF78;}
	.st90{fill:#BD5B42;}
	.st91{fill:#5086F3;}
	.st92{fill:#4B4724;}
	.st93{fill:#877D40;}
	.st94{fill:#62AAFC;}
	.st95{fill:#A64C34;}
	.st96{fill:#BB5338;}
	.st97{fill:#A0A035;}
	.st98{fill:#3750B5;}
	.st99{fill:#A3A034;}
	.st100{fill:#D1D540;}
	.st101{fill:#2A417A;}
	.st102{fill:#C0664E;}
	.st103{fill:#7F7F7F;}
	.st104{fill:#6C8AA4;}
	.st105{fill:#4F5249;}
	.st106{fill:url(#SVGID_15_);}
	.st107{fill:url(#SVGID_16_);}
	.st108{fill:#5B969C;}
	.st109{fill:#9FACC1;}
	.st110{fill:#D8BF48;}
	.st111{fill:#CB8142;}
	.st112{fill:#D7A23C;}
	.st113{fill:#5B5D5C;}
	.st114{fill:#60868F;}
	.st115{fill:#6BADBB;}
	.st116{fill:#798293;}
	.st117{fill:#52575A;}
	.st118{fill:#757C84;}
	.st119{fill:#54483A;}
	.st120{fill:#9B8973;}
	.st121{fill:none;}
	.st122{fill:#495370;}
	.st123{fill:url(#SVGID_17_);}
	.st124{fill:url(#SVGID_18_);}
	.st125{fill:#BFAF5C;}
	.st126{fill:#E28D4D;}
	.st127{fill:#C78636;}
	.st128{fill:#BE7A33;}
	.st129{fill:#CB9336;}
	.st130{fill:#767C7A;}
	.st131{fill:#D8DCE5;}
	.st132{fill:#CFD3D1;}
	.st133{stroke:#000000;stroke-miterlimit:10;}
	.st134{fill:#FFFFFF;stroke:#000000;stroke-miterlimit:10;}
	.st135{stroke:#000000;stroke-linecap:round;stroke-linejoin:round;stroke-miterlimit:10;}
</style>
<g id="IMG_x5F_1254_xA0_Image_1_">
</g>
<g id="Layer_2">
	<g>
		<radialGradient id="SVGID_1_" cx="282.5484" cy="391.4055" r="341.3443" gradientUnits="userSpaceOnUse">
			<stop  offset="0" style="stop-color:#99C1DA"/>
			<stop  offset="1" style="stop-color:#6FC0DE"/>
		</radialGradient>
		<rect class="st0" width="565.1" height="782.8"/>
		
			<linearGradient id="SVGID_2_" gradientUnits="userSpaceOnUse" x1="282.4524" y1="760.5668" x2="282.6494" y2="3.6232" gradientTransform="matrix(1 0 0 0.4621 0 420.9854)">
			<stop  offset="0" style="stop-color:#B7D856"/>
			<stop  offset="0.6916" style="stop-color:#CAD19E"/>
			<stop  offset="1" style="stop-color:#D4D754"/>
		</linearGradient>
		<rect y="421.1" class="st1" width="565.1" height="361.7"/>
	</g>
	<path class="st13" d="M345.7,421.8c0,0-2.2-30.4,30.4-29.3c0,0,4.4-31.5,31.5-31.5c27.1,0,34.1,13.7,38.6,26.7
		c0,0,25.9-10,41.1,5.6c15.2,15.6,12.2,28.5,12.2,28.5H345.7z"/>
	<g>
		<polygon class="st34" points="41.2,304.3 65.3,328.4 57.8,339 32.3,314 		"/>
		<polygon class="st35" points="50.2,334 50.2,334 48.9,334.7 48.9,334.7 47.7,335.4 58.6,344.8 59.8,344.1 61,343.4 62.3,342.7 
			51.4,333.3 		"/>
		<polygon class="st25" points="51.4,333.3 52.8,329.7 63.6,339 62.3,342.7 		"/>
		<polygon class="st36" points="57.8,312.6 85.9,302.5 85.9,327.9 57.8,339 		"/>
		<g>
			<polygon class="st32" points="52.8,329.7 51.6,330.4 51.4,330.8 51.6,330.4 50.4,331.1 48.9,334.7 50.2,334 50.2,334 51.4,333.3 
							"/>
			<polygon class="st32" points="50.4,331 49.1,331.7 47.7,335.4 48.9,334.7 			"/>
		</g>
	</g>
	<g>
		<polygon class="st2" points="443.2,448.8 425.3,455.5 390.8,435.1 		"/>
		<g>
			<polygon class="st24" points="422.8,440.8 425.3,441 425.3,455.5 422.8,454.6 			"/>
			<polygon class="st25" points="427.9,440.8 425.3,441 425.3,455.5 427.9,454.6 			"/>
			<polygon class="st26" points="425.3,376.4 425.3,445.8 406.8,439.2 			"/>
			<polygon class="st27" points="443.2,439 425.3,445.8 425.3,376.6 			"/>
		</g>
	</g>
	<g>
		<polygon class="st2" points="462.6,470 444.7,476.8 410.2,456.3 		"/>
		<g>
			<polygon class="st24" points="442.2,462.1 444.7,462.2 444.7,476.8 442.2,475.9 			"/>
			<polygon class="st25" points="447.3,462.1 444.7,462.2 444.7,476.8 447.3,475.8 			"/>
			<polygon class="st26" points="444.7,397.6 444.7,467 426.3,460.5 			"/>
			<polygon class="st27" points="462.6,460.3 444.7,467 444.7,397.8 			"/>
		</g>
	</g>
	<g>
		<polygon class="st2" points="515,459.5 497.2,466.2 462.6,445.8 		"/>
		<g>
			<polygon class="st24" points="494.6,451.6 497.2,451.7 497.2,466.2 494.6,465.3 			"/>
			<polygon class="st25" points="499.7,451.6 497.2,451.7 497.2,466.2 499.7,465.3 			"/>
			<polygon class="st26" points="497.2,387.1 497.2,456.5 478.7,449.9 			"/>
			<polygon class="st27" points="515,449.7 497.2,456.5 497.2,387.3 			"/>
		</g>
	</g>
	<g>
		<polygon class="st27" points="358.1,782.2 284.5,782.4 284.5,782.4 280.1,748.1 268.7,746.6 263.4,703.2 290.3,707.6 292.8,725 
			323.5,732.3 325.7,752.9 354.7,759.2 		"/>
		<polygon class="st53" points="354,782.4 355.3,759.1 343.7,757.9 339.5,782.8 		"/>
		<polygon class="st27" points="350,613.6 371,637.4 368.9,656.1 392.6,684.2 389,704.2 418.3,737.9 406.5,782.6 350.2,782.8 
			345,779.9 353.4,729.8 343.5,717.2 351.3,667.8 342.6,656.7 		"/>
		<polygon class="st53" points="402.2,774.9 412.1,737.5 399.2,722.3 390.6,742.8 		"/>
		<polygon class="st27" points="445.7,597.9 457.4,634.7 450.2,649 462.4,690.2 454.3,707.6 469.6,760.2 461.9,782.2 409.3,782.4 
			395.4,742.1 415.6,706.8 412,682.8 432.5,647.5 427.3,630.5 		"/>
		<g class="st53">
			
				<image style="overflow:visible;" width="93" height="116" xlink:href="65D2BB6B6142DA01.png"  transform="matrix(1 0 0 1 411.4261 702.6718)">
			</image>
		</g>
		<polygon class="st53" points="466.3,782.4 467.7,755.3 462.4,739 447.8,782.1 		"/>
		<polygon class="st27" points="539.2,659.8 537,701.3 528.3,705.2 527.5,754.5 514.7,761.6 517.4,782.2 517.4,782.2 453.4,782.5 
			464.8,746.6 483.3,733.1 485.6,712.3 513.2,693.5 513.6,675.4 		"/>
	</g>
	<g>
		<polygon class="st19" points="0,560 565.1,562.3 0,565.3 		"/>
		<polygon class="st20" points="565.1,557.7 565.1,562.3 59.1,560 		"/>
		<polygon class="st21" points="565.1,557.7 262.8,559.1 380.6,555.4 		"/>
		<polygon class="st22" points="0,569.9 0,565.3 565.1,562.3 565.1,563.5 		"/>
	</g>
	<g>
		<polygon class="st81" points="187.3,525.6 225.1,535.9 225.1,509.3 187.3,498.8 		"/>
		<polygon class="st82" points="225.1,535.7 240.9,529.5 240.9,502 225.1,509.3 		"/>
		<path class="st83" d="M417.9,225.5L417.9,225.5l-23.8,8.7l-2.2,105.6l92.9,23.1l24.9-8.6C506.8,254.8,419.2,225.9,417.9,225.5z"/>
		<polygon class="st84" points="95.1,363.4 186.4,389.6 246.5,369.3 155.2,343.1 		"/>
		<polygon class="st85" points="129.4,474.4 129.4,684.4 151.9,677.4 151.9,467.4 		"/>
		<polygon class="st5" points="117.4,511.4 129.9,514.4 129.9,684.4 117.4,681.3 		"/>
		<polygon class="st85" points="107.6,474.4 107.6,644.4 167.7,624.2 167.7,454.1 		"/>
		<polygon class="st8" points="186.4,210.4 232.1,223.5 232.1,402.9 186.4,389.8 		"/>
		<polygon class="st5" points="186.4,499.9 232.1,513 232.1,402.9 186.4,389.8 		"/>
		<polygon class="st10" points="232.1,513 292.2,491.7 292.2,380.6 232.1,402.9 		"/>
		<polygon class="st5" points="95.1,473.7 140.7,486.8 140.7,376.7 95.1,363.6 		"/>
		<polygon class="st5" points="95.1,471.4 107.6,474.4 107.6,644.4 95.1,641.3 		"/>
		<polygon class="st5" points="186.4,195.9 232.1,208.9 232.1,223.5 186.4,210.3 		"/>
		<polygon class="st84" points="140.7,182.7 232.1,208.9 292.2,188.7 200.9,162.4 		"/>
		<polygon points="131.7,683.4 129.4,684.4 129.4,482.8 131.7,481.8 		"/>
		<polygon points="151.9,677.3 149.6,678.2 149.6,476.7 151.9,475.7 		"/>
		<g>
			<polygon class="st81" points="116.2,536.5 153.9,546.9 153.9,490.7 116.2,480.3 			"/>
			<polygon class="st82" points="153.9,546.9 169.8,540.6 169.8,483.4 153.9,490.7 			"/>
		</g>
		<polygon class="st86" points="217.4,546.2 213.4,549.6 213.4,555.4 228.4,559.5 228.4,572.2 220.9,569.9 220.9,576.8 231.7,580.1 
			235.6,578.4 235.6,551.9 		"/>
		<polygon class="st2" points="194.2,556.3 194.2,549.6 176.5,544.7 172.5,548 172.5,550.4 		"/>
		<polygon class="st2" points="194.2,556.3 194.2,549.6 176.5,544.7 172.5,548 172.5,550.4 		"/>
		<polygon class="st2" points="217,556.6 217,549.9 214.3,548.9 213.4,549.6 213.4,555.4 		"/>
		<polygon class="st86" points="157.9,537.1 153.9,540.4 153.9,546.2 207.8,559.5 207.8,572.2 200.4,569.9 200.4,576.8 211.2,580.1 
			215.1,578.4 215.1,551.9 		"/>
		<polygon class="st2" points="194.2,556.3 194.2,549.6 176.5,544.7 172.5,548 172.5,550.4 		"/>
		<polygon class="st86" points="177.2,547.6 173.3,550.9 173.3,556.7 188.2,560.9 188.2,573.6 180.7,571.3 180.7,578.1 191.5,581.5 
			195.5,579.8 195.5,553.2 		"/>
		<polygon class="st5" points="140.7,486.8 186.4,499.8 186.4,195.9 140.7,182.7 		"/>
		<polygon points="140.7,486.8 143,487.4 143,183.4 140.7,182.7 		"/>
		<polygon points="185.3,499.6 187.5,500.1 187.5,196.2 185.3,195.5 		"/>
		<polygon points="243.3,174.9 245.6,175.5 187.5,196.2 185.3,195.5 		"/>
		<polygon class="st13" points="232.1,223.5 292.2,202.2 292.2,380.6 232.1,402.9 		"/>
		<polygon class="st10" points="232.1,208.9 292.2,188.7 292.2,202.2 232.1,223.5 		"/>
		<polygon points="95.1,473.7 232.1,513 232.1,510.8 95.1,471.4 		"/>
		<g>
			<polygon class="st5" points="217.9,257.6 210.3,255.6 210.3,246.5 217.9,248.5 			"/>
			<polygon class="st10" points="220.3,256.3 217.9,257.6 217.9,248.5 220.3,247.2 			"/>
			<polygon class="st10" points="212.7,245.1 210.3,246.5 217.9,248.5 220.3,247.2 			"/>
		</g>
		<polygon class="st87" points="256.2,201 394.2,234.1 394.2,340.4 256.2,307.2 		"/>
		<polygon class="st2" points="278.7,298 255.9,307.1 255.9,504 278.8,495.6 		"/>
		<polygon class="st87" points="256.2,201 394.2,234.1 394.2,340.4 256.2,307.2 		"/>
		<path class="st88" d="M484.8,362.9l-91.7-22.6V234.1C393.1,234.1,481.9,262.7,484.8,362.9z"/>
		<polygon class="st89" points="394.2,234.1 256.2,201 280.4,192.4 417.9,225.4 		"/>
		<polygon points="256.2,307.2 258.5,307.8 258.5,201.6 256.2,201 		"/>
		<polygon points="391.9,339.8 394.2,340.4 394.2,234.2 391.9,233.5 		"/>
		<polygon points="416.1,225 418.4,225.6 394.2,234.3 391.9,233.6 		"/>
		<polygon points="280.4,192.4 282.7,192.9 258.5,201.6 256.2,201 		"/>
		<polygon class="st86" points="326.8,545.5 322.9,548.8 322.9,554.6 337.9,558.8 337.9,571.5 330.4,569.2 330.4,576 341.2,579.4 
			345.1,577.7 345.1,551.1 		"/>
		<polygon class="st2" points="326.4,555.8 326.4,549.1 323.6,548 322.8,548.7 322.8,554.6 		"/>
		<polygon class="st86" points="229.3,526.5 225.3,529.8 225.3,535.6 317.3,558.8 317.3,571.5 309.9,569.2 309.9,576 320.7,579.4 
			324.6,577.7 324.6,551.1 		"/>
		<polygon class="st2" points="303.1,556.3 303.1,549.6 285.3,544.7 281.4,548 281.4,550.4 		"/>
		<polygon class="st86" points="286.7,546.9 282.7,550.2 282.7,556 297.7,560.1 297.7,572.8 290.2,570.5 290.2,577.4 301,580.7 
			305,579 305,552.5 		"/>
	</g>
	<g>
		<polygon class="st16" points="494.5,566.2 498.7,564.3 499.4,576.6 494.5,579.1 		"/>
		<polygon class="st17" points="494.5,566.2 498.7,564.3 490.9,552.1 487.2,553.9 		"/>
		<polygon class="st18" points="490.9,549.5 500,563.8 501,576.9 499.4,576.5 498.7,564.2 490.9,552 487.2,552 487.2,550.6 		"/>
		<polygon class="st18" points="495.7,579.8 494.5,579.1 499.4,576.5 501,576.9 		"/>
		<polygon class="st23" points="477,557.1 482.1,557.1 482.1,570.8 476.6,570.8 		"/>
		<polygon class="st16" points="477.2,552.8 482.1,552.8 482.1,557.1 477,557.1 		"/>
		<polygon class="st17" points="468.1,552.1 473.1,552.1 473.1,570.8 467.7,570.8 		"/>
		<polygon class="st16" points="462.8,550.7 467.7,550.7 467.9,582.6 462.8,582.6 		"/>
		<polygon class="st23" points="485.8,559.5 490.9,559.5 490.9,570.8 485.5,570.8 		"/>
		<polygon class="st16" points="486,552.1 490.9,552.1 490.9,559.2 485.8,559.2 		"/>
	</g>
	<path class="st13" d="M369.6,61.3c0,0,31.8-35.1,74.5-8.8c0,0,20.8-9.9,27.4,8.8c0,0,35.1,15.1,26.3,50.8
		c-8.8,35.7-41.6,24.7-41.6,24.7s-27.4,36.2-71.2,11c0,0-26.3,9.9-30.7-12.1c0,0-32.9-10.7-29.6-36S348.8,59.2,369.6,61.3z"/>
	<g>
		<path class="st5" d="M357.1,91.5c0.4-2.5,1.1-4.6,2.1-6.5c1-1.8,2.3-3.4,3.8-4.6c1.5-1.2,3.3-2.1,5.2-2.7c2-0.6,4.1-0.9,6.4-0.9
			c2.4,0,4.6,0.3,6.5,1c1.9,0.7,3.5,1.6,4.8,2.8c1.3,1.2,2.3,2.5,3,4.1c0.7,1.6,1,3.2,1,4.9c0,1.6-0.2,2.9-0.5,4.1
			c-0.3,1.2-0.8,2.2-1.4,3.1c-0.6,0.9-1.4,1.6-2.3,2.2c-0.9,0.6-2,1.1-3.1,1.5c5.5,1.9,8.2,5.7,8.2,11.2c0,2.6-0.5,4.9-1.4,6.9
			c-1,1.9-2.2,3.6-3.8,4.9c-1.6,1.3-3.4,2.3-5.6,2.9s-4.3,1-6.6,1c-2.4,0-4.5-0.3-6.3-0.8c-1.8-0.5-3.5-1.3-4.9-2.4
			c-1.4-1.1-2.7-2.5-3.8-4.1c-1.1-1.7-2-3.7-2.8-6l4.7-1.9c1.2-0.5,2.4-0.6,3.4-0.4c1,0.2,1.8,0.7,2.2,1.6c1,1.9,2.1,3.2,3.2,4.1
			c1.1,0.8,2.5,1.3,4,1.3c1.2,0,2.2-0.2,3.1-0.6s1.6-0.9,2.2-1.5c0.6-0.6,1-1.3,1.3-2.1c0.3-0.8,0.4-1.6,0.4-2.4
			c0-1.1-0.1-2-0.2-2.9s-0.6-1.6-1.2-2.2c-0.7-0.6-1.7-1.1-3.1-1.4c-1.4-0.3-3.3-0.5-5.7-0.5V98c2.1,0,3.7-0.2,5-0.5
			c1.3-0.3,2.2-0.8,2.9-1.3c0.7-0.6,1.1-1.2,1.4-2s0.3-1.7,0.3-2.6c0-1.9-0.5-3.4-1.4-4.5c-0.9-1.1-2.4-1.6-4.3-1.6
			c-1.6,0-2.9,0.4-4,1.2c-1.1,0.8-1.8,1.9-2.2,3.1c-0.5,1.2-1.1,2.1-1.9,2.5c-0.8,0.4-1.9,0.5-3.3,0.3L357.1,91.5z"/>
		<path class="st5" d="M408.7,126.5c-0.2,0.6-0.6,1.2-1,1.6c-0.4,0.5-0.8,0.9-1.3,1.2s-1,0.6-1.6,0.7c-0.6,0.2-1.1,0.2-1.6,0.2h-4.5
			L418,79.6c0.5-1.2,1.1-2,2.1-2.6c0.9-0.6,2-0.9,3.2-0.9h4.5L408.7,126.5z"/>
		<path class="st5" d="M470.8,107.7v5.9c0,0.5-0.2,1-0.5,1.4c-0.4,0.4-0.9,0.6-1.5,0.6h-3.1v11.4h-9.2v-11.4h-19.9
			c-0.7,0-1.3-0.2-1.8-0.6c-0.5-0.4-0.9-0.9-1-1.5l-1.1-5.2l22.9-30.8h10.1v30.3H470.8z M456.6,107.7V94.8c0-0.8,0-1.6,0.1-2.6
			c0.1-0.9,0.1-1.9,0.3-2.9l-13.1,18.3H456.6z"/>
	</g>
	<g>
		<polygon class="st27" points="92.1,687.2 108.6,700.7 107,711.3 125.6,727.2 122.8,738.5 145.9,757.6 136.5,782.9 92.3,783.1 
			88.2,781.4 94.8,753.1 87,745.9 93.1,717.9 86.3,711.6 		"/>
		<polygon class="st53" points="133.2,778.6 141,757.4 130.8,748.8 124.1,760.4 		"/>
		<polygon class="st27" points="167.4,678.3 176.6,699.2 171,707.3 180.5,730.6 174.1,740.5 186.2,770.2 180.1,782.7 138.8,782.9 
			127.8,760 143.7,740 140.9,726.4 157,706.4 152.9,696.8 		"/>
		<g class="st53">
			
				<image style="overflow:visible;" width="89" height="98" xlink:href="65D2BB6B6142DA03.png"  transform="matrix(1 0 0 1 132.4261 721.6718)">
			</image>
		</g>
		<polygon class="st53" points="183.6,782.9 184.7,767.5 180.5,758.2 169,782.7 		"/>
		<polygon class="st27" points="240.9,713.4 239.2,736.9 232.4,739.1 231.8,767 221.7,771.1 223.8,782.7 223.8,782.7 173.5,782.9 
			182.5,762.6 197,754.9 198.8,743.2 220.5,732.5 220.8,722.2 		"/>
	</g>
</g>
</svg>
