<?xml version="1.0" encoding="utf-8"?>
<!-- Generator: Adobe Illustrator 24.1.2, SVG Export Plug-In . SVG Version: 6.00 Build 0)  -->
<svg version="1.1" xmlns="http://www.w3.org/2000/svg" xmlns:xlink="http://www.w3.org/1999/xlink" x="0px" y="0px"
	 viewBox="0 0 565.1 782.8" style="enable-background:new 0 0 565.1 782.8;" xml:space="preserve">
<style type="text/css">
	.st0{fill:url(#SVGID_1_);}
	.st1{fill:url(#SVGID_2_);}
	.st2{opacity:0.23;fill:#444444;}
	.st3{fill:#3B435E;}
	.st4{fill:#202433;}
	.st5{fill:#333333;}
	.st6{fill:url(#SVGID_3_);}
	.st7{fill:url(#SVGID_4_);}
	.st8{fill:#9BA4A1;}
	.st9{fill:#E4EFEB;}
	.st10{fill:#444444;}
	.st11{fill:none;stroke:#FFFFFF;stroke-linecap:round;stroke-miterlimit:10;}
	.st12{fill:none;stroke:#000000;stroke-miterlimit:10;}
	.st13{fill:#EBF1FF;}
	.st14{fill:url(#SVGID_5_);}
	.st15{fill:url(#SVGID_6_);}
	.st16{fill:#BFD8F7;}
	.st17{fill:#6E7C89;}
	.st18{fill:#40484F;}
	.st19{fill:#A4B3D0;}
	.st20{fill:#8A9BB5;}
	.st21{fill:#C1DAF9;}
	.st22{fill:#4A5059;}
	.st23{fill:#605F68;}
	.st24{fill:#B4AA91;}
	.st25{fill:#837960;}
	.st26{fill:#1D3F1D;}
	.st27{fill:#459B45;}
	.st28{fill:#FFF0CF;}
	.st29{fill:#B77A37;}
	.st30{fill:#E29942;}
	.st31{fill:#D9B15C;}
	.st32{fill:#CEBE99;}
	.st33{fill:#3C3B41;}
	.st34{fill:#EEFFA6;}
	.st35{fill:#474135;}
	.st36{fill:#D8EF84;}
	.st37{fill:#AECFEE;}
	.st38{fill:#5483AD;}
	.st39{fill:#335066;}
	.st40{fill:#61A1C1;}
	.st41{fill:#6394B4;}
	.st42{fill:#88BBD6;}
	.st43{fill:#ABDAEF;}
	.st44{fill:#839945;}
	.st45{fill:#193019;}
	.st46{fill:#346B34;}
	.st47{fill:url(#SVGID_7_);}
	.st48{fill:url(#SVGID_8_);}
	.st49{fill:#5659BA;}
	.st50{fill:#D2E0FB;}
	.st51{fill:#3C3E4B;}
	.st52{fill:#FFFFFF;}
	.st53{opacity:0.3;}
	.st54{fill:#5465C1;}
	.st55{fill:#B95438;}
	.st56{fill:url(#SVGID_9_);}
	.st57{fill:url(#SVGID_10_);}
	.st58{fill:#7893A4;}
	.st59{fill:#BA77AD;}
	.st60{fill:#B48CCB;}
	.st61{fill:#9D7FB2;}
	.st62{fill:#88729B;}
	.st63{fill:#C5B0EB;}
	.st64{fill:#A0C3E9;}
	.st65{fill:url(#SVGID_11_);}
	.st66{fill:url(#SVGID_12_);}
	.st67{fill:#A3C0D8;}
	.st68{fill:#D88A5A;}
	.st69{fill:#9C9777;}
	.st70{fill:#A2A793;}
	.st71{fill:#636864;}
	.st72{fill:#0C0C0C;}
	.st73{fill:#26240B;}
	.st74{fill:#A5A174;}
	.st75{fill:#F2B879;}
	.st76{fill:#8D897E;}
	.st77{fill:#D8AD5E;}
	.st78{fill:#B3AF80;}
	.st79{fill:url(#SVGID_13_);}
	.st80{fill:url(#SVGID_14_);}
	.st81{fill:#231F1E;}
	.st82{fill:#302C2D;}
	.st83{fill:#C96B49;}
	.st84{fill:#535454;}
	.st85{fill:#494949;}
	.st86{fill:#71797C;}
	.st87{fill:#DFC571;}
	.st88{fill:#C05648;}
	.st89{fill:#D3CF78;}
	.st90{fill:#BD5B42;}
	.st91{fill:#5086F3;}
	.st92{fill:#4B4724;}
	.st93{fill:#877D40;}
	.st94{fill:#62AAFC;}
	.st95{fill:#A64C34;}
	.st96{fill:#BB5338;}
	.st97{fill:#A0A035;}
	.st98{fill:#3750B5;}
	.st99{fill:#A3A034;}
	.st100{fill:#D1D540;}
	.st101{fill:#2A417A;}
	.st102{fill:#C0664E;}
	.st103{fill:#7F7F7F;}
	.st104{fill:#6C8AA4;}
	.st105{fill:#4F5249;}
	.st106{fill:url(#SVGID_15_);}
	.st107{fill:url(#SVGID_16_);}
	.st108{fill:#5B969C;}
	.st109{fill:#9FACC1;}
	.st110{fill:#D8BF48;}
	.st111{fill:#CB8142;}
	.st112{fill:#D7A23C;}
	.st113{fill:#5B5D5C;}
	.st114{fill:#60868F;}
	.st115{fill:#6BADBB;}
	.st116{fill:#798293;}
	.st117{fill:#52575A;}
	.st118{fill:#757C84;}
	.st119{fill:#54483A;}
	.st120{fill:#9B8973;}
	.st121{fill:none;}
	.st122{fill:#495370;}
	.st123{fill:url(#SVGID_17_);}
	.st124{fill:url(#SVGID_18_);}
	.st125{fill:#BFAF5C;}
	.st126{fill:#E28D4D;}
	.st127{fill:#C78636;}
	.st128{fill:#BE7A33;}
	.st129{fill:#CB9336;}
	.st130{fill:#767C7A;}
	.st131{fill:#D8DCE5;}
	.st132{fill:#CFD3D1;}
	.st133{stroke:#000000;stroke-miterlimit:10;}
	.st134{fill:#FFFFFF;stroke:#000000;stroke-miterlimit:10;}
	.st135{stroke:#000000;stroke-linecap:round;stroke-linejoin:round;stroke-miterlimit:10;}
</style>
<g id="IMG_x5F_1254_xA0_Image_1_">
</g>
<g id="Layer_2">
	<g>
		<radialGradient id="SVGID_1_" cx="282.5484" cy="391.4055" r="341.3443" gradientUnits="userSpaceOnUse">
			<stop  offset="0" style="stop-color:#99C1DA"/>
			<stop  offset="1" style="stop-color:#6FC0DE"/>
		</radialGradient>
		<rect class="st0" width="565.1" height="782.8"/>
		
			<linearGradient id="SVGID_2_" gradientUnits="userSpaceOnUse" x1="282.4524" y1="1917.2957" x2="282.6494" y2="1160.3521" gradientTransform="matrix(1 0 0 0.4621 0 -113.5178)">
			<stop  offset="0" style="stop-color:#B7D856"/>
			<stop  offset="0.6916" style="stop-color:#CAD19E"/>
			<stop  offset="1" style="stop-color:#D4D754"/>
		</linearGradient>
		<rect y="421.1" class="st1" width="565.1" height="361.7"/>
	</g>
	<g>
		<polygon class="st19" points="0,560 565.1,562.3 0,565.3 		"/>
		<polygon class="st20" points="565.1,557.7 565.1,562.3 59.1,560 		"/>
		<polygon class="st21" points="565.1,557.7 262.8,559.1 380.6,555.4 		"/>
		<polygon class="st22" points="0,569.9 0,565.3 565.1,562.3 565.1,563.5 		"/>
	</g>
	<g>
		<polygon class="st58" points="281.3,609.2 271.5,599.4 170.7,700.3 171,700.6 170.9,700.6 170.9,782.8 184.7,782.8 184.7,705.8 		
			"/>
		<polygon class="st59" points="93.1,659 174.4,577.6 174.4,564 93.1,645.3 		"/>
		
			<rect x="148.9" y="543.4" transform="matrix(-0.7071 0.7071 -0.7071 -0.7071 777.3752 879.827)" class="st60" width="115.1" height="115.1"/>
		
			<rect x="131.3" y="640.6" transform="matrix(-0.7071 0.7071 -0.7071 -0.7071 718.6255 1008.7022)" class="st61" width="38.3" height="25.2"/>
		
			<rect x="92.6" y="632.7" transform="matrix(-0.7071 0.7071 -0.7071 -0.7071 668.8406 1013.5894)" class="st60" width="63.8" height="25.2"/>
		
			<rect x="166.2" y="651.1" transform="matrix(-0.7071 0.7071 -0.7071 -0.7071 768.385 1009.0699)" class="st62" width="17.9" height="25.2"/>
		<polygon class="st63" points="206.5,493.8 206.5,519.6 287.8,600.9 287.8,575.1 		"/>
		<polygon points="310.2,281.8 336.8,255.1 368.7,287 366.2,304.9 349.4,321 		"/>
		<polygon class="st63" points="241,500 241,515.4 322.3,596.8 322.3,581.3 		"/>
		<polygon class="st59" points="125.1,600.9 206.5,519.6 206.5,493.8 125.1,575.1 		"/>
		<polygon class="st61" points="322.3,596.6 307.4,581.6 307.3,581.7 241,515.5 226,530.4 287.9,592.3 287.8,601.1 226,663 241,678 
			307.3,611.7 307.4,611.8 322.3,596.8 322.2,596.7 		"/>
		<polygon class="st63" points="275.3,505.2 275.3,518.1 356.6,599.4 356.6,586.5 		"/>
		<polygon class="st63" points="423.2,500 217.9,294.9 217.9,282 423.2,487.1 		"/>
		<polygon class="st59" points="317.3,554.9 378.3,493.9 378.3,486.3 317.3,547.3 		"/>
		<polygon class="st60" points="423.2,500.2 397.6,474.6 217.9,294.9 271.7,241.2 279.8,249.3 305.3,223.7 297.3,215.6 297.4,215.4 
			271.9,189.8 271.7,190 271.5,189.8 245.9,215.4 246.1,215.6 192.3,269.4 166.8,294.9 192.3,320.5 372,500.2 317.1,555.1 
			342.7,580.6 397.6,525.7 		"/>
		<polygon class="st59" points="166.6,294.9 271.7,189.8 271.7,176.9 166.6,282 		"/>
		<polygon class="st63" points="305.3,223.7 271.7,189.8 271.7,176.9 305.3,210.8 		"/>
		
			<rect x="283.3" y="233" transform="matrix(-0.7071 0.7071 -0.7071 -0.7071 701.6035 219.5592)" class="st13" width="44.1" height="44.1"/>
		<polygon class="st9" points="305.3,209.8 305.3,223.9 336.5,255.1 336.5,241 		"/>
		<polygon class="st59" points="260.8,532.5 275.3,518 275.3,505.2 260.8,519.7 		"/>
		<polyline class="st62" points="275.3,518.2 260.8,532.5 323.2,595 318.2,600 256.4,661.8 273.4,678.8 356.6,599.5 356.5,599.4 
			356.6,599.3 		"/>
		<polygon class="st59" points="226.5,530.9 241,516.4 241,500 226.5,514.5 		"/>
		<polygon class="st5" points="358.3,265.7 336.8,244.3 336.8,255.1 358.3,276.5 368.7,287 		"/>
		<path d="M299.2,249.7L299.2,249.7c0-3,2.4-5.4,5.4-5.4l0,0c3,0,5.4,2.4,5.4,5.4l0,0c0,3-2.4,5.4-5.4,5.4l0,0
			C301.6,255.1,299.2,252.7,299.2,249.7z"/>
		<polygon class="st5" points="274.2,255.1 274.2,244.3 279.8,249.3 		"/>
		<polygon class="st64" points="251.3,657.3 241.6,647.5 140.7,748.3 141.1,748.7 140.9,748.7 140.9,782.8 154.7,782.8 154.7,753.9 
					"/>
		<polygon class="st58" points="248,641.1 241.6,647.6 251.3,657.4 251.3,644.5 		"/>
	</g>
	<g>
		<polygon class="st16" points="418.9,566.2 423.1,564.3 423.8,576.6 418.9,579.1 		"/>
		<polygon class="st17" points="418.9,566.2 423.1,564.3 415.3,552.1 411.6,553.9 		"/>
		<polygon class="st18" points="415.3,549.5 424.4,563.8 425.4,576.9 423.8,576.5 423.1,564.2 415.3,552 411.6,552 411.6,550.6 		
			"/>
		<polygon class="st18" points="420.1,579.8 418.9,579.1 423.8,576.5 425.4,576.9 		"/>
		<polygon class="st23" points="401.4,557.1 406.5,557.1 406.5,570.8 401.1,570.8 		"/>
		<polygon class="st16" points="401.6,552.8 406.5,552.8 406.5,557.1 401.4,557.1 		"/>
		<polygon class="st17" points="392.5,552.1 397.6,552.1 397.6,570.8 392.1,570.8 		"/>
		<polygon class="st16" points="387.2,550.7 392.1,550.7 392.3,582.6 387.2,582.6 		"/>
		<polygon class="st23" points="410.3,559.5 415.3,559.5 415.3,570.8 409.9,570.8 		"/>
		<polygon class="st16" points="410.4,552.1 415.3,552.1 415.3,559.2 410.3,559.2 		"/>
	</g>
	<path class="st13" d="M369.6,61.3c0,0,31.8-35.1,74.5-8.8c0,0,20.8-9.9,27.4,8.8c0,0,35.1,15.1,26.3,50.8
		c-8.8,35.7-41.6,24.7-41.6,24.7s-27.4,36.2-71.2,11c0,0-26.3,9.9-30.7-12.1c0,0-32.9-10.7-29.6-36S348.8,59.2,369.6,61.3z"/>
	<g>
		<polygon class="st37" points="119.2,98.4 111.6,97.3 97.2,136.9 103.6,138.7 		"/>
		<g>
			<polygon class="st38" points="102.8,138.5 102.8,138.5 103.1,139.1 103.1,139.1 103.4,139.7 96.5,140.6 96.2,140 95.9,139.4 
				95.6,138.8 102.4,137.9 			"/>
			<polygon class="st39" points="102.4,137.9 102.8,136 96,137 95.6,138.8 			"/>
			<g>
				<polygon class="st40" points="102.8,136 103.1,136.6 103.1,136.9 103.2,136.6 103.5,137.2 103.1,139.1 102.8,138.5 102.8,138.5 
					102.4,137.9 				"/>
				<polygon class="st40" points="103.5,137.2 103.8,137.8 103.4,139.7 103.1,139.1 				"/>
			</g>
		</g>
		<g>
			<polygon class="st41" points="94.4,98.5 86,98.2 95.7,137.9 102.6,136.9 			"/>
			<polygon class="st42" points="94.6,98.1 94.5,98.5 86,98.2 86.1,97.7 			"/>
			<polygon class="st43" points="94.5,98.5 102.6,136.9 94.6,98.1 			"/>
		</g>
	</g>
	<polygon class="st27" points="381.2,687.4 369.6,730.2 381.2,782.8 397.4,782.8 	"/>
	<polygon class="st45" points="460.5,615.1 443.1,654.4 436.8,782.8 457.6,782.8 	"/>
	<polygon class="st44" points="414.8,655.6 429.2,615.1 443.1,782.8 424,782.8 	"/>
	<polygon class="st27" points="506.2,659 486.5,693.8 477.9,782.8 494.6,782.8 	"/>
	<polygon class="st44" points="534,720.9 512.6,752.8 506.2,782.8 523,782.8 	"/>
	<path class="st13" d="M451.8,297.7c0,0,11.2-25.1,34-23.3c22.8,1.9,33,20.9,33,20.9s34,9.8,21.9,39.6
		c-12.1,29.8-36.3,15.8-36.3,15.8s-4.7,7.9-20.9,7.9c-16.3,0-20.5-10.7-20.5-10.7s-4.7,4.7-15.8,2.3c-11.2-2.3-12.6-7.4-12.6-7.4
		s-15.4,7.9-23.3-8.8c-7.9-16.8,10.7-26.1,18.6-24.2C429.9,309.8,436.9,297.3,451.8,297.7z"/>
	<g>
		<path class="st59" d="M387.2,117.4c1.1,0,2,0.3,2.7,0.9c0.7,0.6,1,1.4,1,2.5v6.1h-34.8v-3.4c0-0.7,0.1-1.4,0.4-2.1
			c0.3-0.7,0.7-1.4,1.4-2l14.3-14.4c1.2-1.2,2.3-2.4,3.2-3.5c0.9-1.1,1.7-2.2,2.2-3.3c0.6-1.1,1-2.2,1.3-3.2
			c0.3-1.1,0.4-2.2,0.4-3.4c0-2-0.5-3.5-1.4-4.5c-0.9-1.1-2.4-1.6-4.3-1.6c-1.6,0-2.9,0.4-4,1.2c-1.1,0.8-1.8,1.9-2.2,3.1
			c-0.5,1.2-1.1,2.1-1.9,2.5c-0.8,0.4-1.9,0.5-3.3,0.3l-5.6-1c0.4-2.5,1.1-4.6,2.1-6.5c1-1.8,2.3-3.4,3.8-4.6
			c1.5-1.2,3.3-2.1,5.2-2.7c2-0.6,4.1-0.9,6.4-0.9c2.4,0,4.6,0.4,6.6,1.1c2,0.7,3.6,1.7,5,3c1.4,1.3,2.4,2.8,3.2,4.5
			c0.7,1.8,1.1,3.7,1.1,5.8c0,1.8-0.3,3.5-0.8,5c-0.5,1.5-1.2,3-2.1,4.4c-0.9,1.4-1.9,2.7-3.1,4c-1.2,1.3-2.4,2.6-3.7,4l-9.7,9.9
			c1.2-0.4,2.5-0.7,3.7-0.9c1.2-0.2,2.4-0.3,3.4-0.3H387.2z"/>
		<path class="st59" d="M408.7,126.5c-0.2,0.6-0.6,1.2-1,1.6c-0.4,0.5-0.8,0.9-1.3,1.2s-1,0.6-1.6,0.7c-0.6,0.2-1.1,0.2-1.6,0.2
			h-4.5L418,79.6c0.5-1.2,1.1-2,2.1-2.6c0.9-0.6,2-0.9,3.2-0.9h4.5L408.7,126.5z"/>
		<path class="st59" d="M435.9,91.5c0.4-2.5,1.1-4.6,2.1-6.5c1-1.8,2.3-3.4,3.8-4.6c1.5-1.2,3.3-2.1,5.2-2.7c2-0.6,4.1-0.9,6.4-0.9
			c2.4,0,4.6,0.3,6.5,1c1.9,0.7,3.5,1.6,4.8,2.8c1.3,1.2,2.3,2.5,3,4.1c0.7,1.6,1,3.2,1,4.9c0,1.6-0.2,2.9-0.5,4.1
			c-0.3,1.2-0.8,2.2-1.4,3.1c-0.6,0.9-1.4,1.6-2.3,2.2c-0.9,0.6-2,1.1-3.1,1.5c5.5,1.9,8.2,5.7,8.2,11.2c0,2.6-0.5,4.9-1.4,6.9
			c-1,1.9-2.2,3.6-3.8,4.9c-1.6,1.3-3.4,2.3-5.6,2.9s-4.3,1-6.6,1c-2.4,0-4.5-0.3-6.3-0.8c-1.8-0.5-3.5-1.3-4.9-2.4
			c-1.4-1.1-2.7-2.5-3.8-4.1c-1.1-1.7-2-3.7-2.8-6l4.7-1.9c1.2-0.5,2.4-0.6,3.4-0.4c1,0.2,1.8,0.7,2.2,1.6c1,1.9,2.1,3.2,3.2,4.1
			c1.1,0.8,2.5,1.3,4,1.3c1.2,0,2.2-0.2,3.1-0.6s1.6-0.9,2.2-1.5c0.6-0.6,1-1.3,1.3-2.1c0.3-0.8,0.4-1.6,0.4-2.4
			c0-1.1-0.1-2-0.2-2.9s-0.6-1.6-1.2-2.2c-0.7-0.6-1.7-1.1-3.1-1.4c-1.4-0.3-3.3-0.5-5.7-0.5V98c2.1,0,3.7-0.2,5-0.5
			c1.3-0.3,2.2-0.8,2.9-1.3c0.7-0.6,1.1-1.2,1.4-2s0.3-1.7,0.3-2.6c0-1.9-0.5-3.4-1.4-4.5c-0.9-1.1-2.4-1.6-4.3-1.6
			c-1.6,0-2.9,0.4-4,1.2c-1.1,0.8-1.8,1.9-2.2,3.1c-0.5,1.2-1.1,2.1-1.9,2.5c-0.8,0.4-1.9,0.5-3.3,0.3L435.9,91.5z"/>
	</g>
	<g>
		<polygon class="st2" points="41.7,452 53.3,447.9 112.5,469.2 101.9,473.4 		"/>
		<g>
			<polygon class="st8" points="76.2,443.6 94.7,450.1 94.7,470.8 76.2,464.3 			"/>
			<polygon class="st9" points="88.7,439.1 107.2,445.6 94.7,450.1 76.2,443.5 			"/>
			<polygon class="st8" points="76.2,443.6 94.7,450.1 94.7,470.8 76.2,464.3 			"/>
			<polygon class="st9" points="88.7,439.1 107.2,445.6 94.7,450.1 76.2,443.5 			"/>
			<polygon class="st8" points="65,438 68.8,439.2 68.8,441.6 65,440.3 			"/>
			<polygon class="st9" points="69.4,436.8 72.6,437.7 68.2,439.2 65,438.1 			"/>
			<polygon points="66.2,440.1 76.6,443.8 76.6,464.5 66.2,460.8 			"/>
			<polygon class="st10" points="78.2,435.9 88.5,439.6 76.6,443.8 66.2,440.1 			"/>
			<path d="M121.2,457.2l7.6-2.7l1.5-5.7l-8.2-5.2l1.5-2l-2.5-2.4l-1.7,1c0,0-6.9-2.2-12.2,5.4l-12.6,4.5v20.7l7.2,2.6l10.6-4.2
				C112.5,469.2,112.6,457,121.2,457.2z"/>
		</g>
	</g>
</g>
</svg>
