<?xml version="1.0" encoding="utf-8"?>
<!-- Generator: Adobe Illustrator 24.1.2, SVG Export Plug-In . SVG Version: 6.00 Build 0)  -->
<svg version="1.1" xmlns="http://www.w3.org/2000/svg" xmlns:xlink="http://www.w3.org/1999/xlink" x="0px" y="0px"
	 viewBox="0 0 565.1 782.8" style="enable-background:new 0 0 565.1 782.8;" xml:space="preserve">
<style type="text/css">
	.st0{fill:url(#SVGID_1_);}
	.st1{fill:url(#SVGID_2_);}
	.st2{fill:#9BA4A1;}
	.st3{fill:#E4EFEB;}
	.st4{opacity:0.23;fill:#444444;}
	.st5{fill:#444444;}
	.st6{fill:#AECFEE;}
	.st7{fill:#5483AD;}
	.st8{fill:#335066;}
	.st9{fill:#61A1C1;}
	.st10{fill:#6394B4;}
	.st11{fill:#88BBD6;}
	.st12{fill:#ABDAEF;}
	.st13{fill:url(#SVGID_3_);}
	.st14{fill:url(#SVGID_4_);}
	.st15{fill:none;stroke:#FFFFFF;stroke-linecap:round;stroke-miterlimit:10;}
	.st16{fill:none;stroke:#000000;stroke-miterlimit:10;}
	.st17{fill:#EBF1FF;}
	.st18{fill:url(#SVGID_5_);}
	.st19{fill:url(#SVGID_6_);}
	.st20{fill:#B4AA91;}
	.st21{fill:#837960;}
	.st22{fill:#1D3F1D;}
	.st23{fill:#459B45;}
	.st24{fill:#A4B3D0;}
	.st25{fill:#8A9BB5;}
	.st26{fill:#C1DAF9;}
	.st27{fill:#4A5059;}
	.st28{fill:#BFD8F7;}
	.st29{fill:#6E7C89;}
	.st30{fill:#40484F;}
	.st31{fill:#605F68;}
	.st32{opacity:0.3;}
	.st33{fill:#3C3B41;}
	.st34{fill:url(#SVGID_7_);}
	.st35{fill:url(#SVGID_8_);}
	.st36{fill:#FFF0CF;}
	.st37{fill:#B77A37;}
	.st38{fill:#E29942;}
	.st39{fill:#D9B15C;}
	.st40{fill:#CEBE99;}
	.st41{fill:#333333;}
	.st42{fill:#EEFFA6;}
	.st43{fill:#474135;}
	.st44{fill:#D8EF84;}
	.st45{fill:#839945;}
	.st46{fill:#193019;}
	.st47{fill:#346B34;}
	.st48{fill:#5659BA;}
	.st49{fill:#D2E0FB;}
	.st50{fill:#3C3E4B;}
	.st51{fill:#FFFFFF;}
	.st52{fill:#5465C1;}
	.st53{fill:#B95438;}
	.st54{fill:url(#SVGID_9_);}
	.st55{fill:url(#SVGID_10_);}
	.st56{fill:#7893A4;}
	.st57{fill:#BA77AD;}
	.st58{fill:#B48CCB;}
	.st59{fill:#9D7FB2;}
	.st60{fill:#88729B;}
	.st61{fill:#C5B0EB;}
	.st62{fill:#A0C3E9;}
	.st63{fill:url(#SVGID_11_);}
	.st64{fill:url(#SVGID_12_);}
	.st65{fill:#A3C0D8;}
	.st66{fill:#D88A5A;}
	.st67{fill:#9C9777;}
	.st68{fill:#A2A793;}
	.st69{fill:#636864;}
	.st70{fill:#0C0C0C;}
	.st71{fill:#26240B;}
	.st72{fill:#A5A174;}
	.st73{fill:#F2B879;}
	.st74{fill:#8D897E;}
	.st75{fill:#D8AD5E;}
	.st76{fill:#B3AF80;}
	.st77{fill:url(#SVGID_13_);}
	.st78{fill:url(#SVGID_14_);}
	.st79{fill:#231F1E;}
	.st80{fill:#302C2D;}
	.st81{fill:#C96B49;}
	.st82{fill:#535454;}
	.st83{fill:#494949;}
	.st84{fill:#71797C;}
	.st85{fill:#DFC571;}
	.st86{fill:#C05648;}
	.st87{fill:#D3CF78;}
	.st88{fill:#BD5B42;}
	.st89{fill:#5086F3;}
	.st90{fill:#4B4724;}
	.st91{fill:#877D40;}
	.st92{fill:#62AAFC;}
	.st93{fill:#A64C34;}
	.st94{fill:#BB5338;}
	.st95{fill:#A0A035;}
	.st96{fill:#3750B5;}
	.st97{fill:#A3A034;}
	.st98{fill:#D1D540;}
	.st99{fill:#2A417A;}
	.st100{fill:#C0664E;}
	.st101{fill:#7F7F7F;}
	.st102{fill:#6C8AA4;}
	.st103{fill:#4F5249;}
	.st104{fill:#BFAF5C;}
	.st105{fill:#E28D4D;}
	.st106{fill:url(#SVGID_15_);}
	.st107{fill:url(#SVGID_16_);}
	.st108{fill:#5B969C;}
	.st109{fill:#9FACC1;}
	.st110{fill:#D8BF48;}
	.st111{fill:#CB8142;}
	.st112{fill:#D7A23C;}
	.st113{fill:#5B5D5C;}
	.st114{fill:#60868F;}
	.st115{fill:#6BADBB;}
	.st116{fill:#798293;}
	.st117{fill:#52575A;}
	.st118{fill:#757C84;}
	.st119{fill:#54483A;}
	.st120{fill:#9B8973;}
	.st121{fill:#C78636;}
	.st122{fill:#BE7A33;}
	.st123{fill:#CB9336;}
	.st124{fill:#767C7A;}
	.st125{fill:#D8DCE5;}
	.st126{fill:#CFD3D1;}
	.st127{fill:none;}
	.st128{stroke:#000000;stroke-miterlimit:10;}
	.st129{fill:#FFFFFF;stroke:#000000;stroke-miterlimit:10;}
	.st130{stroke:#000000;stroke-linecap:round;stroke-linejoin:round;stroke-miterlimit:10;}
</style>
<g id="IMG_x5F_1254_xA0_Image_1_">
</g>
<g id="Layer_2">
	<g>
		
			<radialGradient id="SVGID_1_" cx="282.5484" cy="391.4055" r="341.3443" fx="321.6642" fy="730.5013" gradientUnits="userSpaceOnUse">
			<stop  offset="0" style="stop-color:#99C1DA"/>
			<stop  offset="1" style="stop-color:#6FC0DE"/>
		</radialGradient>
		<rect class="st0" width="565.1" height="782.8"/>
		
			<linearGradient id="SVGID_2_" gradientUnits="userSpaceOnUse" x1="282.4524" y1="760.5668" x2="282.6494" y2="3.6232" gradientTransform="matrix(1 0 0 0.4621 0 420.9854)">
			<stop  offset="0" style="stop-color:#B7D856"/>
			<stop  offset="0.6916" style="stop-color:#CAD19E"/>
			<stop  offset="1" style="stop-color:#D4D754"/>
		</linearGradient>
		<rect y="421.1" class="st1" width="565.1" height="361.7"/>
	</g>
	<polygon class="st2" points="419.9,476.6 438.4,483.1 438.4,503.8 419.9,497.3 	"/>
	<polygon class="st3" points="432.5,472.1 450.9,478.6 438.4,483.1 419.9,476.6 	"/>
	<polygon class="st4" points="406,483.1 457.5,501.9 444.9,506.4 393.4,487.6 	"/>
	<polygon class="st2" points="419.9,476.6 438.4,483.1 438.4,503.8 419.9,497.3 	"/>
	<polygon class="st3" points="432.5,472.1 450.9,478.6 438.4,483.1 419.9,476.6 	"/>
	<polygon class="st2" points="408.8,471 412.5,472.2 412.5,474.6 408.8,473.3 	"/>
	<polygon class="st3" points="413.1,469.8 416.3,470.8 412,472.2 408.8,471.1 	"/>
	<polygon points="409.9,473.1 420.3,476.8 420.3,497.5 409.9,493.8 	"/>
	<polygon class="st5" points="421.9,468.9 432.2,472.6 420.3,476.8 409.9,473.1 	"/>
	<path d="M464.9,490.2l7.6-2.7l1.5-5.7l-8.2-5.2l1.5-2l-2.5-2.4l-1.7,1c0,0-6.9-2.2-12.2,5.4l-12.6,4.5v20.7l7.2,2.6l10.6-4.2
		C456.2,502.2,456.3,490.1,464.9,490.2z"/>
	<g>
		<polygon class="st2" points="522.9,445.1 504.4,451.6 504.4,472.3 522.9,465.8 		"/>
		<polygon class="st3" points="510.4,440.6 491.9,447.1 504.4,451.6 522.9,445 		"/>
		<polygon class="st4" points="499.8,448.5 464.1,461.1 497.2,474.9 532.9,462.3 		"/>
		<polygon class="st2" points="522.9,445.1 504.4,451.6 504.4,472.3 522.9,465.8 		"/>
		<polygon class="st3" points="510.4,440.6 491.9,447.1 504.4,451.6 522.9,445 		"/>
		<polygon class="st2" points="534.1,439.5 530.3,440.7 530.3,443.1 534.1,441.8 		"/>
		<polygon class="st3" points="529.7,438.3 526.5,439.2 530.9,440.7 534.1,439.6 		"/>
		<polygon points="532.9,441.6 522.5,445.3 522.5,466 532.9,462.3 		"/>
		<polygon class="st5" points="520.9,437.4 510.6,441.1 522.5,445.3 532.9,441.6 		"/>
		<path d="M477.9,458.7l-7.6-2.7l-1.5-5.7l8.2-5.2l-1.5-2l2.5-2.4l1.7,1c0,0,6.9-2.2,12.2,5.4l12.6,4.5v20.7l-7.2,2.6l-10.6-4.2
			C486.6,470.7,486.5,458.5,477.9,458.7z"/>
	</g>
	<path class="st17" d="M409.6,41.3c0,0,31.8-35.1,74.5-8.8c0,0,20.8-9.9,27.4,8.8c0,0,35.1,15.1,26.3,50.8s-41.6,24.7-41.6,24.7
		s-27.4,36.2-71.2,11c0,0-26.3,9.9-30.7-12.1c0,0-32.9-10.7-29.6-36S388.8,39.2,409.6,41.3z"/>
	<g>
		<path class="st53" d="M432,87.7v5.9c0,0.5-0.2,1-0.5,1.4c-0.4,0.4-0.9,0.6-1.5,0.6h-3.1v11.4h-9.2V95.5h-19.9
			c-0.7,0-1.3-0.2-1.8-0.6c-0.5-0.4-0.9-0.9-1-1.5l-1.1-5.2l22.9-30.8h10.1v30.3H432z M417.7,87.7V74.8c0-0.8,0-1.6,0.1-2.6
			c0.1-0.9,0.1-1.9,0.3-2.9l-13.1,18.3H417.7z"/>
		<path class="st53" d="M448.7,106.5c-0.2,0.6-0.6,1.2-1,1.6c-0.4,0.5-0.8,0.9-1.3,1.2s-1,0.6-1.6,0.7c-0.6,0.2-1.1,0.2-1.6,0.2
			h-4.5L458,59.6c0.5-1.2,1.1-2,2.1-2.6c0.9-0.6,2-0.9,3.2-0.9h4.5L448.7,106.5z"/>
		<path class="st53" d="M490.9,76.4c1.6-0.6,3.4-0.9,5.3-0.9c1.8,0,3.6,0.3,5.3,0.9s3.3,1.5,4.7,2.7c1.4,1.2,2.5,2.8,3.3,4.6
			c0.8,1.9,1.3,4.1,1.3,6.6c0,2.3-0.4,4.5-1.3,6.6c-0.9,2.1-2.1,3.9-3.7,5.4c-1.6,1.6-3.5,2.8-5.7,3.7s-4.7,1.4-7.4,1.4
			c-2.8,0-5.2-0.4-7.4-1.3c-2.2-0.9-4.1-2.1-5.6-3.7c-1.5-1.6-2.7-3.4-3.5-5.6c-0.8-2.2-1.2-4.6-1.2-7.2c0-4.9,1.9-9.8,5.6-14.8
			l11.1-15.1c0.5-0.7,1.3-1.2,2.3-1.7c1-0.5,2.1-0.7,3.4-0.7h9.4l-14.7,17.5L490.9,76.4z M492.6,99.1c1.1,0,2.1-0.2,3-0.6
			c0.9-0.4,1.8-1,2.4-1.7c0.7-0.7,1.2-1.6,1.6-2.5c0.4-1,0.6-2,0.6-3.1c0-1.3-0.2-2.4-0.6-3.4c-0.4-1-0.9-1.8-1.6-2.5
			s-1.5-1.2-2.5-1.6c-1-0.4-2-0.5-3.2-0.5c-1.1,0-2,0.2-2.9,0.6c-0.9,0.4-1.6,0.9-2.3,1.6c-0.6,0.7-1.2,1.5-1.5,2.5
			c-0.4,1-0.5,2.1-0.5,3.3c0,1.2,0.1,2.3,0.4,3.3c0.3,1,0.7,1.8,1.4,2.5c0.6,0.7,1.4,1.2,2.3,1.6S491.3,99.1,492.6,99.1z"/>
	</g>
	<path class="st17" d="M47.7,301.9c0,0,11.9-20.5,31.1-15.9c0,0,9.3-33.1,40.3-31.7c31.1,1.3,39,6.6,60.2,41s0,66.1,0,66.1
		s-23.1,6.6-29.1-3.3c0,0-23.1,28.4-55.5-2.6c0,0-27.1,9.9-39-7.3c0,0-24.5,11.9-35.7-14.5C8.6,307.2,37.7,296.6,47.7,301.9z"/>
	<g>
		<polygon class="st88" points="157.5,189.3 256.2,215.5 359.7,190.6 261,164.4 		"/>
		<polygon class="st89" points="218.8,690.2 239.5,696.9 239.5,496.2 218.8,490.4 		"/>
		<polygon class="st89" points="218.8,782.8 239.5,782.8 239.5,496.2 218.8,490.4 		"/>
		<rect x="241.9" y="495.1" class="st90" width="47.1" height="287.7"/>
		
			<rect x="289" y="495.1" transform="matrix(-1 -1.224647e-16 1.224647e-16 -1 601.0586 1277.9576)" class="st91" width="23.1" height="287.7"/>
		<polygon class="st92" points="239.5,782.8 239.5,496.2 241.5,495.1 269.4,782.8 		"/>
		<polygon class="st93" points="275.5,505.5 275.5,346.5 206.9,329.3 206.9,488.2 		"/>
		<polygon class="st94" points="256.2,351.1 256.2,215.6 359.7,190.8 359.7,326.1 		"/>
		<polygon class="st94" points="275.5,505.5 275.5,346.5 345.2,329.2 345.2,488.1 		"/>
		<polygon class="st95" points="223,447.7 223,312.2 224.8,311.4 224.8,446.8 		"/>
		<polygon class="st96" points="174.9,459.4 247.9,480.1 247.9,242.8 174.9,222 		"/>
		<polygon class="st97" points="223,447.7 223,312.2 224.8,311.4 224.8,446.8 		"/>
		<polygon class="st98" points="171.6,433.2 223,447.7 223,209.6 171.6,195 		"/>
		<polygon class="st99" points="247.9,480.1 247.9,344.7 249.7,343.9 249.7,479.2 		"/>
		<polygon class="st93" points="185.6,408.7 185.6,273.3 187.4,272.4 187.4,407.8 		"/>
		<polygon class="st100" points="256.2,215.5 157.5,189.3 157.5,324.8 157.5,399.6 185.7,408.7 185.7,332.2 256.2,350.9 		"/>
		<polygon class="st17" points="256.2,300.5 256.2,245.1 364.4,219 364.4,274.4 		"/>
		<polygon class="st5" points="253.9,244.4 256.2,245.1 364.4,219 362.1,218.3 		"/>
		<polygon class="st2" points="208.9,287.4 256.2,300.5 256.2,245.1 208.9,231.9 		"/>
		<polygon class="st5" points="211.2,231.3 256.2,243.7 256.2,245.1 208.9,231.9 		"/>
		<g>
			<polygon class="st41" points="237.8,276.9 224.8,273.4 224.8,257.9 237.8,261.4 			"/>
			<polygon class="st5" points="241.9,274.6 237.8,276.9 237.8,261.4 241.9,259 			"/>
			<polygon class="st5" points="228.8,255.5 224.8,257.9 237.8,261.4 241.9,259 			"/>
		</g>
		<polygon class="st5" points="275.5,348.5 275.5,346.5 345.2,329.2 345.2,331.1 		"/>
		<polygon class="st96" points="185.6,663.9 206.2,670.6 206.2,469.9 185.6,464.1 		"/>
		<polygon class="st5" points="186.5,463.2 208.1,469.1 206.2,469.9 185.6,464.1 		"/>
		<polygon class="st99" points="206.2,670.6 206.2,488.2 221.7,492.4 221.7,663.8 		"/>
		<polygon class="st99" points="206.2,670.6 206.2,469.9 208.2,468.8 208.2,669.5 		"/>
		<polygon class="st4" points="298.1,556.8 289,557.7 311.9,673.2 312.1,627.3 		"/>
		<line class="st4" x1="312" y1="754.4" x2="311.9" y2="556.8"/>
		<polygon class="st5" points="306.5,254.7 298.9,257.4 298.9,306.4 334.1,298 352.1,287.3 321.8,295.1 		"/>
		<polygon class="st4" points="332.9,274.4 298.9,288.4 298.9,340.6 333,332.1 		"/>
		<polygon class="st101" points="337.2,247.8 306.5,254.7 321.8,295.1 352.1,287.3 		"/>
		<polygon class="st4" points="185.6,559.1 185.6,567.3 312.8,566.3 311.9,556.8 		"/>
	</g>
	<g>
		<polygon class="st24" points="0,560 565.1,562.3 0,565.3 		"/>
		<polygon class="st25" points="565.1,557.7 565.1,562.3 59.1,560 		"/>
		<polygon class="st26" points="565.1,557.7 262.8,559.1 380.6,555.4 		"/>
		<polygon class="st27" points="0,569.9 0,565.3 565.1,562.3 565.1,563.5 		"/>
	</g>
	<polygon class="st102" points="277.6,544.6 262.1,553.3 255.9,551.1 255.9,574.7 260.2,576.3 275.4,570.4 275.4,566.9 270.8,566.9 
		262.7,570.4 263.3,558.6 277.6,550.5 	"/>
	<polygon class="st103" points="262.1,553.3 255.9,551.1 271.2,543 277.6,544.6 	"/>
	<g>
		<polygon class="st28" points="426.5,566.2 430.7,564.3 431.5,576.6 426.5,579.1 		"/>
		<polygon class="st29" points="426.5,566.2 430.7,564.3 423,552.1 419.3,553.9 		"/>
		<polygon class="st30" points="423,549.5 432.1,563.8 433.1,576.9 431.5,576.5 430.7,564.2 423,552 419.3,552 419.3,550.6 		"/>
		<polygon class="st30" points="427.8,579.8 426.5,579.1 431.5,576.5 433.1,576.9 		"/>
		<polygon class="st31" points="409.1,557.1 414.2,557.1 414.2,570.8 408.7,570.8 		"/>
		<polygon class="st28" points="409.3,552.8 414.2,552.8 414.2,557.1 409.1,557.1 		"/>
		<polygon class="st29" points="400.1,552.1 405.2,552.1 405.2,570.8 399.7,570.8 		"/>
		<polygon class="st28" points="394.8,550.7 399.7,550.7 400,582.6 394.9,582.6 		"/>
		<polygon class="st31" points="417.9,559.5 423,559.5 423,570.8 417.5,570.8 		"/>
		<polygon class="st28" points="418.1,552.1 423,552.1 423,559.2 417.9,559.2 		"/>
	</g>
	<polygon class="st4" points="64.2,462 45.5,468.8 95.9,488.3 114.4,481.7 	"/>
	<g>
		<polygon class="st2" points="114.4,452.9 95.9,459.4 95.9,488.3 114.4,481.7 		"/>
		<polygon class="st20" points="114.4,452.9 95.9,459.4 83,435.7 101.5,429.2 		"/>
		<polygon class="st17" points="95.9,458.9 83,435.7 70.1,450.2 70.1,478.5 95.9,488.3 		"/>
	</g>
	<polygon class="st23" points="90.3,563.2 72.9,601.9 72.9,782.8 90.3,782.8 	"/>
	<polygon class="st23" points="55.3,639 37.9,664.3 37.9,782.8 55.3,782.8 	"/>
	<polygon class="st23" points="146.7,601.9 129.2,633.8 129.2,782.8 146.7,782.8 	"/>
	<polygon class="st22" points="174.8,658.8 157.4,680.7 157.4,782.8 174.8,782.8 	"/>
	<polygon class="st22" points="113.3,544.6 95.9,586.6 95.9,782.8 113.3,782.8 	"/>
	<g>
		<polygon class="st65" points="520.5,363.5 504.6,361.1 466.6,383.6 479.9,387.4 		"/>
		<polyline class="st6" points="479.9,387.4 503.4,351.1 487.5,348.7 466.6,383.6 		"/>
		<g>
			<polygon class="st7" points="478.2,386.9 478.2,386.9 478.8,388.2 478.8,388.2 479.5,389.4 465.1,391.3 464.4,390.1 463.8,388.8 
				463.1,387.6 477.5,385.6 			"/>
			<polygon class="st8" points="477.5,385.6 478.4,381.8 464.1,383.7 463.1,387.6 			"/>
			<g>
				<polygon class="st9" points="478.4,381.8 479,383 478.9,383.5 479,383 479.6,384.3 478.8,388.2 478.2,386.9 478.2,386.9 
					477.5,385.6 				"/>
				<polygon class="st9" points="479.6,384.3 480.3,385.5 479.5,389.4 478.8,388.2 				"/>
			</g>
		</g>
		<g>
			<polyline class="st10" points="477.8,383.6 432.4,355.2 414.8,354.5 463.5,385.7 			"/>
			<polygon class="st11" points="432.8,354.4 432.6,355.2 414.8,354.5 415.1,353.5 			"/>
			<polyline class="st12" points="477.8,383.6 432.8,354.4 432.6,355.2 477.8,383.6 			"/>
			<polygon class="st10" points="430.8,370.4 413.2,369.7 463.5,385.7 477.8,383.6 			"/>
			<polygon class="st11" points="431.2,369.7 430.9,370.5 413.2,369.7 413.5,368.7 			"/>
			<polygon class="st12" points="430.9,370.5 477.8,383.6 431.2,369.7 			"/>
		</g>
	</g>
</g>
</svg>
