<?xml version="1.0" encoding="utf-8"?>
<!-- Generator: Adobe Illustrator 24.1.2, SVG Export Plug-In . SVG Version: 6.00 Build 0)  -->
<svg version="1.1" xmlns="http://www.w3.org/2000/svg" xmlns:xlink="http://www.w3.org/1999/xlink" x="0px" y="0px"
	 viewBox="0 0 565.1 782.8" style="enable-background:new 0 0 565.1 782.8;" xml:space="preserve">
<style type="text/css">
	.st0{fill:url(#SVGID_1_);}
	.st1{fill:url(#SVGID_2_);}
	.st2{opacity:0.23;fill:#444444;}
	.st3{fill:#3B435E;}
	.st4{fill:#202433;}
	.st5{fill:#333333;}
	.st6{fill:url(#SVGID_3_);}
	.st7{fill:url(#SVGID_4_);}
	.st8{fill:#9BA4A1;}
	.st9{fill:#E4EFEB;}
	.st10{fill:#444444;}
	.st11{fill:none;stroke:#FFFFFF;stroke-linecap:round;stroke-miterlimit:10;}
	.st12{fill:none;stroke:#000000;stroke-miterlimit:10;}
	.st13{fill:#EBF1FF;}
	.st14{fill:url(#SVGID_5_);}
	.st15{fill:url(#SVGID_6_);}
	.st16{fill:#BFD8F7;}
	.st17{fill:#6E7C89;}
	.st18{fill:#40484F;}
	.st19{fill:#A4B3D0;}
	.st20{fill:#8A9BB5;}
	.st21{fill:#C1DAF9;}
	.st22{fill:#4A5059;}
	.st23{fill:#605F68;}
	.st24{fill:#B4AA91;}
	.st25{fill:#837960;}
	.st26{fill:#1D3F1D;}
	.st27{fill:#459B45;}
	.st28{fill:#FFF0CF;}
	.st29{fill:#B77A37;}
	.st30{fill:#E29942;}
	.st31{fill:#D9B15C;}
	.st32{fill:#CEBE99;}
	.st33{fill:#3C3B41;}
	.st34{fill:#EEFFA6;}
	.st35{fill:#474135;}
	.st36{fill:#D8EF84;}
	.st37{fill:#AECFEE;}
	.st38{fill:#5483AD;}
	.st39{fill:#335066;}
	.st40{fill:#61A1C1;}
	.st41{fill:#6394B4;}
	.st42{fill:#88BBD6;}
	.st43{fill:#ABDAEF;}
	.st44{fill:#839945;}
	.st45{fill:#193019;}
	.st46{fill:#346B34;}
	.st47{fill:url(#SVGID_7_);}
	.st48{fill:url(#SVGID_8_);}
	.st49{fill:#5659BA;}
	.st50{fill:#D2E0FB;}
	.st51{fill:#3C3E4B;}
	.st52{fill:#FFFFFF;}
	.st53{opacity:0.3;}
	.st54{fill:#5465C1;}
	.st55{fill:#B95438;}
	.st56{fill:url(#SVGID_9_);}
	.st57{fill:url(#SVGID_10_);}
	.st58{fill:#7893A4;}
	.st59{fill:#BA77AD;}
	.st60{fill:#B48CCB;}
	.st61{fill:#9D7FB2;}
	.st62{fill:#88729B;}
	.st63{fill:#C5B0EB;}
	.st64{fill:#A0C3E9;}
	.st65{fill:url(#SVGID_11_);}
	.st66{fill:url(#SVGID_12_);}
	.st67{fill:#A3C0D8;}
	.st68{fill:#D88A5A;}
	.st69{fill:#9C9777;}
	.st70{fill:#A2A793;}
	.st71{fill:#636864;}
	.st72{fill:#0C0C0C;}
	.st73{fill:#26240B;}
	.st74{fill:#A5A174;}
	.st75{fill:#F2B879;}
	.st76{fill:#8D897E;}
	.st77{fill:#D8AD5E;}
	.st78{fill:#B3AF80;}
	.st79{fill:url(#SVGID_13_);}
	.st80{fill:url(#SVGID_14_);}
	.st81{fill:#231F1E;}
	.st82{fill:#302C2D;}
	.st83{fill:#C96B49;}
	.st84{fill:#535454;}
	.st85{fill:#494949;}
	.st86{fill:#71797C;}
	.st87{fill:#DFC571;}
	.st88{fill:#C05648;}
	.st89{fill:#D3CF78;}
	.st90{fill:#BD5B42;}
	.st91{fill:#5086F3;}
	.st92{fill:#4B4724;}
	.st93{fill:#877D40;}
	.st94{fill:#62AAFC;}
	.st95{fill:#A64C34;}
	.st96{fill:#BB5338;}
	.st97{fill:#A0A035;}
	.st98{fill:#3750B5;}
	.st99{fill:#A3A034;}
	.st100{fill:#D1D540;}
	.st101{fill:#2A417A;}
	.st102{fill:#C0664E;}
	.st103{fill:#7F7F7F;}
	.st104{fill:#6C8AA4;}
	.st105{fill:#4F5249;}
	.st106{fill:url(#SVGID_15_);}
	.st107{fill:url(#SVGID_16_);}
	.st108{fill:#5B969C;}
	.st109{fill:#9FACC1;}
	.st110{fill:#D8BF48;}
	.st111{fill:#CB8142;}
	.st112{fill:#D7A23C;}
	.st113{fill:#5B5D5C;}
	.st114{fill:#60868F;}
	.st115{fill:#6BADBB;}
	.st116{fill:#798293;}
	.st117{fill:#52575A;}
	.st118{fill:#757C84;}
	.st119{fill:#54483A;}
	.st120{fill:#9B8973;}
	.st121{fill:none;}
	.st122{fill:#495370;}
	.st123{fill:url(#SVGID_17_);}
	.st124{fill:url(#SVGID_18_);}
	.st125{fill:#BFAF5C;}
	.st126{fill:#E28D4D;}
	.st127{fill:#C78636;}
	.st128{fill:#BE7A33;}
	.st129{fill:#CB9336;}
	.st130{fill:#767C7A;}
	.st131{fill:#D8DCE5;}
	.st132{fill:#CFD3D1;}
	.st133{stroke:#000000;stroke-miterlimit:10;}
	.st134{fill:#FFFFFF;stroke:#000000;stroke-miterlimit:10;}
	.st135{stroke:#000000;stroke-linecap:round;stroke-linejoin:round;stroke-miterlimit:10;}
</style>
<g id="IMG_x5F_1254_xA0_Image_1_">
</g>
<g id="Layer_2">
	<g>
		<radialGradient id="SVGID_1_" cx="282.5484" cy="391.4055" r="341.3443" gradientUnits="userSpaceOnUse">
			<stop  offset="0" style="stop-color:#99C1DA"/>
			<stop  offset="1" style="stop-color:#6FC0DE"/>
		</radialGradient>
		<rect x="0" class="st0" width="565.1" height="782.8"/>
		
			<linearGradient id="SVGID_2_" gradientUnits="userSpaceOnUse" x1="282.4524" y1="760.5668" x2="282.6494" y2="3.6232" gradientTransform="matrix(1 0 0 0.4621 0 420.9854)">
			<stop  offset="0" style="stop-color:#B7D856"/>
			<stop  offset="0.6916" style="stop-color:#CAD19E"/>
			<stop  offset="1" style="stop-color:#D4D754"/>
		</linearGradient>
		<rect x="0" y="421.1" class="st1" width="565.1" height="361.7"/>
	</g>
	<g>
		<polygon class="st8" points="522.9,425.1 504.4,431.6 504.4,452.3 522.9,445.8 		"/>
		<polygon class="st9" points="510.4,420.6 491.9,427.1 504.4,431.6 522.9,425 		"/>
		<polygon class="st2" points="499.8,428.5 464.1,441.1 497.2,454.9 532.9,442.3 		"/>
		<polygon class="st8" points="522.9,425.1 504.4,431.6 504.4,452.3 522.9,445.8 		"/>
		<polygon class="st9" points="510.4,420.6 491.9,427.1 504.4,431.6 522.9,425 		"/>
		<polygon class="st8" points="534.1,419.5 530.3,420.7 530.3,423.1 534.1,421.8 		"/>
		<polygon class="st9" points="529.7,418.3 526.5,419.2 530.9,420.7 534.1,419.6 		"/>
		<polygon points="532.9,421.6 522.5,425.3 522.5,446 532.9,442.3 		"/>
		<polygon class="st10" points="520.9,417.4 510.6,421.1 522.5,425.3 532.9,421.6 		"/>
		<path d="M477.9,438.7l-7.6-2.7l-1.5-5.7l8.2-5.2l-1.5-2l2.5-2.4l1.7,1c0,0,6.9-2.2,12.2,5.4l12.6,4.5v20.7l-7.2,2.6l-10.6-4.2
			C486.6,450.7,486.5,438.5,477.9,438.7z"/>
	</g>
	<polygon class="st2" points="33.5,459.9 45.1,455.8 104.3,477.1 93.7,481.3 	"/>
	<g>
		<polygon class="st8" points="68,451.5 86.5,458 86.5,478.7 68,472.2 		"/>
		<polygon class="st9" points="80.6,447 99,453.5 86.5,458 68,451.4 		"/>
		<polygon class="st8" points="68,451.5 86.5,458 86.5,478.7 68,472.2 		"/>
		<polygon class="st9" points="80.6,447 99,453.5 86.5,458 68,451.4 		"/>
		<polygon class="st8" points="56.9,445.9 60.6,447.1 60.6,449.5 56.9,448.2 		"/>
		<polygon class="st9" points="61.2,444.7 64.4,445.7 60.1,447.1 56.9,446 		"/>
		<polygon points="58,448 68.4,451.7 68.4,472.4 58,468.7 		"/>
		<polygon class="st10" points="70,443.8 80.3,447.5 68.4,451.7 58,448 		"/>
		<path d="M113,465.1l7.6-2.7l1.5-5.7l-8.2-5.2l1.5-2l-2.5-2.4l-1.7,1c0,0-6.9-2.2-12.2,5.4L86.5,458v20.7l7.2,2.6l10.6-4.2
			C104.3,477.1,104.4,465,113,465.1z"/>
	</g>
	<g>
		<polygon class="st37" points="90,218 82.4,216.3 75.9,233.9 82.5,235.8 		"/>
		<g>
			<polygon class="st38" points="81.7,235.5 81.7,235.5 82.1,235.9 82.1,235.9 82.5,236.2 75.9,235.7 75.5,235.3 75.1,235 
				74.7,234.7 81.2,235.2 			"/>
			<polygon class="st39" points="81.2,235.2 81.3,234.3 74.7,233.8 74.7,234.7 			"/>
			<g>
				<polygon class="st40" points="81.3,234.3 81.7,234.7 81.7,234.8 81.7,234.7 82.1,235 82.1,235.9 81.7,235.5 81.7,235.5 
					81.2,235.2 				"/>
				<polygon class="st40" points="82.1,235 82.5,235.4 82.5,236.2 82.1,235.9 				"/>
			</g>
		</g>
		<g>
			<polygon class="st41" points="65.7,214.4 57.4,213.1 74.7,234.2 81.2,234.7 			"/>
			<polygon class="st42" points="65.8,214.3 65.8,214.5 57.4,213.1 57.5,212.9 			"/>
			<polygon class="st43" points="65.8,214.5 81.2,234.7 65.8,214.3 			"/>
		</g>
	</g>
	<polygon class="st92" points="111,782.8 147.6,782.8 147.6,507.9 111,496.4 	"/>
	<polygon class="st93" points="170.7,782.8 147.6,782.8 147.6,507.9 170.7,495.1 	"/>
	<polygon class="st125" points="134.1,483.6 111,496.4 147.6,507.9 170.7,495.1 	"/>
	<polygon class="st2" points="156.7,560.8 147.7,561.7 170.5,677.2 170.7,631.3 	"/>
	<path class="st13" d="M369.6,61.3c0,0,31.8-35.1,74.5-8.8c0,0,20.8-9.9,27.4,8.8c0,0,35.1,15.1,26.3,50.8
		c-8.8,35.7-41.6,24.7-41.6,24.7s-27.4,36.2-71.2,11c0,0-26.3,9.9-30.7-12.1c0,0-32.9-10.7-29.6-36S348.8,59.2,369.6,61.3z"/>
	<g>
		<path class="st126" d="M357.1,91.5c0.4-2.5,1.1-4.6,2.1-6.5c1-1.8,2.3-3.4,3.8-4.6c1.5-1.2,3.3-2.1,5.2-2.7c2-0.6,4.1-0.9,6.4-0.9
			c2.4,0,4.6,0.3,6.5,1c1.9,0.7,3.5,1.6,4.8,2.8c1.3,1.2,2.3,2.5,3,4.1c0.7,1.6,1,3.2,1,4.9c0,1.6-0.2,2.9-0.5,4.1
			c-0.3,1.2-0.8,2.2-1.4,3.1c-0.6,0.9-1.4,1.6-2.3,2.2c-0.9,0.6-2,1.1-3.1,1.5c5.5,1.9,8.2,5.7,8.2,11.2c0,2.6-0.5,4.9-1.4,6.9
			c-1,1.9-2.2,3.6-3.8,4.9c-1.6,1.3-3.4,2.3-5.6,2.9s-4.3,1-6.6,1c-2.4,0-4.5-0.3-6.3-0.8c-1.8-0.5-3.5-1.3-4.9-2.4
			c-1.4-1.1-2.7-2.5-3.8-4.1c-1.1-1.7-2-3.7-2.8-6l4.7-1.9c1.2-0.5,2.4-0.6,3.4-0.4c1,0.2,1.8,0.7,2.2,1.6c1,1.9,2.1,3.2,3.2,4.1
			c1.1,0.8,2.5,1.3,4,1.3c1.2,0,2.2-0.2,3.1-0.6s1.6-0.9,2.2-1.5c0.6-0.6,1-1.3,1.3-2.1c0.3-0.8,0.4-1.6,0.4-2.4
			c0-1.1-0.1-2-0.2-2.9s-0.6-1.6-1.2-2.2c-0.7-0.6-1.7-1.1-3.1-1.4c-1.4-0.3-3.3-0.5-5.7-0.5V98c2.1,0,3.7-0.2,5-0.5
			c1.3-0.3,2.2-0.8,2.9-1.3c0.7-0.6,1.1-1.2,1.4-2s0.3-1.7,0.3-2.6c0-1.9-0.5-3.4-1.4-4.5c-0.9-1.1-2.4-1.6-4.3-1.6
			c-1.6,0-2.9,0.4-4,1.2c-1.1,0.8-1.8,1.9-2.2,3.1c-0.5,1.2-1.1,2.1-1.9,2.5c-0.8,0.4-1.9,0.5-3.3,0.3L357.1,91.5z"/>
		<path class="st126" d="M408.7,126.5c-0.2,0.6-0.6,1.2-1,1.6c-0.4,0.5-0.8,0.9-1.3,1.2s-1,0.6-1.6,0.7c-0.6,0.2-1.1,0.2-1.6,0.2
			h-4.5L418,79.6c0.5-1.2,1.1-2,2.1-2.6c0.9-0.6,2-0.9,3.2-0.9h4.5L408.7,126.5z"/>
		<path class="st126" d="M470.8,107.7v5.9c0,0.5-0.2,1-0.5,1.4c-0.4,0.4-0.9,0.6-1.5,0.6h-3.1v11.4h-9.2v-11.4h-19.9
			c-0.7,0-1.3-0.2-1.8-0.6c-0.5-0.4-0.9-0.9-1-1.5l-1.1-5.2l22.9-30.8h10.1v30.3H470.8z M456.6,107.7V94.8c0-0.8,0-1.6,0.1-2.6
			c0.1-0.9,0.1-1.9,0.3-2.9l-13.1,18.3H456.6z"/>
	</g>
	<g>
		<polygon class="st19" points="0,560 565.1,562.3 0,565.3 		"/>
		<polygon class="st20" points="565.1,557.7 565.1,562.3 59.1,560 		"/>
		<polygon class="st21" points="565.1,557.7 262.8,559.1 380.6,555.4 		"/>
		<polygon class="st22" points="0,569.9 0,565.3 565.1,562.3 565.1,563.5 		"/>
	</g>
	<polygon class="st104" points="136.3,544.6 120.8,553.3 114.5,551.1 114.5,574.7 118.9,576.3 134.1,570.4 134.1,566.9 129.4,566.9 
		121.4,570.4 122,558.6 136.3,550.5 	"/>
	<polygon class="st105" points="120.8,553.3 114.5,551.1 129.9,543 136.3,544.6 	"/>
	<g>
		<polygon class="st16" points="532.6,566.2 536.8,564.3 537.6,576.6 532.6,579.1 		"/>
		<polygon class="st17" points="532.6,566.2 536.8,564.3 529.1,552.1 525.4,553.9 		"/>
		<polygon class="st18" points="529.1,549.5 538.1,563.8 539.2,576.9 537.6,576.5 536.8,564.2 529.1,552 525.4,552 525.4,550.6 		
			"/>
		<polygon class="st18" points="533.9,579.8 532.6,579.1 537.6,576.5 539.2,576.9 		"/>
		<polygon class="st23" points="515.2,557.1 520.3,557.1 520.3,570.8 514.8,570.8 		"/>
		<polygon class="st16" points="515.4,552.8 520.3,552.8 520.3,557.1 515.2,557.1 		"/>
		<polygon class="st17" points="506.2,552.1 511.3,552.1 511.3,570.8 505.8,570.8 		"/>
		<polygon class="st16" points="500.9,550.7 505.8,550.7 506,582.6 501,582.6 		"/>
		<polygon class="st23" points="524,559.5 529.1,559.5 529.1,570.8 523.6,570.8 		"/>
		<polygon class="st16" points="524.2,552.1 529.1,552.1 529.1,559.2 524,559.2 		"/>
	</g>
	<path class="st13" d="M501.2,223.7c0,0,6-28.6,28.6-29.3c22.6-0.8,36.8,4.5,42.1,29.3c0,0,30.1-20.3,48.9,18.8
		s-39.1,57.1-48.1,42.1c0,0-34.6,27.1-63.1-6c0,0-35.3,5.3-37.6-27.8C469.7,217.7,501.2,223.7,501.2,223.7z"/>
	<g>
		<polygon class="st110" points="202.2,187.7 291.8,210.8 353.3,181.2 263.7,158.2 		"/>
		<polygon class="st111" points="202.2,187.6 291.8,210.7 291.8,225 202.2,202 		"/>
		<polygon class="st111" points="259.2,309.3 274,313.1 274,488.3 259.2,484.5 		"/>
		<polygon class="st111" points="275.2,329.4 290,333.2 290,508.4 275.2,504.6 		"/>
		<polygon class="st111" points="244,303.7 258.7,307.5 258.7,482.7 244,478.9 		"/>
		<polygon class="st111" points="211.9,261.3 226.7,265.1 226.7,440.3 211.9,436.5 		"/>
		<polygon class="st111" points="228,285.3 242.7,289.1 242.7,464.3 228,460.5 		"/>
		<g>
			<polygon class="st127" points="225.5,582.2 219.1,581 219.1,562 225.5,563.2 			"/>
			<polygon class="st128" points="243,554.1 236.6,552.8 219.1,562 225.5,563.2 			"/>
			<polygon class="st129" points="243,554.1 225.5,563.2 225.5,568.8 225.5,582.2 230.6,579.7 230.6,566.1 243,559.6 			"/>
		</g>
		<g>
			<polygon class="st127" points="238.3,582.2 231.9,581 231.9,562 238.3,563.2 			"/>
			<polygon class="st128" points="255.8,554.1 249.4,552.8 231.9,562 238.3,563.2 			"/>
			<polygon class="st129" points="255.8,554.1 238.3,563.2 238.3,568.8 238.3,582.2 243.4,579.7 243.4,566.1 255.8,559.6 			"/>
		</g>
		<g>
			<polygon class="st127" points="251.3,581.6 244.9,580.3 244.9,561.3 251.3,562.6 			"/>
			<polygon class="st128" points="268.9,553.4 262.5,552.2 244.9,561.3 251.3,562.6 			"/>
			<polygon class="st129" points="268.9,553.4 251.3,562.6 251.3,568.1 251.3,581.6 256.5,579.1 256.5,565.4 268.9,559 			"/>
		</g>
		<polygon class="st127" points="244.6,487.6 250.3,489.1 250.3,557.1 244.6,555.6 		"/>
		<polygon class="st129" points="254.2,487.2 250.3,489.1 250.3,557.1 254.2,555.2 		"/>
		<polygon class="st130" points="236.3,326.1 251.1,329.9 251.1,505.1 236.3,501.3 		"/>
		<polygon class="st131" points="261.2,325.1 251.1,329.9 251.1,505.1 261.2,500.3 		"/>
		<polygon class="st111" points="344,305.7 358.8,309.5 358.8,484.7 344,480.9 		"/>
		<polygon class="st126" points="368.9,304.7 358.8,309.5 358.8,484.7 368.9,479.9 		"/>
		<polygon class="st111" points="318,318.1 332.8,321.9 332.8,497.1 318,493.3 		"/>
		<polygon class="st126" points="342.9,317.1 332.8,321.9 332.8,497.1 342.9,492.3 		"/>
		<polygon class="st111" points="291.6,334.1 306.3,337.9 306.3,513.1 291.6,509.3 		"/>
		<polygon class="st126" points="316.5,333.1 306.3,337.9 306.3,513.1 316.5,508.3 		"/>
		<polygon class="st111" points="291.6,310.1 306.3,313.9 306.3,489.1 291.6,485.3 		"/>
		<polygon class="st126" points="316.5,309.1 306.3,313.9 306.3,489.1 316.5,484.3 		"/>
		<g>
			<g>
				<polygon class="st127" points="290.6,582.2 284.2,581 284.2,562 290.6,563.2 				"/>
				<polygon class="st128" points="308.2,554.1 301.8,552.8 284.2,562 290.6,563.2 				"/>
				<polygon class="st129" points="308.2,554.1 290.6,563.2 290.6,568.8 290.6,582.2 295.8,579.7 295.8,566.1 308.2,559.6 				"/>
			</g>
			<g>
				<polygon class="st127" points="303.4,582.2 297,581 297,562 303.4,563.2 				"/>
				<polygon class="st128" points="320.9,554.1 314.6,552.8 297,562 303.4,563.2 				"/>
				<polygon class="st129" points="320.9,554.1 303.4,563.2 303.4,568.8 303.4,582.2 308.5,579.7 308.5,566.1 320.9,559.6 				"/>
			</g>
			<g>
				<polygon class="st127" points="316.4,581.6 310,580.3 310,561.3 316.4,562.6 				"/>
				<polygon class="st128" points="334,553.4 327.6,552.2 310,561.3 316.4,562.6 				"/>
				<polygon class="st129" points="334,553.4 316.4,562.6 316.4,568.1 316.4,581.6 321.6,579.1 321.6,565.4 334,559 				"/>
			</g>
			<polygon class="st127" points="309.7,487.6 315.4,489.1 315.4,557.1 309.7,555.6 			"/>
			<polygon class="st129" points="319.3,487.2 315.4,489.1 315.4,557.1 319.3,555.2 			"/>
		</g>
		<polygon class="st130" points="300.4,310.1 315.2,313.9 315.2,489.1 300.4,485.3 		"/>
		<polygon class="st131" points="325.3,309.1 315.2,313.9 315.2,489.1 325.3,484.3 		"/>
		<polygon class="st132" points="281.1,322.6 291.8,325.5 301.1,321.1 290,317.8 		"/>
		<polygon class="st8" points="290.4,281.9 301.1,284.8 301.1,321.1 290,317.8 		"/>
		<polygon class="st13" points="290.4,281.9 281.1,286.4 281.1,322.6 290,317.8 		"/>
		<polygon class="st13" points="291.8,225.3 291.8,289.3 301.1,284.8 301.1,321.4 291.8,325.9 291.8,467.4 353.3,438 353.3,195.8 		
			"/>
		<polygon class="st8" points="291.8,225.3 291.8,289.3 281.1,286.4 281.1,323 291.8,325.9 291.8,467.4 202.2,444.2 202.2,202 		"/>
		<polygon class="st126" points="353.3,181.2 291.8,210.7 291.8,225 353.3,195.6 		"/>
		<polygon class="st10" points="353.3,296.1 291.8,325.5 291.8,329.2 353.3,299.8 		"/>
		<polygon class="st110" points="344,305.7 358.8,309.6 368.9,304.7 354.1,300.9 		"/>
		<polygon class="st110" points="332.9,311.3 347.6,315.1 357.8,310.3 343,306.5 		"/>
		<polygon class="st111" points="332.9,311.3 347.6,315.1 347.6,424.6 332.9,420.8 		"/>
		<polygon class="st126" points="357.8,310.3 347.6,315.1 347.6,424.6 357.8,419.7 		"/>
		<polygon class="st25" points="284,287.2 291.8,289.2 291.8,323.1 284,321.1 		"/>
		<polygon class="st32" points="297.8,286.2 291.8,289.2 291.8,323.1 297.8,320.1 		"/>
		<g>
			<polygon class="st5" points="253.9,277.2 234.5,272 234.5,248.9 253.9,254.1 			"/>
			<polygon class="st10" points="259.9,273.7 253.9,277.2 253.9,254.1 259.9,250.6 			"/>
			<polygon class="st10" points="240.5,245.4 234.5,248.9 253.9,254.1 259.9,250.6 			"/>
		</g>
		<g>
			<polygon class="st10" points="322.4,274.1 315.6,272.4 315.6,249.3 322.4,251 			"/>
			<polygon class="st5" points="338.8,266.4 322.4,274.2 322.4,251.1 338.8,243.3 			"/>
			<polygon class="st10" points="332,241.6 315.6,249.4 322.4,251.1 338.8,243.3 			"/>
		</g>
		<polygon class="st10" points="202.2,306.1 291.8,329.2 291.8,325.5 202.2,302.5 		"/>
	</g>
	<g>
		<polygon class="st37" points="487.4,319.5 495,320.5 509.8,345.6 503.1,345.6 		"/>
		<g>
			<polygon class="st38" points="504,345.6 504,345.6 503.5,346.1 503.5,346.1 503.1,346.6 509.4,349.4 509.9,348.9 510.3,348.4 
				510.8,347.9 504.5,345.1 			"/>
			<polygon class="st39" points="504.5,345.1 504.6,343.2 510.9,346 510.8,347.9 			"/>
			<g>
				<polygon class="st40" points="504.6,343.2 504.1,343.7 504.1,343.9 504.1,343.7 503.7,344.2 503.5,346.1 504,345.6 504,345.6 
					504.5,345.1 				"/>
				<polygon class="st40" points="503.7,344.2 503.2,344.7 503.1,346.6 503.5,346.1 				"/>
			</g>
		</g>
		<g>
			<polygon class="st41" points="521.5,334.7 529.7,336.7 510.9,347 504.6,344.1 			"/>
			<polygon class="st42" points="521.4,334.3 521.4,334.7 529.7,336.7 529.7,336.2 			"/>
			<polygon class="st43" points="521.4,334.7 504.6,344.1 521.4,334.3 			"/>
		</g>
	</g>
	<polygon class="st27" points="81,585.6 67.3,625.7 84.1,782.8 101.5,782.8 	"/>
	<polygon class="st27" points="53.2,664.2 38.2,691.1 49.3,782.8 66.6,782.8 	"/>
	<polygon class="st27" points="140.7,618.9 126.3,652.2 140.2,782.8 157.6,782.8 	"/>
	<polygon class="st26" points="174.1,672.9 158.7,696.3 168.3,782.8 185.6,782.8 	"/>
	<polygon class="st26" points="102.2,564.9 88.8,608.3 107,782.8 124.4,782.8 	"/>
	<polygon class="st27" points="95.5,645.5 105.1,674 102.9,782.8 92.9,782.8 	"/>
	<polygon class="st27" points="114.8,701.3 124.5,720.1 123.1,782.8 113.1,782.8 	"/>
	<polygon class="st27" points="62.6,673.3 72.3,696.9 70.5,782.8 60.4,782.8 	"/>
	<polygon class="st26" points="45.7,714.7 55.5,730.9 54.2,782.8 44.2,782.8 	"/>
	<polygon class="st26" points="82.5,631.6 92,662.6 89.7,782.8 79.6,782.8 	"/>
	<polygon class="st27" points="290.3,609.2 301.4,648.8 289.5,782.8 275.9,782.8 	"/>
	<polygon class="st27" points="312.6,686.6 324.5,712.8 316.7,782.8 303.1,782.8 	"/>
	<polygon class="st27" points="244,645 255.4,677.7 245.6,782.8 232.1,782.8 	"/>
	<polygon class="st26" points="218.3,700.3 230.4,723 223.7,782.8 210.2,782.8 	"/>
	<polygon class="st26" points="273.6,589.5 284.4,632.3 271.6,782.8 258,782.8 	"/>
	<polygon class="st27" points="446.6,590.4 432.3,628.8 429.2,782.8 442.8,782.8 	"/>
	<polygon class="st27" points="418,665.6 404,690.7 401.9,782.8 415.5,782.8 	"/>
	<polygon class="st27" points="489.8,629.8 475.7,661.5 473.1,782.8 486.7,782.8 	"/>
	<polygon class="st26" points="510.8,687.1 496.8,708.7 495.1,782.8 508.7,782.8 	"/>
	<polygon class="st26" points="464.9,572 450.5,613.8 447.2,782.8 460.8,782.8 	"/>
	<polygon class="st27" points="241.6,669.7 251.5,691.1 261.6,782.8 253.9,782.8 	"/>
	<polygon class="st27" points="261.5,711.6 270.7,725.4 277.3,782.8 269.5,782.8 	"/>
	<polygon class="st27" points="218.6,694.4 228.1,711.9 236.5,782.8 228.7,782.8 	"/>
	<polygon class="st26" points="209.1,728.2 218.2,740 223.9,782.8 216.1,782.8 	"/>
	<polygon class="st26" points="230.2,660 240.4,683.3 251.4,782.8 243.6,782.8 	"/>
	<rect x="12.2" y="534.7" class="st121" width="510.7" height="248.1"/>
</g>
</svg>
