<?xml version="1.0" encoding="utf-8"?>
<!-- Generator: Adobe Illustrator 24.1.2, SVG Export Plug-In . SVG Version: 6.00 Build 0)  -->
<svg version="1.1" xmlns="http://www.w3.org/2000/svg" xmlns:xlink="http://www.w3.org/1999/xlink" x="0px" y="0px"
	 viewBox="0 0 565.1 782.8" style="enable-background:new 0 0 565.1 782.8;" xml:space="preserve">
<style type="text/css">
	.st0{fill:url(#SVGID_1_);}
	.st1{fill:url(#SVGID_2_);}
	.st2{opacity:0.23;fill:#444444;}
	.st3{fill:#3B435E;}
	.st4{fill:#202433;}
	.st5{fill:#333333;}
	.st6{fill:url(#SVGID_3_);}
	.st7{fill:url(#SVGID_4_);}
	.st8{fill:#9BA4A1;}
	.st9{fill:#E4EFEB;}
	.st10{fill:#444444;}
	.st11{fill:none;stroke:#FFFFFF;stroke-linecap:round;stroke-miterlimit:10;}
	.st12{fill:none;stroke:#000000;stroke-miterlimit:10;}
	.st13{fill:#EBF1FF;}
	.st14{fill:url(#SVGID_5_);}
	.st15{fill:url(#SVGID_6_);}
	.st16{fill:#BFD8F7;}
	.st17{fill:#6E7C89;}
	.st18{fill:#40484F;}
	.st19{fill:#A4B3D0;}
	.st20{fill:#8A9BB5;}
	.st21{fill:#C1DAF9;}
	.st22{fill:#4A5059;}
	.st23{fill:#605F68;}
	.st24{fill:#B4AA91;}
	.st25{fill:#837960;}
	.st26{fill:#1D3F1D;}
	.st27{fill:#459B45;}
	.st28{fill:#FFF0CF;}
	.st29{fill:#B77A37;}
	.st30{fill:#E29942;}
	.st31{fill:#D9B15C;}
	.st32{fill:#CEBE99;}
	.st33{fill:#3C3B41;}
	.st34{fill:#EEFFA6;}
	.st35{fill:#474135;}
	.st36{fill:#D8EF84;}
	.st37{fill:#AECFEE;}
	.st38{fill:#5483AD;}
	.st39{fill:#335066;}
	.st40{fill:#61A1C1;}
	.st41{fill:#6394B4;}
	.st42{fill:#88BBD6;}
	.st43{fill:#ABDAEF;}
	.st44{fill:#839945;}
	.st45{fill:#193019;}
	.st46{fill:#346B34;}
	.st47{fill:url(#SVGID_7_);}
	.st48{fill:url(#SVGID_8_);}
	.st49{fill:#5659BA;}
	.st50{fill:#D2E0FB;}
	.st51{fill:#3C3E4B;}
	.st52{fill:#FFFFFF;}
	.st53{opacity:0.3;}
	.st54{fill:#5465C1;}
	.st55{fill:#B95438;}
	.st56{fill:url(#SVGID_9_);}
	.st57{fill:url(#SVGID_10_);}
	.st58{fill:#7893A4;}
	.st59{fill:#BA77AD;}
	.st60{fill:#B48CCB;}
	.st61{fill:#9D7FB2;}
	.st62{fill:#88729B;}
	.st63{fill:#C5B0EB;}
	.st64{fill:#A0C3E9;}
	.st65{fill:url(#SVGID_11_);}
	.st66{fill:url(#SVGID_12_);}
	.st67{fill:#A3C0D8;}
	.st68{fill:#D88A5A;}
	.st69{fill:#9C9777;}
	.st70{fill:#A2A793;}
	.st71{fill:#636864;}
	.st72{fill:#0C0C0C;}
	.st73{fill:#26240B;}
	.st74{fill:#A5A174;}
	.st75{fill:#F2B879;}
	.st76{fill:#8D897E;}
	.st77{fill:#D8AD5E;}
	.st78{fill:#B3AF80;}
	.st79{fill:url(#SVGID_13_);}
	.st80{fill:url(#SVGID_14_);}
	.st81{fill:#231F1E;}
	.st82{fill:#302C2D;}
	.st83{fill:#C96B49;}
	.st84{fill:#535454;}
	.st85{fill:#494949;}
	.st86{fill:#71797C;}
	.st87{fill:#DFC571;}
	.st88{fill:#C05648;}
	.st89{fill:#D3CF78;}
	.st90{fill:#BD5B42;}
	.st91{fill:#5086F3;}
	.st92{fill:#4B4724;}
	.st93{fill:#877D40;}
	.st94{fill:#62AAFC;}
	.st95{fill:#A64C34;}
	.st96{fill:#BB5338;}
	.st97{fill:#A0A035;}
	.st98{fill:#3750B5;}
	.st99{fill:#A3A034;}
	.st100{fill:#D1D540;}
	.st101{fill:#2A417A;}
	.st102{fill:#C0664E;}
	.st103{fill:#7F7F7F;}
	.st104{fill:#6C8AA4;}
	.st105{fill:#4F5249;}
	.st106{fill:url(#SVGID_15_);}
	.st107{fill:url(#SVGID_16_);}
	.st108{fill:#5B969C;}
	.st109{fill:#9FACC1;}
	.st110{fill:#D8BF48;}
	.st111{fill:#CB8142;}
	.st112{fill:#D7A23C;}
	.st113{fill:#5B5D5C;}
	.st114{fill:#60868F;}
	.st115{fill:#6BADBB;}
	.st116{fill:#798293;}
	.st117{fill:#52575A;}
	.st118{fill:#757C84;}
	.st119{fill:#54483A;}
	.st120{fill:#9B8973;}
	.st121{fill:none;}
	.st122{fill:#495370;}
	.st123{fill:url(#SVGID_17_);}
	.st124{fill:url(#SVGID_18_);}
	.st125{fill:#BFAF5C;}
	.st126{fill:#E28D4D;}
	.st127{fill:#C78636;}
	.st128{fill:#BE7A33;}
	.st129{fill:#CB9336;}
	.st130{fill:#767C7A;}
	.st131{fill:#D8DCE5;}
	.st132{fill:#CFD3D1;}
	.st133{stroke:#000000;stroke-miterlimit:10;}
	.st134{fill:#FFFFFF;stroke:#000000;stroke-miterlimit:10;}
	.st135{stroke:#000000;stroke-linecap:round;stroke-linejoin:round;stroke-miterlimit:10;}
</style>
<g id="IMG_x5F_1254_xA0_Image_1_">
</g>
<g id="Layer_2">
	<g>
		<radialGradient id="SVGID_1_" cx="282.5484" cy="391.4055" r="341.3443" gradientUnits="userSpaceOnUse">
			<stop  offset="0" style="stop-color:#99C1DA"/>
			<stop  offset="1" style="stop-color:#6FC0DE"/>
		</radialGradient>
		<rect class="st0" width="565.1" height="782.8"/>
		
			<linearGradient id="SVGID_2_" gradientUnits="userSpaceOnUse" x1="282.4524" y1="1917.2957" x2="282.6494" y2="1160.3521" gradientTransform="matrix(1 0 0 0.4621 0 -113.5178)">
			<stop  offset="0" style="stop-color:#B7D856"/>
			<stop  offset="0.6916" style="stop-color:#CAD19E"/>
			<stop  offset="1" style="stop-color:#D4D754"/>
		</linearGradient>
		<rect y="421.1" class="st1" width="565.1" height="361.7"/>
	</g>
	<g>
		<polygon class="st2" points="477.4,491.1 467.4,494.9 448,483.4 		"/>
		<g>
			<polygon class="st24" points="466,486.6 467.4,486.7 467.4,494.9 466,494.3 			"/>
			<polygon class="st25" points="468.8,486.6 467.4,486.7 467.4,494.9 468.8,494.3 			"/>
			<polygon class="st26" points="467.4,450.4 467.4,489.4 457,485.7 			"/>
			<polygon class="st27" points="477.4,485.6 467.4,489.4 467.4,450.5 			"/>
		</g>
	</g>
	<g>
		<polygon class="st19" points="0,560 565.1,562.3 0,565.3 		"/>
		<polygon class="st20" points="565.1,557.7 565.1,562.3 59.1,560 		"/>
		<polygon class="st21" points="565.1,557.7 262.8,559.1 380.6,555.4 		"/>
		<polygon class="st22" points="0,569.9 0,565.3 565.1,562.3 565.1,563.5 		"/>
	</g>
	<g>
		<polygon class="st16" points="512.2,566.2 516.5,564.3 517.2,576.6 512.3,579.1 		"/>
		<polygon class="st17" points="512.3,566.2 516.5,564.3 508.7,552.1 505,553.9 		"/>
		<polygon class="st18" points="508.7,549.5 517.8,563.8 518.8,576.9 517.2,576.5 516.5,564.2 508.7,552 505,552 505,550.6 		"/>
		<polygon class="st23" points="494.8,557.1 499.9,557.1 499.9,570.8 494.4,570.8 		"/>
		<polygon class="st16" points="495,552.8 499.9,552.8 499.9,557.1 494.8,557.1 		"/>
		<polygon class="st17" points="485.8,552.1 490.9,552.1 490.9,570.8 485.5,570.8 		"/>
		<polygon class="st16" points="480.6,550.7 485.5,550.7 485.7,582.6 480.6,582.6 		"/>
		<polygon class="st23" points="503.6,559.5 508.7,559.5 508.7,570.8 503.2,570.8 		"/>
		<polygon class="st16" points="503.8,552.1 508.7,552.1 508.7,559.2 503.6,559.2 		"/>
	</g>
	<path class="st13" d="M369.6,61.3c0,0,31.8-35.1,74.5-8.8c0,0,20.8-9.9,27.4,8.8c0,0,35.1,15.1,26.3,50.8
		c-8.8,35.7-41.6,24.7-41.6,24.7s-27.4,36.2-71.2,11c0,0-26.3,9.9-30.7-12.1c0,0-32.9-10.7-29.6-36S348.8,59.2,369.6,61.3z"/>
	<g>
		<polygon class="st17" points="34.2,560.5 39.3,560.5 39.3,553.4 33.8,553.4 		"/>
		<polygon class="st23" points="56.5,564 61.6,564 61.6,556 56.1,556 		"/>
		<polygon class="st16" points="56.7,572.7 61.6,572.7 61.6,564 56.5,564 		"/>
		<polygon class="st23" points="48.2,565.3 53.3,565.3 53.3,554.5 47.9,554.5 		"/>
		<polygon class="st16" points="48.4,573.9 53.3,573.9 53.3,565.3 48.2,565.3 		"/>
		<polygon class="st23" points="39.3,568.3 44.4,568.3 44.4,554.3 39,554.3 		"/>
		<polygon class="st23" points="33.9,582.4 39,582.4 39,569.6 33.5,569.6 		"/>
		<polygon class="st16" points="39.5,573.7 44.4,573.7 44.4,568.3 39.3,568.3 		"/>
		<polygon class="st16" points="34.2,585 39.1,585 39.1,582.3 34,582.3 		"/>
		<polygon class="st16" points="67.2,583.8 65.1,565.9 70.2,564 72.4,583.8 		"/>
		<polygon class="st17" points="57.2,555.3 65.1,565.9 70.2,564 62.6,552.6 		"/>
		<polygon class="st33" points="65.1,581.2 67.2,583.8 65.1,565.9 57.2,555.3 57.2,557.1 63.7,566.6 		"/>
	</g>
	<g>
		<polygon class="st37" points="350.6,216.5 343,217.5 338,246.8 344.6,246.8 		"/>
		<g>
			<polygon class="st38" points="343.8,246.8 343.8,246.8 344.2,247.3 344.2,247.3 344.7,247.8 338.3,250.6 337.9,250.1 
				337.4,249.6 336.9,249.1 343.3,246.3 			"/>
			<polygon class="st39" points="343.3,246.3 343.2,244.4 336.8,247.2 336.9,249.1 			"/>
			<g>
				<polygon class="st40" points="343.2,244.4 343.6,244.9 343.6,245.2 343.6,244.9 344.1,245.4 344.2,247.3 343.8,246.8 
					343.8,246.8 343.3,246.3 				"/>
				<polygon class="st40" points="344.1,245.4 344.6,245.9 344.7,247.8 344.2,247.3 				"/>
			</g>
		</g>
		<g>
			<polygon class="st41" points="334.7,217 326.5,219 336.8,248.2 343.2,245.4 			"/>
			<polygon class="st42" points="334.7,216.6 334.7,217 326.5,219 326.5,218.5 			"/>
			<polygon class="st43" points="334.7,217 343.2,245.4 334.7,216.6 			"/>
		</g>
	</g>
	<g>
		<polygon class="st18" points="513.5,579.8 512.3,579.1 517.2,576.5 518.8,576.9 		"/>
		
			<rect x="164.5" y="303" transform="matrix(-0.7071 0.7071 -0.7071 -0.7071 609.6495 448.331)" class="st49" width="94.9" height="94.9"/>
		<polygon points="144.8,350.4 101.6,338 168.8,405.1 212,417.6 		"/>
		<polygon class="st5" points="115.8,342.1 101.6,338 53.5,350.4 128.1,354.3 		"/>
		<polygon points="353.3,475.1 331.7,468.9 510.2,647.3 531.8,653.5 		"/>
		<polygon class="st50" points="311,516.6 267.8,504.1 168.8,405.1 212,417.6 		"/>
		<polygon class="st5" points="144.8,350.4 212,283.3 168.8,270.6 101.6,337.8 		"/>
		<polygon class="st5" points="244.7,579.1 252.2,572.7 240.3,560.9 290.4,510.3 282.6,507.8 228.3,562.7 		"/>
		<polygon class="st5" points="281.3,577.5 288.8,571.1 277,559.2 334.5,500.8 326.7,498.3 264.9,561 		"/>
		<polygon class="st5" points="228.4,581.3 235.9,574.9 224,563 232.5,554.1 224.8,551.5 212,564.8 		"/>
		<polygon class="st5" points="299,576 306.5,569.7 294.6,557.8 303.1,548.9 295.3,546.3 282.5,559.6 		"/>
		
			<rect x="197.4" y="382.3" transform="matrix(-0.7071 0.7071 -0.7071 -0.7071 689.0032 481.2003)" class="st51" width="94.9" height="2"/>
		
			<rect x="303.1" y="340.5" transform="matrix(-0.7071 0.7071 -0.7071 -0.7071 833.254 475.8795)" class="st49" width="29.9" height="140.1"/>
		
			<rect x="440.3" y="432.7" transform="matrix(-0.7071 0.7071 -0.7071 -0.7071 1159.9425 637.2292)" class="st49" width="15.5" height="252.4"/>
		
			<rect x="252" y="374" transform="matrix(0.7071 -0.7071 0.7071 0.7071 -230.6855 331.24)" class="st52" width="65.1" height="140.1"/>
		
			<rect x="237.5" y="420.1" transform="matrix(-0.7071 -0.7071 0.7071 -0.7071 227.289 936.3607)" class="st51" width="140.2" height="2"/>
		<path d="M200.4,355.9L200.4,355.9c-3.2-3.2-3.2-8.4,0-11.6h0c3.2-3.2,8.4-3.2,11.6,0h0c3.2,3.2,3.2,8.4,0,11.6l0,0
			C208.8,359.1,203.6,359.1,200.4,355.9z"/>
		<polygon points="116.2,341.7 128.1,329.8 120.4,327.5 50.9,319.1 		"/>
		<polygon points="116.2,341.7 53.5,350.4 128.1,354.3 		"/>
	</g>
	<g>
		<polygon class="st34" points="229.9,120.7 205.8,144.8 213.2,155.5 238.8,130.4 		"/>
		<polygon class="st35" points="220.9,150.4 220.9,150.4 222.1,151.1 222.1,151.1 223.3,151.8 212.4,161.2 211.2,160.5 210,159.8 
			208.8,159.1 219.7,149.7 		"/>
		<polygon class="st25" points="219.7,149.7 218.3,146.1 207.4,155.4 208.8,159.1 		"/>
		<polygon class="st36" points="213.2,129 185.2,119 185.2,144.3 213.2,155.5 		"/>
		<g>
			<polygon class="st32" points="218.3,146.1 219.5,146.8 219.6,147.2 219.5,146.8 220.7,147.5 222.1,151.1 220.9,150.4 
				220.9,150.4 219.7,149.7 			"/>
			<polygon class="st32" points="220.7,147.5 221.9,148.2 223.3,151.8 222.1,151.1 			"/>
		</g>
	</g>
	<g>
		<polygon class="st2" points="503.6,440.8 540.6,452.6 512.9,462.1 476.1,450.7 		"/>
		<polygon class="st8" points="495.8,427.4 514.3,433.8 514.3,462.7 495.8,456.2 		"/>
		<polygon class="st24" points="495.8,427.4 514.3,433.8 527.2,410.2 508.8,403.6 		"/>
		<polygon class="st13" points="514.3,433.4 527.2,410.2 540.2,424.7 540.2,453 514.3,462.7 		"/>
	</g>
	<polygon class="st27" points="76.9,688.9 64.9,725.8 76.9,734.6 61,777.2 69,782.9 123.6,782.8 136.3,749.7 100.4,728.3 
		106.8,712.4 	"/>
	<polygon class="st53" points="106.1,759 119.4,775.7 132.3,757.6 120.7,739.5 	"/>
	<polygon class="st27" points="164.4,659.1 186.4,693.3 175.4,708.7 198.2,745.1 181.3,782.8 114,782.8 128,760.9 116.6,747.3 
		149.1,707.3 138.1,692.9 	"/>
	<polygon class="st53" points="174.6,761.7 179.5,779.5 196,769.5 192.9,751.1 	"/>
	<polygon class="st27" points="241.4,705.5 210.7,727.2 214.4,741 177.9,765.4 183.9,782.8 244.5,782.8 235.6,745.8 248.8,737.9 	
		"/>
	<polygon class="st27" points="344.7,681.5 373.8,702.4 369.7,716.7 398.4,737.2 398.4,782.8 346.8,782.7 349.3,776.1 335.3,764.6 
		348.4,725.3 335.3,717.1 	"/>
	<polygon class="st53" points="370,746.6 391.4,774.1 398.4,737.2 383.7,726.7 	"/>
	<polygon class="st27" points="403.3,671 426.3,696.4 420.9,710.3 436.5,728.4 441,782.8 377.8,782.8 387.8,762.3 376.3,750.9 
		395.1,714.8 386.1,703.4 	"/>
	<polygon class="st53" points="417.5,726.7 438.9,754.2 442.4,726.1 427.7,715.7 	"/>
	<polygon class="st27" points="452.1,666.3 468.8,689.7 462.3,700.3 479.9,725.7 472.5,738.4 492.6,765.9 481.3,782.7 423.8,782.8 
		411.5,765.1 431.2,740.1 423,727.4 442.6,701.2 436.5,690.9 	"/>
	<g>
		<path class="st54" d="M368.7,94.8c0.9-0.2,1.8-0.3,2.7-0.4c0.9-0.1,1.7-0.1,2.5-0.1c2.6,0,4.9,0.4,6.9,1.2c2,0.8,3.7,1.9,5,3.2
			c1.4,1.4,2.4,3,3.1,4.8c0.7,1.8,1,3.8,1,5.9c0,2.7-0.5,5.1-1.4,7.3c-0.9,2.2-2.2,4.1-3.9,5.7c-1.7,1.6-3.7,2.8-6,3.7
			c-2.3,0.9-4.9,1.3-7.6,1.3c-1.6,0-3.1-0.2-4.6-0.5s-2.8-0.8-4.1-1.4c-1.3-0.6-2.5-1.2-3.5-2c-1.1-0.8-2.1-1.6-3-2.4l3.3-4.3
			c0.3-0.5,0.7-0.8,1.2-1c0.5-0.2,0.9-0.4,1.5-0.4c0.7,0,1.3,0.2,1.9,0.6c0.6,0.4,1.3,0.8,2,1.2c0.7,0.4,1.5,0.8,2.5,1.2
			s2.1,0.5,3.5,0.5s2.6-0.2,3.6-0.7c1-0.5,1.8-1.1,2.4-1.9c0.6-0.8,1.1-1.7,1.4-2.8c0.3-1.1,0.4-2.2,0.4-3.4c0-2.4-0.7-4.2-2-5.5
			c-1.4-1.3-3.3-1.9-5.8-1.9c-2.2,0-4.4,0.4-6.5,1.3l-6.5-1.8l4.2-24.8h25.3v4.3c0,0.7-0.1,1.4-0.3,2c-0.2,0.6-0.6,1.1-1.1,1.5
			c-0.5,0.4-1.1,0.8-1.9,1c-0.8,0.2-1.7,0.4-2.9,0.4h-11.8L368.7,94.8z"/>
		<path class="st54" d="M408.2,126.5c-0.2,0.6-0.6,1.2-1,1.6c-0.4,0.5-0.8,0.9-1.3,1.2s-1,0.6-1.6,0.7c-0.6,0.2-1.1,0.2-1.6,0.2
			h-4.5l19.3-50.7c0.5-1.2,1.1-2,2.1-2.6c0.9-0.6,2-0.9,3.2-0.9h4.5L408.2,126.5z"/>
		<path class="st54" d="M470,77.4v4.4c0,1.3-0.1,2.4-0.4,3.2c-0.3,0.8-0.6,1.5-0.8,2l-17.2,36.4c-0.5,1-1.1,1.8-2,2.4s-2,1-3.5,1
			h-7.7L456,91.5c0.5-1,1-1.8,1.6-2.6s1.1-1.5,1.8-2.2h-21.8c-0.3,0-0.6-0.1-0.9-0.2c-0.3-0.1-0.5-0.3-0.7-0.5
			c-0.2-0.2-0.4-0.5-0.5-0.7c-0.1-0.3-0.2-0.6-0.2-0.9v-6.9H470z"/>
	</g>
</g>
</svg>
