<?xml version="1.0" encoding="utf-8"?>
<!-- Generator: Adobe Illustrator 24.1.2, SVG Export Plug-In . SVG Version: 6.00 Build 0)  -->
<svg version="1.1" xmlns="http://www.w3.org/2000/svg" xmlns:xlink="http://www.w3.org/1999/xlink" x="0px" y="0px"
	 viewBox="0 0 565.1 782.8" style="enable-background:new 0 0 565.1 782.8;" xml:space="preserve">
<style type="text/css">
	.st0{fill:url(#SVGID_1_);}
	.st1{fill:url(#SVGID_2_);}
	.st2{fill:#9BA4A1;}
	.st3{fill:#E4EFEB;}
	.st4{opacity:0.23;fill:#444444;}
	.st5{fill:#444444;}
	.st6{fill:#AECFEE;}
	.st7{fill:#5483AD;}
	.st8{fill:#335066;}
	.st9{fill:#61A1C1;}
	.st10{fill:#6394B4;}
	.st11{fill:#88BBD6;}
	.st12{fill:#ABDAEF;}
	.st13{fill:url(#SVGID_3_);}
	.st14{fill:url(#SVGID_4_);}
	.st15{fill:none;stroke:#FFFFFF;stroke-linecap:round;stroke-miterlimit:10;}
	.st16{fill:none;stroke:#000000;stroke-miterlimit:10;}
	.st17{fill:#EBF1FF;}
	.st18{fill:url(#SVGID_5_);}
	.st19{fill:url(#SVGID_6_);}
	.st20{fill:#B4AA91;}
	.st21{fill:#837960;}
	.st22{fill:#1D3F1D;}
	.st23{fill:#459B45;}
	.st24{fill:#A4B3D0;}
	.st25{fill:#8A9BB5;}
	.st26{fill:#C1DAF9;}
	.st27{fill:#4A5059;}
	.st28{fill:#BFD8F7;}
	.st29{fill:#6E7C89;}
	.st30{fill:#40484F;}
	.st31{fill:#605F68;}
	.st32{opacity:0.3;}
	.st33{fill:#3C3B41;}
	.st34{fill:url(#SVGID_7_);}
	.st35{fill:url(#SVGID_8_);}
	.st36{fill:#FFF0CF;}
	.st37{fill:#B77A37;}
	.st38{fill:#E29942;}
	.st39{fill:#D9B15C;}
	.st40{fill:#CEBE99;}
	.st41{fill:#333333;}
	.st42{fill:#EEFFA6;}
	.st43{fill:#474135;}
	.st44{fill:#D8EF84;}
	.st45{fill:#839945;}
	.st46{fill:#193019;}
	.st47{fill:#346B34;}
	.st48{fill:#5659BA;}
	.st49{fill:#D2E0FB;}
	.st50{fill:#3C3E4B;}
	.st51{fill:#FFFFFF;}
	.st52{fill:#5465C1;}
	.st53{fill:#B95438;}
	.st54{fill:url(#SVGID_9_);}
	.st55{fill:url(#SVGID_10_);}
	.st56{fill:#7893A4;}
	.st57{fill:#BA77AD;}
	.st58{fill:#B48CCB;}
	.st59{fill:#9D7FB2;}
	.st60{fill:#88729B;}
	.st61{fill:#C5B0EB;}
	.st62{fill:#A0C3E9;}
	.st63{fill:url(#SVGID_11_);}
	.st64{fill:url(#SVGID_12_);}
	.st65{fill:#A3C0D8;}
	.st66{fill:#D88A5A;}
	.st67{fill:#9C9777;}
	.st68{fill:#A2A793;}
	.st69{fill:#636864;}
	.st70{fill:#0C0C0C;}
	.st71{fill:#26240B;}
	.st72{fill:#A5A174;}
	.st73{fill:#F2B879;}
	.st74{fill:#8D897E;}
	.st75{fill:#D8AD5E;}
	.st76{fill:#B3AF80;}
	.st77{fill:url(#SVGID_13_);}
	.st78{fill:url(#SVGID_14_);}
	.st79{fill:#231F1E;}
	.st80{fill:#302C2D;}
	.st81{fill:#C96B49;}
	.st82{fill:#535454;}
	.st83{fill:#494949;}
	.st84{fill:#71797C;}
	.st85{fill:#DFC571;}
	.st86{fill:#C05648;}
	.st87{fill:#D3CF78;}
	.st88{fill:#BD5B42;}
	.st89{fill:#5086F3;}
	.st90{fill:#4B4724;}
	.st91{fill:#877D40;}
	.st92{fill:#62AAFC;}
	.st93{fill:#A64C34;}
	.st94{fill:#BB5338;}
	.st95{fill:#A0A035;}
	.st96{fill:#3750B5;}
	.st97{fill:#A3A034;}
	.st98{fill:#D1D540;}
	.st99{fill:#2A417A;}
	.st100{fill:#C0664E;}
	.st101{fill:#7F7F7F;}
	.st102{fill:#6C8AA4;}
	.st103{fill:#4F5249;}
	.st104{fill:#BFAF5C;}
	.st105{fill:#E28D4D;}
	.st106{fill:url(#SVGID_15_);}
	.st107{fill:url(#SVGID_16_);}
	.st108{fill:#5B969C;}
	.st109{fill:#9FACC1;}
	.st110{fill:#D8BF48;}
	.st111{fill:#CB8142;}
	.st112{fill:#D7A23C;}
	.st113{fill:#5B5D5C;}
	.st114{fill:#60868F;}
	.st115{fill:#6BADBB;}
	.st116{fill:#798293;}
	.st117{fill:#52575A;}
	.st118{fill:#757C84;}
	.st119{fill:#54483A;}
	.st120{fill:#9B8973;}
	.st121{fill:#C78636;}
	.st122{fill:#BE7A33;}
	.st123{fill:#CB9336;}
	.st124{fill:#767C7A;}
	.st125{fill:#D8DCE5;}
	.st126{fill:#CFD3D1;}
	.st127{fill:none;}
	.st128{stroke:#000000;stroke-miterlimit:10;}
	.st129{fill:#FFFFFF;stroke:#000000;stroke-miterlimit:10;}
	.st130{stroke:#000000;stroke-linecap:round;stroke-linejoin:round;stroke-miterlimit:10;}
</style>
<g id="IMG_x5F_1254_xA0_Image_1_">
</g>
<g id="Layer_2">
	<g>
		<radialGradient id="SVGID_1_" cx="282.5484" cy="391.4055" r="341.3443" gradientUnits="userSpaceOnUse">
			<stop  offset="0" style="stop-color:#99C1DA"/>
			<stop  offset="1" style="stop-color:#6FC0DE"/>
		</radialGradient>
		<rect x="0" class="st0" width="565.1" height="782.8"/>
		
			<linearGradient id="SVGID_2_" gradientUnits="userSpaceOnUse" x1="282.4524" y1="1917.2957" x2="282.6494" y2="1160.3521" gradientTransform="matrix(1 0 0 0.4621 0 -113.5178)">
			<stop  offset="0" style="stop-color:#B7D856"/>
			<stop  offset="0.6916" style="stop-color:#CAD19E"/>
			<stop  offset="1" style="stop-color:#D4D754"/>
		</linearGradient>
		<rect x="0" y="421.1" class="st1" width="565.1" height="361.7"/>
	</g>
	<g>
		<polygon class="st24" points="0,560 565.1,562.3 0,565.3 		"/>
		<polygon class="st25" points="565.1,557.7 565.1,562.3 59.1,560 		"/>
		<polygon class="st26" points="565.1,557.7 262.8,559.1 380.6,555.4 		"/>
		<polygon class="st27" points="0,569.9 0,565.3 565.1,562.3 565.1,563.5 		"/>
	</g>
	<g>
		<polygon class="st28" points="418.9,566.2 423.1,564.3 423.8,576.6 418.9,579.1 		"/>
		<polygon class="st29" points="418.9,566.2 423.1,564.3 415.3,552.1 411.6,553.9 		"/>
		<polygon class="st30" points="415.3,549.5 424.4,563.8 425.4,576.9 423.8,576.5 423.1,564.2 415.3,552 411.6,552 411.6,550.6 		
			"/>
		<polygon class="st30" points="420.1,579.8 418.9,579.1 423.8,576.5 425.4,576.9 		"/>
		<polygon class="st31" points="401.4,557.1 406.5,557.1 406.5,570.8 401.1,570.8 		"/>
		<polygon class="st28" points="401.6,552.8 406.5,552.8 406.5,557.1 401.4,557.1 		"/>
		<polygon class="st29" points="392.5,552.1 397.6,552.1 397.6,570.8 392.1,570.8 		"/>
		<polygon class="st28" points="387.2,550.7 392.1,550.7 392.3,582.6 387.2,582.6 		"/>
		<polygon class="st31" points="410.3,559.5 415.3,559.5 415.3,570.8 409.9,570.8 		"/>
		<polygon class="st28" points="410.4,552.1 415.3,552.1 415.3,559.2 410.3,559.2 		"/>
	</g>
	<g class="st32">
		
			<image style="overflow:visible;" width="162" height="83" xlink:href="8CE14DA22A52F6BD.png"  transform="matrix(1 0 0 1 192.0118 520.6718)">
		</image>
	</g>
	<path class="st17" d="M409.6,41.3c0,0,31.8-35.1,74.5-8.8c0,0,20.8-9.9,27.4,8.8c0,0,35.1,15.1,26.3,50.8s-41.6,24.7-41.6,24.7
		s-27.4,36.2-71.2,11c0,0-26.3,9.9-30.7-12.1c0,0-32.9-10.7-29.6-36S388.8,39.2,409.6,41.3z"/>
	<g>
		<polygon class="st6" points="119.2,98.4 111.6,97.3 97.2,136.9 103.6,138.7 		"/>
		<g>
			<polygon class="st7" points="102.8,138.5 102.8,138.5 103.1,139.1 103.1,139.1 103.4,139.7 96.5,140.6 96.2,140 95.9,139.4 
				95.6,138.8 102.4,137.9 			"/>
			<polygon class="st8" points="102.4,137.9 102.8,136 96,137 95.6,138.8 			"/>
			<g>
				<polygon class="st9" points="102.8,136 103.1,136.6 103.1,136.9 103.2,136.6 103.5,137.2 103.1,139.1 102.8,138.5 102.8,138.5 
					102.4,137.9 				"/>
				<polygon class="st9" points="103.5,137.2 103.8,137.8 103.4,139.7 103.1,139.1 				"/>
			</g>
		</g>
		<g>
			<polygon class="st10" points="94.4,98.5 86,98.2 95.7,137.9 102.6,136.9 			"/>
			<polygon class="st11" points="94.6,98.1 94.5,98.5 86,98.2 86.1,97.7 			"/>
			<polygon class="st12" points="94.5,98.5 102.6,136.9 94.6,98.1 			"/>
		</g>
	</g>
	<g>
		<polygon class="st56" points="309.2,583.5 297.9,572.3 182.2,688 182.6,688.4 182.4,688.4 182.4,782.8 198.3,782.8 198.3,694.4 		
			"/>
		<polygon class="st57" points="93.1,640.6 186.5,547.2 186.5,531.5 93.1,625 		"/>
		
			<rect x="157.2" y="507.9" transform="matrix(-0.7071 0.7071 -0.7071 -0.7071 787.0037 821.9585)" class="st58" width="132.1" height="132.1"/>
		
			<rect x="136.9" y="619.5" transform="matrix(-0.7071 0.7071 -0.7071 -0.7071 719.5529 969.9209)" class="st59" width="44" height="28.9"/>
		
			<rect x="92.5" y="610.5" transform="matrix(-0.7071 0.7071 -0.7071 -0.7071 662.3945 975.5319)" class="st58" width="73.3" height="28.9"/>
		
			<rect x="177.1" y="631.6" transform="matrix(-0.7071 0.7071 -0.7071 -0.7071 776.682 970.3431)" class="st60" width="20.6" height="28.9"/>
		<polygon class="st61" points="223.3,451 223.3,480.6 316.7,574 316.7,544.4 		"/>
		<polygon points="342.3,207.5 372.9,176.9 409.6,213.5 406.6,234.1 387.4,252.6 		"/>
		<polygon class="st61" points="262.9,458.1 262.9,475.8 356.3,569.2 356.3,551.5 		"/>
		<polygon class="st57" points="129.9,574 223.3,480.6 223.3,451 129.9,544.4 		"/>
		<polygon class="st59" points="356.3,569 339.1,551.8 339,552 262.9,475.9 245.7,493.1 316.7,564.1 316.7,574.2 245.7,645.2 
			262.9,662.4 339,586.4 339.1,586.5 356.3,569.3 356.2,569.2 		"/>
		<polygon class="st61" points="302.3,464 302.3,478.9 395.7,572.3 395.7,557.5 		"/>
		<polygon class="st61" points="472.1,458.1 236.4,222.7 236.4,207.9 472.1,443.3 		"/>
		<polygon class="st57" points="350.5,521.2 420.5,451.2 420.5,442.4 350.5,512.5 		"/>
		<polygon class="st58" points="472.1,458.3 442.7,428.9 236.4,222.7 298.1,161 307.4,170.2 336.8,140.9 327.5,131.6 327.7,131.4 
			298.4,102 298.1,102.2 297.9,102 268.5,131.4 268.8,131.6 207.1,193.3 177.7,222.7 207.1,252 413.3,458.3 350.3,521.3 
			379.7,550.7 442.7,487.7 		"/>
		<polygon class="st57" points="177.5,222.6 298.2,102 298.2,87.2 177.5,207.8 		"/>
		<polygon class="st61" points="336.8,140.9 298.2,102 298.2,87.2 336.8,126.1 		"/>
		
			<rect x="311.5" y="151.6" transform="matrix(-0.7071 0.7071 -0.7071 -0.7071 700.0098 63.9016)" class="st17" width="50.6" height="50.6"/>
		<polygon class="st3" points="336.8,125 336.8,141.1 372.6,176.9 372.6,160.7 		"/>
		<polygon class="st57" points="285.6,495.4 302.3,478.8 302.3,464 285.6,480.7 		"/>
		<polyline class="st60" points="302.3,479 285.6,495.4 357.3,567.1 351.6,572.9 280.6,643.9 300.1,663.4 395.7,572.4 395.5,572.3 
			395.7,572.2 		"/>
		<polygon class="st57" points="246.2,493.6 262.9,477 262.9,458.1 246.2,474.8 		"/>
		<polygon class="st41" points="397.6,189.2 372.9,164.5 372.9,176.9 397.6,201.6 409.6,213.5 		"/>
		<path d="M329.7,170.7L329.7,170.7c0-3.4,2.8-6.2,6.2-6.2h0c3.4,0,6.2,2.8,6.2,6.2v0c0,3.4-2.8,6.2-6.2,6.2h0
			C332.5,176.9,329.7,174.2,329.7,170.7z"/>
		<polygon class="st41" points="301,176.9 301,164.5 307.4,170.2 		"/>
		<polygon class="st62" points="274.8,638.7 263.6,627.5 147.8,743.2 148.2,743.6 148,743.6 148,782.8 163.9,782.8 163.9,749.6 		
			"/>
		<polygon class="st56" points="270.9,620.1 263.6,627.6 274.8,638.8 274.8,624 		"/>
	</g>
	<polygon class="st23" points="381.2,687.4 369.6,730.2 381.2,782.8 397.4,782.8 	"/>
	<polygon class="st46" points="460.5,615.1 443.1,654.4 436.8,782.8 457.6,782.8 	"/>
	<polygon class="st45" points="414.8,655.6 429.2,615.1 443.1,782.8 424,782.8 	"/>
	<polygon class="st23" points="506.2,659 486.5,693.8 477.9,782.8 494.6,782.8 	"/>
	<polygon class="st45" points="534,720.9 512.6,752.8 506.2,782.8 523,782.8 	"/>
	<path class="st17" d="M451.8,297.7c0,0,11.2-25.1,34-23.3c22.8,1.9,33,20.9,33,20.9s34,9.8,21.9,39.6
		c-12.1,29.8-36.3,15.8-36.3,15.8s-4.7,7.9-20.9,7.9c-16.3,0-20.5-10.7-20.5-10.7s-4.7,4.7-15.8,2.3c-11.2-2.3-12.6-7.4-12.6-7.4
		s-15.4,7.9-23.3-8.8c-7.9-16.8,10.7-26.1,18.6-24.2C429.9,309.8,436.9,297.3,451.8,297.7z"/>
	<g>
		<path class="st57" d="M427.2,97.4c1.1,0,2,0.3,2.7,0.9c0.7,0.6,1,1.4,1,2.5v6.1h-34.8v-3.4c0-0.7,0.1-1.4,0.4-2.1
			c0.3-0.7,0.7-1.4,1.4-2L412.2,85c1.2-1.2,2.3-2.4,3.2-3.5c0.9-1.1,1.7-2.2,2.2-3.3c0.6-1.1,1-2.2,1.3-3.2c0.3-1.1,0.4-2.2,0.4-3.4
			c0-2-0.5-3.5-1.4-4.5c-0.9-1.1-2.4-1.6-4.3-1.6c-1.6,0-2.9,0.4-4,1.2c-1.1,0.8-1.8,1.9-2.2,3.1c-0.5,1.2-1.1,2.1-1.9,2.5
			c-0.8,0.4-1.9,0.5-3.3,0.3l-5.6-1c0.4-2.5,1.1-4.6,2.1-6.5c1-1.8,2.3-3.4,3.8-4.6c1.5-1.2,3.3-2.1,5.2-2.7c2-0.6,4.1-0.9,6.4-0.9
			c2.4,0,4.6,0.4,6.6,1.1c2,0.7,3.6,1.7,5,3c1.4,1.3,2.4,2.8,3.2,4.5c0.7,1.8,1.1,3.7,1.1,5.8c0,1.8-0.3,3.5-0.8,5
			c-0.5,1.5-1.2,3-2.1,4.4c-0.9,1.4-1.9,2.7-3.1,4c-1.2,1.3-2.4,2.6-3.7,4l-9.7,9.9c1.2-0.4,2.5-0.7,3.7-0.9
			c1.2-0.2,2.4-0.3,3.4-0.3H427.2z"/>
		<path class="st57" d="M448.7,106.5c-0.2,0.6-0.6,1.2-1,1.6c-0.4,0.5-0.8,0.9-1.3,1.2s-1,0.6-1.6,0.7c-0.6,0.2-1.1,0.2-1.6,0.2
			h-4.5L458,59.6c0.5-1.2,1.1-2,2.1-2.6c0.9-0.6,2-0.9,3.2-0.9h4.5L448.7,106.5z"/>
		<path class="st57" d="M475.9,71.5c0.4-2.5,1.1-4.6,2.1-6.5c1-1.8,2.3-3.4,3.8-4.6c1.5-1.2,3.3-2.1,5.2-2.7c2-0.6,4.1-0.9,6.4-0.9
			c2.4,0,4.6,0.3,6.5,1c1.9,0.7,3.5,1.6,4.8,2.8c1.3,1.2,2.3,2.5,3,4.1c0.7,1.6,1,3.2,1,4.9c0,1.6-0.2,2.9-0.5,4.1
			c-0.3,1.2-0.8,2.2-1.4,3.1c-0.6,0.9-1.4,1.6-2.3,2.2c-0.9,0.6-2,1.1-3.1,1.5c5.5,1.9,8.2,5.7,8.2,11.2c0,2.6-0.5,4.9-1.4,6.9
			c-1,1.9-2.2,3.6-3.8,4.9c-1.6,1.3-3.4,2.3-5.6,2.9s-4.3,1-6.6,1c-2.4,0-4.5-0.3-6.3-0.8c-1.8-0.5-3.5-1.3-4.9-2.4
			c-1.4-1.1-2.7-2.5-3.8-4.1c-1.1-1.7-2-3.7-2.8-6l4.7-1.9c1.2-0.5,2.4-0.6,3.4-0.4c1,0.2,1.8,0.7,2.2,1.6c1,1.9,2.1,3.2,3.2,4.1
			c1.1,0.8,2.5,1.3,4,1.3c1.2,0,2.2-0.2,3.1-0.6s1.6-0.9,2.2-1.5c0.6-0.6,1-1.3,1.3-2.1c0.3-0.8,0.4-1.6,0.4-2.4
			c0-1.1-0.1-2-0.2-2.9s-0.6-1.6-1.2-2.2c-0.7-0.6-1.7-1.1-3.1-1.4c-1.4-0.3-3.3-0.5-5.7-0.5V78c2.1,0,3.7-0.2,5-0.5
			c1.3-0.3,2.2-0.8,2.9-1.3c0.7-0.6,1.1-1.2,1.4-2s0.3-1.7,0.3-2.6c0-1.9-0.5-3.4-1.4-4.5c-0.9-1.1-2.4-1.6-4.3-1.6
			c-1.6,0-2.9,0.4-4,1.2c-1.1,0.8-1.8,1.9-2.2,3.1c-0.5,1.2-1.1,2.1-1.9,2.5c-0.8,0.4-1.9,0.5-3.3,0.3L475.9,71.5z"/>
	</g>
	<g>
		<polygon class="st4" points="41.7,452 53.3,447.9 112.5,469.2 101.9,473.4 		"/>
		<g>
			<polygon class="st2" points="76.2,443.6 94.7,450.1 94.7,470.8 76.2,464.3 			"/>
			<polygon class="st3" points="88.7,439.1 107.2,445.6 94.7,450.1 76.2,443.5 			"/>
			<polygon class="st2" points="76.2,443.6 94.7,450.1 94.7,470.8 76.2,464.3 			"/>
			<polygon class="st3" points="88.7,439.1 107.2,445.6 94.7,450.1 76.2,443.5 			"/>
			<polygon class="st2" points="65,438 68.8,439.2 68.8,441.6 65,440.3 			"/>
			<polygon class="st3" points="69.4,436.8 72.6,437.7 68.2,439.2 65,438.1 			"/>
			<polygon points="66.2,440.1 76.6,443.8 76.6,464.5 66.2,460.8 			"/>
			<polygon class="st5" points="78.2,435.9 88.5,439.6 76.6,443.8 66.2,440.1 			"/>
			<path d="M121.2,457.2l7.6-2.7l1.5-5.7l-8.2-5.2l1.5-2l-2.5-2.4l-1.7,1c0,0-6.9-2.2-12.2,5.4l-12.6,4.5v20.7l7.2,2.6l10.6-4.2
				C112.5,469.2,112.6,457,121.2,457.2z"/>
		</g>
	</g>
</g>
</svg>
