<?xml version="1.0" encoding="utf-8"?>
<!-- Generator: Adobe Illustrator 24.1.2, SVG Export Plug-In . SVG Version: 6.00 Build 0)  -->
<svg version="1.1" xmlns="http://www.w3.org/2000/svg" xmlns:xlink="http://www.w3.org/1999/xlink" x="0px" y="0px"
	 viewBox="0 0 565.1 782.8" style="enable-background:new 0 0 565.1 782.8;" xml:space="preserve">
<style type="text/css">
	.st0{fill:url(#SVGID_1_);}
	.st1{fill:url(#SVGID_2_);}
	.st2{opacity:0.23;fill:#444444;}
	.st3{fill:#3B435E;}
	.st4{fill:#202433;}
	.st5{fill:#333333;}
	.st6{fill:url(#SVGID_3_);}
	.st7{fill:url(#SVGID_4_);}
	.st8{fill:#9BA4A1;}
	.st9{fill:#E4EFEB;}
	.st10{fill:#444444;}
	.st11{fill:none;stroke:#FFFFFF;stroke-linecap:round;stroke-miterlimit:10;}
	.st12{fill:none;stroke:#000000;stroke-miterlimit:10;}
	.st13{fill:#EBF1FF;}
	.st14{fill:url(#SVGID_5_);}
	.st15{fill:url(#SVGID_6_);}
	.st16{fill:#BFD8F7;}
	.st17{fill:#6E7C89;}
	.st18{fill:#40484F;}
	.st19{fill:#A4B3D0;}
	.st20{fill:#8A9BB5;}
	.st21{fill:#C1DAF9;}
	.st22{fill:#4A5059;}
	.st23{fill:#605F68;}
	.st24{fill:#B4AA91;}
	.st25{fill:#837960;}
	.st26{fill:#1D3F1D;}
	.st27{fill:#459B45;}
	.st28{fill:#FFF0CF;}
	.st29{fill:#B77A37;}
	.st30{fill:#E29942;}
	.st31{fill:#D9B15C;}
	.st32{fill:#CEBE99;}
	.st33{fill:#3C3B41;}
	.st34{fill:#EEFFA6;}
	.st35{fill:#474135;}
	.st36{fill:#D8EF84;}
	.st37{fill:#AECFEE;}
	.st38{fill:#5483AD;}
	.st39{fill:#335066;}
	.st40{fill:#61A1C1;}
	.st41{fill:#6394B4;}
	.st42{fill:#88BBD6;}
	.st43{fill:#ABDAEF;}
	.st44{fill:#839945;}
	.st45{fill:#193019;}
	.st46{fill:#346B34;}
	.st47{fill:url(#SVGID_7_);}
	.st48{fill:url(#SVGID_8_);}
	.st49{fill:#5659BA;}
	.st50{fill:#D2E0FB;}
	.st51{fill:#3C3E4B;}
	.st52{fill:#FFFFFF;}
	.st53{opacity:0.3;}
	.st54{fill:#5465C1;}
	.st55{fill:#B95438;}
	.st56{fill:url(#SVGID_9_);}
	.st57{fill:url(#SVGID_10_);}
	.st58{fill:#7893A4;}
	.st59{fill:#BA77AD;}
	.st60{fill:#B48CCB;}
	.st61{fill:#9D7FB2;}
	.st62{fill:#88729B;}
	.st63{fill:#C5B0EB;}
	.st64{fill:#A0C3E9;}
	.st65{fill:url(#SVGID_11_);}
	.st66{fill:url(#SVGID_12_);}
	.st67{fill:#A3C0D8;}
	.st68{fill:#D88A5A;}
	.st69{fill:#9C9777;}
	.st70{fill:#A2A793;}
	.st71{fill:#636864;}
	.st72{fill:#0C0C0C;}
	.st73{fill:#26240B;}
	.st74{fill:#A5A174;}
	.st75{fill:#F2B879;}
	.st76{fill:#8D897E;}
	.st77{fill:#D8AD5E;}
	.st78{fill:#B3AF80;}
	.st79{fill:url(#SVGID_13_);}
	.st80{fill:url(#SVGID_14_);}
	.st81{fill:#231F1E;}
	.st82{fill:#302C2D;}
	.st83{fill:#C96B49;}
	.st84{fill:#535454;}
	.st85{fill:#494949;}
	.st86{fill:#71797C;}
	.st87{fill:#DFC571;}
	.st88{fill:#C05648;}
	.st89{fill:#D3CF78;}
	.st90{fill:#BD5B42;}
	.st91{fill:#5086F3;}
	.st92{fill:#4B4724;}
	.st93{fill:#877D40;}
	.st94{fill:#62AAFC;}
	.st95{fill:#A64C34;}
	.st96{fill:#BB5338;}
	.st97{fill:#A0A035;}
	.st98{fill:#3750B5;}
	.st99{fill:#A3A034;}
	.st100{fill:#D1D540;}
	.st101{fill:#2A417A;}
	.st102{fill:#C0664E;}
	.st103{fill:#7F7F7F;}
	.st104{fill:#6C8AA4;}
	.st105{fill:#4F5249;}
	.st106{fill:url(#SVGID_15_);}
	.st107{fill:url(#SVGID_16_);}
	.st108{fill:#5B969C;}
	.st109{fill:#9FACC1;}
	.st110{fill:#D8BF48;}
	.st111{fill:#CB8142;}
	.st112{fill:#D7A23C;}
	.st113{fill:#5B5D5C;}
	.st114{fill:#60868F;}
	.st115{fill:#6BADBB;}
	.st116{fill:#798293;}
	.st117{fill:#52575A;}
	.st118{fill:#757C84;}
	.st119{fill:#54483A;}
	.st120{fill:#9B8973;}
	.st121{fill:none;}
	.st122{fill:#495370;}
	.st123{fill:url(#SVGID_17_);}
	.st124{fill:url(#SVGID_18_);}
	.st125{fill:#BFAF5C;}
	.st126{fill:#E28D4D;}
	.st127{fill:#C78636;}
	.st128{fill:#BE7A33;}
	.st129{fill:#CB9336;}
	.st130{fill:#767C7A;}
	.st131{fill:#D8DCE5;}
	.st132{fill:#CFD3D1;}
	.st133{stroke:#000000;stroke-miterlimit:10;}
	.st134{fill:#FFFFFF;stroke:#000000;stroke-miterlimit:10;}
	.st135{stroke:#000000;stroke-linecap:round;stroke-linejoin:round;stroke-miterlimit:10;}
</style>
<g id="IMG_x5F_1254_xA0_Image_1_">
</g>
<g id="Layer_2">
	<g>
		<radialGradient id="SVGID_1_" cx="282.5484" cy="391.4055" r="341.3443" gradientUnits="userSpaceOnUse">
			<stop  offset="0" style="stop-color:#99C1DA"/>
			<stop  offset="1" style="stop-color:#6FC0DE"/>
		</radialGradient>
		<rect class="st0" width="565.1" height="782.8"/>
		
			<linearGradient id="SVGID_2_" gradientUnits="userSpaceOnUse" x1="282.4524" y1="1917.2957" x2="282.6494" y2="1160.3521" gradientTransform="matrix(1 0 0 0.4621 0 -113.5178)">
			<stop  offset="0" style="stop-color:#B7D856"/>
			<stop  offset="0.6916" style="stop-color:#CAD19E"/>
			<stop  offset="1" style="stop-color:#D4D754"/>
		</linearGradient>
		<rect y="421.1" class="st1" width="565.1" height="361.7"/>
	</g>
	<polygon class="st16" points="512.2,566.2 516.5,564.3 517.2,576.6 512.3,579.1 	"/>
	<polygon class="st17" points="512.3,566.2 516.5,564.3 508.7,552.1 505,553.9 	"/>
	<polygon class="st18" points="508.7,549.5 517.8,563.8 518.8,576.9 517.2,576.5 516.5,564.2 508.7,552 505,552 505,550.6 	"/>
	<polygon class="st18" points="513.5,579.8 512.3,579.1 517.2,576.5 518.8,576.9 	"/>
	<g>
		<polygon class="st19" points="0,560 565.1,562.3 0,565.3 		"/>
		<polygon class="st20" points="565.1,557.7 565.1,562.3 59.1,560 		"/>
		<polygon class="st21" points="565.1,557.7 262.8,559.1 380.6,555.4 		"/>
		<polygon class="st22" points="0,569.9 0,565.3 565.1,562.3 565.1,563.5 		"/>
	</g>
	<polygon class="st23" points="494.8,557.1 499.9,557.1 499.9,570.8 494.4,570.8 	"/>
	<polygon class="st16" points="495,552.8 499.9,552.8 499.9,557.1 494.8,557.1 	"/>
	<polygon class="st17" points="485.8,552.1 490.9,552.1 490.9,570.8 485.5,570.8 	"/>
	<polygon class="st16" points="480.6,550.7 485.5,550.7 485.7,582.6 480.6,582.6 	"/>
	<polygon class="st23" points="503.6,559.5 508.7,559.5 508.7,570.8 503.2,570.8 	"/>
	<polygon class="st16" points="503.8,552.1 508.7,552.1 508.7,559.2 503.6,559.2 	"/>
	<polygon class="st17" points="34.2,569.3 39.3,569.3 39.3,576.4 33.8,576.4 	"/>
	<g>
		<polygon class="st2" points="443.2,448.8 425.3,455.5 390.8,435.1 		"/>
		<g>
			<polygon class="st24" points="422.8,440.8 425.3,441 425.3,455.5 422.8,454.6 			"/>
			<polygon class="st25" points="427.9,440.8 425.3,441 425.3,455.5 427.9,454.6 			"/>
			<polygon class="st26" points="425.3,376.4 425.3,445.8 406.8,439.2 			"/>
			<polygon class="st27" points="443.2,439 425.3,445.8 425.3,376.6 			"/>
		</g>
	</g>
	<g>
		<polygon class="st2" points="462.6,470 444.7,476.8 410.2,456.3 		"/>
		<g>
			<polygon class="st24" points="442.2,462.1 444.7,462.2 444.7,476.8 442.2,475.9 			"/>
			<polygon class="st25" points="447.3,462.1 444.7,462.2 444.7,476.8 447.3,475.8 			"/>
			<polygon class="st26" points="444.7,397.6 444.7,467 426.3,460.5 			"/>
			<polygon class="st27" points="462.6,460.3 444.7,467 444.7,397.8 			"/>
		</g>
	</g>
	<path class="st13" d="M44.3,421.1c0,0,9.4-21.2,29.4-21.2c0,0,4.1-28.8,30.6-28.8s35.9,25,35.9,25s41.2-14.3,47.7,25H44.3z"/>
	<path class="st13" d="M369.6,61.3c0,0,31.8-35.1,74.5-8.8c0,0,20.8-9.9,27.4,8.8c0,0,35.1,15.1,26.3,50.8
		c-8.8,35.7-41.6,24.7-41.6,24.7s-27.4,36.2-71.2,11c0,0-26.3,9.9-30.7-12.1c0,0-32.9-10.7-29.6-36S348.8,59.2,369.6,61.3z"/>
	<g>
		<polygon class="st2" points="515,459.5 497.2,466.2 462.6,445.8 		"/>
		<g>
			<polygon class="st24" points="494.6,451.6 497.2,451.7 497.2,466.2 494.6,465.3 			"/>
			<polygon class="st25" points="499.7,451.6 497.2,451.7 497.2,466.2 499.7,465.3 			"/>
			<polygon class="st26" points="497.2,387.1 497.2,456.5 478.7,449.9 			"/>
			<polygon class="st27" points="515,449.7 497.2,456.5 497.2,387.3 			"/>
		</g>
	</g>
	<g>
		<g>
			<rect x="239.8" y="551.5" class="st24" width="6.7" height="21.6"/>
			<rect x="250.7" y="551.5" class="st24" width="6.7" height="21.6"/>
			<rect x="261.5" y="551.5" class="st24" width="6.7" height="21.6"/>
			<rect x="276.9" y="551.5" class="st24" width="6.7" height="21.6"/>
			<rect x="288.3" y="551.5" class="st24" width="6.7" height="21.6"/>
			<rect x="299.6" y="551.5" class="st24" width="6.7" height="21.6"/>
			<rect x="239.8" y="543.7" class="st28" width="6.7" height="7.8"/>
			<rect x="250.7" y="543.7" class="st28" width="6.7" height="7.8"/>
			<rect x="261.5" y="543.7" class="st28" width="6.7" height="7.8"/>
			<rect x="276.9" y="543.7" class="st28" width="6.7" height="7.8"/>
			<rect x="288.3" y="543.7" class="st28" width="6.7" height="7.8"/>
			<rect x="299.6" y="543.7" class="st28" width="6.7" height="7.8"/>
			<g>
				<polygon class="st24" points="262.3,409.2 264.9,410.3 264.9,546.4 262.3,545.4 				"/>
				<polygon class="st25" points="267.4,409.2 264.9,410.3 264.9,546.4 267.4,545.4 				"/>
			</g>
			<g>
				<polygon class="st24" points="277.7,409.2 280.3,410.3 280.3,546.4 277.7,545.4 				"/>
				<polyline class="st25" points="282.8,409.2 280.3,410.3 280.3,546.4 282.8,545.4 				"/>
			</g>
		</g>
		<g>
			<polygon class="st25" points="225.5,200.6 244,207.2 244,408.4 225.5,401.8 			"/>
			<polygon class="st24" points="244,207.1 262.5,213.7 262.5,414.9 244,408.4 			"/>
			<polygon class="st8" points="262.5,213.8 281,220.2 281,421.5 262.5,414.9 			"/>
			<polygon class="st13" points="281,220.2 332.6,201.8 332.6,402 281,421.5 			"/>
			<path class="st2" d="M318.9,217.7l-18.1,7.7c0,0-3.5,4.5,0,10.4c-3.5,5.9,0,12.8,0,12.8l13.7,37.3l3.1-43.2L318.9,217.7z"/>
			<g>
				<path class="st29" d="M300.8,235.8l38.8,5.5l-38.8-15.9C300.8,225.4,297.3,229.9,300.8,235.8z"/>
				<path class="st30" d="M300.8,235.8l38.8,5.5l-38.8,7.3C300.8,248.6,297.3,241.7,300.8,235.8z"/>
				<polygon class="st31" points="300.8,225.4 318.9,217.7 339.6,241.3 				"/>
			</g>
			<polygon class="st9" points="314.2,195.3 332.6,201.8 281,220.2 262.5,213.7 			"/>
			<polygon class="st28" points="295.7,188.8 314.2,195.3 262.5,213.8 244,207.2 			"/>
			<polygon class="st32" points="277.2,182.2 295.7,188.6 244,207.1 225.5,200.6 			"/>
			<polygon class="st5" points="255.2,260 247.5,256.8 247.5,247.8 255.2,251 			"/>
			<polygon class="st10" points="255.2,251 247.5,247.8 251.3,246.2 259,249.4 			"/>
			<polygon class="st10" points="259,258.4 255.2,260 255.2,251 259,249.4 			"/>
		</g>
	</g>
	<polygon class="st23" points="56.5,565.7 61.6,565.7 61.6,573.7 56.1,573.7 	"/>
	<polygon class="st16" points="56.7,557.1 61.6,557.1 61.6,565.7 56.5,565.7 	"/>
	<polygon class="st23" points="48.2,564.5 53.3,564.5 53.3,575.3 47.9,575.3 	"/>
	<polygon class="st16" points="48.4,555.8 53.3,555.8 53.3,564.5 48.2,564.5 	"/>
	<polygon class="st23" points="39.3,561.4 44.4,561.4 44.4,575.5 39,575.5 	"/>
	<polygon class="st23" points="33.9,547.4 39,547.4 39,560.2 33.5,560.2 	"/>
	<polygon class="st16" points="39.5,556 44.4,556 44.4,561.4 39.3,561.4 	"/>
	<polygon class="st16" points="34.2,544.8 39.1,544.8 39.1,547.5 34,547.5 	"/>
	<polygon class="st16" points="67.2,545.9 65.1,563.8 70.2,565.7 72.4,545.9 	"/>
	<polygon class="st17" points="57.2,574.4 65.1,563.8 70.2,565.7 62.6,577.1 	"/>
	<polygon class="st33" points="65.1,548.6 67.2,545.9 65.1,563.8 57.2,574.4 57.2,572.7 63.7,563.2 	"/>
	<g>
		<polygon class="st34" points="98.2,200.9 122.3,225 114.8,235.6 89.2,210.6 		"/>
		<polygon class="st35" points="107.1,230.6 107.1,230.6 105.9,231.3 105.9,231.3 104.7,232 115.6,241.4 116.8,240.7 118,240 
			119.2,239.3 108.3,229.9 		"/>
		<polygon class="st25" points="108.3,229.9 109.7,226.2 120.6,235.6 119.2,239.3 		"/>
		<polygon class="st36" points="114.8,209.2 142.8,199.1 142.8,224.5 114.8,235.6 		"/>
		<g>
			<polygon class="st32" points="109.7,226.2 108.5,226.9 108.4,227.4 108.5,226.9 107.3,227.6 105.9,231.3 107.1,230.6 
				107.1,230.6 108.3,229.9 			"/>
			<polygon class="st32" points="107.3,227.6 106.1,228.3 104.7,232 105.9,231.3 			"/>
		</g>
	</g>
	<g>
		<polygon class="st37" points="246.3,89 253.9,90 268.6,115.2 262,115.2 		"/>
		<g>
			<polygon class="st38" points="262.9,115.2 262.9,115.2 262.4,115.7 262.4,115.7 262,116.2 268.3,119 268.8,118.5 269.2,118 
				269.7,117.5 263.3,114.7 			"/>
			<polygon class="st39" points="263.3,114.7 263.5,112.8 269.8,115.6 269.7,117.5 			"/>
			<g>
				<polygon class="st40" points="263.5,112.8 263,113.3 263,113.5 263,113.3 262.6,113.8 262.4,115.7 262.9,115.2 262.9,115.2 
					263.3,114.7 				"/>
				<polygon class="st40" points="262.5,113.8 262.1,114.3 262,116.2 262.4,115.7 				"/>
			</g>
		</g>
		<g>
			<polygon class="st41" points="280.4,104.2 288.6,106.2 269.8,116.6 263.5,113.7 			"/>
			<polygon class="st42" points="280.3,103.8 280.3,104.2 288.6,106.2 288.6,105.8 			"/>
			<polygon class="st43" points="280.3,104.2 263.5,113.7 280.3,103.8 			"/>
		</g>
	</g>
	<polygon class="st44" points="221.9,596.6 199.1,713.4 182.4,729.6 173.7,702.8 	"/>
	<polygon class="st45" points="138,627 160.3,771.9 170.8,782.8 185.3,782.8 188.7,765.4 	"/>
	<rect x="178.5" y="657.2" class="st46" width="5.8" height="125.6"/>
	<polygon class="st45" points="263.4,653.5 271.3,749.6 286.9,766.8 289.4,729.6 	"/>
	<polygon class="st27" points="313.9,682.5 284.5,782.8 299.8,782.8 	"/>
	<polygon class="st44" points="313.9,682.5 284.5,782.8 299.8,782.8 	"/>
	<polygon class="st46" points="296.3,679.8 290.5,679.4 283.5,782.8 289.3,782.8 	"/>
	<polygon class="st27" points="150.6,531.7 160.9,642.1 177.8,661.5 183.4,660.2 188.7,642.5 	"/>
	<polygon class="st27" points="83.6,723.1 108.3,782.8 119.4,782.8 	"/>
	<polygon class="st27" points="211.4,782.8 277.3,681.3 233.7,782.8 	"/>
	<polygon class="st27" points="273.6,596.6 277.3,691.1 288.5,703.2 294.5,703.2 300.1,689.7 	"/>
	<polygon class="st27" points="367.4,727.9 332.1,782.8 342.9,782.8 	"/>
	<g>
		<path class="st25" d="M371.6,96.4c1.6-0.6,3.4-0.9,5.3-0.9c1.8,0,3.6,0.3,5.3,0.9s3.3,1.5,4.7,2.7c1.4,1.2,2.5,2.8,3.3,4.6
			c0.8,1.9,1.3,4.1,1.3,6.6c0,2.3-0.4,4.5-1.3,6.6c-0.9,2.1-2.1,3.9-3.7,5.4c-1.6,1.6-3.5,2.8-5.7,3.7s-4.7,1.4-7.4,1.4
			c-2.8,0-5.2-0.4-7.4-1.3c-2.2-0.9-4.1-2.1-5.6-3.7c-1.5-1.6-2.7-3.4-3.5-5.6c-0.8-2.2-1.2-4.6-1.2-7.2c0-4.9,1.9-9.8,5.6-14.8
			l11.1-15.1c0.5-0.7,1.3-1.2,2.3-1.7c1-0.5,2.1-0.7,3.4-0.7h9.4l-14.7,17.5L371.6,96.4z M373.3,119.1c1.1,0,2.1-0.2,3-0.6
			c0.9-0.4,1.8-1,2.4-1.7c0.7-0.7,1.2-1.6,1.6-2.5c0.4-1,0.6-2,0.6-3.1c0-1.3-0.2-2.4-0.6-3.4c-0.4-1-0.9-1.8-1.6-2.5
			s-1.5-1.2-2.5-1.6c-1-0.4-2-0.5-3.2-0.5c-1.1,0-2,0.2-2.9,0.6c-0.9,0.4-1.6,0.9-2.3,1.6c-0.6,0.7-1.2,1.5-1.5,2.5
			c-0.4,1-0.5,2.1-0.5,3.3c0,1.2,0.1,2.3,0.4,3.3c0.3,1,0.7,1.8,1.4,2.5c0.6,0.7,1.4,1.2,2.3,1.6S372,119.1,373.3,119.1z"/>
		<path class="st25" d="M408.2,126.5c-0.2,0.6-0.6,1.2-1,1.6c-0.4,0.5-0.8,0.9-1.3,1.2s-1,0.6-1.6,0.7c-0.6,0.2-1.1,0.2-1.6,0.2
			h-4.5l19.3-50.7c0.5-1.2,1.1-2,2.1-2.6c0.9-0.6,2-0.9,3.2-0.9h4.5L408.2,126.5z"/>
		<path class="st25" d="M453.6,108.2c0.3-0.4,0.6-0.8,0.9-1.1c0.3-0.4,0.6-0.7,0.8-1.1c-2.1,1.1-4.5,1.7-7.1,1.7
			c-1.6,0-3.2-0.3-4.8-0.9c-1.6-0.6-3.1-1.5-4.4-2.6c-1.3-1.2-2.4-2.7-3.2-4.5s-1.2-3.9-1.2-6.4c0-2.2,0.4-4.4,1.2-6.4
			c0.8-2,2-3.7,3.5-5.2s3.4-2.7,5.5-3.5c2.1-0.9,4.5-1.3,7.1-1.3c2.7,0,5.1,0.4,7.2,1.2s3.9,2,5.4,3.4s2.6,3.2,3.4,5.2
			c0.8,2,1.2,4.3,1.2,6.7c0,3.2-0.5,6.1-1.5,8.7c-1,2.6-2.3,5-3.9,7.2l-10.7,15.2c-0.5,0.7-1.2,1.2-2.2,1.7s-2.1,0.7-3.3,0.7h-9.7
			L453.6,108.2z M445.2,92.5c0,4.9,2.3,7.4,6.9,7.4c2.2,0,4-0.7,5.2-2s1.8-3.1,1.8-5.4c0-1.2-0.2-2.3-0.5-3.2
			c-0.4-0.9-0.8-1.7-1.5-2.3c-0.6-0.6-1.4-1.1-2.3-1.4c-0.9-0.3-1.8-0.5-2.9-0.5c-1.1,0-2,0.2-2.8,0.6c-0.8,0.4-1.5,0.9-2.1,1.5
			c-0.6,0.7-1,1.4-1.3,2.3C445.3,90.5,445.2,91.5,445.2,92.5z"/>
	</g>
</g>
</svg>
