<?xml version="1.0" encoding="utf-8"?>
<!-- Generator: Adobe Illustrator 24.1.2, SVG Export Plug-In . SVG Version: 6.00 Build 0)  -->
<svg version="1.1" xmlns="http://www.w3.org/2000/svg" xmlns:xlink="http://www.w3.org/1999/xlink" x="0px" y="0px"
	 viewBox="0 0 565.1 782.8" style="enable-background:new 0 0 565.1 782.8;" xml:space="preserve">
<style type="text/css">
	.st0{fill:url(#SVGID_1_);}
	.st1{fill:url(#SVGID_2_);}
	.st2{fill:#9BA4A1;}
	.st3{fill:#E4EFEB;}
	.st4{opacity:0.23;fill:#444444;}
	.st5{fill:#444444;}
	.st6{fill:#AECFEE;}
	.st7{fill:#5483AD;}
	.st8{fill:#335066;}
	.st9{fill:#61A1C1;}
	.st10{fill:#6394B4;}
	.st11{fill:#88BBD6;}
	.st12{fill:#ABDAEF;}
	.st13{fill:url(#SVGID_3_);}
	.st14{fill:url(#SVGID_4_);}
	.st15{fill:none;stroke:#FFFFFF;stroke-linecap:round;stroke-miterlimit:10;}
	.st16{fill:none;stroke:#000000;stroke-miterlimit:10;}
	.st17{fill:#EBF1FF;}
	.st18{fill:url(#SVGID_5_);}
	.st19{fill:url(#SVGID_6_);}
	.st20{fill:#B4AA91;}
	.st21{fill:#837960;}
	.st22{fill:#1D3F1D;}
	.st23{fill:#459B45;}
	.st24{fill:#A4B3D0;}
	.st25{fill:#8A9BB5;}
	.st26{fill:#C1DAF9;}
	.st27{fill:#4A5059;}
	.st28{fill:#BFD8F7;}
	.st29{fill:#6E7C89;}
	.st30{fill:#40484F;}
	.st31{fill:#605F68;}
	.st32{opacity:0.3;}
	.st33{fill:#3C3B41;}
	.st34{fill:url(#SVGID_7_);}
	.st35{fill:url(#SVGID_8_);}
	.st36{fill:#FFF0CF;}
	.st37{fill:#B77A37;}
	.st38{fill:#E29942;}
	.st39{fill:#D9B15C;}
	.st40{fill:#CEBE99;}
	.st41{fill:#333333;}
	.st42{fill:#EEFFA6;}
	.st43{fill:#474135;}
	.st44{fill:#D8EF84;}
	.st45{fill:#839945;}
	.st46{fill:#193019;}
	.st47{fill:#346B34;}
	.st48{fill:#5659BA;}
	.st49{fill:#D2E0FB;}
	.st50{fill:#3C3E4B;}
	.st51{fill:#FFFFFF;}
	.st52{fill:#5465C1;}
	.st53{fill:#B95438;}
	.st54{fill:url(#SVGID_9_);}
	.st55{fill:url(#SVGID_10_);}
	.st56{fill:#7893A4;}
	.st57{fill:#BA77AD;}
	.st58{fill:#B48CCB;}
	.st59{fill:#9D7FB2;}
	.st60{fill:#88729B;}
	.st61{fill:#C5B0EB;}
	.st62{fill:#A0C3E9;}
	.st63{fill:url(#SVGID_11_);}
	.st64{fill:url(#SVGID_12_);}
	.st65{fill:#A3C0D8;}
	.st66{fill:#D88A5A;}
	.st67{fill:#9C9777;}
	.st68{fill:#A2A793;}
	.st69{fill:#636864;}
	.st70{fill:#0C0C0C;}
	.st71{fill:#26240B;}
	.st72{fill:#A5A174;}
	.st73{fill:#F2B879;}
	.st74{fill:#8D897E;}
	.st75{fill:#D8AD5E;}
	.st76{fill:#B3AF80;}
	.st77{fill:url(#SVGID_13_);}
	.st78{fill:url(#SVGID_14_);}
	.st79{fill:#231F1E;}
	.st80{fill:#302C2D;}
	.st81{fill:#C96B49;}
	.st82{fill:#535454;}
	.st83{fill:#494949;}
	.st84{fill:#71797C;}
	.st85{fill:#DFC571;}
	.st86{fill:#C05648;}
	.st87{fill:#D3CF78;}
	.st88{fill:#BD5B42;}
	.st89{fill:#5086F3;}
	.st90{fill:#4B4724;}
	.st91{fill:#877D40;}
	.st92{fill:#62AAFC;}
	.st93{fill:#A64C34;}
	.st94{fill:#BB5338;}
	.st95{fill:#A0A035;}
	.st96{fill:#3750B5;}
	.st97{fill:#A3A034;}
	.st98{fill:#D1D540;}
	.st99{fill:#2A417A;}
	.st100{fill:#C0664E;}
	.st101{fill:#7F7F7F;}
	.st102{fill:#6C8AA4;}
	.st103{fill:#4F5249;}
	.st104{fill:#BFAF5C;}
	.st105{fill:#E28D4D;}
	.st106{fill:url(#SVGID_15_);}
	.st107{fill:url(#SVGID_16_);}
	.st108{fill:#5B969C;}
	.st109{fill:#9FACC1;}
	.st110{fill:#D8BF48;}
	.st111{fill:#CB8142;}
	.st112{fill:#D7A23C;}
	.st113{fill:#5B5D5C;}
	.st114{fill:#60868F;}
	.st115{fill:#6BADBB;}
	.st116{fill:#798293;}
	.st117{fill:#52575A;}
	.st118{fill:#757C84;}
	.st119{fill:#54483A;}
	.st120{fill:#9B8973;}
	.st121{fill:#C78636;}
	.st122{fill:#BE7A33;}
	.st123{fill:#CB9336;}
	.st124{fill:#767C7A;}
	.st125{fill:#D8DCE5;}
	.st126{fill:#CFD3D1;}
	.st127{fill:none;}
	.st128{stroke:#000000;stroke-miterlimit:10;}
	.st129{fill:#FFFFFF;stroke:#000000;stroke-miterlimit:10;}
	.st130{stroke:#000000;stroke-linecap:round;stroke-linejoin:round;stroke-miterlimit:10;}
</style>
<g id="IMG_x5F_1254_xA0_Image_1_">
</g>
<g id="Layer_2">
	<g>
		<radialGradient id="SVGID_1_" cx="282.5484" cy="391.4055" r="341.3443" gradientUnits="userSpaceOnUse">
			<stop  offset="0" style="stop-color:#99C1DA"/>
			<stop  offset="1" style="stop-color:#6FC0DE"/>
		</radialGradient>
		<rect x="0" class="st0" width="565.1" height="782.8"/>
		
			<linearGradient id="SVGID_2_" gradientUnits="userSpaceOnUse" x1="282.4524" y1="760.5668" x2="282.6494" y2="3.6232" gradientTransform="matrix(1 0 0 0.4621 0 420.9854)">
			<stop  offset="0" style="stop-color:#B7D856"/>
			<stop  offset="0.6916" style="stop-color:#CAD19E"/>
			<stop  offset="1" style="stop-color:#D4D754"/>
		</linearGradient>
		<rect x="0" y="421.1" class="st1" width="565.1" height="361.7"/>
	</g>
	<g>
		<polygon class="st2" points="522.9,425.1 504.4,431.6 504.4,452.3 522.9,445.8 		"/>
		<polygon class="st3" points="510.4,420.6 491.9,427.1 504.4,431.6 522.9,425 		"/>
		<polygon class="st4" points="499.8,428.5 464.1,441.1 497.2,454.9 532.9,442.3 		"/>
		<polygon class="st2" points="522.9,425.1 504.4,431.6 504.4,452.3 522.9,445.8 		"/>
		<polygon class="st3" points="510.4,420.6 491.9,427.1 504.4,431.6 522.9,425 		"/>
		<polygon class="st2" points="534.1,419.5 530.3,420.7 530.3,423.1 534.1,421.8 		"/>
		<polygon class="st3" points="529.7,418.3 526.5,419.2 530.9,420.7 534.1,419.6 		"/>
		<polygon points="532.9,421.6 522.5,425.3 522.5,446 532.9,442.3 		"/>
		<polygon class="st5" points="520.9,417.4 510.6,421.1 522.5,425.3 532.9,421.6 		"/>
		<path d="M477.9,438.7l-7.6-2.7l-1.5-5.7l8.2-5.2l-1.5-2l2.5-2.4l1.7,1c0,0,6.9-2.2,12.2,5.4l12.6,4.5v20.7l-7.2,2.6l-10.6-4.2
			C486.6,450.7,486.5,438.5,477.9,438.7z"/>
	</g>
	<polygon class="st4" points="33.5,459.9 45.1,455.8 104.3,477.1 93.7,481.3 	"/>
	<g>
		<polygon class="st2" points="68,451.5 86.5,458 86.5,478.7 68,472.2 		"/>
		<polygon class="st3" points="80.6,447 99,453.5 86.5,458 68,451.4 		"/>
		<polygon class="st2" points="68,451.5 86.5,458 86.5,478.7 68,472.2 		"/>
		<polygon class="st3" points="80.6,447 99,453.5 86.5,458 68,451.4 		"/>
		<polygon class="st2" points="56.9,445.9 60.6,447.1 60.6,449.5 56.9,448.2 		"/>
		<polygon class="st3" points="61.2,444.7 64.4,445.7 60.1,447.1 56.9,446 		"/>
		<polygon points="58,448 68.4,451.7 68.4,472.4 58,468.7 		"/>
		<polygon class="st5" points="70,443.8 80.3,447.5 68.4,451.7 58,448 		"/>
		<path d="M113,465.1l7.6-2.7l1.5-5.7l-8.2-5.2l1.5-2l-2.5-2.4l-1.7,1c0,0-6.9-2.2-12.2,5.4L86.5,458v20.7l7.2,2.6l10.6-4.2
			C104.3,477.1,104.4,465,113,465.1z"/>
	</g>
	<g>
		<polygon class="st6" points="90,218 82.4,216.3 75.9,233.9 82.5,235.8 		"/>
		<g>
			<polygon class="st7" points="81.7,235.5 81.7,235.5 82.1,235.9 82.1,235.9 82.5,236.2 75.9,235.7 75.5,235.3 75.1,235 
				74.7,234.7 81.2,235.2 			"/>
			<polygon class="st8" points="81.2,235.2 81.3,234.3 74.7,233.8 74.7,234.7 			"/>
			<g>
				<polygon class="st9" points="81.3,234.3 81.7,234.7 81.7,234.8 81.7,234.7 82.1,235 82.1,235.9 81.7,235.5 81.7,235.5 
					81.2,235.2 				"/>
				<polygon class="st9" points="82.1,235 82.5,235.4 82.5,236.2 82.1,235.9 				"/>
			</g>
		</g>
		<g>
			<polygon class="st10" points="65.7,214.4 57.4,213.1 74.7,234.2 81.2,234.7 			"/>
			<polygon class="st11" points="65.8,214.3 65.8,214.5 57.4,213.1 57.5,212.9 			"/>
			<polygon class="st12" points="65.8,214.5 81.2,234.7 65.8,214.3 			"/>
		</g>
	</g>
	<polygon class="st90" points="111,782.8 147.6,782.8 147.6,507.9 111,496.4 	"/>
	<polygon class="st91" points="170.7,782.8 147.6,782.8 147.6,507.9 170.7,495.1 	"/>
	<polygon class="st104" points="134.1,483.6 111,496.4 147.6,507.9 170.7,495.1 	"/>
	<polygon class="st4" points="156.7,556.8 147.7,557.7 170.5,673.2 170.7,627.3 	"/>
	<path class="st17" d="M409.6,41.3c0,0,31.8-35.1,74.5-8.8c0,0,20.8-9.9,27.4,8.8c0,0,35.1,15.1,26.3,50.8s-41.6,24.7-41.6,24.7
		s-27.4,36.2-71.2,11c0,0-26.3,9.9-30.7-12.1c0,0-32.9-10.7-29.6-36S388.8,39.2,409.6,41.3z"/>
	<g>
		<path class="st105" d="M397.1,71.5c0.4-2.5,1.1-4.6,2.1-6.5c1-1.8,2.3-3.4,3.8-4.6c1.5-1.2,3.3-2.1,5.2-2.7c2-0.6,4.1-0.9,6.4-0.9
			c2.4,0,4.6,0.3,6.5,1c1.9,0.7,3.5,1.6,4.8,2.8c1.3,1.2,2.3,2.5,3,4.1c0.7,1.6,1,3.2,1,4.9c0,1.6-0.2,2.9-0.5,4.1
			c-0.3,1.2-0.8,2.2-1.4,3.1c-0.6,0.9-1.4,1.6-2.3,2.2c-0.9,0.6-2,1.1-3.1,1.5c5.5,1.9,8.2,5.7,8.2,11.2c0,2.6-0.5,4.9-1.4,6.9
			c-1,1.9-2.2,3.6-3.8,4.9c-1.6,1.3-3.4,2.3-5.6,2.9s-4.3,1-6.6,1c-2.4,0-4.5-0.3-6.3-0.8c-1.8-0.5-3.5-1.3-4.9-2.4
			c-1.4-1.1-2.7-2.5-3.8-4.1c-1.1-1.7-2-3.7-2.8-6l4.7-1.9c1.2-0.5,2.4-0.6,3.4-0.4c1,0.2,1.8,0.7,2.2,1.6c1,1.9,2.1,3.2,3.2,4.1
			c1.1,0.8,2.5,1.3,4,1.3c1.2,0,2.2-0.2,3.1-0.6s1.6-0.9,2.2-1.5c0.6-0.6,1-1.3,1.3-2.1c0.3-0.8,0.4-1.6,0.4-2.4
			c0-1.1-0.1-2-0.2-2.9s-0.6-1.6-1.2-2.2c-0.7-0.6-1.7-1.1-3.1-1.4c-1.4-0.3-3.3-0.5-5.7-0.5V78c2.1,0,3.7-0.2,5-0.5
			c1.3-0.3,2.2-0.8,2.9-1.3c0.7-0.6,1.1-1.2,1.4-2s0.3-1.7,0.3-2.6c0-1.9-0.5-3.4-1.4-4.5c-0.9-1.1-2.4-1.6-4.3-1.6
			c-1.6,0-2.9,0.4-4,1.2c-1.1,0.8-1.8,1.9-2.2,3.1c-0.5,1.2-1.1,2.1-1.9,2.5c-0.8,0.4-1.9,0.5-3.3,0.3L397.1,71.5z"/>
		<path class="st105" d="M448.7,106.5c-0.2,0.6-0.6,1.2-1,1.6c-0.4,0.5-0.8,0.9-1.3,1.2s-1,0.6-1.6,0.7c-0.6,0.2-1.1,0.2-1.6,0.2
			h-4.5L458,59.6c0.5-1.2,1.1-2,2.1-2.6c0.9-0.6,2-0.9,3.2-0.9h4.5L448.7,106.5z"/>
		<path class="st105" d="M510.8,87.7v5.9c0,0.5-0.2,1-0.5,1.4c-0.4,0.4-0.9,0.6-1.5,0.6h-3.1v11.4h-9.2V95.5h-19.9
			c-0.7,0-1.3-0.2-1.8-0.6c-0.5-0.4-0.9-0.9-1-1.5l-1.1-5.2l22.9-30.8h10.1v30.3H510.8z M496.6,87.7V74.8c0-0.8,0-1.6,0.1-2.6
			c0.1-0.9,0.1-1.9,0.3-2.9l-13.1,18.3H496.6z"/>
	</g>
	<g>
		<polygon class="st24" points="0,560 565.1,562.3 0,565.3 		"/>
		<polygon class="st25" points="565.1,557.7 565.1,562.3 59.1,560 		"/>
		<polygon class="st26" points="565.1,557.7 262.8,559.1 380.6,555.4 		"/>
		<polygon class="st27" points="0,569.9 0,565.3 565.1,562.3 565.1,563.5 		"/>
	</g>
	<polygon class="st102" points="136.3,544.6 120.8,553.3 114.5,551.1 114.5,574.7 118.9,576.3 134.1,570.4 134.1,566.9 129.4,566.9 
		121.4,570.4 122,558.6 136.3,550.5 	"/>
	<polygon class="st103" points="120.8,553.3 114.5,551.1 129.9,543 136.3,544.6 	"/>
	<g>
		<polygon class="st28" points="532.6,566.2 536.8,564.3 537.6,576.6 532.6,579.1 		"/>
		<polygon class="st29" points="532.6,566.2 536.8,564.3 529.1,552.1 525.4,553.9 		"/>
		<polygon class="st30" points="529.1,549.5 538.1,563.8 539.2,576.9 537.6,576.5 536.8,564.2 529.1,552 525.4,552 525.4,550.6 		
			"/>
		<polygon class="st30" points="533.9,579.8 532.6,579.1 537.6,576.5 539.2,576.9 		"/>
		<polygon class="st31" points="515.2,557.1 520.3,557.1 520.3,570.8 514.8,570.8 		"/>
		<polygon class="st28" points="515.4,552.8 520.3,552.8 520.3,557.1 515.2,557.1 		"/>
		<polygon class="st29" points="506.2,552.1 511.3,552.1 511.3,570.8 505.8,570.8 		"/>
		<polygon class="st28" points="500.9,550.7 505.8,550.7 506,582.6 501,582.6 		"/>
		<polygon class="st31" points="524,559.5 529.1,559.5 529.1,570.8 523.6,570.8 		"/>
		<polygon class="st28" points="524.2,552.1 529.1,552.1 529.1,559.2 524,559.2 		"/>
	</g>
	<path class="st17" d="M382.2,225.8c0,0,6-28.6,28.6-29.3c22.6-0.8,36.8,4.5,42.1,29.3c0,0,30.1-20.3,48.9,18.8
		s-39.1,57.1-48.1,42.1c0,0-34.6,27.1-63.1-6c0,0-35.3,5.3-37.6-27.8C350.6,219.7,382.2,225.8,382.2,225.8z"/>
	<g>
		<polygon class="st110" points="189.4,133.7 291.2,160 361.1,126.4 259.3,100.2 		"/>
		<polygon class="st111" points="189.4,133.6 291.2,159.8 291.2,176.1 189.4,149.9 		"/>
		<polygon class="st111" points="254.2,272 271,276.3 271,475.5 254.2,471.2 		"/>
		<polygon class="st111" points="272.4,294.7 289.2,299.1 289.2,498.2 272.4,493.9 		"/>
		<polygon class="st111" points="236.9,265.6 253.7,269.9 253.7,469.1 236.9,464.8 		"/>
		<polygon class="st111" points="200.5,217.3 217.2,221.7 217.2,420.8 200.5,416.5 		"/>
		<polygon class="st111" points="218.7,244.7 235.4,249 235.4,448.2 218.7,443.8 		"/>
		<g>
			<polygon class="st121" points="215.9,582.2 208.6,580.8 208.6,559.2 215.9,560.6 			"/>
			<polygon class="st122" points="235.8,550.2 228.5,548.8 208.6,559.2 215.9,560.6 			"/>
			<polygon class="st123" points="235.8,550.2 215.9,560.6 215.9,566.9 215.9,582.2 221.7,579.4 221.7,563.9 235.8,556.5 			"/>
		</g>
		<g>
			<polygon class="st121" points="230.4,582.2 223.1,580.8 223.1,559.2 230.4,560.6 			"/>
			<polygon class="st122" points="250.3,550.2 243.1,548.8 223.1,559.2 230.4,560.6 			"/>
			<polygon class="st123" points="250.3,550.2 230.4,560.6 230.4,566.9 230.4,582.2 236.2,579.4 236.2,563.9 250.3,556.5 			"/>
		</g>
		<g>
			<polygon class="st121" points="245.2,581.5 237.9,580.1 237.9,558.5 245.2,559.9 			"/>
			<polygon class="st122" points="265.2,549.5 257.9,548.1 237.9,558.5 245.2,559.9 			"/>
			<polygon class="st123" points="265.2,549.5 245.2,559.9 245.2,566.2 245.2,581.5 251.1,578.7 251.1,563.2 265.2,555.8 			"/>
		</g>
		<polygon class="st121" points="237.5,474.7 244.1,476.3 244.1,553.7 237.5,552 		"/>
		<polygon class="st123" points="248.5,474.2 244.1,476.3 244.1,553.7 248.5,551.5 		"/>
		<polygon class="st124" points="228.2,291.1 244.9,295.4 244.9,494.6 228.2,490.3 		"/>
		<polygon class="st125" points="256.5,289.9 244.9,295.4 244.9,494.6 256.5,489.1 		"/>
		<polygon class="st111" points="350.6,267.9 367.4,272.2 367.4,471.4 350.6,467.1 		"/>
		<polygon class="st105" points="378.9,266.7 367.4,272.2 367.4,471.4 378.9,465.9 		"/>
		<polygon class="st111" points="321,282 337.8,286.3 337.8,485.5 321,481.2 		"/>
		<polygon class="st105" points="349.3,280.8 337.8,286.3 337.8,485.5 349.3,480 		"/>
		<polygon class="st111" points="291,300.2 307.8,304.5 307.8,503.7 291,499.4 		"/>
		<polygon class="st105" points="319.3,299 307.8,304.5 307.8,503.7 319.3,498.2 		"/>
		<polygon class="st111" points="291,272.9 307.8,277.2 307.8,476.4 291,472.1 		"/>
		<polygon class="st105" points="319.3,271.7 307.8,277.2 307.8,476.4 319.3,470.9 		"/>
		<g>
			<g>
				<polygon class="st121" points="289.9,582.2 282.6,580.8 282.6,559.2 289.9,560.6 				"/>
				<polygon class="st122" points="309.9,550.2 302.6,548.8 282.6,559.2 289.9,560.6 				"/>
				<polygon class="st123" points="309.9,550.2 289.9,560.6 289.9,566.9 289.9,582.2 295.8,579.4 295.8,563.9 309.9,556.5 				"/>
			</g>
			<g>
				<polygon class="st121" points="304.4,582.2 297.2,580.8 297.2,559.2 304.4,560.6 				"/>
				<polygon class="st122" points="324.4,550.2 317.1,548.8 297.2,559.2 304.4,560.6 				"/>
				<polygon class="st123" points="324.4,550.2 304.4,560.6 304.4,566.9 304.4,582.2 310.3,579.4 310.3,563.9 324.4,556.5 				"/>
			</g>
			<g>
				<polygon class="st121" points="319.3,581.5 312,580.1 312,558.5 319.3,559.9 				"/>
				<polygon class="st122" points="339.2,549.5 331.9,548.1 312,558.5 319.3,559.9 				"/>
				<polygon class="st123" points="339.2,549.5 319.3,559.9 319.3,566.2 319.3,581.5 325.1,578.7 325.1,563.2 339.2,555.8 				"/>
			</g>
			<polygon class="st121" points="311.6,474.7 318.1,476.3 318.1,553.7 311.6,552 			"/>
			<polygon class="st123" points="322.6,474.2 318.1,476.3 318.1,553.7 322.6,551.5 			"/>
		</g>
		<polygon class="st124" points="301,272.9 317.8,277.2 317.8,476.4 301,472.1 		"/>
		<polygon class="st125" points="329.3,271.7 317.8,277.2 317.8,476.4 329.3,470.9 		"/>
		<polygon class="st126" points="279.1,287.1 291.2,290.4 301.8,285.3 289.2,281.6 		"/>
		<polygon class="st2" points="289.6,240.8 301.8,244.1 301.8,285.3 289.2,281.6 		"/>
		<polygon class="st17" points="289.6,240.8 279.1,245.9 279.1,287.1 289.2,281.6 		"/>
		<polygon class="st17" points="291.2,176.4 291.2,249.2 301.8,244.1 301.8,285.7 291.2,290.8 291.2,451.7 361.1,418.3 361.1,142.9 
					"/>
		<polygon class="st2" points="291.2,176.4 291.2,249.2 279.1,245.9 279.1,287.5 291.2,290.8 291.2,451.7 189.4,425.3 189.4,149.9 
					"/>
		<polygon class="st105" points="361.1,126.4 291.2,159.8 291.2,176.1 361.1,142.7 		"/>
		<polygon class="st5" points="361.1,256.9 291.2,290.4 291.2,294.6 361.1,261.2 		"/>
		<polygon class="st110" points="350.6,267.9 367.4,272.2 378.9,266.7 362.1,262.4 		"/>
		<polygon class="st110" points="337.9,274.2 354.7,278.6 366.2,273 349.4,268.7 		"/>
		<polygon class="st111" points="337.9,274.2 354.7,278.5 354.7,403 337.9,398.7 		"/>
		<polygon class="st105" points="366.2,273 354.7,278.5 354.7,403 366.2,397.5 		"/>
		<polygon class="st21" points="282.4,246.8 291.2,249.1 291.2,287.7 282.4,285.3 		"/>
		<polygon class="st40" points="298.1,245.7 291.2,249.2 291.2,287.7 298.1,284.2 		"/>
		<g>
			<polygon class="st41" points="248.2,235.4 226.1,229.6 226.1,203.3 248.2,209.2 			"/>
			<polygon class="st5" points="255,231.5 248.2,235.4 248.2,209.2 255,205.2 			"/>
			<polygon class="st5" points="233,199.3 226.1,203.3 248.2,209.2 255,205.2 			"/>
		</g>
		<g>
			<polygon class="st5" points="326,232 318.3,230 318.3,203.8 326,205.7 			"/>
			<polygon class="st41" points="344.7,223.2 326,232 326,205.8 344.7,196.9 			"/>
			<polygon class="st5" points="336.9,195 318.3,203.8 326,205.8 344.7,196.9 			"/>
		</g>
		<polygon class="st5" points="189.4,268.3 291.2,294.6 291.2,290.4 189.4,264.2 		"/>
	</g>
	<g>
		<polygon class="st6" points="487.4,319.5 495,320.5 509.8,345.6 503.1,345.6 		"/>
		<g>
			<polygon class="st7" points="504,345.6 504,345.6 503.5,346.1 503.5,346.1 503.1,346.6 509.4,349.4 509.9,348.9 510.3,348.4 
				510.8,347.9 504.5,345.1 			"/>
			<polygon class="st8" points="504.5,345.1 504.6,343.2 510.9,346 510.8,347.9 			"/>
			<g>
				<polygon class="st9" points="504.6,343.2 504.1,343.7 504.1,343.9 504.1,343.7 503.7,344.2 503.5,346.1 504,345.6 504,345.6 
					504.5,345.1 				"/>
				<polygon class="st9" points="503.7,344.2 503.2,344.7 503.1,346.6 503.5,346.1 				"/>
			</g>
		</g>
		<g>
			<polygon class="st10" points="521.5,334.7 529.7,336.7 510.9,347 504.6,344.1 			"/>
			<polygon class="st11" points="521.4,334.3 521.4,334.7 529.7,336.7 529.7,336.2 			"/>
			<polygon class="st12" points="521.4,334.7 504.6,344.1 521.4,334.3 			"/>
		</g>
	</g>
	<polygon class="st23" points="81,585.6 67.3,625.7 84.1,782.8 101.5,782.8 	"/>
	<polygon class="st23" points="53.2,664.2 38.2,691.1 49.3,782.8 66.6,782.8 	"/>
	<polygon class="st23" points="140.7,618.9 126.3,652.2 140.2,782.8 157.6,782.8 	"/>
	<polygon class="st22" points="174.1,672.9 158.7,696.3 168.3,782.8 185.6,782.8 	"/>
	<polygon class="st22" points="102.2,564.9 88.8,608.3 107,782.8 124.4,782.8 	"/>
	<polygon class="st23" points="95.5,645.5 105.1,674 102.9,782.8 92.9,782.8 	"/>
	<polygon class="st23" points="114.8,701.3 124.5,720.1 123.1,782.8 113.1,782.8 	"/>
	<polygon class="st23" points="62.6,673.3 72.3,696.9 70.5,782.8 60.4,782.8 	"/>
	<polygon class="st22" points="45.7,714.7 55.5,730.9 54.2,782.8 44.2,782.8 	"/>
	<polygon class="st22" points="82.5,631.6 92,662.6 89.7,782.8 79.6,782.8 	"/>
	<polygon class="st23" points="290.3,609.2 301.4,648.8 289.5,782.8 275.9,782.8 	"/>
	<polygon class="st23" points="312.6,686.6 324.5,712.8 316.7,782.8 303.1,782.8 	"/>
	<polygon class="st23" points="244,645 255.4,677.7 245.6,782.8 232.1,782.8 	"/>
	<polygon class="st22" points="218.3,700.3 230.4,723 223.7,782.8 210.2,782.8 	"/>
	<polygon class="st22" points="273.6,589.5 284.4,632.3 271.6,782.8 258,782.8 	"/>
	<polygon class="st23" points="446.6,590.4 432.3,628.8 429.2,782.8 442.8,782.8 	"/>
	<polygon class="st23" points="418,665.6 404,690.7 401.9,782.8 415.5,782.8 	"/>
	<polygon class="st23" points="489.8,629.8 475.7,661.5 473.1,782.8 486.7,782.8 	"/>
	<polygon class="st22" points="510.8,687.1 496.8,708.7 495.1,782.8 508.7,782.8 	"/>
	<polygon class="st22" points="464.9,572 450.5,613.8 447.2,782.8 460.8,782.8 	"/>
	<polygon class="st23" points="241.6,669.7 251.5,691.1 261.6,782.8 253.9,782.8 	"/>
	<polygon class="st23" points="261.5,711.6 270.7,725.4 277.3,782.8 269.5,782.8 	"/>
	<polygon class="st23" points="218.6,694.4 228.1,711.9 236.5,782.8 228.7,782.8 	"/>
	<polygon class="st22" points="209.1,728.2 218.2,740 223.9,782.8 216.1,782.8 	"/>
	<polygon class="st22" points="230.2,660 240.4,683.3 251.4,782.8 243.6,782.8 	"/>
	<rect x="12.2" y="534.7" class="st127" width="510.7" height="248.1"/>
</g>
</svg>
