<?xml version="1.0" encoding="utf-8"?>
<!-- Generator: Adobe Illustrator 24.1.2, SVG Export Plug-In . SVG Version: 6.00 Build 0)  -->
<svg version="1.1" xmlns="http://www.w3.org/2000/svg" xmlns:xlink="http://www.w3.org/1999/xlink" x="0px" y="0px"
	 viewBox="0 0 565.1 782.8" style="enable-background:new 0 0 565.1 782.8;" xml:space="preserve">
<style type="text/css">
	.st0{fill:url(#SVGID_1_);}
	.st1{fill:url(#SVGID_2_);}
	.st2{fill:#9BA4A1;}
	.st3{fill:#E4EFEB;}
	.st4{opacity:0.23;fill:#444444;}
	.st5{fill:#444444;}
	.st6{fill:#AECFEE;}
	.st7{fill:#5483AD;}
	.st8{fill:#335066;}
	.st9{fill:#61A1C1;}
	.st10{fill:#6394B4;}
	.st11{fill:#88BBD6;}
	.st12{fill:#ABDAEF;}
	.st13{fill:url(#SVGID_3_);}
	.st14{fill:url(#SVGID_4_);}
	.st15{fill:none;stroke:#FFFFFF;stroke-linecap:round;stroke-miterlimit:10;}
	.st16{fill:none;stroke:#000000;stroke-miterlimit:10;}
	.st17{fill:#EBF1FF;}
	.st18{fill:url(#SVGID_5_);}
	.st19{fill:url(#SVGID_6_);}
	.st20{fill:#B4AA91;}
	.st21{fill:#837960;}
	.st22{fill:#1D3F1D;}
	.st23{fill:#459B45;}
	.st24{fill:#A4B3D0;}
	.st25{fill:#8A9BB5;}
	.st26{fill:#C1DAF9;}
	.st27{fill:#4A5059;}
	.st28{fill:#BFD8F7;}
	.st29{fill:#6E7C89;}
	.st30{fill:#40484F;}
	.st31{fill:#605F68;}
	.st32{opacity:0.3;}
	.st33{fill:#3C3B41;}
	.st34{fill:url(#SVGID_7_);}
	.st35{fill:url(#SVGID_8_);}
	.st36{fill:#FFF0CF;}
	.st37{fill:#B77A37;}
	.st38{fill:#E29942;}
	.st39{fill:#D9B15C;}
	.st40{fill:#CEBE99;}
	.st41{fill:#333333;}
	.st42{fill:#EEFFA6;}
	.st43{fill:#474135;}
	.st44{fill:#D8EF84;}
	.st45{fill:#839945;}
	.st46{fill:#193019;}
	.st47{fill:#346B34;}
	.st48{fill:#5659BA;}
	.st49{fill:#D2E0FB;}
	.st50{fill:#3C3E4B;}
	.st51{fill:#FFFFFF;}
	.st52{fill:#5465C1;}
	.st53{fill:#B95438;}
	.st54{fill:url(#SVGID_9_);}
	.st55{fill:url(#SVGID_10_);}
	.st56{fill:#7893A4;}
	.st57{fill:#BA77AD;}
	.st58{fill:#B48CCB;}
	.st59{fill:#9D7FB2;}
	.st60{fill:#88729B;}
	.st61{fill:#C5B0EB;}
	.st62{fill:#A0C3E9;}
	.st63{fill:url(#SVGID_11_);}
	.st64{fill:url(#SVGID_12_);}
	.st65{fill:#A3C0D8;}
	.st66{fill:#D88A5A;}
	.st67{fill:#9C9777;}
	.st68{fill:#A2A793;}
	.st69{fill:#636864;}
	.st70{fill:#0C0C0C;}
	.st71{fill:#26240B;}
	.st72{fill:#A5A174;}
	.st73{fill:#F2B879;}
	.st74{fill:#8D897E;}
	.st75{fill:#D8AD5E;}
	.st76{fill:#B3AF80;}
	.st77{fill:url(#SVGID_13_);}
	.st78{fill:url(#SVGID_14_);}
	.st79{fill:#231F1E;}
	.st80{fill:#302C2D;}
	.st81{fill:#C96B49;}
	.st82{fill:#535454;}
	.st83{fill:#494949;}
	.st84{fill:#71797C;}
	.st85{fill:#DFC571;}
	.st86{fill:#C05648;}
	.st87{fill:#D3CF78;}
	.st88{fill:#BD5B42;}
	.st89{fill:#5086F3;}
	.st90{fill:#4B4724;}
	.st91{fill:#877D40;}
	.st92{fill:#62AAFC;}
	.st93{fill:#A64C34;}
	.st94{fill:#BB5338;}
	.st95{fill:#A0A035;}
	.st96{fill:#3750B5;}
	.st97{fill:#A3A034;}
	.st98{fill:#D1D540;}
	.st99{fill:#2A417A;}
	.st100{fill:#C0664E;}
	.st101{fill:#7F7F7F;}
	.st102{fill:#6C8AA4;}
	.st103{fill:#4F5249;}
	.st104{fill:#BFAF5C;}
	.st105{fill:#E28D4D;}
	.st106{fill:url(#SVGID_15_);}
	.st107{fill:url(#SVGID_16_);}
	.st108{fill:#5B969C;}
	.st109{fill:#9FACC1;}
	.st110{fill:#D8BF48;}
	.st111{fill:#CB8142;}
	.st112{fill:#D7A23C;}
	.st113{fill:#5B5D5C;}
	.st114{fill:#60868F;}
	.st115{fill:#6BADBB;}
	.st116{fill:#798293;}
	.st117{fill:#52575A;}
	.st118{fill:#757C84;}
	.st119{fill:#54483A;}
	.st120{fill:#9B8973;}
	.st121{fill:#C78636;}
	.st122{fill:#BE7A33;}
	.st123{fill:#CB9336;}
	.st124{fill:#767C7A;}
	.st125{fill:#D8DCE5;}
	.st126{fill:#CFD3D1;}
	.st127{fill:none;}
	.st128{stroke:#000000;stroke-miterlimit:10;}
	.st129{fill:#FFFFFF;stroke:#000000;stroke-miterlimit:10;}
	.st130{stroke:#000000;stroke-linecap:round;stroke-linejoin:round;stroke-miterlimit:10;}
</style>
<g id="IMG_x5F_1254_xA0_Image_1_">
</g>
<g id="Layer_2">
	<g>
		<radialGradient id="SVGID_1_" cx="282.5484" cy="391.4055" r="341.3443" gradientUnits="userSpaceOnUse">
			<stop  offset="0" style="stop-color:#99C1DA"/>
			<stop  offset="1" style="stop-color:#6FC0DE"/>
		</radialGradient>
		<rect class="st0" width="565.1" height="782.8"/>
		
			<linearGradient id="SVGID_2_" gradientUnits="userSpaceOnUse" x1="282.4524" y1="1917.2957" x2="282.6494" y2="1160.3521" gradientTransform="matrix(1 0 0 0.4621 0 -113.5178)">
			<stop  offset="0" style="stop-color:#B7D856"/>
			<stop  offset="0.6916" style="stop-color:#CAD19E"/>
			<stop  offset="1" style="stop-color:#D4D754"/>
		</linearGradient>
		<rect y="421.1" class="st1" width="565.1" height="361.7"/>
	</g>
	<g>
		<polygon class="st6" points="379,264.3 374.8,265.2 374.1,294.2 377.8,294 		"/>
		<g>
			<polygon class="st7" points="377.3,294.1 377.3,294.1 377.6,294.4 377.6,294.4 377.9,294.7 374.4,296.8 374.1,296.5 373.9,296.2 
				373.6,295.8 377.1,293.7 			"/>
			<polygon class="st8" points="377.1,293.7 376.9,292.4 373.5,294.5 373.6,295.8 			"/>
			<g>
				<polygon class="st9" points="376.9,292.4 377.2,292.8 377.2,292.9 377.2,292.8 377.5,293.1 377.6,294.4 377.3,294.1 
					377.3,294.1 377.1,293.7 				"/>
				<polygon class="st9" points="377.5,293.1 377.8,293.4 377.9,294.7 377.6,294.4 				"/>
			</g>
		</g>
		<g>
			<polygon class="st10" points="365.9,269.7 361.4,271.3 373.5,295.2 377,293.1 			"/>
			<polygon class="st11" points="365.9,269.4 365.9,269.7 361.4,271.3 361.4,271 			"/>
			<polygon class="st12" points="365.9,269.7 377,293.1 365.9,269.4 			"/>
		</g>
	</g>
	<g>
		<polygon class="st6" points="431.5,194.9 435.8,194.5 445,222.1 441.4,223 		"/>
		<g>
			<polygon class="st7" points="441.9,222.9 441.9,222.9 441.7,223.3 441.7,223.3 441.6,223.7 445.5,224.7 445.7,224.3 445.8,223.9 
				446,223.5 442.1,222.5 			"/>
			<polygon class="st8" points="442.1,222.5 441.8,221.2 445.7,222.2 446,223.5 			"/>
			<g>
				<polygon class="st9" points="441.8,221.2 441.6,221.6 441.7,221.8 441.6,221.6 441.5,222 441.7,223.3 441.9,222.9 441.9,222.9 
					442.1,222.5 				"/>
				<polygon class="st9" points="441.5,222 441.3,222.4 441.6,223.7 441.7,223.3 				"/>
			</g>
		</g>
		<g>
			<polygon class="st10" points="445.6,196.2 450.4,196.5 445.9,222.9 442,221.8 			"/>
			<polygon class="st11" points="445.5,196 445.6,196.3 450.4,196.5 450.3,196.1 			"/>
			<polygon class="st12" points="445.6,196.3 442,221.8 445.5,196 			"/>
		</g>
	</g>
	<g>
		<polygon class="st65" points="123,127.3 115.4,126.2 97.2,136.9 103.6,138.7 		"/>
		<polyline class="st6" points="103.6,138.7 114.8,121.4 107.2,120.2 97.2,136.9 		"/>
		<g>
			<polygon class="st7" points="102.8,138.5 102.8,138.5 103.1,139.1 103.1,139.1 103.4,139.7 96.5,140.6 96.2,140 95.9,139.4 
				95.6,138.8 102.4,137.9 			"/>
			<polygon class="st8" points="102.4,137.9 102.8,136 96,137 95.6,138.8 			"/>
			<g>
				<polygon class="st9" points="102.8,136 103.1,136.6 103.1,136.9 103.2,136.6 103.5,137.2 103.1,139.1 102.8,138.5 102.8,138.5 
					102.4,137.9 				"/>
				<polygon class="st9" points="103.5,137.2 103.8,137.8 103.4,139.7 103.1,139.1 				"/>
			</g>
		</g>
		<g>
			<polyline class="st10" points="102.6,136.9 80.9,123.3 72.5,123 95.7,137.9 			"/>
			<polygon class="st11" points="81.1,123 81,123.3 72.5,123 72.6,122.5 			"/>
			<polyline class="st12" points="102.6,136.9 81.1,123 81,123.3 102.6,136.9 			"/>
			<polygon class="st10" points="80.1,130.6 71.7,130.3 95.7,137.9 102.6,136.9 			"/>
			<polygon class="st11" points="80.3,130.3 80.2,130.6 71.7,130.3 71.8,129.8 			"/>
			<polygon class="st12" points="80.2,130.6 102.6,136.9 80.3,130.3 			"/>
		</g>
	</g>
	<g>
		<polygon class="st4" points="462.6,470 444.7,476.8 410.2,456.3 		"/>
		<g>
			<polygon class="st20" points="442.2,462.1 444.7,462.2 444.7,476.8 442.2,475.9 			"/>
			<polygon class="st21" points="447.3,462.1 444.7,462.2 444.7,476.8 447.3,475.8 			"/>
			<polygon class="st22" points="444.7,397.6 444.7,467 426.3,460.5 			"/>
			<polygon class="st23" points="462.6,460.3 444.7,467 444.7,397.8 			"/>
		</g>
	</g>
	<g>
		<polygon class="st4" points="515,459.5 497.2,466.2 462.6,445.8 		"/>
		<g>
			<polygon class="st20" points="494.6,451.6 497.2,451.7 497.2,466.2 494.6,465.3 			"/>
			<polygon class="st21" points="499.7,451.6 497.2,451.7 497.2,466.2 499.7,465.3 			"/>
			<polygon class="st22" points="497.2,368.6 497.2,456.5 478.7,449.9 			"/>
			<polygon class="st23" points="515,449.7 497.2,456.5 497.2,368.6 			"/>
		</g>
	</g>
	<g>
		<polygon class="st23" points="216.4,782.6 111.2,782.8 111.2,782.8 104.9,753.4 88.7,752.1 81.1,715 119.5,718.8 123,733.7 
			166.9,739.9 170.1,757.5 211.6,762.9 		"/>
		<g class="st32">
			
				<image style="overflow:visible;" width="96" height="94" xlink:href="8CE9B8AEE4614B04.png"  transform="matrix(1 0 0 1 153.0915 725.6718)">
			</image>
		</g>
		<polygon class="st23" points="204.7,638.4 234.8,658.7 231.8,674.7 265.7,698.8 260.5,715.9 302.4,744.7 285.4,782.9 205.1,783.1 
			197.7,780.6 209.6,737.8 195.5,727 206.6,684.7 194.2,675.3 		"/>
		<g class="st32">
			
				<image style="overflow:visible;" width="104" height="118" xlink:href="8CE9B8AEE4614B05.png"  transform="matrix(1 0 0 1 226.0915 694.6718)">
			</image>
		</g>
		<polygon class="st23" points="341.5,625 358.2,656.5 347.9,668.7 365.3,703.9 353.7,718.8 375.6,763.7 364.6,782.6 289.5,782.8 
			269.6,748.3 298.5,718.1 293.3,697.6 322.6,667.4 315.2,652.9 		"/>
		<g class="st32">
			
				<image style="overflow:visible;" width="101" height="111" xlink:href="8CE9B8AEE4614B03.png"  transform="matrix(1 0 0 1 308.0915 708.6718)">
			</image>
		</g>
		<g class="st32">
			
				<image style="overflow:visible;" width="101" height="111" xlink:href="8CE9B8AEE4614B0C.png"  transform="matrix(1 0 0 1 308.0915 708.6718)">
			</image>
		</g>
		<polygon class="st23" points="475,677.9 471.9,713.4 459.5,716.7 458.4,758.9 440.1,765 443.8,782.6 443.8,782.6 352.5,782.8 
			368.8,752.1 395.2,740.6 398.5,722.8 437.8,706.8 438.4,691.2 		"/>
	</g>
	<g>
		<polygon class="st29" points="54.2,560.5 59.3,560.5 59.3,553.4 53.8,553.4 		"/>
		<polygon class="st31" points="76.5,564 81.6,564 81.6,556 76.1,556 		"/>
		<polygon class="st28" points="76.7,572.7 81.6,572.7 81.6,564 76.5,564 		"/>
		<polygon class="st31" points="68.2,565.3 73.3,565.3 73.3,554.5 67.9,554.5 		"/>
		<polygon class="st28" points="68.4,573.9 73.3,573.9 73.3,565.3 68.2,565.3 		"/>
		<polygon class="st31" points="59.3,568.3 64.4,568.3 64.4,554.3 59,554.3 		"/>
		<polygon class="st31" points="53.9,582.4 59,582.4 59,569.6 53.5,569.6 		"/>
		<polygon class="st28" points="59.5,573.7 64.4,573.7 64.4,568.3 59.3,568.3 		"/>
		<polygon class="st28" points="54.2,585 59.1,585 59.1,582.3 54,582.3 		"/>
		<polygon class="st28" points="87.2,583.8 85.1,565.9 90.2,564 92.4,583.8 		"/>
		<polygon class="st29" points="77.2,555.3 85.1,565.9 90.2,564 82.6,552.6 		"/>
		<polygon class="st33" points="85.1,581.2 87.2,583.8 85.1,565.9 77.2,555.3 77.2,557.1 83.7,566.6 		"/>
	</g>
	<g>
		<polygon class="st24" points="0,560 565.1,562.3 0,565.3 		"/>
		<polygon class="st25" points="565.1,557.7 565.1,562.3 59.1,560 		"/>
		<polygon class="st26" points="565.1,557.7 262.8,559.1 380.6,555.4 		"/>
		<polygon class="st27" points="0,569.9 0,565.3 565.1,562.3 565.1,563.5 		"/>
	</g>
	<g>
		<polygon class="st28" points="494.5,566.2 498.7,564.3 499.4,576.6 494.5,579.1 		"/>
		<polygon class="st29" points="494.5,566.2 498.7,564.3 490.9,552.1 487.2,553.9 		"/>
		<polygon class="st30" points="490.9,549.5 500,563.8 501,576.9 499.4,576.5 498.7,564.2 490.9,552 487.2,552 487.2,550.6 		"/>
		<polygon class="st30" points="495.7,579.8 494.5,579.1 499.4,576.5 501,576.9 		"/>
		<polygon class="st31" points="477,557.1 482.1,557.1 482.1,570.8 476.6,570.8 		"/>
		<polygon class="st28" points="477.2,552.8 482.1,552.8 482.1,557.1 477,557.1 		"/>
		<polygon class="st29" points="468.1,552.1 473.1,552.1 473.1,570.8 467.7,570.8 		"/>
		<polygon class="st28" points="462.8,550.7 467.7,550.7 467.9,582.6 462.8,582.6 		"/>
		<polygon class="st31" points="485.8,559.5 490.9,559.5 490.9,570.8 485.5,570.8 		"/>
		<polygon class="st28" points="486,552.1 490.9,552.1 490.9,559.2 485.8,559.2 		"/>
	</g>
	<path class="st17" d="M409.6,41.3c0,0,31.8-35.1,74.5-8.8c0,0,20.8-9.9,27.4,8.8c0,0,35.1,15.1,26.3,50.8s-41.6,24.7-41.6,24.7
		s-27.4,36.2-71.2,11c0,0-26.3,9.9-30.7-12.1c0,0-32.9-10.7-29.6-36S388.8,39.2,409.6,41.3z"/>
	<g>
		<path class="st66" d="M412,76.4c1.6-0.6,3.4-0.9,5.3-0.9c1.8,0,3.6,0.3,5.3,0.9s3.3,1.5,4.7,2.7c1.4,1.2,2.5,2.8,3.3,4.6
			c0.8,1.9,1.3,4.1,1.3,6.6c0,2.3-0.4,4.5-1.3,6.6c-0.9,2.1-2.1,3.9-3.7,5.4c-1.6,1.6-3.5,2.8-5.7,3.7s-4.7,1.4-7.4,1.4
			c-2.8,0-5.2-0.4-7.4-1.3c-2.2-0.9-4.1-2.1-5.6-3.7c-1.5-1.6-2.7-3.4-3.5-5.6c-0.8-2.2-1.2-4.6-1.2-7.2c0-4.9,1.9-9.8,5.6-14.8
			L413,59.8c0.5-0.7,1.3-1.2,2.3-1.7c1-0.5,2.1-0.7,3.4-0.7h9.4l-14.7,17.5L412,76.4z M413.7,99.1c1.1,0,2.1-0.2,3-0.6
			c0.9-0.4,1.8-1,2.4-1.7c0.7-0.7,1.2-1.6,1.6-2.5c0.4-1,0.6-2,0.6-3.1c0-1.3-0.2-2.4-0.6-3.4c-0.4-1-0.9-1.8-1.6-2.5
			s-1.5-1.2-2.5-1.6c-1-0.4-2-0.5-3.2-0.5c-1.1,0-2,0.2-2.9,0.6c-0.9,0.4-1.6,0.9-2.3,1.6c-0.6,0.7-1.2,1.5-1.5,2.5
			c-0.4,1-0.5,2.1-0.5,3.3c0,1.2,0.1,2.3,0.4,3.3c0.3,1,0.7,1.8,1.4,2.5c0.6,0.7,1.4,1.2,2.3,1.6S412.4,99.1,413.7,99.1z"/>
		<path class="st66" d="M448.7,106.5c-0.2,0.6-0.6,1.2-1,1.6c-0.4,0.5-0.8,0.9-1.3,1.2s-1,0.6-1.6,0.7c-0.6,0.2-1.1,0.2-1.6,0.2
			h-4.5L458,59.6c0.5-1.2,1.1-2,2.1-2.6c0.9-0.6,2-0.9,3.2-0.9h4.5L448.7,106.5z"/>
		<path class="st66" d="M494.1,88.2c0.3-0.4,0.6-0.8,0.9-1.1c0.3-0.4,0.6-0.7,0.8-1.1c-2.1,1.1-4.5,1.7-7.1,1.7
			c-1.6,0-3.2-0.3-4.8-0.9c-1.6-0.6-3.1-1.5-4.4-2.6c-1.3-1.2-2.4-2.7-3.2-4.5s-1.2-3.9-1.2-6.4c0-2.2,0.4-4.4,1.2-6.4
			c0.8-2,2-3.7,3.5-5.2s3.4-2.7,5.5-3.5c2.1-0.9,4.5-1.3,7.1-1.3c2.7,0,5.1,0.4,7.2,1.2s3.9,2,5.4,3.4s2.6,3.2,3.4,5.2
			c0.8,2,1.2,4.3,1.2,6.7c0,3.2-0.5,6.1-1.5,8.7c-1,2.6-2.3,5-3.9,7.2l-10.7,15.2c-0.5,0.7-1.2,1.2-2.2,1.7s-2.1,0.7-3.3,0.7h-9.7
			L494.1,88.2z M485.6,72.5c0,4.9,2.3,7.4,6.9,7.4c2.2,0,4-0.7,5.2-2s1.8-3.1,1.8-5.4c0-1.2-0.2-2.3-0.5-3.2
			c-0.4-0.9-0.8-1.7-1.5-2.3c-0.6-0.6-1.4-1.1-2.3-1.4c-0.9-0.3-1.8-0.5-2.9-0.5c-1.1,0-2,0.2-2.8,0.6c-0.8,0.4-1.5,0.9-2.1,1.5
			c-0.6,0.7-1,1.4-1.3,2.3C485.8,70.5,485.6,71.5,485.6,72.5z"/>
	</g>
	<path class="st17" d="M50.8,421.8c0,0-2.2-30.4,30.4-29.3c0,0,4.4-31.5,31.5-31.5s34.1,13.7,38.6,26.7c0,0,25.9-10,41.1,5.6
		c15.2,15.6,12.2,28.5,12.2,28.5H50.8z"/>
	<g class="st32">
		
			<image style="overflow:visible;" width="179" height="83" xlink:href="8CE9B8AEE4614B0F.png"  transform="matrix(1 0 0 1 238.0915 520.6718)">
		</image>
	</g>
	<g>
		<polygon class="st66" points="273.7,395.6 321.4,405.6 321.4,471.5 273.7,461.4 		"/>
		<polygon class="st67" points="273.7,395.6 242.2,388.8 242.2,454.6 273.7,461.4 		"/>
		<polygon class="st68" points="232.8,533.3 275.1,503.9 288.9,499.9 236.4,537 		"/>
		<g>
			<rect x="279.8" y="557.7" class="st69" width="9" height="17.1"/>
			<rect x="279.8" y="553.2" class="st70" width="9" height="4.5"/>
			<rect x="290.2" y="557.7" class="st69" width="9" height="17.1"/>
			<rect x="290.2" y="553.2" class="st70" width="9" height="4.5"/>
			<polygon class="st70" points="276.6,512.2 285.8,554.7 290.2,554.7 281,512.2 			"/>
			<polygon class="st69" points="281,512.2 290.2,554.7 291.5,553.2 281,509 			"/>
		</g>
		<polygon class="st2" points="273.7,514.5 321.4,524.5 321.4,471.5 273.7,461.4 		"/>
		<g>
			<rect x="357.9" y="557.7" class="st69" width="9" height="17.1"/>
			<rect x="357.9" y="553.2" class="st70" width="9" height="4.5"/>
			<rect x="368.3" y="557.7" class="st69" width="9" height="17.1"/>
			<rect x="368.3" y="553.2" class="st70" width="9" height="4.5"/>
			<polygon class="st70" points="329.3,516.5 369.7,555.5 365.8,555.5 326.9,517.9 			"/>
			<polygon class="st69" points="331.3,515.2 329.3,516.5 369.7,555.5 371.2,554 			"/>
		</g>
		<polygon class="st17" points="365.7,497.4 321.4,524.5 321.4,471.5 365.7,444.3 		"/>
		<polygon class="st71" points="208.8,533.3 251,503.9 268.4,505.4 216,542.6 		"/>
		<polygon class="st72" points="273.7,514.5 242.2,507.7 242.2,454.6 273.7,461.4 		"/>
		<polygon class="st73" points="321.4,405.6 365.7,379.7 365.7,444.3 321.4,471.3 		"/>
		<polygon class="st4" points="346.9,418.7 341.9,421.5 341.9,457.5 347.1,454.3 		"/>
		<polygon class="st74" points="341.9,421.5 346.9,418.7 362.2,429.3 357.4,432.4 		"/>
		<polygon class="st75" points="321.4,405.6 365.7,379.7 318,368.6 273.7,395.6 		"/>
		<polygon class="st76" points="242.2,388.8 286.5,362.8 318,368.6 273.7,395.6 		"/>
		<polygon class="st50" points="273.7,395.6 275,395.8 275,514.7 273.7,514.4 		"/>
		<polygon class="st50" points="242.2,453.3 321.4,470 321.4,471.5 242.2,454.6 		"/>
		<polygon class="st50" points="365.7,442.9 321.4,470 321.4,471.5 365.7,444.3 		"/>
		<polygon class="st50" points="317.8,368.6 273.7,395.6 275,395.9 319,368.8 		"/>
		<g>
			<polygon class="st41" points="305.2,439.8 297.6,437.7 297.6,428.7 305.2,430.7 			"/>
			<polygon class="st5" points="307.6,438.4 305.2,439.8 305.2,430.7 307.6,429.3 			"/>
			<polygon class="st5" points="300,427.3 297.6,428.7 305.2,430.7 307.6,429.3 			"/>
		</g>
		<polygon class="st41" points="341.9,421.5 341.9,436.9 357.4,432.4 		"/>
	</g>
</g>
</svg>
