<?xml version="1.0" encoding="utf-8"?>
<!-- Generator: Adobe Illustrator 24.1.2, SVG Export Plug-In . SVG Version: 6.00 Build 0)  -->
<svg version="1.1" xmlns="http://www.w3.org/2000/svg" xmlns:xlink="http://www.w3.org/1999/xlink" x="0px" y="0px"
	 viewBox="0 0 565.1 782.8" style="enable-background:new 0 0 565.1 782.8;" xml:space="preserve">
<style type="text/css">
	.st0{fill:url(#SVGID_1_);}
	.st1{fill:url(#SVGID_2_);}
	.st2{fill:#9BA4A1;}
	.st3{fill:#E4EFEB;}
	.st4{opacity:0.23;fill:#444444;}
	.st5{fill:#444444;}
	.st6{fill:#AECFEE;}
	.st7{fill:#5483AD;}
	.st8{fill:#335066;}
	.st9{fill:#61A1C1;}
	.st10{fill:#6394B4;}
	.st11{fill:#88BBD6;}
	.st12{fill:#ABDAEF;}
	.st13{fill:url(#SVGID_3_);}
	.st14{fill:url(#SVGID_4_);}
	.st15{fill:none;stroke:#FFFFFF;stroke-linecap:round;stroke-miterlimit:10;}
	.st16{fill:none;stroke:#000000;stroke-miterlimit:10;}
	.st17{fill:#EBF1FF;}
	.st18{fill:url(#SVGID_5_);}
	.st19{fill:url(#SVGID_6_);}
	.st20{fill:#B4AA91;}
	.st21{fill:#837960;}
	.st22{fill:#1D3F1D;}
	.st23{fill:#459B45;}
	.st24{fill:#A4B3D0;}
	.st25{fill:#8A9BB5;}
	.st26{fill:#C1DAF9;}
	.st27{fill:#4A5059;}
	.st28{fill:#BFD8F7;}
	.st29{fill:#6E7C89;}
	.st30{fill:#40484F;}
	.st31{fill:#605F68;}
	.st32{opacity:0.3;}
	.st33{fill:#3C3B41;}
	.st34{fill:url(#SVGID_7_);}
	.st35{fill:url(#SVGID_8_);}
	.st36{fill:#FFF0CF;}
	.st37{fill:#B77A37;}
	.st38{fill:#E29942;}
	.st39{fill:#D9B15C;}
	.st40{fill:#CEBE99;}
	.st41{fill:#333333;}
	.st42{fill:#EEFFA6;}
	.st43{fill:#474135;}
	.st44{fill:#D8EF84;}
	.st45{fill:#839945;}
	.st46{fill:#193019;}
	.st47{fill:#346B34;}
	.st48{fill:#5659BA;}
	.st49{fill:#D2E0FB;}
	.st50{fill:#3C3E4B;}
	.st51{fill:#FFFFFF;}
	.st52{fill:#5465C1;}
	.st53{fill:#B95438;}
	.st54{fill:url(#SVGID_9_);}
	.st55{fill:url(#SVGID_10_);}
	.st56{fill:#7893A4;}
	.st57{fill:#BA77AD;}
	.st58{fill:#B48CCB;}
	.st59{fill:#9D7FB2;}
	.st60{fill:#88729B;}
	.st61{fill:#C5B0EB;}
	.st62{fill:#A0C3E9;}
	.st63{fill:url(#SVGID_11_);}
	.st64{fill:url(#SVGID_12_);}
	.st65{fill:#A3C0D8;}
	.st66{fill:#D88A5A;}
	.st67{fill:#9C9777;}
	.st68{fill:#A2A793;}
	.st69{fill:#636864;}
	.st70{fill:#0C0C0C;}
	.st71{fill:#26240B;}
	.st72{fill:#A5A174;}
	.st73{fill:#F2B879;}
	.st74{fill:#8D897E;}
	.st75{fill:#D8AD5E;}
	.st76{fill:#B3AF80;}
	.st77{fill:url(#SVGID_13_);}
	.st78{fill:url(#SVGID_14_);}
	.st79{fill:#231F1E;}
	.st80{fill:#302C2D;}
	.st81{fill:#C96B49;}
	.st82{fill:#535454;}
	.st83{fill:#494949;}
	.st84{fill:#71797C;}
	.st85{fill:#DFC571;}
	.st86{fill:#C05648;}
	.st87{fill:#D3CF78;}
	.st88{fill:#BD5B42;}
	.st89{fill:#5086F3;}
	.st90{fill:#4B4724;}
	.st91{fill:#877D40;}
	.st92{fill:#62AAFC;}
	.st93{fill:#A64C34;}
	.st94{fill:#BB5338;}
	.st95{fill:#A0A035;}
	.st96{fill:#3750B5;}
	.st97{fill:#A3A034;}
	.st98{fill:#D1D540;}
	.st99{fill:#2A417A;}
	.st100{fill:#C0664E;}
	.st101{fill:#7F7F7F;}
	.st102{fill:#6C8AA4;}
	.st103{fill:#4F5249;}
	.st104{fill:#BFAF5C;}
	.st105{fill:#E28D4D;}
	.st106{fill:url(#SVGID_15_);}
	.st107{fill:url(#SVGID_16_);}
	.st108{fill:#5B969C;}
	.st109{fill:#9FACC1;}
	.st110{fill:#D8BF48;}
	.st111{fill:#CB8142;}
	.st112{fill:#D7A23C;}
	.st113{fill:#5B5D5C;}
	.st114{fill:#60868F;}
	.st115{fill:#6BADBB;}
	.st116{fill:#798293;}
	.st117{fill:#52575A;}
	.st118{fill:#757C84;}
	.st119{fill:#54483A;}
	.st120{fill:#9B8973;}
	.st121{fill:#C78636;}
	.st122{fill:#BE7A33;}
	.st123{fill:#CB9336;}
	.st124{fill:#767C7A;}
	.st125{fill:#D8DCE5;}
	.st126{fill:#CFD3D1;}
	.st127{fill:none;}
	.st128{stroke:#000000;stroke-miterlimit:10;}
	.st129{fill:#FFFFFF;stroke:#000000;stroke-miterlimit:10;}
	.st130{stroke:#000000;stroke-linecap:round;stroke-linejoin:round;stroke-miterlimit:10;}
</style>
<g id="IMG_x5F_1254_xA0_Image_1_">
</g>
<g id="Layer_2">
	<g>
		<radialGradient id="SVGID_1_" cx="282.5484" cy="391.4055" r="341.3443" gradientUnits="userSpaceOnUse">
			<stop  offset="0" style="stop-color:#99C1DA"/>
			<stop  offset="1" style="stop-color:#6FC0DE"/>
		</radialGradient>
		<rect class="st0" width="565.1" height="782.8"/>
		
			<linearGradient id="SVGID_2_" gradientUnits="userSpaceOnUse" x1="282.4524" y1="760.5668" x2="282.6494" y2="3.6232" gradientTransform="matrix(1 0 0 0.4621 0 420.9854)">
			<stop  offset="0" style="stop-color:#B7D856"/>
			<stop  offset="0.6916" style="stop-color:#CAD19E"/>
			<stop  offset="1" style="stop-color:#D4D754"/>
		</linearGradient>
		<rect y="421.1" class="st1" width="565.1" height="361.7"/>
	</g>
	<g>
		<polygon class="st6" points="150,154.8 142.4,153.2 135.9,170.8 142.6,172.6 		"/>
		<g>
			<polygon class="st7" points="141.7,172.4 141.7,172.4 142.1,172.7 142.1,172.7 142.5,173.1 136,172.5 135.5,172.2 135.1,171.8 
				134.7,171.5 141.3,172 			"/>
			<polygon class="st8" points="141.3,172 141.3,171.2 134.8,170.6 134.7,171.5 			"/>
			<g>
				<polygon class="st9" points="141.3,171.2 141.7,171.5 141.7,171.6 141.7,171.5 142.1,171.9 142.1,172.7 141.7,172.4 
					141.7,172.4 141.3,172 				"/>
				<polygon class="st9" points="142.1,171.9 142.5,172.2 142.5,173.1 142.1,172.7 				"/>
			</g>
		</g>
		<g>
			<polygon class="st10" points="125.8,151.3 117.4,149.9 134.7,171.1 141.2,171.6 			"/>
			<polygon class="st11" points="125.9,151.1 125.8,151.3 117.4,149.9 117.5,149.7 			"/>
			<polygon class="st12" points="125.8,151.3 141.2,171.6 125.9,151.1 			"/>
		</g>
	</g>
	<rect x="261.9" y="495.1" class="st90" width="47.1" height="287.7"/>
	
		<rect x="309" y="495.1" transform="matrix(-1 -1.224647e-16 1.224647e-16 -1 641.0586 1277.9576)" class="st91" width="23.1" height="287.7"/>
	<polygon class="st4" points="318.1,556.8 309,557.7 331.9,673.2 332.1,627.3 	"/>
	<g>
		<polygon class="st45" points="171,665.1 156.6,738.9 146.1,749.2 140.5,732.3 		"/>
		<polygon class="st46" points="118,684.3 132.1,775.9 138.7,782.8 147.9,782.8 150,771.8 		"/>
		<rect x="143.6" y="703.4" class="st47" width="3.7" height="79.4"/>
		<polygon class="st23" points="126,624.1 132.5,693.9 143.2,706.1 146.7,705.3 150,694.2 		"/>
		<polygon class="st23" points="83.6,745.1 99.2,782.8 106.2,782.8 		"/>
		<polygon class="st23" points="164.4,782.8 206.1,718.7 178.5,782.8 		"/>
	</g>
	<g>
		<polygon class="st46" points="486.8,692.5 447.8,782.8 430.8,782.9 437.8,756.3 		"/>
		<polygon class="st45" points="429.7,703.8 428.3,782.8 414.8,782.8 		"/>
		<polygon class="st47" points="447.2,706.9 452.9,708.4 434.3,782.8 428.3,782.8 		"/>
		<polygon class="st23" points="495.3,635.3 461.6,723.6 447.1,731.5 441.4,729.6 440.4,715 		"/>
		<polygon class="st23" points="364.4,729.7 379.3,782.8 370.1,782.8 		"/>
	</g>
	<g>
		<polygon class="st4" points="40.7,466.9 52.3,462.8 111.5,484.1 100.9,488.3 		"/>
		<g>
			<polygon class="st2" points="75.2,458.5 93.7,465 93.7,485.7 75.2,479.2 			"/>
			<polygon class="st3" points="87.7,454 106.2,460.5 93.7,465 75.2,458.5 			"/>
			<polygon class="st2" points="75.2,458.5 93.7,465 93.7,485.7 75.2,479.2 			"/>
			<polygon class="st3" points="87.7,454 106.2,460.5 93.7,465 75.2,458.5 			"/>
			<polygon class="st2" points="64,452.9 67.8,454.1 67.8,456.5 64,455.3 			"/>
			<polygon class="st3" points="68.4,451.7 71.6,452.7 67.2,454.1 64,453 			"/>
			<polygon points="65.2,455 75.5,458.7 75.5,479.4 65.2,475.7 			"/>
			<polygon class="st5" points="77.2,450.8 87.5,454.5 75.5,458.7 65.2,455 			"/>
			<path d="M120.2,472.1l7.6-2.7l1.5-5.7l-8.2-5.2l1.5-2l-2.5-2.4l-1.7,1c0,0-6.9-2.2-12.2,5.4L93.7,465v20.7l7.2,2.6l10.6-4.2
				C111.5,484.1,111.6,472,120.2,472.1z"/>
		</g>
	</g>
	<path class="st17" d="M409.6,41.3c0,0,31.8-35.1,74.5-8.8c0,0,20.8-9.9,27.4,8.8c0,0,35.1,15.1,26.3,50.8s-41.6,24.7-41.6,24.7
		s-27.4,36.2-71.2,11c0,0-26.3,9.9-30.7-12.1c0,0-32.9-10.7-29.6-36S388.8,39.2,409.6,41.3z"/>
	<g>
		<path class="st108" d="M431.9,87.7v5.9c0,0.5-0.2,1-0.5,1.4c-0.4,0.4-0.9,0.6-1.5,0.6h-3.1v11.4h-9.2V95.5h-19.9
			c-0.7,0-1.3-0.2-1.8-0.6c-0.5-0.4-0.9-0.9-1-1.5l-1.1-5.2l22.9-30.8h10.1v30.3H431.9z M417.7,87.7V74.8c0-0.8,0-1.6,0.1-2.6
			c0.1-0.9,0.1-1.9,0.3-2.9l-13.1,18.3H417.7z"/>
		<path class="st108" d="M448.7,106.5c-0.2,0.6-0.6,1.2-1,1.6c-0.4,0.5-0.8,0.9-1.3,1.2s-1,0.6-1.6,0.7c-0.6,0.2-1.1,0.2-1.6,0.2
			h-4.5L458,59.6c0.5-1.2,1.1-2,2.1-2.6c0.9-0.6,2-0.9,3.2-0.9h4.5L448.7,106.5z"/>
		<path class="st108" d="M490.9,76.4c1.6-0.6,3.4-0.9,5.3-0.9c1.8,0,3.6,0.3,5.3,0.9s3.3,1.5,4.7,2.7c1.4,1.2,2.5,2.8,3.3,4.6
			c0.8,1.9,1.3,4.1,1.3,6.6c0,2.3-0.4,4.5-1.3,6.6c-0.9,2.1-2.1,3.9-3.7,5.4c-1.6,1.6-3.5,2.8-5.7,3.7s-4.7,1.4-7.4,1.4
			c-2.8,0-5.2-0.4-7.4-1.3c-2.2-0.9-4.1-2.1-5.6-3.7c-1.5-1.6-2.7-3.4-3.5-5.6c-0.8-2.2-1.2-4.6-1.2-7.2c0-4.9,1.9-9.8,5.6-14.8
			l11.1-15.1c0.5-0.7,1.3-1.2,2.3-1.7c1-0.5,2.1-0.7,3.4-0.7h9.4l-14.7,17.5L490.9,76.4z M492.6,99.1c1.1,0,2.1-0.2,3-0.6
			c0.9-0.4,1.8-1,2.4-1.7c0.7-0.7,1.2-1.6,1.6-2.5c0.4-1,0.6-2,0.6-3.1c0-1.3-0.2-2.4-0.6-3.4c-0.4-1-0.9-1.8-1.6-2.5
			s-1.5-1.2-2.5-1.6c-1-0.4-2-0.5-3.2-0.5c-1.1,0-2,0.2-2.9,0.6c-0.9,0.4-1.6,0.9-2.3,1.6c-0.6,0.7-1.2,1.5-1.5,2.5
			c-0.4,1-0.5,2.1-0.5,3.3c0,1.2,0.1,2.3,0.4,3.3c0.3,1,0.7,1.8,1.4,2.5c0.6,0.7,1.4,1.2,2.3,1.6S491.3,99.1,492.6,99.1z"/>
	</g>
	<g>
		<polygon class="st24" points="0,560 565.1,562.3 0,565.3 		"/>
		<polygon class="st25" points="565.1,557.7 565.1,562.3 59.1,560 		"/>
		<polygon class="st26" points="565.1,557.7 262.8,559.1 380.6,555.4 		"/>
		<polygon class="st27" points="0,569.9 0,565.3 565.1,562.3 565.1,563.5 		"/>
	</g>
	<polygon class="st102" points="297.6,544.6 282.1,553.3 275.9,551.1 275.9,574.7 280.2,576.3 295.4,570.4 295.4,566.9 290.8,566.9 
		282.7,570.4 283.3,558.6 297.6,550.5 	"/>
	<polygon class="st103" points="282.1,553.3 275.9,551.1 291.2,543 297.6,544.6 	"/>
	<g>
		<polygon class="st28" points="532.6,566.2 536.8,564.3 537.6,576.6 532.6,579.1 		"/>
		<polygon class="st29" points="532.6,566.2 536.8,564.3 529.1,552.1 525.4,553.9 		"/>
		<polygon class="st30" points="529.1,549.5 538.1,563.8 539.2,576.9 537.6,576.5 536.8,564.2 529.1,552 525.4,552 525.4,550.6 		
			"/>
		<polygon class="st30" points="533.9,579.8 532.6,579.1 537.6,576.5 539.2,576.9 		"/>
		<polygon class="st31" points="515.2,557.1 520.3,557.1 520.3,570.8 514.8,570.8 		"/>
		<polygon class="st28" points="515.4,552.8 520.3,552.8 520.3,557.1 515.2,557.1 		"/>
		<polygon class="st29" points="506.2,552.1 511.3,552.1 511.3,570.8 505.8,570.8 		"/>
		<polygon class="st28" points="500.9,550.7 505.8,550.7 506,582.6 501,582.6 		"/>
		<polygon class="st31" points="524,559.5 529.1,559.5 529.1,570.8 523.6,570.8 		"/>
		<polygon class="st28" points="524.2,552.1 529.1,552.1 529.1,559.2 524,559.2 		"/>
	</g>
	<g>
		<polygon class="st109" points="322.9,340.7 398.5,356.1 295.4,407.4 219.8,392 		"/>
		<polygon class="st110" points="284.6,463.3 360.2,478.8 319.6,498.4 244,483 		"/>
		<polygon class="st111" points="319.6,525.3 319.6,498.4 244,483 244,509.9 		"/>
		<polygon class="st5" points="293.8,520.1 293.8,492.7 291.7,492 291.7,519.6 		"/>
		<polygon class="st112" points="360.2,478.8 360.2,488.2 326.8,504.2 326.5,522 319.6,525.3 319.6,498.4 		"/>
		<polygon class="st113" points="322.4,340.6 398,356 398,339.1 322.4,323.7 		"/>
		<polygon class="st110" points="166.1,286.6 114.9,309.2 172.9,324.8 224,302.3 		"/>
		<polygon class="st114" points="247.3,407.4 247.3,294.4 172.9,273.9 172.9,387 		"/>
		<polygon class="st111" points="114.9,329.1 114.9,309.2 172.9,324.8 172.9,344.8 		"/>
		<polygon class="st5" points="170,344 170,324 172.9,324.8 172.9,344.8 		"/>
		<polygon class="st108" points="247.3,407.4 247.3,294.4 295.4,271.1 295.4,384.1 		"/>
		<polygon class="st5" points="247.3,407.4 247.3,404.6 172.9,384.1 172.9,387 		"/>
		<polygon class="st5" points="247.3,407.4 247.3,404.6 295.4,381.2 295.4,384.1 		"/>
		<polygon class="st115" points="172.9,273.9 247.3,294.4 295.4,271.1 221,250.7 		"/>
		<polygon class="st116" points="398.5,450.7 398.5,356.1 295.4,407.4 295.4,502.1 		"/>
		<polygon class="st117" points="398,450.6 398,339.1 415.7,330.1 415.7,441.7 		"/>
		<polygon class="st118" points="322.4,323.7 398,339.1 415.7,330.1 340.1,314.8 		"/>
		<polygon class="st119" points="247.3,525.3 247.3,430.8 172.9,410.3 172.9,504.9 		"/>
		<polygon class="st120" points="247.3,525.3 247.3,430.8 295.4,407.4 295.4,502.1 		"/>
		<polygon class="st5" points="298.3,500.7 298.3,406.2 295.4,407.4 295.4,502.1 		"/>
		<polygon class="st5" points="398,450.7 398,356.1 395.2,357.4 395.2,452 		"/>
		<polygon class="st2" points="247.3,407.4 247.3,430.8 172.9,410.3 172.9,387 		"/>
		<polygon class="st17" points="247.3,407.4 247.3,430.8 295.4,407.4 295.4,384.1 		"/>
		<polygon class="st5" points="247.3,433.6 247.3,430.8 172.9,410.3 172.9,413.1 		"/>
		<polygon class="st5" points="247.3,433.6 247.3,430.8 295.4,407.4 295.4,410.3 		"/>
		<g>
			<polygon class="st41" points="224.6,341.3 211.5,337.9 211.5,322.3 224.6,325.8 			"/>
			<polygon class="st5" points="228.6,339 224.6,341.3 224.6,325.8 228.6,323.5 			"/>
			<polygon class="st5" points="215.6,320 211.5,322.3 224.6,325.8 228.6,323.5 			"/>
		</g>
	</g>
	<path class="st17" d="M435.8,421.8H554c0,0,9.8-45-35.6-45.8c0,0-15.3-25.4-42.7-13.7C448.3,374,455,392.4,455,392.4
		S438.1,397.9,435.8,421.8z"/>
</g>
</svg>
