<?xml version="1.0" encoding="UTF-8"?>
<svg width="134px" height="85px" viewBox="0 0 134 85" version="1.1" xmlns="http://www.w3.org/2000/svg" xmlns:xlink="http://www.w3.org/1999/xlink">
    <title>Group 3</title>
    <defs>
        <polygon id="path-1" points="0.000135443851 0.000430372936 133.926 0.000430372936 133.926 84.3494 0.000135443851 84.3494"></polygon>
    </defs>
    <g id="Page-1" stroke="none" stroke-width="1" fill="none" fill-rule="evenodd">
        <g id="Desktop-HD" transform="translate(-1038.000000, -208.000000)">
            <g id="Group-3" transform="translate(1038.000000, 208.000000)">
                <mask id="mask-2" fill="white">
                    <use xlink:href="#path-1"></use>
                </mask>
                <g id="Clip-2"></g>
                <path d="M42.4145,23.3721 C42.4145,23.3721 53.5855,-1.7639 76.3935,0.0991 C99.2025,1.9601 109.4425,21.0451 109.4425,21.0451 C109.4425,21.0451 143.4225,30.8191 131.3205,60.6101 C119.2175,90.4001 95.0135,76.4361 95.0135,76.4361 C95.0135,76.4361 90.3585,84.3501 74.0665,84.3501 C57.7755,84.3501 53.5855,73.6431 53.5855,73.6431 C53.5855,73.6431 48.9315,78.2981 37.7595,75.9711 C26.5885,73.6431 25.1915,68.5231 25.1915,68.5231 C25.1915,68.5231 9.8315,76.4361 1.9185,59.6791 C-5.9945,42.9221 12.6235,33.6121 20.5375,35.4751 C20.5375,35.4751 27.5195,22.9061 42.4145,23.3721" id="Fill-1" fill="#EBF1FF" mask="url(#mask-2)"></path>
            </g>
        </g>
    </g>
</svg>