<svg xmlns="http://www.w3.org/2000/svg" viewBox="0 0 510.73 248.12"><defs><style>.cls-1{fill:#3b435e;}.cls-2{fill:#202433;}.cls-3{fill:none;}</style></defs><g id="Layer_2" data-name="Layer 2"><g id="Layer_2-2" data-name="Layer 2"><polygon class="cls-1" points="68.82 50.87 55.06 91.05 71.93 248.12 89.29 248.12 68.82 50.87"/><polygon class="cls-1" points="41.04 129.55 26.03 156.43 37.08 248.12 54.45 248.12 41.04 129.55"/><polygon class="cls-1" points="128.53 84.17 114.14 117.54 128.03 248.12 145.39 248.12 128.53 84.17"/><polygon class="cls-2" points="161.89 138.19 146.56 161.58 156.08 248.12 173.44 248.12 161.89 138.19"/><polygon class="cls-2" points="90.02 30.16 76.57 73.61 94.86 248.12 112.23 248.12 90.02 30.16"/><polygon class="cls-1" points="83.36 110.81 92.94 139.34 90.75 248.12 80.7 248.12 83.36 110.81"/><polygon class="cls-1" points="102.61 166.64 112.35 185.39 110.92 248.12 100.87 248.12 102.61 166.64"/><polygon class="cls-1" points="50.42 138.64 60.09 162.17 58.29 248.12 48.24 248.12 50.42 138.64"/><polygon class="cls-2" points="33.5 180.06 43.29 196.24 42.05 248.12 32 248.12 33.5 180.06"/><polygon class="cls-2" points="70.31 96.93 79.86 127.87 77.48 248.12 67.43 248.12 70.31 96.93"/><polygon class="cls-1" points="278.14 74.56 289.17 114.09 277.29 248.12 263.72 248.12 278.14 74.56"/><polygon class="cls-1" points="300.39 151.93 312.29 178.13 304.51 248.12 290.94 248.12 300.39 151.93"/><polygon class="cls-1" points="231.77 110.31 243.25 143.02 233.46 248.12 219.89 248.12 231.77 110.31"/><polygon class="cls-2" points="206.12 165.64 218.25 188.34 211.55 248.12 197.98 248.12 206.12 165.64"/><polygon class="cls-2" points="261.45 54.77 272.26 97.58 259.37 248.12 245.8 248.12 261.45 54.77"/><polygon class="cls-1" points="434.4 55.66 420.14 94.14 417.02 248.12 430.61 248.12 434.4 55.66"/><polygon class="cls-1" points="405.82 130.93 391.78 156.05 389.74 248.12 403.34 248.12 405.82 130.93"/><polygon class="cls-1" points="477.64 95.14 463.5 126.79 460.93 248.12 474.53 248.12 477.64 95.14"/><polygon class="cls-2" points="498.62 152.4 484.65 174.02 482.89 248.12 496.48 248.12 498.62 152.4"/><polygon class="cls-2" points="452.67 37.33 438.36 79.1 434.97 248.12 448.57 248.12 452.67 37.33"/><polygon class="cls-1" points="229.39 135 239.35 156.45 249.46 248.12 241.66 248.12 229.39 135"/><polygon class="cls-1" points="249.27 176.92 258.49 190.71 265.11 248.12 257.31 248.12 249.27 176.92"/><polygon class="cls-1" points="206.36 159.66 215.94 177.19 224.27 248.12 216.47 248.12 206.36 159.66"/><polygon class="cls-2" points="196.95 193.52 205.97 205.3 211.68 248.12 203.88 248.12 196.95 193.52"/><polygon class="cls-2" points="218.05 125.31 228.19 148.64 239.16 248.12 231.37 248.12 218.05 125.31"/><rect class="cls-3" width="510.73" height="248.12"/><polygon class="cls-1" points="68.82 50.87 55.06 91.05 71.93 248.12 89.29 248.12 68.82 50.87"/><polygon class="cls-1" points="41.04 129.55 26.03 156.43 37.08 248.12 54.45 248.12 41.04 129.55"/><polygon class="cls-1" points="128.53 84.17 114.14 117.54 128.03 248.12 145.39 248.12 128.53 84.17"/><polygon class="cls-2" points="161.89 138.19 146.56 161.58 156.08 248.12 173.44 248.12 161.89 138.19"/><polygon class="cls-2" points="90.02 30.16 76.57 73.61 94.86 248.12 112.23 248.12 90.02 30.16"/><polygon class="cls-1" points="83.36 110.81 92.94 139.34 90.75 248.12 80.7 248.12 83.36 110.81"/><polygon class="cls-1" points="102.61 166.64 112.35 185.39 110.92 248.12 100.87 248.12 102.61 166.64"/><polygon class="cls-1" points="50.42 138.64 60.09 162.17 58.29 248.12 48.24 248.12 50.42 138.64"/><polygon class="cls-2" points="33.5 180.06 43.29 196.24 42.05 248.12 32 248.12 33.5 180.06"/><polygon class="cls-2" points="70.31 96.93 79.86 127.87 77.48 248.12 67.43 248.12 70.31 96.93"/><polygon class="cls-1" points="278.14 74.56 289.17 114.09 277.29 248.12 263.72 248.12 278.14 74.56"/><polygon class="cls-1" points="300.39 151.93 312.29 178.13 304.51 248.12 290.94 248.12 300.39 151.93"/><polygon class="cls-1" points="231.77 110.31 243.25 143.02 233.46 248.12 219.89 248.12 231.77 110.31"/><polygon class="cls-2" points="206.12 165.64 218.25 188.34 211.55 248.12 197.98 248.12 206.12 165.64"/><polygon class="cls-2" points="261.45 54.77 272.26 97.58 259.37 248.12 245.8 248.12 261.45 54.77"/><polygon class="cls-1" points="434.4 55.66 420.14 94.14 417.02 248.12 430.61 248.12 434.4 55.66"/><polygon class="cls-1" points="405.82 130.93 391.78 156.05 389.74 248.12 403.34 248.12 405.82 130.93"/><polygon class="cls-1" points="477.64 95.14 463.5 126.79 460.93 248.12 474.53 248.12 477.64 95.14"/><polygon class="cls-2" points="498.62 152.4 484.65 174.02 482.89 248.12 496.48 248.12 498.62 152.4"/><polygon class="cls-2" points="452.67 37.33 438.36 79.1 434.97 248.12 448.57 248.12 452.67 37.33"/><polygon class="cls-1" points="229.39 135 239.35 156.45 249.46 248.12 241.66 248.12 229.39 135"/><polygon class="cls-1" points="249.27 176.92 258.49 190.71 265.11 248.12 257.31 248.12 249.27 176.92"/><polygon class="cls-1" points="206.36 159.66 215.94 177.19 224.27 248.12 216.47 248.12 206.36 159.66"/><polygon class="cls-2" points="196.95 193.52 205.97 205.3 211.68 248.12 203.88 248.12 196.95 193.52"/><polygon class="cls-2" points="218.05 125.31 228.19 148.64 239.16 248.12 231.37 248.12 218.05 125.31"/><rect class="cls-3" width="510.73" height="248.12"/><polygon class="cls-1" points="68.82 50.87 55.06 91.05 71.93 248.12 89.29 248.12 68.82 50.87"/><polygon class="cls-1" points="41.04 129.55 26.03 156.43 37.08 248.12 54.45 248.12 41.04 129.55"/><polygon class="cls-1" points="128.53 84.17 114.14 117.54 128.03 248.12 145.39 248.12 128.53 84.17"/><polygon class="cls-2" points="161.89 138.19 146.56 161.58 156.08 248.12 173.44 248.12 161.89 138.19"/><polygon class="cls-2" points="90.02 30.16 76.57 73.61 94.86 248.12 112.23 248.12 90.02 30.16"/><polygon class="cls-1" points="83.36 110.81 92.94 139.34 90.75 248.12 80.7 248.12 83.36 110.81"/><polygon class="cls-1" points="102.61 166.64 112.35 185.39 110.92 248.12 100.87 248.12 102.61 166.64"/><polygon class="cls-1" points="50.42 138.64 60.09 162.17 58.29 248.12 48.24 248.12 50.42 138.64"/><polygon class="cls-2" points="33.5 180.06 43.29 196.24 42.05 248.12 32 248.12 33.5 180.06"/><polygon class="cls-2" points="70.31 96.93 79.86 127.87 77.48 248.12 67.43 248.12 70.31 96.93"/><polygon class="cls-1" points="278.14 74.56 289.17 114.09 277.29 248.12 263.72 248.12 278.14 74.56"/><polygon class="cls-1" points="300.39 151.93 312.29 178.13 304.51 248.12 290.94 248.12 300.39 151.93"/><polygon class="cls-1" points="231.77 110.31 243.25 143.02 233.46 248.12 219.89 248.12 231.77 110.31"/><polygon class="cls-2" points="206.12 165.64 218.25 188.34 211.55 248.12 197.98 248.12 206.12 165.64"/><polygon class="cls-2" points="261.45 54.77 272.26 97.58 259.37 248.12 245.8 248.12 261.45 54.77"/><polygon class="cls-1" points="434.4 55.66 420.14 94.14 417.02 248.12 430.61 248.12 434.4 55.66"/><polygon class="cls-1" points="405.82 130.93 391.78 156.05 389.74 248.12 403.34 248.12 405.82 130.93"/><polygon class="cls-1" points="477.64 95.14 463.5 126.79 460.93 248.12 474.53 248.12 477.64 95.14"/><polygon class="cls-2" points="498.62 152.4 484.65 174.02 482.89 248.12 496.48 248.12 498.62 152.4"/><polygon class="cls-2" points="452.67 37.33 438.36 79.1 434.97 248.12 448.57 248.12 452.67 37.33"/><polygon class="cls-1" points="229.39 135 239.35 156.45 249.46 248.12 241.66 248.12 229.39 135"/><polygon class="cls-1" points="249.27 176.92 258.49 190.71 265.11 248.12 257.31 248.12 249.27 176.92"/><polygon class="cls-1" points="206.36 159.66 215.94 177.19 224.27 248.12 216.47 248.12 206.36 159.66"/><polygon class="cls-2" points="196.95 193.52 205.97 205.3 211.68 248.12 203.88 248.12 196.95 193.52"/><polygon class="cls-2" points="218.05 125.31 228.19 148.64 239.16 248.12 231.37 248.12 218.05 125.31"/><rect class="cls-3" width="510.73" height="248.12"/></g></g></svg>