<?xml version="1.0" encoding="utf-8"?>
<!-- Generator: Adobe Illustrator 24.1.2, SVG Export Plug-In . SVG Version: 6.00 Build 0)  -->
<svg version="1.1" xmlns="http://www.w3.org/2000/svg" xmlns:xlink="http://www.w3.org/1999/xlink" x="0px" y="0px"
	 viewBox="0 0 778 570.9" style="enable-background:new 0 0 778 570.9;" xml:space="preserve">
<style type="text/css">
	.st0{fill:url(#SVGID_1_);}
	.st1{fill:url(#SVGID_2_);}
	.st2{opacity:0.23;fill:#444444;}
	.st3{fill:#3B435E;}
	.st4{fill:#202433;}
	.st5{fill:#333333;}
	.st6{fill:url(#SVGID_3_);}
	.st7{fill:url(#SVGID_4_);}
	.st8{fill:#9BA4A1;}
	.st9{fill:#E4EFEB;}
	.st10{fill:#444444;}
	.st11{fill:none;stroke:#FFFFFF;stroke-linecap:round;stroke-miterlimit:10;}
	.st12{fill:none;stroke:#000000;stroke-miterlimit:10;}
	.st13{fill:#EBF1FF;}
	.st14{fill:url(#SVGID_5_);}
	.st15{fill:url(#SVGID_6_);}
	.st16{fill:#BFD8F7;}
	.st17{fill:#6E7C89;}
	.st18{fill:#40484F;}
	.st19{fill:#A4B3D0;}
	.st20{fill:#8A9BB5;}
	.st21{fill:#C1DAF9;}
	.st22{fill:#4A5059;}
	.st23{fill:#605F68;}
	.st24{fill:#B4AA91;}
	.st25{fill:#837960;}
	.st26{fill:#1D3F1D;}
	.st27{fill:#459B45;}
	.st28{fill:#FFF0CF;}
	.st29{fill:#B77A37;}
	.st30{fill:#E29942;}
	.st31{fill:#D9B15C;}
	.st32{fill:#CEBE99;}
	.st33{fill:#3C3B41;}
	.st34{fill:#EEFFA6;}
	.st35{fill:#474135;}
	.st36{fill:#D8EF84;}
	.st37{fill:#AECFEE;}
	.st38{fill:#5483AD;}
	.st39{fill:#335066;}
	.st40{fill:#61A1C1;}
	.st41{fill:#6394B4;}
	.st42{fill:#88BBD6;}
	.st43{fill:#ABDAEF;}
	.st44{fill:#839945;}
	.st45{fill:#193019;}
	.st46{fill:#346B34;}
	.st47{fill:url(#SVGID_7_);}
	.st48{fill:url(#SVGID_8_);}
	.st49{fill:#5659BA;}
	.st50{fill:#D2E0FB;}
	.st51{fill:#3C3E4B;}
	.st52{fill:#FFFFFF;}
	.st53{opacity:0.3;}
	.st54{fill:#5465C1;}
	.st55{fill:#B95438;}
	.st56{fill:url(#SVGID_9_);}
	.st57{fill:url(#SVGID_10_);}
	.st58{fill:#7893A4;}
	.st59{fill:#BA77AD;}
	.st60{fill:#B48CCB;}
	.st61{fill:#9D7FB2;}
	.st62{fill:#88729B;}
	.st63{fill:#C5B0EB;}
	.st64{fill:#A0C3E9;}
	.st65{fill:url(#SVGID_11_);}
	.st66{fill:url(#SVGID_12_);}
	.st67{fill:#A3C0D8;}
	.st68{fill:#D88A5A;}
	.st69{fill:#9C9777;}
	.st70{fill:#A2A793;}
	.st71{fill:#636864;}
	.st72{fill:#0C0C0C;}
	.st73{fill:#26240B;}
	.st74{fill:#A5A174;}
	.st75{fill:#F2B879;}
	.st76{fill:#8D897E;}
	.st77{fill:#D8AD5E;}
	.st78{fill:#B3AF80;}
	.st79{fill:url(#SVGID_13_);}
	.st80{fill:url(#SVGID_14_);}
	.st81{fill:#231F1E;}
	.st82{fill:#302C2D;}
	.st83{fill:#C96B49;}
	.st84{fill:#535454;}
	.st85{fill:#494949;}
	.st86{fill:#71797C;}
	.st87{fill:#DFC571;}
	.st88{fill:#C05648;}
	.st89{fill:#D3CF78;}
	.st90{fill:#BD5B42;}
	.st91{fill:#5086F3;}
	.st92{fill:#4B4724;}
	.st93{fill:#877D40;}
	.st94{fill:#62AAFC;}
	.st95{fill:#A64C34;}
	.st96{fill:#BB5338;}
	.st97{fill:#A0A035;}
	.st98{fill:#3750B5;}
	.st99{fill:#A3A034;}
	.st100{fill:#D1D540;}
	.st101{fill:#2A417A;}
	.st102{fill:#C0664E;}
	.st103{fill:#7F7F7F;}
	.st104{fill:#6C8AA4;}
	.st105{fill:#4F5249;}
	.st106{fill:url(#SVGID_15_);}
	.st107{fill:url(#SVGID_16_);}
	.st108{fill:#5B969C;}
	.st109{fill:#9FACC1;}
	.st110{fill:#D8BF48;}
	.st111{fill:#CB8142;}
	.st112{fill:#D7A23C;}
	.st113{fill:#5B5D5C;}
	.st114{fill:#60868F;}
	.st115{fill:#6BADBB;}
	.st116{fill:#798293;}
	.st117{fill:#52575A;}
	.st118{fill:#757C84;}
	.st119{fill:#54483A;}
	.st120{fill:#9B8973;}
	.st121{fill:none;}
	.st122{fill:#495370;}
	.st123{fill:url(#SVGID_17_);}
	.st124{fill:url(#SVGID_18_);}
	.st125{fill:#BFAF5C;}
	.st126{fill:#E28D4D;}
	.st127{fill:#C78636;}
	.st128{fill:#BE7A33;}
	.st129{fill:#CB9336;}
	.st130{fill:#767C7A;}
	.st131{fill:#D8DCE5;}
	.st132{fill:#CFD3D1;}
	.st133{stroke:#000000;stroke-miterlimit:10;}
	.st134{fill:#FFFFFF;stroke:#000000;stroke-miterlimit:10;}
	.st135{stroke:#000000;stroke-linecap:round;stroke-linejoin:round;stroke-miterlimit:10;}
	.st136{opacity:0.5;}
	.st137{opacity:0.23;}
	.st138{fill:url(#SVGID_19_);}
	.st139{fill:url(#SVGID_20_);}
	.st140{fill:url(#SVGID_21_);}
	.st141{fill:url(#SVGID_22_);}
	.st142{fill:url(#SVGID_23_);}
	.st143{fill:url(#SVGID_24_);}
	.st144{fill:url(#SVGID_25_);}
	.st145{fill:url(#SVGID_26_);}
	.st146{fill:url(#SVGID_27_);}
	.st147{fill:url(#SVGID_28_);}
	.st148{fill:url(#SVGID_29_);}
	.st149{fill:url(#SVGID_30_);}
	.st150{fill:url(#SVGID_31_);}
	.st151{fill:url(#SVGID_32_);}
	.st152{font-family:'ChelseaMarket-Regular';}
	.st153{font-size:51.8663px;}
	.st154{fill:url(#SVGID_33_);}
	.st155{fill:url(#SVGID_34_);}
	.st156{fill:url(#SVGID_35_);}
	.st157{fill:url(#SVGID_36_);}
</style>
<g id="IMG_x5F_1254_xA0_Image_1_">
</g>
<g id="Layer_2">
	<g>
		<g class="st136">
			
				<rect x="23.2" y="30.6" transform="matrix(0.9994 -3.348302e-02 3.348302e-02 0.9994 -9.1774 6.8986)" width="356.4" height="493.8"/>
			
				<rect x="27.6" y="296.1" transform="matrix(0.9994 -3.348302e-02 3.348302e-02 0.9994 -13.619 7.1219)" width="356.4" height="228.2"/>
			<polygon points="349.9,382.8 352.5,381.5 353.2,389.3 350.2,391 			"/>
			<polygon points="349.9,382.8 352.5,381.5 347.4,374 345,375.2 			"/>
			<polygon points="347.3,372.4 353.3,381.2 354.2,389.4 353.2,389.2 352.5,381.5 347.4,373.9 345,374 345,373.1 			"/>
			<polygon points="351,391.4 350.2,391 353.2,389.2 354.2,389.4 			"/>
			<polygon points="26.8,389.7 383.1,379.2 26.9,393.1 			"/>
			<polygon points="383,376.3 383.1,379.2 64.1,388.5 			"/>
			<polygon points="383,376.3 192.5,383.6 266.7,378.8 			"/>
			<polygon points="27,395.9 26.9,393.1 383.1,379.2 383.1,380 			"/>
			<polygon points="338.7,377.4 341.9,377.3 342.2,386 338.7,386.1 			"/>
			<polygon points="338.7,374.7 341.8,374.6 341.9,377.3 338.7,377.4 			"/>
			<polygon points="332.9,374.4 336.1,374.3 336.5,386.1 333.1,386.3 			"/>
			<polygon points="329.6,373.7 332.7,373.6 333.5,393.7 330.3,393.8 			"/>
			<polygon points="344.3,378.7 347.5,378.6 347.7,385.8 344.3,385.9 			"/>
			<polygon points="344.3,374.1 347.4,374 347.5,378.5 344.3,378.6 			"/>
			<polygon points="48.6,394.8 51.8,394.7 51.9,399.2 48.5,399.3 			"/>
			<polygon class="st137" points="303.9,310.2 292.7,314.9 270.5,302.7 			"/>
			<polygon points="290.8,305.7 292.4,305.7 292.7,314.9 291.1,314.4 			"/>
			<polygon points="294,305.6 292.4,305.7 292.7,314.9 294.3,314.2 			"/>
			<polygon points="291.1,265 292.5,308.7 280.7,305 			"/>
			<polygon points="303.6,304.1 292.5,308.7 291.1,265.1 			"/>
			<polygon class="st137" points="316.6,323.2 305.4,327.8 283.2,315.7 			"/>
			<polygon points="303.5,318.6 305.1,318.7 305.4,327.8 303.8,327.3 			"/>
			<polygon points="306.7,318.5 305.1,318.7 305.4,327.8 307,327.2 			"/>
			<polygon points="303.8,278 305.2,321.7 293.4,318 			"/>
			<polygon points="316.3,317.1 305.2,321.7 303.8,278.1 			"/>
			<path d="M51.8,301.2c0,0,5.5-13.6,18.1-14c0,0,2-18.3,18.7-18.8c16.7-0.6,23.2,15,23.2,15s25.7-9.9,30.6,14.8L51.8,301.2z"/>
			<path d="M249.3,67.6c0,0,19.3-22.8,46.8-7.1c0,0,12.9-6.7,17.5,4.9c0,0,22.4,8.8,17.6,31.5s-25.7,16.5-25.7,16.5
				s-16.5,23.4-44.7,8.4c0,0-16.4,6.8-19.6-6.9c0,0-20.9-6.1-19.4-22.1S236.1,66.6,249.3,67.6z"/>
			<polygon class="st137" points="349.4,315.5 338.3,320.1 316,307.9 			"/>
			<polygon points="336.3,310.9 337.9,310.9 338.3,320.1 336.6,319.6 			"/>
			<polygon points="339.5,310.8 337.9,310.9 338.3,320.1 339.8,319.4 			"/>
			<polygon points="336.6,270.2 338,314 326.3,310.2 			"/>
			<polygon points="349.2,309.3 338,314 336.6,270.3 			"/>
			
				<rect x="178" y="379.2" transform="matrix(0.9994 -3.348302e-02 3.348302e-02 0.9994 -12.8237 6.2484)" width="4.2" height="13.6"/>
			
				<rect x="184.9" y="379" transform="matrix(0.9994 -3.348302e-02 3.348302e-02 0.9994 -12.8122 6.4778)" width="4.2" height="13.6"/>
			
				<rect x="191.7" y="378.7" transform="matrix(0.9994 -3.348302e-02 3.348302e-02 0.9994 -12.8007 6.7072)" width="4.2" height="13.6"/>
			
				<rect x="201.5" y="378.4" transform="matrix(0.9994 -3.348302e-02 3.348302e-02 0.9994 -12.7843 7.0322)" width="4.2" height="13.6"/>
			
				<rect x="208.6" y="378.2" transform="matrix(0.9994 -3.348302e-02 3.348302e-02 0.9994 -12.7723 7.2711)" width="4.2" height="13.6"/>
			
				<rect x="215.7" y="377.9" transform="matrix(0.9994 -3.348302e-02 3.348302e-02 0.9994 -12.7603 7.5101)" width="4.2" height="13.6"/>
			
				<rect x="177.7" y="374.3" transform="matrix(0.9994 -3.348302e-02 3.348302e-02 0.9994 -12.5137 6.2328)" width="4.2" height="4.9"/>
			
				<rect x="184.6" y="374" transform="matrix(0.9994 -3.348302e-02 3.348302e-02 0.9994 -12.5021 6.4622)" width="4.2" height="4.9"/>
			
				<rect x="191.4" y="373.8" transform="matrix(0.9994 -3.348302e-02 3.348302e-02 0.9994 -12.4906 6.6916)" width="4.2" height="4.9"/>
			
				<rect x="201.1" y="373.5" transform="matrix(0.9994 -3.348302e-02 3.348302e-02 0.9994 -12.4743 7.0166)" width="4.2" height="4.9"/>
			
				<rect x="208.3" y="373.3" transform="matrix(0.9994 -3.348302e-02 3.348302e-02 0.9994 -12.4622 7.2555)" width="4.2" height="4.9"/>
			
				<rect x="215.4" y="373" transform="matrix(0.9994 -3.348302e-02 3.348302e-02 0.9994 -12.4502 7.4945)" width="4.2" height="4.9"/>
			<polygon points="189,289.1 190.6,289.7 193.5,375.5 191.9,375 			"/>
			<polygon points="192.2,289 190.6,289.7 193.5,375.5 195.1,374.9 			"/>
			<polygon points="198.7,288.8 200.4,289.4 203.2,375.2 201.6,374.6 			"/>
			<polyline points="201.9,288.7 200.4,289.4 203.2,375.2 204.8,374.5 			"/>
			<polygon points="161.4,158.4 173.2,162.1 177.4,289 165.7,285.2 			"/>
			<polygon points="173.2,162.1 185,165.8 189.2,292.7 177.4,289 			"/>
			<polygon points="185,165.9 196.8,169.6 201,296.5 189.2,292.7 			"/>
			<polygon points="196.8,169.6 229,156.9 233.2,283.1 201,296.5 			"/>
			<path class="st137" d="M220.6,167.2l-11.3,5.2c0,0-2.1,2.9,0.2,6.6c-2.1,3.8,0.3,8.1,0.3,8.1l9.4,23.2l1-27.3L220.6,167.2z"/>
			<path d="M209.6,179l24.6,2.7l-24.8-9.2C209.4,172.4,207.3,175.3,209.6,179z"/>
			<path d="M209.6,179l24.6,2.7l-24.3,5.4C209.9,187,207.5,182.8,209.6,179z"/>
			<polygon points="209.4,172.4 220.6,167.2 234.2,181.6 			"/>
			<polygon points="217.2,153.2 229,156.9 196.8,169.6 185,165.9 			"/>
			<polygon points="205.4,149.5 217.2,153.2 185,165.9 173.2,162.2 			"/>
			<polygon points="193.6,145.7 205.4,149.4 173.2,162.1 161.4,158.4 			"/>
			<polygon points="181.3,195.2 176.5,193.4 176.3,187.7 181.1,189.5 			"/>
			<polygon points="181.1,189.5 176.3,187.7 178.6,186.6 183.5,188.4 			"/>
			<polygon points="183.7,194.1 181.3,195.2 181.1,189.5 183.5,188.4 			"/>
			<polygon points="62.6,392.1 65.8,392 65.9,397.1 62.5,397.2 			"/>
			<polygon points="62.5,386.7 65.6,386.6 65.8,392 62.6,392.1 			"/>
			<polygon points="57.3,391.5 60.5,391.4 60.8,398.2 57.3,398.3 			"/>
			<polygon points="57.3,386.1 60.4,386 60.5,391.4 57.3,391.5 			"/>
			<polygon points="51.7,389.8 54.9,389.7 55.2,398.5 51.7,398.6 			"/>
			<polygon points="47.9,381.1 51.1,380.9 51.4,389 47.9,389.1 			"/>
			<polygon points="51.7,386.4 54.8,386.3 54.9,389.7 51.7,389.8 			"/>
			<polygon points="48.1,379.4 51.1,379.3 51.2,381 48,381.1 			"/>
			<polygon points="68.9,379.4 67.9,390.8 71.2,391.8 72.2,379.3 			"/>
			<polygon points="63.2,397.6 67.9,390.8 71.2,391.8 66.7,399.2 			"/>
			<polygon points="67.6,381.1 68.9,379.4 67.9,390.8 63.2,397.6 63.2,396.5 67.1,390.4 			"/>
			<polygon points="81.1,161.3 96.8,176 92.3,182.8 75.7,167.5 			"/>
			<polygon points="87.4,179.8 87.4,179.8 86.6,180.3 86.6,180.3 85.9,180.7 92.9,186.4 93.7,185.9 94.5,185.5 95.2,185 88.1,179.3 
							"/>
			<polygon points="88.1,179.3 89,177 96,182.6 95.2,185 			"/>
			<polygon points="91.8,166.1 109.2,159.2 109.8,175.2 92.3,182.8 			"/>
			<polygon points="89,177 88.2,177.5 88.1,177.7 88.2,177.5 87.5,177.9 86.6,180.3 87.4,179.8 87.4,179.8 88.1,179.3 			"/>
			<polygon points="87.4,177.9 86.7,178.4 85.9,180.7 86.6,180.3 			"/>
			<polygon points="172.1,87.6 176.9,88.1 186.8,103.6 182.6,103.8 			"/>
			<polygon points="183.2,103.8 183.2,103.8 182.9,104.1 182.9,104.1 182.6,104.4 186.7,106 186.9,105.7 187.2,105.4 187.5,105.1 
				183.4,103.4 			"/>
			<polygon points="183.4,103.4 183.5,102.2 187.5,103.9 187.5,105.1 			"/>
			<polygon points="183.5,102.2 183.2,102.6 183.2,102.7 183.2,102.6 182.9,102.9 182.9,104.1 183.2,103.8 183.2,103.8 183.4,103.4 
							"/>
			<polygon points="182.9,102.9 182.6,103.2 182.6,104.4 182.9,104.1 			"/>
			<polygon points="194,96.5 199.2,97.6 187.5,104.5 183.5,102.8 			"/>
			<polygon points="193.9,96.2 193.9,96.5 199.2,97.6 199.1,97.3 			"/>
			<polygon points="193.9,96.5 183.5,102.8 193.9,96.2 			"/>
			<polygon points="167.5,408.1 155.6,482.2 145.4,492.8 139.3,476.1 			"/>
			<polygon points="115.2,429 132.3,519.9 139.2,526.6 148.4,526.3 150.1,515.2 			"/>
			
				<rect x="142.7" y="447.1" transform="matrix(0.9994 -3.348302e-02 3.348302e-02 0.9994 -16.2167 5.1133)" width="3.7" height="79.2"/>
			<polygon points="194.9,443.1 201.9,503.5 212,514 212.9,490.5 			"/>
			<polygon points="227.3,460.3 210.9,524.2 220.6,523.8 			"/>
			<polygon points="227.3,460.3 210.9,524.2 220.6,523.8 			"/>
			<polygon points="216.1,459 212.5,458.9 210.2,524.2 213.9,524.1 			"/>
			<polygon points="121.2,368.7 130,438.1 141.1,449.9 144.6,449 147.5,437.8 			"/>
			<polygon points="83,490.8 99.8,527.9 106.8,527.7 			"/>
			<polygon points="164.8,525.7 204.2,460.3 178.8,525.2 			"/>
			<polygon points="200.1,407 204.4,466.5 211.7,473.9 215.5,473.7 218.8,465.1 			"/>
			<polygon points="262,487.8 240.9,523.2 247.7,522.9 			"/>
			<path d="M251.3,89.6c1-0.4,2.1-0.6,3.3-0.7c1.1,0,2.2,0.1,3.4,0.4c1.1,0.3,2.1,0.9,3,1.6c0.9,0.7,1.6,1.7,2.2,2.9
				c0.6,1.2,0.9,2.5,0.9,4.1c0,1.5-0.2,2.8-0.7,4.2c-0.5,1.3-1.2,2.5-2.2,3.5c-1,1-2.1,1.8-3.5,2.4c-1.4,0.6-2.9,1-4.6,1
				c-1.7,0.1-3.3-0.2-4.7-0.7c-1.4-0.5-2.6-1.2-3.6-2.2c-1-1-1.8-2.1-2.3-3.5c-0.6-1.4-0.9-2.9-0.9-4.5c-0.1-3.1,1-6.2,3.2-9.5
				l6.7-9.7c0.3-0.4,0.8-0.8,1.4-1.1c0.6-0.3,1.3-0.5,2.1-0.5l5.9-0.2l-8.9,11.4L251.3,89.6z M252.8,103.9c0.7,0,1.3-0.2,1.9-0.4
				c0.6-0.3,1.1-0.6,1.5-1.1c0.4-0.5,0.7-1,1-1.6c0.2-0.6,0.3-1.3,0.3-2c0-0.8-0.2-1.5-0.4-2.1c-0.3-0.6-0.6-1.1-1-1.6
				c-0.4-0.4-1-0.7-1.6-0.9c-0.6-0.2-1.3-0.3-2-0.3c-0.7,0-1.3,0.2-1.8,0.4c-0.5,0.3-1,0.6-1.4,1.1c-0.4,0.5-0.7,1-0.9,1.6
				c-0.2,0.6-0.3,1.3-0.3,2.1c0,0.8,0.1,1.5,0.3,2.1c0.2,0.6,0.5,1.1,0.9,1.6c0.4,0.4,0.9,0.8,1.5,1
				C251.3,103.8,252,103.9,252.8,103.9z"/>
			<path d="M275,107.8c-0.1,0.4-0.3,0.7-0.6,1c-0.2,0.3-0.5,0.6-0.8,0.8c-0.3,0.2-0.6,0.4-1,0.5c-0.3,0.1-0.7,0.2-1,0.2l-2.8,0.1
				l11.1-32.3c0.3-0.7,0.7-1.3,1.3-1.7c0.6-0.4,1.2-0.6,2-0.6l2.8-0.1L275,107.8z"/>
			<path d="M303.2,95.3c0.2-0.2,0.4-0.5,0.6-0.7c0.2-0.2,0.3-0.5,0.5-0.7c-1.3,0.7-2.8,1.1-4.4,1.2c-1,0-2-0.1-3.1-0.4
				c-1-0.3-2-0.9-2.8-1.6c-0.8-0.7-1.5-1.6-2.1-2.7c-0.6-1.1-0.9-2.4-0.9-4c0-1.4,0.2-2.8,0.6-4c0.5-1.3,1.2-2.4,2.1-3.4
				c0.9-1,2.1-1.8,3.4-2.4c1.3-0.6,2.8-0.9,4.5-1c1.7-0.1,3.2,0.2,4.5,0.6c1.3,0.5,2.5,1.2,3.4,2.1c1,0.9,1.7,2,2.2,3.2
				c0.5,1.3,0.8,2.7,0.9,4.2c0.1,2-0.2,3.9-0.7,5.5c-0.6,1.6-1.3,3.2-2.3,4.6l-6.4,9.8c-0.3,0.4-0.7,0.8-1.3,1.1s-1.3,0.5-2.1,0.5
				l-6.1,0.2L303.2,95.3z M297.6,85.6c0.1,3.1,1.6,4.6,4.5,4.5c1.4,0,2.5-0.5,3.2-1.4c0.7-0.9,1.1-2,1-3.4c0-0.8-0.2-1.4-0.4-2
				c-0.2-0.6-0.6-1-1-1.4c-0.4-0.4-0.9-0.6-1.5-0.8c-0.6-0.2-1.2-0.3-1.8-0.2c-0.7,0-1.3,0.2-1.8,0.4c-0.5,0.3-0.9,0.6-1.3,1
				c-0.3,0.4-0.6,0.9-0.8,1.5C297.7,84.3,297.6,85,297.6,85.6z"/>
			<rect x="380.9" y="37.9" transform="matrix(0.9898 -0.1427 0.1427 0.9898 -34.9155 82.6984)" width="356.4" height="493.8"/>
			<rect x="399.9" y="302.1" transform="matrix(0.9898 -0.1427 0.1427 0.9898 -53.4777 86.7476)" width="356.4" height="228.2"/>
			<polygon points="397.9,415.5 750.9,366 398.4,418.8 			"/>
			<polygon points="750.5,363.2 750.9,366 434.8,410.1 			"/>
			<polygon points="750.5,363.2 561.9,391.2 635.1,378.4 			"/>
			<polygon points="398.8,421.6 398.4,418.8 750.9,366 751,366.8 			"/>
			<polygon points="578,420.9 571,415.7 517.1,487.7 517.3,487.9 517.2,487.9 524.6,539.2 533.3,537.9 526.3,489.9 			"/>
			<polygon points="464.9,468.9 508.4,410.8 507.2,402.2 463.7,460.4 			"/>
			<rect x="494.2" y="386.1" transform="matrix(0.599 -0.8008 0.8008 0.599 -125.5269 594.206)" width="72.6" height="72.6"/>
			<rect x="488.1" y="452.2" transform="matrix(0.599 -0.8008 0.8008 0.599 -167.8488 585.055)" width="24.2" height="15.9"/>
			<rect x="463.2" y="449.6" transform="matrix(0.599 -0.8008 0.8008 0.599 -172.5524 570.5031)" width="40.2" height="15.9"/>
			<rect x="511" y="456.5" transform="matrix(0.599 -0.8008 0.8008 0.599 -164.7165 599.9417)" width="11.3" height="15.9"/>
			<polygon points="520.8,355.5 523.2,371.6 581.3,415.1 579,399 			"/>
			<polygon points="566.5,213.8 580.7,194.8 603.5,211.8 603.5,223.3 594.5,234.8 			"/>
			<polygon points="543,356.3 544.3,365.9 602.5,409.4 601.1,399.8 			"/>
			<polygon points="479.7,429.8 523.2,371.6 520.8,355.5 477.4,413.7 			"/>
			<polygon points="602.4,409.3 591.7,401.3 591.7,401.4 544.3,366 536.3,376.7 580.5,409.7 581.3,415.3 548.3,459.4 559,467.4 
				594.4,420.1 594.5,420.1 602.5,409.4 602.4,409.4 			"/>
			<polygon points="564.8,356.5 566,364.5 624.1,408 622.9,399.9 			"/>
			<polygon points="656.7,339.9 510.1,230.4 508.9,222.3 655.5,331.9 			"/>
			<polygon points="595.5,383.8 628.1,340.2 627.4,335.4 594.8,379 			"/>
			<polygon points="656.7,340 638.4,326.4 510.1,230.4 538.8,192 544.6,196.3 558.3,178 552.5,173.7 552.6,173.6 534.3,159.9 
				534.2,160 534.1,159.9 520.4,178.2 520.5,178.3 491.8,216.7 478.2,235 496.4,248.6 624.8,344.6 595.4,383.8 613.7,397.5 
				643,358.3 			"/>
			<polygon points="478.1,234.9 534.2,159.9 533,151.8 476.9,226.9 			"/>
			<polygon points="558.3,178 534.2,159.9 533,151.8 557.1,170 			"/>
			<rect x="547.2" y="183.7" transform="matrix(0.599 -0.8008 0.8008 0.599 66.7528 528.553)" width="27.8" height="27.8"/>
			<polygon points="557,169.4 558.3,178.2 580.5,194.8 579.3,186 			"/>
			<polygon points="558.2,374.8 566,364.5 564.8,356.5 557.1,366.8 			"/>
			<polyline points="566,364.6 558.2,374.8 602.8,408.2 600.2,411.8 567.1,456 579.3,465 624.1,408.1 624,408 624.1,407.9 			"/>
			<polygon points="536.7,376.9 544.4,366.6 543,356.3 535.2,366.7 			"/>
			<polygon points="595.1,199.5 579.8,188.1 580.7,194.8 596.1,206.3 603.5,211.8 			"/>
			<path d="M556.7,194.8L556.7,194.8c-0.3-1.9,1-3.6,2.9-3.9l0,0c1.9-0.3,3.6,1,3.9,2.9v0c0.3,1.9-1,3.6-2.9,3.9l0,0
				C558.7,198,557,196.7,556.7,194.8z"/>
			<polygon points="541.6,200.4 540.6,193.7 544.6,196.3 			"/>
			<polygon points="563.6,453.6 556.6,448.4 502.7,520.4 503,520.6 502.9,520.6 505.9,541.9 514.6,540.6 512,522.6 			"/>
			<polygon points="560,443.8 556.6,448.4 563.6,453.7 562.4,445.6 			"/>
			<polygon points="660,381.6 662.4,380.1 664,387.7 661.1,389.7 			"/>
			<polygon points="660,381.6 662.4,380.1 656.5,373.1 654.3,374.6 			"/>
			<polygon points="656.3,371.6 663.2,379.7 665,387.7 664,387.6 662.4,380 656.5,373.1 654.2,373.4 654,372.6 			"/>
			<polygon points="662,390 661.1,389.7 664,387.6 665,387.7 			"/>
			<polygon points="648.3,377.5 651.4,377.1 652.7,385.6 649.3,386.1 			"/>
			<polygon points="648,374.9 651.1,374.4 651.4,377.1 648.3,377.5 			"/>
			<polygon points="642.2,375.2 645.4,374.7 647.1,386.4 643.7,386.9 			"/>
			<polygon points="638.8,374.8 641.9,374.4 644.9,394.3 641.7,394.7 			"/>
			<polygon points="654,378.2 657.2,377.7 658.2,384.8 654.8,385.3 			"/>
			<polygon points="653.4,373.6 656.5,373.1 657.1,377.6 654,378 			"/>
			<path d="M583.8,70.9c0,0,16.7-24.7,45.7-12.2c0,0,12.1-8,17.9,3c0,0,23.2,6.3,21,29.4s-23.8,19.2-23.8,19.2s-13.8,25-43.5,13.2
				c0,0-15.5,8.5-20.2-4.8c0,0-21.5-3.7-21.7-19.8S570.6,71.4,583.8,70.9z"/>
			<polygon points="430.8,116.6 425.9,116.6 420.5,142.6 424.7,143.2 			"/>
			<polygon points="424.1,143.1 424.1,143.1 424.4,143.4 424.4,143.4 424.6,143.8 420.4,145 420.2,144.6 419.9,144.3 419.7,143.9 
				423.9,142.7 			"/>
			<polygon points="423.9,142.7 424,141.5 419.8,142.7 419.7,143.9 			"/>
			<polygon points="424,141.5 424.2,141.9 424.2,142 424.2,141.9 424.4,142.2 424.4,143.4 424.1,143.1 424.1,143.1 423.9,142.7 			
				"/>
			<polygon points="424.4,142.2 424.7,142.6 424.6,143.8 424.4,143.4 			"/>
			<polygon points="415.3,118.9 410,119.4 419.7,143.4 423.9,142.1 			"/>
			<polygon points="415.4,118.6 415.4,118.9 410,119.4 410.1,119.1 			"/>
			<polygon points="415.4,118.9 423.9,142.1 415.4,118.6 			"/>
			<polygon points="647.4,460.7 644,488.5 655.9,520.3 666.1,518.8 			"/>
			<polygon points="690.3,408.4 683,434.5 690.6,515.3 703.6,513.4 			"/>
			<polygon points="665.5,437.8 670.8,411.2 694.6,514.7 682.7,516.4 			"/>
			<polygon points="722.8,431.7 713.7,455.2 716.3,511.6 726.8,510.1 			"/>
			<polygon points="745.8,467.9 735.3,489.7 734,509 744.5,507.5 			"/>
			<path d="M656.4,211.1c0,0,4.7-16.7,19.1-17.6c14.4-0.9,22.5,10.1,22.5,10.1s22.1,3,17.2,22.7S694,239.5,694,239.5
				s-2.2,5.4-12.4,6.8s-13.7-4.8-13.7-4.8s-2.5,3.3-9.7,2.9c-7.2-0.4-8.5-3.5-8.5-3.5s-8.9,6.3-15.3-3.4c-6.4-9.7,4.3-17.2,9.4-16.8
				C643.8,220.6,647,212.1,656.4,211.1z"/>
			<path d="M599.8,104.3c0.7-0.1,1.3,0,1.8,0.3c0.5,0.3,0.7,0.8,0.8,1.4l0.6,3.8l-21.7,3.1l-0.3-2.1c-0.1-0.4,0-0.9,0.1-1.4
				c0.1-0.5,0.3-1,0.7-1.4l7.6-10.3c0.7-0.9,1.2-1.7,1.7-2.5c0.5-0.8,0.8-1.5,1.1-2.2c0.3-0.7,0.4-1.4,0.5-2.1
				c0.1-0.7,0.1-1.4,0-2.2c-0.2-1.2-0.6-2.1-1.3-2.7c-0.7-0.6-1.6-0.8-2.8-0.6c-1,0.1-1.8,0.5-2.4,1.1c-0.6,0.6-1,1.3-1.1,2.1
				c-0.2,0.8-0.5,1.4-0.9,1.7c-0.4,0.3-1.1,0.5-2,0.5l-3.6-0.1c0-1.6,0.2-3,0.7-4.2c0.5-1.2,1.1-2.3,2-3.2c0.8-0.9,1.9-1.6,3-2.2
				c1.2-0.6,2.5-0.9,3.9-1.1c1.5-0.2,2.9-0.2,4.2,0.1c1.3,0.3,2.4,0.7,3.4,1.4c1,0.7,1.8,1.5,2.4,2.5c0.6,1,1,2.2,1.2,3.5
				c0.2,1.1,0.2,2.2,0,3.2c-0.2,1-0.5,2-0.9,2.9c-0.4,0.9-0.9,1.9-1.6,2.8c-0.6,0.9-1.3,1.9-2,2.8l-5.2,7.1c0.7-0.4,1.5-0.6,2.2-0.9
				c0.7-0.2,1.4-0.4,2.1-0.5L599.8,104.3z"/>
			<path d="M614,108.1c-0.1,0.4-0.3,0.8-0.5,1.1c-0.2,0.3-0.4,0.6-0.7,0.9c-0.3,0.2-0.6,0.4-0.9,0.6c-0.3,0.1-0.7,0.2-1,0.3
				l-2.8,0.4l7.5-33.4c0.2-0.8,0.5-1.4,1.1-1.8c0.5-0.5,1.2-0.8,1.9-0.9l2.8-0.4L614,108.1z"/>
			<path d="M627.9,83.8c0-1.6,0.2-3,0.7-4.2c0.5-1.2,1.1-2.3,2-3.2c0.8-0.9,1.9-1.6,3-2.2c1.2-0.6,2.5-0.9,3.9-1.1
				c1.5-0.2,2.9-0.2,4.2,0.1c1.3,0.3,2.3,0.7,3.3,1.3c0.9,0.6,1.7,1.4,2.2,2.3c0.6,0.9,0.9,1.9,1.1,3c0.1,1,0.2,1.8,0.1,2.6
				c-0.1,0.8-0.3,1.5-0.6,2.1c-0.3,0.6-0.7,1.1-1.2,1.6c-0.5,0.5-1.1,0.9-1.8,1.2c3.6,0.7,5.6,2.8,6.1,6.3c0.2,1.6,0.1,3.1-0.3,4.4
				c-0.4,1.3-1.1,2.4-1.9,3.4c-0.9,0.9-1.9,1.7-3.2,2.3c-1.3,0.6-2.6,1-4,1.2c-1.5,0.2-2.8,0.2-4,0.1c-1.2-0.2-2.3-0.5-3.3-1
				c-1-0.5-1.9-1.3-2.7-2.2c-0.8-0.9-1.6-2.1-2.3-3.5l2.8-1.6c0.7-0.4,1.4-0.6,2.1-0.5c0.7,0,1.2,0.3,1.5,0.8
				c0.8,1.1,1.6,1.8,2.4,2.3c0.8,0.4,1.7,0.6,2.6,0.4c0.7-0.1,1.4-0.3,1.9-0.6c0.5-0.3,0.9-0.7,1.2-1.2c0.3-0.4,0.5-0.9,0.6-1.4
				c0.1-0.5,0.1-1,0.1-1.5c-0.1-0.7-0.2-1.3-0.4-1.8c-0.2-0.5-0.5-0.9-1-1.3c-0.5-0.3-1.2-0.5-2-0.6c-0.9-0.1-2.1,0-3.6,0.2
				l-0.7-4.5c1.3-0.2,2.3-0.4,3.1-0.7c0.8-0.3,1.3-0.7,1.7-1.1c0.4-0.4,0.6-0.9,0.7-1.4s0.1-1.1,0-1.7c-0.2-1.2-0.6-2.1-1.3-2.7
				c-0.7-0.6-1.6-0.8-2.8-0.6c-1,0.1-1.8,0.5-2.4,1.1c-0.6,0.6-1,1.3-1.1,2.1c-0.2,0.8-0.5,1.4-0.9,1.7c-0.4,0.3-1.1,0.5-2,0.5
				L627.9,83.8z"/>
			<polygon class="st137" points="414.2,344.3 421.1,340.7 460,348.7 453.7,352.2 			"/>
			<polygon points="435,336 447.1,338.3 449,351.3 436.9,348.8 			"/>
			<polygon points="442.4,332 454.5,334.4 447.1,338.3 435,335.9 			"/>
			<polygon points="435,336 447.1,338.3 449,351.3 436.9,348.8 			"/>
			<polygon points="442.4,332 454.5,334.4 447.1,338.3 435,335.9 			"/>
			<polygon points="427.5,333.4 430,333.8 430.2,335.4 427.7,334.9 			"/>
			<polygon points="430.1,332.3 432.2,332.6 429.6,333.9 427.5,333.5 			"/>
			<polygon points="428.4,334.7 435.2,336 437.1,349 430.3,347.6 			"/>
			<polygon points="435.5,330.9 442.3,332.3 435.2,336 428.4,334.6 			"/>
			<path d="M464.3,340.4l4.5-2.4l0.4-3.7l-5.6-2.5l0.8-1.4l-1.8-1.3l-1,0.8c0,0-4.5-0.7-7.2,4.5l-7.4,4l1.9,12.9l4.8,1l6.2-3.6
				C460,348.7,458.9,341.1,464.3,340.4z"/>
			
				<rect x="30.5" y="432.3" transform="matrix(0.9994 -3.348302e-02 3.348302e-02 0.9994 -16.0418 2.9042)" width="96.3" height="96.3"/>
			<text transform="matrix(1 0 0 1 64.0271 496.5236)" class="st152 st153">3</text>
			
				<rect x="30.5" y="432.3" transform="matrix(0.9994 -3.348302e-02 3.348302e-02 0.9994 -16.0418 2.9042)" width="96.3" height="96.3"/>
			<path d="M91.3,484.4c0,0.2,0,0.3-0.1,0.5c0,0.1-0.1,0.3-0.1,0.5c-0.1,0.4-0.1,0.7-0.1,1.1s0,0.6-0.1,0.8c0,0.1-0.1,0.3-0.2,0.4
				c-0.1,0.1-0.1,0.2-0.2,0.4c-0.1,0.3-0.2,0.6-0.3,0.9c-0.1,0.3-0.2,0.5-0.5,0.7c-0.1,0.3-0.2,0.6-0.2,0.7c0,0.2,0,0.3-0.1,0.3
				c-0.2,0.3-0.3,0.5-0.4,0.7c-0.1,0.2-0.2,0.3-0.3,0.5c-0.1,0.1-0.1,0.1-0.2,0.2c-0.1,0.1-0.1,0.2-0.2,0.2
				c-0.2,0.3-0.3,0.5-0.5,0.7c-0.1,0.2-0.3,0.3-0.5,0.2c-0.1,0.3-0.2,0.5-0.5,0.6c0,0.2,0,0.3-0.1,0.3c-0.1,0.1-0.1,0.1-0.2,0.3
				c-0.2,0-0.3,0.1-0.4,0.2c-0.1,0.1-0.2,0.2-0.3,0.3c-0.2,0-0.3,0.1-0.4,0.2c-0.1,0.1-0.2,0.2-0.2,0.2c-0.5,0.3-0.9,0.4-1.1,0.5
				c-0.2,0.1-0.4,0.1-0.6,0.2c-0.2,0-0.3,0.1-0.5,0.3c-0.2,0-0.3,0-0.4,0c-0.1,0-0.2,0.1-0.3,0.2c-0.3,0.1-0.6,0.2-0.8,0.3
				c-0.3,0.1-0.5,0.2-0.8,0.3c-0.2,0.1-0.3,0.1-0.5,0.2c-0.2,0.1-0.3,0.1-0.5,0.1c-0.1,0-0.3,0-0.4,0c-0.1,0-0.2,0-0.4,0
				c-0.3,0.1-0.5,0.1-0.6,0.1c-0.1,0-0.2,0-0.3,0c-0.3,0-0.5,0-0.6,0c-0.1-0.1-0.2-0.1-0.3-0.1c-0.4-0.1-0.8-0.2-1.3-0.2
				c-0.5,0-0.8-0.2-1-0.5c-0.3,0.1-0.5,0.1-0.7,0c-0.2-0.1-0.5-0.2-0.7-0.4c-0.3-0.1-0.4-0.2-0.5-0.3c-0.1-0.1-0.2-0.1-0.2-0.2
				c-0.1-0.1-0.3-0.1-0.4-0.2c-0.1-0.1-0.2-0.2-0.4-0.2c-0.2-0.1-0.4-0.2-0.5-0.3c-0.2-0.1-0.3-0.2-0.5-0.3
				c-0.3-0.2-0.4-0.3-0.5-0.5c-0.1-0.2-0.2-0.3-0.3-0.4c-0.1-0.1-0.2-0.2-0.3-0.2c-0.1,0-0.2-0.1-0.3-0.2c-0.3-0.4-0.6-0.8-0.9-1.1
				c-0.3-0.3-0.6-0.7-0.7-1.2c-0.3-0.3-0.4-0.4-0.5-0.5c-0.1-0.1-0.1-0.2-0.2-0.2c-0.2-0.2-0.3-0.3-0.4-0.5c0-0.2-0.1-0.2-0.3-0.3
				c0.1-0.2,0.1-0.3-0.1-0.4c-0.1-0.1-0.2-0.2-0.2-0.3c-0.1-0.3-0.1-0.5-0.2-0.6c-0.1-0.1-0.1-0.3-0.2-0.4v-0.6
				c0-0.2-0.1-0.3-0.2-0.4c-0.1-0.1-0.1-0.2-0.2-0.3c-0.1-0.3-0.1-0.6-0.1-0.9c0-0.3,0-0.6-0.1-0.9c-0.1-0.2-0.1-0.3-0.2-0.5
				c-0.1-0.2-0.1-0.3-0.1-0.5c0-0.2,0.1-0.4,0.2-0.5c0.1-0.1,0.2-0.3,0.4-0.5c0.2,0,0.3,0,0.3,0.1c0.1,0.1,0.2,0.1,0.3,0.2
				c0.2-0.1,0.5-0.2,0.9-0.2c0.1,0,0.2,0,0.4,0c0.2,0,0.3-0.1,0.4-0.1c0.3,0.1,0.5,0.1,0.8,0c0.3-0.1,0.5-0.1,0.6-0.1
				c0.2,0,0.3,0,0.5,0c0.2,0,0.3,0,0.5,0c0.1,0,0.3-0.1,0.4-0.1c0.1-0.1,0.3-0.1,0.5,0c0.2,0,0.3,0.1,0.5,0.2
				c0.2,0.1,0.3,0.2,0.4,0.4c0,0.4,0,0.7-0.1,1c-0.1,0.3-0.1,0.6,0,1c0,0.1,0.1,0.2,0.1,0.3c0,0.1,0,0.2,0,0.3
				c0,0.1,0.1,0.1,0.1,0.2c0.1,0.1,0.1,0.2,0.1,0.3c0,0.1,0,0.3,0,0.4c0,0.1,0,0.2,0,0.3c0.2,0.3,0.3,0.6,0.4,0.9
				c0.1,0.3,0.2,0.5,0.3,0.6c0.1,0.1,0.3,0.3,0.5,0.5c0.1,0.1,0.1,0.1,0.2,0.2c0.1,0.1,0.1,0.1,0.2,0.2c0.1,0.1,0.2,0.1,0.4,0.1
				c0.1,0,0.3,0,0.5,0.1c0.4,0.1,0.7,0.2,0.9,0.3c0.2,0.1,0.4,0.1,0.7,0.2c0.3,0.1,0.5,0.2,0.7,0.2c0.2,0,0.4,0,0.8,0
				c0.1,0,0.3,0,0.4,0c0.2,0,0.3,0,0.5-0.1c0.2,0,0.3-0.1,0.5-0.1c0.2-0.1,0.3-0.1,0.5-0.2c0.2-0.1,0.5-0.1,0.7-0.1
				c0.2,0,0.4-0.1,0.6-0.1c0.1-0.1,0.3-0.1,0.4-0.2c0.1-0.1,0.2-0.2,0.4-0.3c0.2-0.1,0.4-0.2,0.6-0.4c0.2-0.2,0.4-0.3,0.5-0.4
				c0.2-0.2,0.4-0.5,0.6-0.8c0.1-0.3,0.3-0.5,0.5-0.7c0-0.2,0.1-0.5,0.2-0.8c0.1-0.3,0.2-0.6,0.3-0.7c-0.2-0.2-0.2-0.3-0.2-0.5
				c0.1-0.2,0.1-0.4,0.1-0.8c0-0.6,0-1,0-1.4s0-0.7-0.1-0.9c-0.1-0.2-0.2-0.3-0.3-0.5c-0.1-0.2-0.2-0.4-0.2-0.6
				c-0.2-0.2-0.3-0.4-0.4-0.7c-0.1-0.3-0.2-0.5-0.3-0.8c-0.2,0-0.4-0.1-0.5-0.2c-0.2-0.1-0.4-0.2-0.7-0.2c-0.1-0.1-0.2-0.2-0.3-0.3
				c-0.1-0.1-0.2-0.2-0.3-0.3c-0.2-0.1-0.3-0.1-0.5-0.2s-0.3-0.1-0.5-0.2c-0.2-0.1-0.3-0.1-0.5-0.2c-0.2-0.1-0.3-0.1-0.5-0.2
				c-0.3,0-0.5,0-0.8,0c-0.3,0-0.5,0.1-0.8,0.2c-0.2,0.1-0.5,0.1-0.7,0.2c-0.2,0.1-0.4,0.1-0.7,0.2c-0.2,0.1-0.4,0.2-0.5,0.3
				c-0.1,0.1-0.3,0.1-0.5,0.1c-0.2,0-0.4-0.1-0.5-0.2s-0.2-0.3-0.4-0.5c0.1-0.5,0.1-1,0.2-1.6c0.1-0.6,0.1-1.1,0.2-1.6
				c0-0.1-0.1-0.2-0.2-0.3c-0.1-0.1-0.2-0.2-0.2-0.3c-0.1-0.3-0.1-0.5-0.2-0.7c-0.1-0.1-0.1-0.3-0.1-0.5c0-0.2,0.1-0.4,0.2-0.6
				c0.1-0.2,0.2-0.3,0.4-0.5c0.5,0,1,0.1,1.4,0.4c0.6-0.1,1.3-0.1,2.1-0.2c0.8-0.1,1.6-0.2,2.2-0.3c0.1,0,0.3-0.1,0.4-0.1
				c0.1,0,0.2,0,0.4,0c0.3-0.2,0.6-0.4,0.9-0.5c0.3-0.1,0.6-0.3,0.7-0.6c0.2-0.1,0.3-0.2,0.4-0.4c0.1-0.2,0.2-0.3,0.4-0.4
				c0.1-0.3,0.1-0.6,0.1-0.9c0-0.3,0-0.5,0-0.8c0.1-0.2,0.1-0.4,0.2-0.6c0-0.1,0-0.3-0.1-0.6c0-0.1,0-0.3-0.1-0.4
				c0-0.2-0.1-0.3-0.2-0.5c-0.2-0.4-0.4-0.8-0.6-1.2c-0.1-0.1-0.3-0.3-0.4-0.4c-0.1-0.1-0.3-0.2-0.4-0.4c-0.2-0.1-0.3-0.3-0.5-0.4
				c-0.1-0.1-0.3-0.2-0.4-0.4c-0.1,0.1-0.2,0.1-0.3,0c-0.1-0.1-0.2-0.1-0.3-0.1c-0.4,0-0.8,0-0.9-0.1c-0.2-0.1-0.4-0.1-0.5-0.2
				c-0.2,0-0.3,0-0.5,0c-0.2,0-0.4,0-0.5,0.1c-0.3,0-0.7,0.1-1.1,0.3c-0.1,0-0.2,0-0.3,0c-0.1,0-0.2,0-0.3,0c-0.6,0.3-1,0.5-1.3,0.7
				c-0.3,0.2-0.6,0.4-0.8,0.5c0.1,0.4,0,0.7-0.3,1c-0.3,0.3-0.4,0.6-0.5,1.1c0,0.1,0,0.3,0,0.4c0,0.2,0,0.3,0,0.5
				c0,0.2,0,0.3-0.1,0.5c0,0.1-0.1,0.3-0.1,0.4c0,0.2,0.1,0.4,0.1,0.6c0.1,0.1,0,0.3,0,0.6c-0.1,0.1-0.2,0.2-0.3,0.4
				c-0.1,0.2-0.2,0.2-0.3,0.3c-0.3,0.1-0.5,0-0.6-0.1c-0.1-0.1-0.3-0.2-0.6-0.3c-0.1,0-0.3,0-0.4,0.1c-0.1,0-0.3,0-0.5,0
				c-0.3,0-0.5,0-0.8-0.1c-0.2-0.1-0.5-0.1-0.7-0.2c-0.1,0-0.2,0-0.4,0c-0.1,0-0.3,0-0.4,0c-0.3,0-0.6,0-0.8-0.1
				c-0.3-0.1-0.5-0.1-0.8-0.2c-0.2-0.3-0.4-0.5-0.6-0.5c-0.2,0-0.3-0.1-0.3-0.2c-0.2-0.4-0.2-0.9-0.1-1.5c0-0.1,0.1-0.2,0.1-0.3
				c0-0.1,0.1-0.2,0.1-0.3c0-0.1,0-0.3,0-0.4c0-0.1,0-0.2,0-0.4c0.1-0.3,0.1-0.5,0.1-0.7c0-0.1,0-0.3,0-0.4c0.1-0.2,0.2-0.4,0.2-0.6
				c0-0.2,0.1-0.3,0.3-0.4c0.1-0.2,0.1-0.3,0-0.5c-0.1-0.2,0-0.3,0.1-0.5c0.2-0.3,0.3-0.5,0.3-0.6c0-0.1,0.1-0.2,0.1-0.2
				c0.1-0.2,0.2-0.3,0.2-0.4c0-0.1,0.1-0.2,0.3-0.4c0.1-0.1,0.1-0.2,0.2-0.2c0.1-0.1,0.1-0.1,0.1-0.2c0-0.1,0.1-0.1,0.1-0.2
				c0.2-0.2,0.3-0.3,0.4-0.3c0.1,0,0.1,0,0.2-0.1c0.3-0.3,0.6-0.5,0.8-0.7c0.2-0.2,0.4-0.4,0.6-0.5c0.1-0.1,0.3-0.2,0.4-0.3
				c0.1-0.1,0.3-0.2,0.4-0.3c0.5-0.3,0.8-0.5,0.9-0.6c0.1-0.2,0.3-0.3,0.4-0.4c0.2-0.1,0.4-0.1,0.6-0.2c0.3-0.1,0.5-0.2,0.7-0.2
				c0.4-0.1,0.8-0.1,1.1-0.2c0.3-0.1,0.6-0.1,0.8-0.2c0.3,0.1,0.5,0.2,0.8,0.2c0.3,0,0.6,0,0.8,0.1c0.3,0,0.7,0.1,1.2,0.1
				c0.5,0,1,0,1.5,0c0.2,0,0.4,0,0.7,0c0.3,0,0.5,0,0.8,0.1c0.3,0.2,0.5,0.3,0.7,0.4c0.2,0.1,0.3,0.1,0.5,0.2
				c0.1,0.1,0.4,0.3,0.7,0.5c0.3,0.2,0.5,0.3,0.6,0.4c0.1,0.1,0.3,0.2,0.4,0.2c0.3,0.2,0.5,0.3,0.6,0.5c0.1,0.1,0.2,0.2,0.3,0.3
				c0.4,0.3,0.6,0.5,0.8,0.8c0.2,0.2,0.4,0.4,0.7,0.5c0.1,0.2,0.2,0.3,0.3,0.4c0.1,0.1,0.2,0.3,0.3,0.4c0.1,0.1,0.2,0.2,0.3,0.4
				c0,0.2,0.1,0.3,0.3,0.4c0.1,0.3,0.1,0.7,0.2,1c0.1,0.3,0.1,0.7,0.2,1c0.1,0.1,0.1,0.2,0.2,0.3c0.1,0.1,0.1,0.3,0.2,0.4
				c0.1,0.1,0.1,0.1,0.1,0.2c0,0.1,0,0.2,0.1,0.4c0.1,0.3,0.1,0.6,0.1,0.8c0,0.2,0,0.3,0,0.5c0,0.2,0,0.3,0.1,0.5
				c0,0.2,0.1,0.3,0.1,0.5c0.1,0.4,0.1,1,0.1,1.7c0,0.4,0,0.8,0,0.9c0,0.2-0.1,0.3-0.3,0.5c0,0.4,0,0.6,0,0.7c0,0.1,0,0.2,0,0.3
				c0,0.1,0,0.2-0.1,0.3c-0.1,0.1-0.1,0.2-0.2,0.3c0,0.1-0.1,0.2-0.1,0.3c0,0.1,0,0.2-0.1,0.3c0,0.1-0.1,0.2-0.1,0.3
				c-0.1,0.1-0.1,0.2-0.1,0.3c-0.1,0.4-0.3,0.7-0.5,1c-0.1,0.1-0.2,0.2-0.3,0.3c-0.1,0.1-0.3,0.2-0.4,0.3c0.1,0.3,0.3,0.5,0.5,0.7
				c0.2,0.2,0.4,0.4,0.5,0.6c0.1,0.1,0.2,0.2,0.3,0.3c0.1,0.1,0.3,0.2,0.4,0.3c0,0.2,0.1,0.3,0.2,0.4c0.1,0.1,0.2,0.2,0.4,0.3
				c0,0.2,0.1,0.4,0.3,0.5c0.1,0.1,0.3,0.2,0.4,0.4c0.1,0.3,0.1,0.5,0.1,0.7c0.4,0.5,0.7,0.8,0.7,1.1c0,0.2,0.1,0.5,0.1,0.8
				s0,0.7,0,0.9c-0.1,0.2-0.1,0.3-0.1,0.4c0,0.1,0.1,0.1,0.2,0.2C91.2,483.6,91.3,484,91.3,484.4z"/>
			<rect x="411.5" y="452" transform="matrix(0.9895 -0.1446 0.1446 0.9895 -67.5027 71.7415)" width="96.3" height="96.3"/>
			<path d="M472.6,502.7c0,0.2,0,0.3,0,0.5c0,0.1,0,0.3,0,0.5c0,0.4,0,0.7,0,1.1c0,0.4,0,0.6,0,0.8c0,0.1-0.1,0.3-0.1,0.4
				c-0.1,0.1-0.1,0.3-0.2,0.4c-0.1,0.3-0.1,0.6-0.2,0.9c0,0.3-0.2,0.5-0.4,0.7c-0.1,0.3-0.1,0.6-0.1,0.7c0,0.2,0,0.3,0,0.3
				c-0.2,0.3-0.3,0.5-0.4,0.7c-0.1,0.2-0.1,0.3-0.2,0.5c-0.1,0.1-0.1,0.2-0.2,0.2c0,0.1-0.1,0.2-0.2,0.2c-0.1,0.3-0.3,0.6-0.4,0.8
				c-0.1,0.2-0.3,0.3-0.4,0.3c0,0.3-0.2,0.5-0.4,0.6c0.1,0.2,0,0.3,0,0.3c-0.1,0.1-0.1,0.2-0.1,0.3c-0.2,0.1-0.3,0.1-0.3,0.3
				c-0.1,0.1-0.1,0.2-0.2,0.3c-0.2,0.1-0.3,0.1-0.4,0.2c-0.1,0.1-0.1,0.2-0.2,0.3c-0.5,0.3-0.8,0.5-1,0.6c-0.2,0.1-0.4,0.2-0.5,0.2
				c-0.2,0.1-0.3,0.2-0.4,0.4c-0.2,0-0.3,0-0.4,0c-0.1,0-0.2,0.1-0.2,0.2c-0.3,0.1-0.6,0.2-0.8,0.3c-0.2,0.1-0.5,0.3-0.7,0.4
				c-0.2,0.1-0.3,0.2-0.5,0.2c-0.2,0.1-0.3,0.1-0.5,0.2c-0.1,0-0.3,0-0.4,0c-0.1,0-0.2,0-0.4,0c-0.3,0.1-0.5,0.2-0.6,0.2
				c-0.1,0-0.2,0-0.3,0c-0.3,0.1-0.5,0.1-0.6,0c-0.1,0-0.2,0-0.3,0c-0.4-0.1-0.8-0.1-1.3,0c-0.5,0-0.8-0.1-1-0.4
				c-0.3,0.1-0.5,0.2-0.7,0.1c-0.2-0.1-0.5-0.2-0.8-0.3c-0.3-0.1-0.5-0.1-0.6-0.2c-0.1-0.1-0.2-0.1-0.2-0.1
				c-0.1-0.1-0.3-0.1-0.4-0.2c-0.1-0.1-0.3-0.1-0.4-0.2c-0.2-0.1-0.4-0.2-0.6-0.2c-0.2,0-0.3-0.1-0.6-0.2c-0.3-0.1-0.5-0.3-0.6-0.4
				c-0.1-0.1-0.2-0.3-0.3-0.3c-0.1-0.1-0.2-0.1-0.3-0.2c-0.1,0-0.2-0.1-0.3-0.2c-0.3-0.4-0.6-0.7-1-1c-0.4-0.3-0.6-0.6-0.9-1.1
				c-0.3-0.2-0.5-0.4-0.5-0.5c-0.1-0.1-0.1-0.1-0.2-0.2c-0.2-0.1-0.4-0.3-0.4-0.4c-0.1-0.1-0.2-0.2-0.3-0.2c0-0.2,0-0.3-0.1-0.4
				c-0.1-0.1-0.2-0.2-0.2-0.2c-0.1-0.3-0.2-0.5-0.2-0.6c-0.1-0.1-0.1-0.2-0.2-0.3l-0.1-0.6c-0.1-0.2-0.1-0.3-0.2-0.3
				c-0.1-0.1-0.1-0.1-0.2-0.2c-0.1-0.3-0.2-0.5-0.2-0.8c0-0.3-0.1-0.6-0.2-0.9c-0.1-0.2-0.2-0.3-0.3-0.5c-0.1-0.1-0.1-0.3-0.1-0.5
				c0-0.2,0.1-0.4,0.1-0.5c0.1-0.1,0.2-0.3,0.4-0.5c0.2-0.1,0.3,0,0.3,0c0.1,0.1,0.2,0.1,0.3,0.1c0.2-0.1,0.5-0.2,0.9-0.3
				c0.1,0,0.2,0,0.4,0c0.1,0,0.3-0.1,0.4-0.1c0.3,0,0.5,0,0.8-0.1c0.2-0.1,0.5-0.1,0.6-0.1c0.2-0.1,0.3-0.1,0.5-0.1
				c0.2,0,0.3,0,0.5-0.1c0.1,0,0.3-0.1,0.4-0.2c0.1-0.1,0.3-0.1,0.5-0.1c0.2,0,0.3,0.1,0.5,0.2c0.2,0.1,0.3,0.2,0.4,0.3
				c0,0.4,0,0.7,0,1c0,0.3,0,0.6,0.1,1c0,0.1,0.1,0.2,0.1,0.3c0,0.1,0,0.2,0,0.3c0,0.1,0.1,0.1,0.1,0.2c0.1,0.1,0.1,0.2,0.2,0.3
				c0,0.1,0.1,0.3,0.1,0.4c0,0.1,0,0.2,0.1,0.3c0.2,0.3,0.4,0.6,0.5,0.8c0.1,0.2,0.2,0.4,0.4,0.6c0.1,0.1,0.3,0.3,0.5,0.5
				c0.1,0.1,0.1,0.1,0.2,0.2c0.1,0.1,0.1,0.1,0.2,0.2c0.1,0.1,0.2,0.1,0.4,0.1c0.1,0,0.3,0,0.5,0c0.4,0.1,0.7,0.2,0.9,0.2
				c0.2,0,0.4,0.1,0.7,0.1c0.3,0.1,0.5,0.1,0.7,0.1c0.2,0,0.4,0,0.8-0.1c0.1,0,0.3-0.1,0.4-0.1c0.2,0,0.3,0,0.5-0.1
				c0.2-0.1,0.3-0.1,0.5-0.2c0.2-0.1,0.3-0.1,0.5-0.2c0.2-0.1,0.4-0.2,0.6-0.2c0.2,0,0.4-0.1,0.5-0.2c0.1-0.1,0.2-0.2,0.4-0.3
				c0.1-0.1,0.2-0.2,0.3-0.3c0.2-0.1,0.3-0.3,0.6-0.4c0.2-0.2,0.4-0.3,0.5-0.5c0.2-0.3,0.4-0.5,0.5-0.8c0.1-0.3,0.2-0.5,0.4-0.8
				c0-0.2,0-0.5,0.1-0.8c0-0.3,0.1-0.6,0.2-0.7c-0.2-0.1-0.3-0.3-0.2-0.5c0-0.2,0-0.4,0-0.8c-0.1-0.6-0.1-1-0.1-1.4
				c0-0.4-0.1-0.7-0.2-0.9c-0.1-0.2-0.2-0.3-0.4-0.5c-0.1-0.2-0.2-0.3-0.3-0.6c-0.2-0.1-0.3-0.4-0.5-0.6c-0.1-0.3-0.3-0.5-0.4-0.7
				c-0.2,0-0.4,0-0.5-0.1c-0.2-0.1-0.4-0.1-0.7-0.1c-0.1-0.1-0.2-0.2-0.3-0.3c-0.1-0.1-0.2-0.2-0.3-0.2c-0.2,0-0.3-0.1-0.5-0.1
				c-0.2,0-0.3-0.1-0.5-0.1c-0.2,0-0.4-0.1-0.5-0.2c-0.2-0.1-0.4-0.1-0.5-0.1c-0.3,0-0.5,0-0.8,0.1c-0.3,0.1-0.5,0.1-0.8,0.2
				c-0.2,0.1-0.4,0.2-0.7,0.3c-0.2,0.1-0.4,0.2-0.7,0.2c-0.2,0.1-0.3,0.2-0.4,0.3c-0.1,0.1-0.3,0.2-0.5,0.2c-0.2,0-0.4,0-0.5-0.2
				c-0.1-0.1-0.3-0.3-0.5-0.4c0-0.5,0-1.1,0-1.6c0-0.6,0-1.1,0-1.6c0-0.1-0.1-0.2-0.2-0.3c-0.1-0.1-0.2-0.2-0.2-0.3
				c-0.1-0.3-0.2-0.5-0.3-0.6c-0.1-0.1-0.1-0.3-0.2-0.4c0-0.2,0.1-0.4,0.1-0.6c0.1-0.2,0.2-0.3,0.3-0.5c0.5-0.1,1,0,1.4,0.2
				c0.6-0.1,1.3-0.3,2.1-0.4c0.8-0.2,1.5-0.3,2.2-0.5c0.1,0,0.3-0.1,0.4-0.1c0.1,0,0.2-0.1,0.4,0c0.2-0.3,0.5-0.5,0.8-0.6
				c0.3-0.1,0.5-0.4,0.6-0.7c0.2-0.1,0.3-0.2,0.4-0.4c0-0.2,0.2-0.3,0.3-0.4c0-0.3,0-0.6,0-0.9c0-0.3-0.1-0.5-0.1-0.8
				c0-0.2,0.1-0.4,0.1-0.6c0-0.1,0-0.3-0.1-0.6c0-0.1,0-0.3-0.1-0.4c-0.1-0.1-0.1-0.3-0.2-0.5c-0.2-0.4-0.5-0.8-0.7-1.1
				c-0.1-0.1-0.3-0.2-0.4-0.3c-0.1-0.1-0.3-0.2-0.4-0.3c-0.2-0.1-0.3-0.2-0.5-0.3c-0.1-0.1-0.3-0.2-0.4-0.3
				c-0.1,0.1-0.2,0.1-0.3,0.1c-0.1,0-0.2-0.1-0.3-0.1c-0.4,0.1-0.7,0.1-0.9,0.1c-0.2,0-0.4-0.1-0.5-0.1c-0.2,0-0.3,0-0.5,0.1
				c-0.2,0-0.4,0.1-0.5,0.1c-0.3,0.1-0.7,0.2-1.1,0.4c-0.1,0-0.2,0.1-0.3,0.1c-0.1,0-0.2,0-0.3,0.1c-0.5,0.3-0.9,0.6-1.2,0.8
				c-0.3,0.2-0.5,0.4-0.8,0.5c0.1,0.4,0.1,0.7-0.2,1c-0.2,0.3-0.3,0.7-0.4,1.1c0,0.1,0,0.3,0,0.4c0,0.1,0,0.3,0,0.5
				c0,0.2,0,0.3,0,0.5c0,0.1,0,0.3,0,0.4c0.1,0.2,0.1,0.4,0.2,0.5c0.1,0.1,0.1,0.3,0,0.6c-0.1,0.1-0.1,0.2-0.2,0.4
				c-0.1,0.2-0.2,0.3-0.3,0.3c-0.3,0.1-0.5,0.1-0.6,0c-0.1-0.1-0.3-0.2-0.6-0.2c-0.1,0-0.3,0-0.4,0.1c-0.1,0-0.3,0.1-0.5,0.1
				c-0.3,0-0.5,0-0.8,0c-0.2,0-0.5-0.1-0.7-0.1c-0.1,0-0.2,0-0.3,0.1c-0.1,0-0.2,0.1-0.3,0.1c-0.3,0-0.6,0-0.8,0
				c-0.3,0-0.5-0.1-0.8-0.1c-0.3-0.3-0.5-0.5-0.7-0.4c-0.2,0-0.3,0-0.3-0.1c-0.2-0.3-0.3-0.8-0.3-1.4c0-0.1,0-0.3,0.1-0.3
				c0-0.1,0-0.2,0-0.3c0-0.1,0-0.3,0-0.4c0-0.1,0-0.2,0-0.4c0.1-0.3,0.1-0.5,0.1-0.7c0-0.1,0-0.3,0-0.4c0.1-0.2,0.2-0.4,0.2-0.6
				c0-0.2,0.1-0.3,0.2-0.4c0-0.2,0-0.3-0.1-0.5c-0.1-0.1-0.1-0.3,0-0.5c0.1-0.4,0.2-0.6,0.2-0.7c0-0.1,0-0.2,0.1-0.2
				c0.1-0.2,0.1-0.3,0.1-0.4c0-0.1,0.1-0.2,0.2-0.4c0.1-0.1,0.1-0.2,0.2-0.2c0-0.1,0.1-0.1,0.1-0.2c0-0.1,0.1-0.1,0.1-0.2
				c0.1-0.2,0.3-0.3,0.3-0.3c0.1,0,0.1-0.1,0.1-0.1c0.3-0.3,0.5-0.6,0.7-0.8c0.2-0.2,0.4-0.4,0.5-0.6c0.1-0.1,0.2-0.2,0.3-0.3
				c0.1-0.1,0.2-0.2,0.4-0.3c0.4-0.3,0.7-0.6,0.8-0.7c0.1-0.2,0.2-0.3,0.4-0.4c0.2-0.1,0.4-0.2,0.6-0.3c0.2-0.1,0.5-0.2,0.7-0.3
				c0.4-0.1,0.8-0.2,1.1-0.3c0.3-0.1,0.5-0.2,0.8-0.3c0.3,0.1,0.6,0.1,0.9,0.1c0.3,0,0.6,0,0.8,0c0.3,0,0.7,0,1.2-0.1
				c0.5,0,1-0.1,1.5-0.2c0.2,0,0.4,0,0.7-0.1c0.3,0,0.5,0,0.8,0c0.3,0.2,0.5,0.3,0.7,0.3c0.2,0,0.4,0.1,0.5,0.1
				c0.1,0.1,0.4,0.2,0.7,0.4c0.3,0.1,0.5,0.2,0.6,0.3c0.1,0.1,0.3,0.1,0.5,0.2c0.3,0.1,0.5,0.3,0.6,0.4c0.1,0.1,0.2,0.2,0.3,0.3
				c0.4,0.2,0.7,0.4,0.9,0.7c0.2,0.2,0.5,0.3,0.7,0.4c0.1,0.2,0.2,0.3,0.3,0.4c0.1,0.1,0.2,0.2,0.3,0.4c0.1,0.1,0.2,0.2,0.3,0.3
				c0.1,0.2,0.2,0.3,0.3,0.3c0.1,0.3,0.2,0.6,0.3,1c0.1,0.3,0.2,0.6,0.3,1c0.1,0.1,0.1,0.2,0.2,0.3c0.1,0.1,0.1,0.2,0.2,0.4
				c0.1,0.1,0.1,0.1,0.1,0.2c0,0.1,0,0.2,0.1,0.4c0.1,0.3,0.2,0.6,0.2,0.7c0,0.2,0,0.3,0.1,0.5c0,0.2,0.1,0.3,0.1,0.5
				c0,0.1,0.1,0.3,0.1,0.5c0.1,0.4,0.2,1,0.2,1.7c0,0.4,0.1,0.7,0.1,0.9c0,0.2,0,0.4-0.2,0.5c0,0.4,0.1,0.6,0.1,0.7
				c0,0.1,0,0.2,0.1,0.3c0,0.1,0,0.2-0.1,0.3c-0.1,0.1-0.1,0.2-0.1,0.3c0,0.1,0,0.2,0,0.3c0,0.1,0,0.2,0,0.3c0,0.1,0,0.3-0.1,0.3
				c0,0.1-0.1,0.2-0.1,0.3c-0.1,0.4-0.2,0.8-0.4,1c-0.1,0.1-0.1,0.2-0.3,0.4c-0.1,0.1-0.2,0.3-0.3,0.4c0.1,0.3,0.3,0.5,0.6,0.6
				c0.3,0.1,0.4,0.3,0.6,0.6c0.1,0.1,0.2,0.2,0.3,0.2c0.1,0.1,0.3,0.1,0.4,0.2c0,0.2,0.1,0.3,0.2,0.3c0.1,0.1,0.3,0.1,0.4,0.2
				c0.1,0.2,0.2,0.4,0.3,0.5c0.1,0.1,0.3,0.2,0.4,0.4c0.1,0.3,0.2,0.5,0.2,0.6c0.5,0.4,0.8,0.7,0.8,1c0.1,0.2,0.1,0.5,0.1,0.8
				c0,0.4,0.1,0.7,0.1,0.9c0,0.2-0.1,0.3,0,0.4c0,0.1,0.1,0.1,0.2,0.2C472.4,501.9,472.6,502.3,472.6,502.7z"/>
		</g>
		<g>
			<g>
				<g>
					<g>
						
							<radialGradient id="SVGID_1_" cx="190.8587" cy="249.9695" r="215.3046" gradientTransform="matrix(0.9994 -3.348302e-02 3.348302e-02 0.9994 -12.7363 19.0234)" gradientUnits="userSpaceOnUse">
							<stop  offset="0" style="stop-color:#99C1DA"/>
							<stop  offset="1" style="stop-color:#6FC0DE"/>
						</radialGradient>
						<polygon class="st0" points="372.8,503.2 16.5,515.2 0,21.7 356.2,9.8 						"/>
						
							<linearGradient id="SVGID_2_" gradientUnits="userSpaceOnUse" x1="190.7982" y1="-1443.578" x2="190.9224" y2="-1921.0238" gradientTransform="matrix(0.9994 -3.348302e-02 1.547189e-02 0.4618 26.0154 1175.7274)">
							<stop  offset="0" style="stop-color:#B7D856"/>
							<stop  offset="0.6916" style="stop-color:#CAD19E"/>
							<stop  offset="1" style="stop-color:#D4D754"/>
						</linearGradient>
						<polygon class="st1" points="372.8,503.2 16.5,515.2 8.9,287.1 365.1,275.2 						"/>
					</g>
					<polygon class="st16" points="334.9,367.8 337.5,366.5 338.2,374.3 335.2,376 					"/>
					<polygon class="st17" points="334.9,367.8 337.5,366.5 332.4,359 330,360.2 					"/>
					<polygon class="st18" points="332.3,357.4 338.3,366.2 339.2,374.4 338.2,374.2 337.5,366.5 332.4,358.9 330,359 330,358.1 
											"/>
					<polygon class="st18" points="336,376.4 335.2,376 338.2,374.2 339.2,374.4 					"/>
					<g>
						<polygon class="st19" points="11.8,374.7 368.1,364.2 11.9,378.1 						"/>
						<polygon class="st20" points="368,361.3 368.1,364.2 49.1,373.5 						"/>
						<polygon class="st21" points="368,361.3 177.5,368.6 251.7,363.8 						"/>
						<polygon class="st22" points="12,380.9 11.9,378.1 368.1,364.2 368.1,365 						"/>
					</g>
					<polygon class="st23" points="323.7,362.4 326.9,362.3 327.2,371 323.7,371.1 					"/>
					<polygon class="st16" points="323.7,359.7 326.8,359.6 326.9,362.3 323.7,362.4 					"/>
					<polygon class="st17" points="317.9,359.4 321.1,359.3 321.5,371.1 318.1,371.3 					"/>
					<polygon class="st16" points="314.6,358.7 317.7,358.6 318.5,378.7 315.3,378.8 					"/>
					<polygon class="st23" points="329.3,363.7 332.5,363.6 332.7,370.8 329.3,370.9 					"/>
					<polygon class="st16" points="329.3,359.1 332.4,359 332.5,363.5 329.3,363.6 					"/>
					<polygon class="st17" points="33.6,379.8 36.8,379.7 36.9,384.2 33.5,384.3 					"/>
					<g>
						<polygon class="st2" points="288.9,295.2 277.7,299.9 255.5,287.7 						"/>
						<g>
							<polygon class="st24" points="275.8,290.7 277.4,290.7 277.7,299.9 276.1,299.4 							"/>
							<polygon class="st25" points="279,290.6 277.4,290.7 277.7,299.9 279.3,299.2 							"/>
							<polygon class="st26" points="276.1,250 277.5,293.7 265.7,290 							"/>
							<polygon class="st27" points="288.6,289.1 277.5,293.7 276.1,250.1 							"/>
						</g>
					</g>
					<g>
						<polygon class="st2" points="301.6,308.2 290.4,312.8 268.2,300.7 						"/>
						<g>
							<polygon class="st24" points="288.5,303.6 290.1,303.7 290.4,312.8 288.8,312.3 							"/>
							<polygon class="st25" points="291.7,303.5 290.1,303.7 290.4,312.8 292,312.2 							"/>
							<polygon class="st26" points="288.8,263 290.2,306.7 278.4,303 							"/>
							<polygon class="st27" points="301.3,302.1 290.2,306.7 288.8,263.1 							"/>
						</g>
					</g>
					<path class="st13" d="M36.8,286.2c0,0,5.5-13.6,18.1-14c0,0,2-18.3,18.7-18.8s23.2,15,23.2,15s25.7-9.9,30.6,14.8L36.8,286.2z"
						/>
					<path class="st13" d="M234.3,52.6c0,0,19.3-22.8,46.8-7.1c0,0,12.9-6.7,17.5,4.9c0,0,22.4,8.8,17.6,31.5s-25.7,16.5-25.7,16.5
						s-16.5,23.4-44.7,8.4c0,0-16.4,6.8-19.6-6.9c0,0-20.9-6.1-19.4-22.1S221.1,51.6,234.3,52.6z"/>
					<g>
						<polygon class="st2" points="334.4,300.5 323.3,305.1 301,292.9 						"/>
						<g>
							<polygon class="st24" points="321.3,295.9 322.9,295.9 323.3,305.1 321.6,304.6 							"/>
							<polygon class="st25" points="324.5,295.8 322.9,295.9 323.3,305.1 324.8,304.4 							"/>
							<polygon class="st26" points="321.6,255.2 323,299 311.3,295.2 							"/>
							<polygon class="st27" points="334.2,294.3 323,299 321.6,255.3 							"/>
						</g>
					</g>
					<g>
						<g>
							
								<rect x="163" y="364.2" transform="matrix(0.9994 -3.348302e-02 3.348302e-02 0.9994 -12.3299 5.7377)" class="st24" width="4.2" height="13.6"/>
							
								<rect x="169.9" y="364" transform="matrix(0.9994 -3.348302e-02 3.348302e-02 0.9994 -12.3184 5.9671)" class="st24" width="4.2" height="13.6"/>
							
								<rect x="176.7" y="363.7" transform="matrix(0.9994 -3.348302e-02 3.348302e-02 0.9994 -12.3068 6.1965)" class="st24" width="4.2" height="13.6"/>
							
								<rect x="186.5" y="363.4" transform="matrix(0.9994 -3.348302e-02 3.348302e-02 0.9994 -12.2905 6.5215)" class="st24" width="4.2" height="13.6"/>
							
								<rect x="193.6" y="363.2" transform="matrix(0.9994 -3.348302e-02 3.348302e-02 0.9994 -12.2785 6.7605)" class="st24" width="4.2" height="13.6"/>
							
								<rect x="200.7" y="362.9" transform="matrix(0.9994 -3.348302e-02 3.348302e-02 0.9994 -12.2665 6.9994)" class="st24" width="4.2" height="13.6"/>
							
								<rect x="162.7" y="359.3" transform="matrix(0.9994 -3.348302e-02 3.348302e-02 0.9994 -12.0198 5.7221)" class="st28" width="4.2" height="4.9"/>
							
								<rect x="169.6" y="359" transform="matrix(0.9994 -3.348302e-02 3.348302e-02 0.9994 -12.0083 5.9515)" class="st28" width="4.2" height="4.9"/>
							
								<rect x="176.4" y="358.8" transform="matrix(0.9994 -3.348302e-02 3.348302e-02 0.9994 -11.9968 6.1809)" class="st28" width="4.2" height="4.9"/>
							
								<rect x="186.1" y="358.5" transform="matrix(0.9994 -3.348302e-02 3.348302e-02 0.9994 -11.9804 6.5059)" class="st28" width="4.2" height="4.9"/>
							
								<rect x="193.3" y="358.3" transform="matrix(0.9994 -3.348302e-02 3.348302e-02 0.9994 -11.9684 6.7449)" class="st28" width="4.2" height="4.9"/>
							
								<rect x="200.4" y="358" transform="matrix(0.9994 -3.348302e-02 3.348302e-02 0.9994 -11.9564 6.9838)" class="st28" width="4.2" height="4.9"/>
							<g>
								<polygon class="st24" points="174,274.1 175.6,274.7 178.5,360.5 176.9,360 								"/>
								<polygon class="st25" points="177.2,274 175.6,274.7 178.5,360.5 180.1,359.9 								"/>
							</g>
							<g>
								<polygon class="st24" points="183.7,273.8 185.4,274.4 188.2,360.2 186.6,359.6 								"/>
								<polyline class="st25" points="186.9,273.7 185.4,274.4 188.2,360.2 189.8,359.5 								"/>
							</g>
						</g>
						<g>
							<polygon class="st25" points="146.4,143.4 158.2,147.1 162.4,274 150.7,270.2 							"/>
							<polygon class="st24" points="158.2,147.1 170,150.8 174.2,277.7 162.4,274 							"/>
							<polygon class="st8" points="170,150.9 181.8,154.6 186,281.5 174.2,277.7 							"/>
							<polygon class="st13" points="181.8,154.6 214,141.9 218.2,268.1 186,281.5 							"/>
							<path class="st2" d="M205.6,152.2l-11.3,5.2c0,0-2.1,2.9,0.2,6.6c-2.1,3.8,0.3,8.1,0.3,8.1l9.4,23.2l1-27.3L205.6,152.2z"/>
							<g>
								<path class="st29" d="M194.6,164l24.6,2.7l-24.8-9.2C194.4,157.4,192.3,160.3,194.6,164z"/>
								<path class="st30" d="M194.6,164l24.6,2.7l-24.3,5.4C194.9,172,192.5,167.8,194.6,164z"/>
								<polygon class="st31" points="194.4,157.4 205.6,152.2 219.2,166.6 								"/>
							</g>
							<polygon class="st9" points="202.2,138.2 214,141.9 181.8,154.6 170,150.9 							"/>
							<polygon class="st28" points="190.4,134.5 202.2,138.2 170,150.9 158.2,147.2 							"/>
							<polygon class="st32" points="178.6,130.7 190.4,134.4 158.2,147.1 146.4,143.4 							"/>
							<polygon class="st5" points="166.3,180.2 161.5,178.4 161.3,172.7 166.1,174.5 							"/>
							<polygon class="st10" points="166.1,174.5 161.3,172.7 163.6,171.6 168.5,173.4 							"/>
							<polygon class="st10" points="168.7,179.1 166.3,180.2 166.1,174.5 168.5,173.4 							"/>
						</g>
					</g>
					<polygon class="st23" points="47.6,377.1 50.8,377 50.9,382.1 47.5,382.2 					"/>
					<polygon class="st16" points="47.5,371.7 50.6,371.6 50.8,377 47.6,377.1 					"/>
					<polygon class="st23" points="42.3,376.5 45.5,376.4 45.8,383.2 42.3,383.3 					"/>
					<polygon class="st16" points="42.3,371.1 45.4,371 45.5,376.4 42.3,376.5 					"/>
					<polygon class="st23" points="36.7,374.8 39.9,374.7 40.2,383.5 36.7,383.6 					"/>
					<polygon class="st23" points="32.9,366.1 36.1,365.9 36.4,374 32.9,374.1 					"/>
					<polygon class="st16" points="36.7,371.4 39.8,371.3 39.9,374.7 36.7,374.8 					"/>
					<polygon class="st16" points="33.1,364.4 36.1,364.3 36.2,366 33,366.1 					"/>
					<polygon class="st16" points="53.9,364.4 52.9,375.8 56.2,376.8 57.2,364.3 					"/>
					<polygon class="st17" points="48.2,382.6 52.9,375.8 56.2,376.8 51.7,384.2 					"/>
					<polygon class="st33" points="52.6,366.1 53.9,364.4 52.9,375.8 48.2,382.6 48.2,381.5 52.1,375.4 					"/>
					<g>
						<polygon class="st34" points="66.1,146.3 81.8,161 77.3,167.8 60.7,152.5 						"/>
						<polygon class="st35" points="72.4,164.8 72.4,164.8 71.6,165.3 71.6,165.3 70.9,165.7 77.9,171.4 78.7,170.9 79.5,170.5 
							80.2,170 73.1,164.3 						"/>
						<polygon class="st25" points="73.1,164.3 74,162 81,167.6 80.2,170 						"/>
						<polygon class="st36" points="76.8,151.1 94.2,144.2 94.8,160.2 77.3,167.8 						"/>
						<g>
							<polygon class="st32" points="74,162 73.2,162.5 73.1,162.7 73.2,162.5 72.5,162.9 71.6,165.3 72.4,164.8 72.4,164.8 
								73.1,164.3 							"/>
							<polygon class="st32" points="72.4,162.9 71.7,163.4 70.9,165.7 71.6,165.3 							"/>
						</g>
					</g>
					<g>
						<polygon class="st37" points="157.1,72.6 161.9,73.1 171.8,88.6 167.6,88.8 						"/>
						<g>
							<polygon class="st38" points="168.2,88.8 168.2,88.8 167.9,89.1 167.9,89.1 167.6,89.4 171.7,91 171.9,90.7 172.2,90.4 
								172.5,90.1 168.4,88.4 							"/>
							<polygon class="st39" points="168.4,88.4 168.5,87.2 172.5,88.9 172.5,90.1 							"/>
							<g>
								<polygon class="st40" points="168.5,87.2 168.2,87.6 168.2,87.7 168.2,87.6 167.9,87.9 167.9,89.1 168.2,88.8 168.2,88.8 
									168.4,88.4 								"/>
								<polygon class="st40" points="167.9,87.9 167.6,88.2 167.6,89.4 167.9,89.1 								"/>
							</g>
						</g>
						<g>
							<polygon class="st41" points="179,81.5 184.2,82.6 172.5,89.5 168.5,87.8 							"/>
							<polygon class="st42" points="178.9,81.2 178.9,81.5 184.2,82.6 184.1,82.3 							"/>
							<polygon class="st43" points="178.9,81.5 168.5,87.8 178.9,81.2 							"/>
						</g>
					</g>
					<polygon class="st44" points="152.5,393.1 140.6,467.2 130.4,477.8 124.3,461.1 					"/>
					<polygon class="st45" points="100.2,414 117.3,504.9 124.2,511.6 133.4,511.3 135.1,500.2 					"/>
					
						<rect x="127.7" y="432.1" transform="matrix(0.9994 -3.348302e-02 3.348302e-02 0.9994 -15.7229 4.6026)" class="st46" width="3.7" height="79.2"/>
					<polygon class="st45" points="179.9,428.1 186.9,488.5 197,499 197.9,475.5 					"/>
					<polygon class="st27" points="212.3,445.3 195.9,509.2 205.6,508.8 					"/>
					<polygon class="st44" points="212.3,445.3 195.9,509.2 205.6,508.8 					"/>
					<polygon class="st46" points="201.1,444 197.5,443.9 195.2,509.2 198.9,509.1 					"/>
					<polygon class="st27" points="106.2,353.7 115,423.1 126.1,434.9 129.6,434 132.5,422.8 					"/>
					<polygon class="st27" points="68,475.8 84.8,512.9 91.8,512.7 					"/>
					<polygon class="st27" points="149.8,510.7 189.2,445.3 163.8,510.2 					"/>
					<polygon class="st27" points="185.1,392 189.4,451.5 196.7,458.9 200.5,458.7 203.8,450.1 					"/>
					<polygon class="st27" points="247,472.8 225.9,508.2 232.7,507.9 					"/>
					<g>
						<path class="st25" d="M236.3,74.6c1-0.4,2.1-0.6,3.3-0.7c1.1,0,2.2,0.1,3.4,0.4c1.1,0.3,2.1,0.9,3,1.6
							c0.9,0.7,1.6,1.7,2.2,2.9c0.6,1.2,0.9,2.5,0.9,4.1c0,1.5-0.2,2.8-0.7,4.2c-0.5,1.3-1.2,2.5-2.2,3.5c-1,1-2.1,1.8-3.5,2.4
							c-1.4,0.6-2.9,1-4.6,1c-1.7,0.1-3.3-0.2-4.7-0.7c-1.4-0.5-2.6-1.2-3.6-2.2c-1-1-1.8-2.1-2.3-3.5c-0.6-1.4-0.9-2.9-0.9-4.5
							c-0.1-3.1,1-6.2,3.2-9.5l6.7-9.7c0.3-0.4,0.8-0.8,1.4-1.1c0.6-0.3,1.3-0.5,2.1-0.5l5.9-0.2l-8.9,11.4L236.3,74.6z M237.8,88.9
							c0.7,0,1.3-0.2,1.9-0.4c0.6-0.3,1.1-0.6,1.5-1.1c0.4-0.5,0.7-1,1-1.6c0.2-0.6,0.3-1.3,0.3-2c0-0.8-0.2-1.5-0.4-2.1
							c-0.3-0.6-0.6-1.1-1-1.6s-1-0.7-1.6-0.9c-0.6-0.2-1.3-0.3-2-0.3c-0.7,0-1.3,0.2-1.8,0.4c-0.5,0.3-1,0.6-1.4,1.1
							c-0.4,0.5-0.7,1-0.9,1.6c-0.2,0.6-0.3,1.3-0.3,2.1c0,0.8,0.1,1.5,0.3,2.1c0.2,0.6,0.5,1.1,0.9,1.6c0.4,0.4,0.9,0.8,1.5,1
							C236.3,88.8,237,88.9,237.8,88.9z"/>
						<path class="st25" d="M260,92.8c-0.1,0.4-0.3,0.7-0.6,1c-0.2,0.3-0.5,0.6-0.8,0.8c-0.3,0.2-0.6,0.4-1,0.5
							c-0.3,0.1-0.7,0.2-1,0.2l-2.8,0.1l11.1-32.3c0.3-0.7,0.7-1.3,1.3-1.7c0.6-0.4,1.2-0.6,2-0.6l2.8-0.1L260,92.8z"/>
						<path class="st25" d="M288.2,80.3c0.2-0.2,0.4-0.5,0.6-0.7c0.2-0.2,0.3-0.5,0.5-0.7c-1.3,0.7-2.8,1.1-4.4,1.2
							c-1,0-2-0.1-3.1-0.4c-1-0.3-2-0.9-2.8-1.6c-0.8-0.7-1.5-1.6-2.1-2.7c-0.6-1.1-0.9-2.4-0.9-4c0-1.4,0.2-2.8,0.6-4
							c0.5-1.3,1.2-2.4,2.1-3.4c0.9-1,2.1-1.8,3.4-2.4c1.3-0.6,2.8-0.9,4.5-1c1.7-0.1,3.2,0.2,4.5,0.6c1.3,0.5,2.5,1.2,3.4,2.1
							c1,0.9,1.7,2,2.2,3.2c0.5,1.3,0.8,2.7,0.9,4.2c0.1,2-0.2,3.9-0.7,5.5c-0.6,1.6-1.3,3.2-2.3,4.6l-6.4,9.8
							c-0.3,0.4-0.7,0.8-1.3,1.1s-1.3,0.5-2.1,0.5l-6.1,0.2L288.2,80.3z M282.6,70.6c0.1,3.1,1.6,4.6,4.5,4.5c1.4,0,2.5-0.5,3.2-1.4
							c0.7-0.9,1.1-2,1-3.4c0-0.8-0.2-1.4-0.4-2c-0.2-0.6-0.6-1-1-1.4c-0.4-0.4-0.9-0.6-1.5-0.8c-0.6-0.2-1.2-0.3-1.8-0.2
							c-0.7,0-1.3,0.2-1.8,0.4c-0.5,0.3-0.9,0.6-1.3,1c-0.3,0.4-0.6,0.9-0.8,1.5C282.7,69.3,282.6,70,282.6,70.6z"/>
					</g>
				</g>
				<g>
					<g>
						
							<radialGradient id="SVGID_3_" cx="556.7017" cy="334.4594" r="215.3046" gradientTransform="matrix(0.9898 -0.1427 0.1427 0.9898 -54.602 18.1864)" gradientUnits="userSpaceOnUse">
							<stop  offset="0" style="stop-color:#99C1DA"/>
							<stop  offset="1" style="stop-color:#6FC0DE"/>
						</radialGradient>
						<polygon class="st6" points="755.8,488.7 403,539.6 332.5,50.9 685.3,0 						"/>
						
							<linearGradient id="SVGID_4_" gradientUnits="userSpaceOnUse" x1="556.6412" y1="-1260.7316" x2="556.7654" y2="-1738.1775" gradientTransform="matrix(0.9898 -0.1427 6.593624e-02 0.4574 110.5452 1163.696)">
							<stop  offset="0" style="stop-color:#B7D856"/>
							<stop  offset="0.6916" style="stop-color:#CAD19E"/>
							<stop  offset="1" style="stop-color:#D4D754"/>
						</linearGradient>
						<polygon class="st7" points="755.8,488.7 403,539.6 370.4,313.7 723.2,262.9 						"/>
					</g>
					<g>
						<polygon class="st19" points="382.9,400.5 735.9,351 383.4,403.8 						"/>
						<polygon class="st20" points="735.5,348.2 735.9,351 419.8,395.1 						"/>
						<polygon class="st21" points="735.5,348.2 546.9,376.2 620.1,363.4 						"/>
						<polygon class="st22" points="383.8,406.6 383.4,403.8 735.9,351 736,351.8 						"/>
					</g>
					<g>
						<polygon class="st58" points="563,405.9 556,400.7 502.1,472.7 502.3,472.9 502.2,472.9 509.6,524.2 518.3,522.9 511.3,474.9 
													"/>
						<polygon class="st59" points="449.9,453.9 493.4,395.8 492.2,387.2 448.7,445.4 						"/>
						
							<rect x="479.2" y="371.1" transform="matrix(0.599 -0.8008 0.8008 0.599 -119.5308 576.179)" class="st60" width="72.6" height="72.6"/>
						
							<rect x="473.1" y="437.2" transform="matrix(0.599 -0.8008 0.8008 0.599 -161.8527 567.028)" class="st61" width="24.2" height="15.9"/>
						
							<rect x="448.2" y="434.6" transform="matrix(0.599 -0.8008 0.8008 0.599 -166.5562 552.476)" class="st60" width="40.2" height="15.9"/>
						
							<rect x="496" y="441.5" transform="matrix(0.599 -0.8008 0.8008 0.599 -158.7204 581.9147)" class="st62" width="11.3" height="15.9"/>
						<polygon class="st63" points="505.8,340.5 508.2,356.6 566.3,400.1 564,384 						"/>
						<polygon points="551.5,198.8 565.7,179.8 588.5,196.8 588.5,208.3 579.5,219.8 						"/>
						<polygon class="st63" points="528,341.3 529.3,350.9 587.5,394.4 586.1,384.8 						"/>
						<polygon class="st59" points="464.7,414.8 508.2,356.6 505.8,340.5 462.4,398.7 						"/>
						<polygon class="st61" points="587.4,394.3 576.7,386.3 576.7,386.4 529.3,351 521.3,361.7 565.5,394.7 566.3,400.3 
							533.3,444.4 544,452.4 579.4,405.1 579.5,405.1 587.5,394.4 587.4,394.4 						"/>
						<polygon class="st63" points="549.8,341.5 551,349.5 609.1,393 607.9,384.9 						"/>
						<polygon class="st63" points="641.7,324.9 495.1,215.4 493.9,207.3 640.5,316.9 						"/>
						<polygon class="st59" points="580.5,368.8 613.1,325.2 612.4,320.4 579.8,364 						"/>
						<polygon class="st60" points="641.7,325 623.4,311.4 495.1,215.4 523.8,177 529.6,181.3 543.3,163 537.5,158.7 537.6,158.6 
							519.3,144.9 519.2,145 519.1,144.9 505.4,163.2 505.5,163.3 476.8,201.7 463.2,220 481.4,233.6 609.8,329.6 580.4,368.8 
							598.7,382.5 628,343.3 						"/>
						<polygon class="st59" points="463.1,219.9 519.2,144.9 518,136.8 461.9,211.9 						"/>
						<polygon class="st63" points="543.3,163 519.2,144.9 518,136.8 542.1,155 						"/>
						
							<rect x="532.2" y="168.7" transform="matrix(0.599 -0.8008 0.8008 0.599 72.7489 510.5261)" class="st13" width="27.8" height="27.8"/>
						<polygon class="st9" points="542,154.4 543.3,163.2 565.5,179.8 564.3,171 						"/>
						<polygon class="st59" points="543.2,359.8 551,349.5 549.8,341.5 542.1,351.8 						"/>
						<polyline class="st62" points="551,349.6 543.2,359.8 587.8,393.2 585.2,396.8 552.1,441 564.3,450 609.1,393.1 609,393 
							609.1,392.9 						"/>
						<polygon class="st59" points="521.7,361.9 529.4,351.6 528,341.3 520.2,351.7 						"/>
						<polygon class="st5" points="580.1,184.5 564.8,173.1 565.7,179.8 581.1,191.3 588.5,196.8 						"/>
						<path d="M541.7,179.8L541.7,179.8c-0.3-1.9,1-3.6,2.9-3.9l0,0c1.9-0.3,3.6,1,3.9,2.9v0c0.3,1.9-1,3.6-2.9,3.9l0,0
							C543.7,183,542,181.7,541.7,179.8z"/>
						<polygon class="st5" points="526.6,185.4 525.6,178.7 529.6,181.3 						"/>
						<polygon class="st64" points="548.6,438.6 541.6,433.4 487.7,505.4 488,505.6 487.9,505.6 490.9,526.9 499.6,525.6 497,507.6 
													"/>
						<polygon class="st58" points="545,428.8 541.6,433.4 548.6,438.7 547.4,430.6 						"/>
					</g>
					<g>
						<polygon class="st16" points="645,366.6 647.4,365.1 649,372.7 646.1,374.7 						"/>
						<polygon class="st17" points="645,366.6 647.4,365.1 641.5,358.1 639.3,359.6 						"/>
						<polygon class="st18" points="641.3,356.6 648.2,364.7 650,372.7 649,372.6 647.4,365 641.5,358.1 639.2,358.4 639,357.6 
													"/>
						<polygon class="st18" points="647,375 646.1,374.7 649,372.6 650,372.7 						"/>
						<polygon class="st23" points="633.3,362.5 636.4,362.1 637.7,370.6 634.3,371.1 						"/>
						<polygon class="st16" points="633,359.9 636.1,359.4 636.4,362.1 633.3,362.5 						"/>
						<polygon class="st17" points="627.2,360.2 630.4,359.7 632.1,371.4 628.7,371.9 						"/>
						<polygon class="st16" points="623.8,359.8 626.9,359.4 629.9,379.3 626.7,379.7 						"/>
						<polygon class="st23" points="639,363.2 642.2,362.7 643.2,369.8 639.8,370.3 						"/>
						<polygon class="st16" points="638.4,358.6 641.5,358.1 642.1,362.6 639,363 						"/>
					</g>
					<path class="st13" d="M568.8,55.9c0,0,16.7-24.7,45.7-12.2c0,0,12.1-8,17.9,3c0,0,23.2,6.3,21,29.4s-23.8,19.2-23.8,19.2
						s-13.8,25-43.5,13.2c0,0-15.5,8.5-20.2-4.8c0,0-21.5-3.7-21.7-19.8S555.6,56.4,568.8,55.9z"/>
					<g>
						<polygon class="st37" points="415.8,101.6 410.9,101.6 405.5,127.6 409.7,128.2 						"/>
						<g>
							<polygon class="st38" points="409.1,128.1 409.1,128.1 409.4,128.4 409.4,128.4 409.6,128.8 405.4,130 405.2,129.6 
								404.9,129.3 404.7,128.9 408.9,127.7 							"/>
							<polygon class="st39" points="408.9,127.7 409,126.5 404.8,127.7 404.7,128.9 							"/>
							<g>
								<polygon class="st40" points="409,126.5 409.2,126.9 409.2,127 409.2,126.9 409.4,127.2 409.4,128.4 409.1,128.1 
									409.1,128.1 408.9,127.7 								"/>
								<polygon class="st40" points="409.4,127.2 409.7,127.6 409.6,128.8 409.4,128.4 								"/>
							</g>
						</g>
						<g>
							<polygon class="st41" points="400.3,103.9 395,104.4 404.7,128.4 408.9,127.1 							"/>
							<polygon class="st42" points="400.4,103.6 400.4,103.9 395,104.4 395.1,104.1 							"/>
							<polygon class="st43" points="400.4,103.9 408.9,127.1 400.4,103.6 							"/>
						</g>
					</g>
					<polygon class="st27" points="632.4,445.7 629,473.5 640.9,505.3 651.1,503.8 					"/>
					<polygon class="st45" points="675.3,393.4 668,419.5 675.6,500.3 688.6,498.4 					"/>
					<polygon class="st44" points="650.5,422.8 655.8,396.2 679.6,499.7 667.7,501.4 					"/>
					<polygon class="st27" points="707.8,416.7 698.7,440.2 701.3,496.6 711.8,495.1 					"/>
					<polygon class="st44" points="730.8,452.9 720.3,474.7 719,494 729.5,492.5 					"/>
					<path class="st13" d="M641.4,196.1c0,0,4.7-16.7,19.1-17.6c14.4-0.9,22.5,10.1,22.5,10.1s22.1,3,17.2,22.7S679,224.5,679,224.5
						s-2.2,5.4-12.4,6.8s-13.7-4.8-13.7-4.8s-2.5,3.3-9.7,2.9c-7.2-0.4-8.5-3.5-8.5-3.5s-8.9,6.3-15.3-3.4
						c-6.4-9.7,4.3-17.2,9.4-16.8C628.8,205.6,632,197.1,641.4,196.1z"/>
					<g>
						<path class="st59" d="M584.8,89.3c0.7-0.1,1.3,0,1.8,0.3c0.5,0.3,0.7,0.8,0.8,1.4l0.6,3.8L566.2,98l-0.3-2.1
							c-0.1-0.4,0-0.9,0.1-1.4c0.1-0.5,0.3-1,0.7-1.4l7.6-10.3c0.7-0.9,1.2-1.7,1.7-2.5c0.5-0.8,0.8-1.5,1.1-2.2
							c0.3-0.7,0.4-1.4,0.5-2.1c0.1-0.7,0.1-1.4,0-2.2c-0.2-1.2-0.6-2.1-1.3-2.7c-0.7-0.6-1.6-0.8-2.8-0.6c-1,0.1-1.8,0.5-2.4,1.1
							c-0.6,0.6-1,1.3-1.1,2.1c-0.2,0.8-0.5,1.4-0.9,1.7c-0.4,0.3-1.1,0.5-2,0.5l-3.6-0.1c0-1.6,0.2-3,0.7-4.2
							c0.5-1.2,1.1-2.3,2-3.2c0.8-0.9,1.9-1.6,3-2.2c1.2-0.6,2.5-0.9,3.9-1.1c1.5-0.2,2.9-0.2,4.2,0.1c1.3,0.3,2.4,0.7,3.4,1.4
							c1,0.7,1.8,1.5,2.4,2.5c0.6,1,1,2.2,1.2,3.5c0.2,1.1,0.2,2.2,0,3.2c-0.2,1-0.5,2-0.9,2.9c-0.4,0.9-0.9,1.9-1.6,2.8
							c-0.6,0.9-1.3,1.9-2,2.8l-5.2,7.1c0.7-0.4,1.5-0.6,2.2-0.9c0.7-0.2,1.4-0.4,2.1-0.5L584.8,89.3z"/>
						<path class="st59" d="M599,93.1c-0.1,0.4-0.3,0.8-0.5,1.1c-0.2,0.3-0.4,0.6-0.7,0.9c-0.3,0.2-0.6,0.4-0.9,0.6
							c-0.3,0.1-0.7,0.2-1,0.3l-2.8,0.4l7.5-33.4c0.2-0.8,0.5-1.4,1.1-1.8c0.5-0.5,1.2-0.8,1.9-0.9l2.8-0.4L599,93.1z"/>
						<path class="st59" d="M612.9,68.8c0-1.6,0.2-3,0.7-4.2c0.5-1.2,1.1-2.3,2-3.2c0.8-0.9,1.9-1.6,3-2.2c1.2-0.6,2.5-0.9,3.9-1.1
							c1.5-0.2,2.9-0.2,4.2,0.1c1.3,0.3,2.3,0.7,3.3,1.3c0.9,0.6,1.7,1.4,2.2,2.3c0.6,0.9,0.9,1.9,1.1,3c0.1,1,0.2,1.8,0.1,2.6
							c-0.1,0.8-0.3,1.5-0.6,2.1c-0.3,0.6-0.7,1.1-1.2,1.6c-0.5,0.5-1.1,0.9-1.8,1.2c3.6,0.7,5.6,2.8,6.1,6.3
							c0.2,1.6,0.1,3.1-0.3,4.4c-0.4,1.3-1.1,2.4-1.9,3.4c-0.9,0.9-1.9,1.7-3.2,2.3c-1.3,0.6-2.6,1-4,1.2c-1.5,0.2-2.8,0.2-4,0.1
							c-1.2-0.2-2.3-0.5-3.3-1c-1-0.5-1.9-1.3-2.7-2.2c-0.8-0.9-1.6-2.1-2.3-3.5l2.8-1.6c0.7-0.4,1.4-0.6,2.1-0.5
							c0.7,0,1.2,0.3,1.5,0.8c0.8,1.1,1.6,1.8,2.4,2.3c0.8,0.4,1.7,0.6,2.6,0.4c0.7-0.1,1.4-0.3,1.9-0.6c0.5-0.3,0.9-0.7,1.2-1.2
							c0.3-0.4,0.5-0.9,0.6-1.4c0.1-0.5,0.1-1,0.1-1.5c-0.1-0.7-0.2-1.3-0.4-1.8c-0.2-0.5-0.5-0.9-1-1.3c-0.5-0.3-1.2-0.5-2-0.6
							c-0.9-0.1-2.1,0-3.6,0.2l-0.7-4.5c1.3-0.2,2.3-0.4,3.1-0.7c0.8-0.3,1.3-0.7,1.7-1.1c0.4-0.4,0.6-0.9,0.7-1.4s0.1-1.1,0-1.7
							c-0.2-1.2-0.6-2.1-1.3-2.7c-0.7-0.6-1.6-0.8-2.8-0.6c-1,0.1-1.8,0.5-2.4,1.1c-0.6,0.6-1,1.3-1.1,2.1c-0.2,0.8-0.5,1.4-0.9,1.7
							c-0.4,0.3-1.1,0.5-2,0.5L612.9,68.8z"/>
					</g>
					<g>
						<polygon class="st2" points="399.2,329.3 406.1,325.7 445,333.7 438.7,337.2 						"/>
						<g>
							<polygon class="st8" points="420,321 432.1,323.3 434,336.3 421.9,333.8 							"/>
							<polygon class="st9" points="427.4,317 439.5,319.4 432.1,323.3 420,320.9 							"/>
							<polygon class="st8" points="420,321 432.1,323.3 434,336.3 421.9,333.8 							"/>
							<polygon class="st9" points="427.4,317 439.5,319.4 432.1,323.3 420,320.9 							"/>
							<polygon class="st8" points="412.5,318.4 415,318.8 415.2,320.4 412.7,319.9 							"/>
							<polygon class="st9" points="415.1,317.3 417.2,317.6 414.6,318.9 412.5,318.5 							"/>
							<polygon points="413.4,319.7 420.2,321 422.1,334 415.3,332.6 							"/>
							<polygon class="st10" points="420.5,315.9 427.3,317.3 420.2,321 413.4,319.6 							"/>
							<path d="M449.3,325.4l4.5-2.4l0.4-3.7l-5.6-2.5l0.8-1.4l-1.8-1.3l-1,0.8c0,0-4.5-0.7-7.2,4.5l-7.4,4l1.9,12.9l4.8,1l6.2-3.6
								C445,333.7,443.9,326.1,449.3,325.4z"/>
						</g>
					</g>
				</g>
				
					<rect x="15.5" y="417.3" transform="matrix(0.9994 -3.348302e-02 3.348302e-02 0.9994 -15.548 2.3935)" class="st49" width="96.3" height="96.3"/>
				<text transform="matrix(1 0 0 1 49.0271 481.5236)" class="st52 st152 st153">3</text>
				<g>
					
						<rect x="15.5" y="417.3" transform="matrix(0.9994 -3.348302e-02 3.348302e-02 0.9994 -15.548 2.3935)" class="st49" width="96.3" height="96.3"/>
				</g>
				<g>
					<path class="st52" d="M76.3,469.4c0,0.2,0,0.3-0.1,0.5c0,0.1-0.1,0.3-0.1,0.5c-0.1,0.4-0.1,0.7-0.1,1.1s0,0.6-0.1,0.8
						c0,0.1-0.1,0.3-0.2,0.4c-0.1,0.1-0.1,0.2-0.2,0.4c-0.1,0.3-0.2,0.6-0.3,0.9c-0.1,0.3-0.2,0.5-0.5,0.7c-0.1,0.3-0.2,0.6-0.2,0.7
						c0,0.2,0,0.3-0.1,0.3c-0.2,0.3-0.3,0.5-0.4,0.7c-0.1,0.2-0.2,0.3-0.3,0.5c-0.1,0.1-0.1,0.1-0.2,0.2c-0.1,0.1-0.1,0.2-0.2,0.2
						c-0.2,0.3-0.3,0.5-0.5,0.7c-0.1,0.2-0.3,0.3-0.5,0.2c-0.1,0.3-0.2,0.5-0.5,0.6c0,0.2,0,0.3-0.1,0.3c-0.1,0.1-0.1,0.1-0.2,0.3
						c-0.2,0-0.3,0.1-0.4,0.2c-0.1,0.1-0.2,0.2-0.3,0.3c-0.2,0-0.3,0.1-0.4,0.2c-0.1,0.1-0.2,0.2-0.2,0.2c-0.5,0.3-0.9,0.4-1.1,0.5
						c-0.2,0.1-0.4,0.1-0.6,0.2c-0.2,0-0.3,0.1-0.5,0.3c-0.2,0-0.3,0-0.4,0c-0.1,0-0.2,0.1-0.3,0.2c-0.3,0.1-0.6,0.2-0.8,0.3
						c-0.3,0.1-0.5,0.2-0.8,0.3c-0.2,0.1-0.3,0.1-0.5,0.2c-0.2,0.1-0.3,0.1-0.5,0.1c-0.1,0-0.3,0-0.4,0c-0.1,0-0.2,0-0.4,0
						c-0.3,0.1-0.5,0.1-0.6,0.1c-0.1,0-0.2,0-0.3,0c-0.3,0-0.5,0-0.6,0c-0.1-0.1-0.2-0.1-0.3-0.1c-0.4-0.1-0.8-0.2-1.3-0.2
						c-0.5,0-0.8-0.2-1-0.5c-0.3,0.1-0.5,0.1-0.7,0c-0.2-0.1-0.5-0.2-0.7-0.4c-0.3-0.1-0.4-0.2-0.5-0.3c-0.1-0.1-0.2-0.1-0.2-0.2
						c-0.1-0.1-0.3-0.1-0.4-0.2c-0.1-0.1-0.2-0.2-0.4-0.2c-0.2-0.1-0.4-0.2-0.5-0.3c-0.2-0.1-0.3-0.2-0.5-0.3
						c-0.3-0.2-0.4-0.3-0.5-0.5c-0.1-0.2-0.2-0.3-0.3-0.4c-0.1-0.1-0.2-0.2-0.3-0.2c-0.1,0-0.2-0.1-0.3-0.2
						c-0.3-0.4-0.6-0.8-0.9-1.1c-0.3-0.3-0.6-0.7-0.7-1.2c-0.3-0.3-0.4-0.4-0.5-0.5c-0.1-0.1-0.1-0.2-0.2-0.2
						c-0.2-0.2-0.3-0.3-0.4-0.5c0-0.2-0.1-0.2-0.3-0.3c0.1-0.2,0.1-0.3-0.1-0.4c-0.1-0.1-0.2-0.2-0.2-0.3c-0.1-0.3-0.1-0.5-0.2-0.6
						c-0.1-0.1-0.1-0.3-0.2-0.4v-0.6c0-0.2-0.1-0.3-0.2-0.4c-0.1-0.1-0.1-0.2-0.2-0.3c-0.1-0.3-0.1-0.6-0.1-0.9c0-0.3,0-0.6-0.1-0.9
						c-0.1-0.2-0.1-0.3-0.2-0.5c-0.1-0.2-0.1-0.3-0.1-0.5c0-0.2,0.1-0.4,0.2-0.5c0.1-0.1,0.2-0.3,0.4-0.5c0.2,0,0.3,0,0.3,0.1
						c0.1,0.1,0.2,0.1,0.3,0.2c0.2-0.1,0.5-0.2,0.9-0.2c0.1,0,0.2,0,0.4,0c0.2,0,0.3-0.1,0.4-0.1c0.3,0.1,0.5,0.1,0.8,0
						c0.3-0.1,0.5-0.1,0.6-0.1c0.2,0,0.3,0,0.5,0c0.2,0,0.3,0,0.5,0c0.1,0,0.3-0.1,0.4-0.1c0.1-0.1,0.3-0.1,0.5,0
						c0.2,0,0.3,0.1,0.5,0.2c0.2,0.1,0.3,0.2,0.4,0.4c0,0.4,0,0.7-0.1,1c-0.1,0.3-0.1,0.6,0,1c0,0.1,0.1,0.2,0.1,0.3
						c0,0.1,0,0.2,0,0.3c0,0.1,0.1,0.1,0.1,0.2c0.1,0.1,0.1,0.2,0.1,0.3c0,0.1,0,0.3,0,0.4c0,0.1,0,0.2,0,0.3
						c0.2,0.3,0.3,0.6,0.4,0.9c0.1,0.3,0.2,0.5,0.3,0.6c0.1,0.1,0.3,0.3,0.5,0.5c0.1,0.1,0.1,0.1,0.2,0.2c0.1,0.1,0.1,0.1,0.2,0.2
						c0.1,0.1,0.2,0.1,0.4,0.1c0.1,0,0.3,0,0.5,0.1c0.4,0.1,0.7,0.2,0.9,0.3c0.2,0.1,0.4,0.1,0.7,0.2c0.3,0.1,0.5,0.2,0.7,0.2
						c0.2,0,0.4,0,0.8,0c0.1,0,0.3,0,0.4,0c0.2,0,0.3,0,0.5-0.1c0.2,0,0.3-0.1,0.5-0.1c0.2-0.1,0.3-0.1,0.5-0.2
						c0.2-0.1,0.5-0.1,0.7-0.1c0.2,0,0.4-0.1,0.6-0.1c0.1-0.1,0.3-0.1,0.4-0.2c0.1-0.1,0.2-0.2,0.4-0.3c0.2-0.1,0.4-0.2,0.6-0.4
						c0.2-0.2,0.4-0.3,0.5-0.4c0.2-0.2,0.4-0.5,0.6-0.8c0.1-0.3,0.3-0.5,0.5-0.7c0-0.2,0.1-0.5,0.2-0.8c0.1-0.3,0.2-0.6,0.3-0.7
						c-0.2-0.2-0.2-0.3-0.2-0.5c0.1-0.2,0.1-0.4,0.1-0.8c0-0.6,0-1,0-1.4s0-0.7-0.1-0.9c-0.1-0.2-0.2-0.3-0.3-0.5
						c-0.1-0.2-0.2-0.4-0.2-0.6c-0.2-0.2-0.3-0.4-0.4-0.7c-0.1-0.3-0.2-0.5-0.3-0.8c-0.2,0-0.4-0.1-0.5-0.2
						c-0.2-0.1-0.4-0.2-0.7-0.2c-0.1-0.1-0.2-0.2-0.3-0.3c-0.1-0.1-0.2-0.2-0.3-0.3c-0.2-0.1-0.3-0.1-0.5-0.2s-0.3-0.1-0.5-0.2
						c-0.2-0.1-0.3-0.1-0.5-0.2c-0.2-0.1-0.3-0.1-0.5-0.2c-0.3,0-0.5,0-0.8,0c-0.3,0-0.5,0.1-0.8,0.2c-0.2,0.1-0.5,0.1-0.7,0.2
						c-0.2,0.1-0.4,0.1-0.7,0.2c-0.2,0.1-0.4,0.2-0.5,0.3c-0.1,0.1-0.3,0.1-0.5,0.1c-0.2,0-0.4-0.1-0.5-0.2s-0.2-0.3-0.4-0.5
						c0.1-0.5,0.1-1,0.2-1.6c0.1-0.6,0.1-1.1,0.2-1.6c0-0.1-0.1-0.2-0.2-0.3c-0.1-0.1-0.2-0.2-0.2-0.3c-0.1-0.3-0.1-0.5-0.2-0.7
						c-0.1-0.1-0.1-0.3-0.1-0.5c0-0.2,0.1-0.4,0.2-0.6c0.1-0.2,0.2-0.3,0.4-0.5c0.5,0,1,0.1,1.4,0.4c0.6-0.1,1.3-0.1,2.1-0.2
						c0.8-0.1,1.6-0.2,2.2-0.3c0.1,0,0.3-0.1,0.4-0.1c0.1,0,0.2,0,0.4,0c0.3-0.2,0.6-0.4,0.9-0.5c0.3-0.1,0.6-0.3,0.7-0.6
						c0.2-0.1,0.3-0.2,0.4-0.4c0.1-0.2,0.2-0.3,0.4-0.4c0.1-0.3,0.1-0.6,0.1-0.9c0-0.3,0-0.5,0-0.8c0.1-0.2,0.1-0.4,0.2-0.6
						c0-0.1,0-0.3-0.1-0.6c0-0.1,0-0.3-0.1-0.4c0-0.2-0.1-0.3-0.2-0.5c-0.2-0.4-0.4-0.8-0.6-1.2c-0.1-0.1-0.3-0.3-0.4-0.4
						c-0.1-0.1-0.3-0.2-0.4-0.4c-0.2-0.1-0.3-0.3-0.5-0.4c-0.1-0.1-0.3-0.2-0.4-0.4c-0.1,0.1-0.2,0.1-0.3,0
						c-0.1-0.1-0.2-0.1-0.3-0.1c-0.4,0-0.8,0-0.9-0.1c-0.2-0.1-0.4-0.1-0.5-0.2c-0.2,0-0.3,0-0.5,0c-0.2,0-0.4,0-0.5,0.1
						c-0.3,0-0.7,0.1-1.1,0.3c-0.1,0-0.2,0-0.3,0c-0.1,0-0.2,0-0.3,0c-0.6,0.3-1,0.5-1.3,0.7c-0.3,0.2-0.6,0.4-0.8,0.5
						c0.1,0.4,0,0.7-0.3,1c-0.3,0.3-0.4,0.6-0.5,1.1c0,0.1,0,0.3,0,0.4c0,0.2,0,0.3,0,0.5c0,0.2,0,0.3-0.1,0.5
						c0,0.1-0.1,0.3-0.1,0.4c0,0.2,0.1,0.4,0.1,0.6c0.1,0.1,0,0.3,0,0.6c-0.1,0.1-0.2,0.2-0.3,0.4c-0.1,0.2-0.2,0.2-0.3,0.3
						c-0.3,0.1-0.5,0-0.6-0.1c-0.1-0.1-0.3-0.2-0.6-0.3c-0.1,0-0.3,0-0.4,0.1c-0.1,0-0.3,0-0.5,0c-0.3,0-0.5,0-0.8-0.1
						c-0.2-0.1-0.5-0.1-0.7-0.2c-0.1,0-0.2,0-0.4,0c-0.1,0-0.3,0-0.4,0c-0.3,0-0.6,0-0.8-0.1c-0.3-0.1-0.5-0.1-0.8-0.2
						c-0.2-0.3-0.4-0.5-0.6-0.5c-0.2,0-0.3-0.1-0.3-0.2c-0.2-0.4-0.2-0.9-0.1-1.5c0-0.1,0.1-0.2,0.1-0.3c0-0.1,0.1-0.2,0.1-0.3
						c0-0.1,0-0.3,0-0.4c0-0.1,0-0.2,0-0.4c0.1-0.3,0.1-0.5,0.1-0.7c0-0.1,0-0.3,0-0.4c0.1-0.2,0.2-0.4,0.2-0.6
						c0-0.2,0.1-0.3,0.3-0.4c0.1-0.2,0.1-0.3,0-0.5c-0.1-0.2,0-0.3,0.1-0.5c0.2-0.3,0.3-0.5,0.3-0.6c0-0.1,0.1-0.2,0.1-0.2
						c0.1-0.2,0.2-0.3,0.2-0.4c0-0.1,0.1-0.2,0.3-0.4c0.1-0.1,0.1-0.2,0.2-0.2c0.1-0.1,0.1-0.1,0.1-0.2c0-0.1,0.1-0.1,0.1-0.2
						c0.2-0.2,0.3-0.3,0.4-0.3c0.1,0,0.1,0,0.2-0.1c0.3-0.3,0.6-0.5,0.8-0.7c0.2-0.2,0.4-0.4,0.6-0.5c0.1-0.1,0.3-0.2,0.4-0.3
						c0.1-0.1,0.3-0.2,0.4-0.3c0.5-0.3,0.8-0.5,0.9-0.6c0.1-0.2,0.3-0.3,0.4-0.4c0.2-0.1,0.4-0.1,0.6-0.2c0.3-0.1,0.5-0.2,0.7-0.2
						c0.4-0.1,0.8-0.1,1.1-0.2c0.3-0.1,0.6-0.1,0.8-0.2c0.3,0.1,0.5,0.2,0.8,0.2c0.3,0,0.6,0,0.8,0.1c0.3,0,0.7,0.1,1.2,0.1
						c0.5,0,1,0,1.5,0c0.2,0,0.4,0,0.7,0c0.3,0,0.5,0,0.8,0.1c0.3,0.2,0.5,0.3,0.7,0.4c0.2,0.1,0.3,0.1,0.5,0.2
						c0.1,0.1,0.4,0.3,0.7,0.5c0.3,0.2,0.5,0.3,0.6,0.4c0.1,0.1,0.3,0.2,0.4,0.2c0.3,0.2,0.5,0.3,0.6,0.5c0.1,0.1,0.2,0.2,0.3,0.3
						c0.4,0.3,0.6,0.5,0.8,0.8c0.2,0.2,0.4,0.4,0.7,0.5c0.1,0.2,0.2,0.3,0.3,0.4c0.1,0.1,0.2,0.3,0.3,0.4c0.1,0.1,0.2,0.2,0.3,0.4
						c0,0.2,0.1,0.3,0.3,0.4c0.1,0.3,0.1,0.7,0.2,1c0.1,0.3,0.1,0.7,0.2,1c0.1,0.1,0.1,0.2,0.2,0.3c0.1,0.1,0.1,0.3,0.2,0.4
						c0.1,0.1,0.1,0.1,0.1,0.2c0,0.1,0,0.2,0.1,0.4c0.1,0.3,0.1,0.6,0.1,0.8c0,0.2,0,0.3,0,0.5c0,0.2,0,0.3,0.1,0.5
						c0,0.2,0.1,0.3,0.1,0.5c0.1,0.4,0.1,1,0.1,1.7c0,0.4,0,0.8,0,0.9c0,0.2-0.1,0.3-0.3,0.5c0,0.4,0,0.6,0,0.7c0,0.1,0,0.2,0,0.3
						c0,0.1,0,0.2-0.1,0.3c-0.1,0.1-0.1,0.2-0.2,0.3c0,0.1-0.1,0.2-0.1,0.3c0,0.1,0,0.2-0.1,0.3c0,0.1-0.1,0.2-0.1,0.3
						c-0.1,0.1-0.1,0.2-0.1,0.3c-0.1,0.4-0.3,0.7-0.5,1c-0.1,0.1-0.2,0.2-0.3,0.3c-0.1,0.1-0.3,0.2-0.4,0.3c0.1,0.3,0.3,0.5,0.5,0.7
						c0.2,0.2,0.4,0.4,0.5,0.6c0.1,0.1,0.2,0.2,0.3,0.3c0.1,0.1,0.3,0.2,0.4,0.3c0,0.2,0.1,0.3,0.2,0.4c0.1,0.1,0.2,0.2,0.4,0.3
						c0,0.2,0.1,0.4,0.3,0.5c0.1,0.1,0.3,0.2,0.4,0.4c0.1,0.3,0.1,0.5,0.1,0.7c0.4,0.5,0.7,0.8,0.7,1.1c0,0.2,0.1,0.5,0.1,0.8
						s0,0.7,0,0.9c-0.1,0.2-0.1,0.3-0.1,0.4c0,0.1,0.1,0.1,0.2,0.2C76.2,468.6,76.3,469,76.3,469.4z"/>
				</g>
				<g>
					<g>
						
							<rect x="396.5" y="437" transform="matrix(0.9895 -0.1446 0.1446 0.9895 -65.4909 69.4142)" class="st49" width="96.3" height="96.3"/>
					</g>
					<g>
						<path class="st52" d="M457.6,487.7c0,0.2,0,0.3,0,0.5c0,0.1,0,0.3,0,0.5c0,0.4,0,0.7,0,1.1c0,0.4,0,0.6,0,0.8
							c0,0.1-0.1,0.3-0.1,0.4c-0.1,0.1-0.1,0.3-0.2,0.4c-0.1,0.3-0.1,0.6-0.2,0.9c0,0.3-0.2,0.5-0.4,0.7c-0.1,0.3-0.1,0.6-0.1,0.7
							c0,0.2,0,0.3,0,0.3c-0.2,0.3-0.3,0.5-0.4,0.7c-0.1,0.2-0.1,0.3-0.2,0.5c-0.1,0.1-0.1,0.2-0.2,0.2c0,0.1-0.1,0.2-0.2,0.2
							c-0.1,0.3-0.3,0.6-0.4,0.8c-0.1,0.2-0.3,0.3-0.4,0.3c0,0.3-0.2,0.5-0.4,0.6c0.1,0.2,0,0.3,0,0.3c-0.1,0.1-0.1,0.2-0.1,0.3
							c-0.2,0.1-0.3,0.1-0.3,0.3c-0.1,0.1-0.1,0.2-0.2,0.3c-0.2,0.1-0.3,0.1-0.4,0.2c-0.1,0.1-0.1,0.2-0.2,0.3
							c-0.5,0.3-0.8,0.5-1,0.6c-0.2,0.1-0.4,0.2-0.5,0.2c-0.2,0.1-0.3,0.2-0.4,0.4c-0.2,0-0.3,0-0.4,0c-0.1,0-0.2,0.1-0.2,0.2
							c-0.3,0.1-0.6,0.2-0.8,0.3c-0.2,0.1-0.5,0.3-0.7,0.4c-0.2,0.1-0.3,0.2-0.5,0.2c-0.2,0.1-0.3,0.1-0.5,0.2c-0.1,0-0.3,0-0.4,0
							c-0.1,0-0.2,0-0.4,0c-0.3,0.1-0.5,0.2-0.6,0.2c-0.1,0-0.2,0-0.3,0c-0.3,0.1-0.5,0.1-0.6,0c-0.1,0-0.2,0-0.3,0
							c-0.4-0.1-0.8-0.1-1.3,0c-0.5,0-0.8-0.1-1-0.4c-0.3,0.1-0.5,0.2-0.7,0.1c-0.2-0.1-0.5-0.2-0.8-0.3c-0.3-0.1-0.5-0.1-0.6-0.2
							c-0.1-0.1-0.2-0.1-0.2-0.1c-0.1-0.1-0.3-0.1-0.4-0.2c-0.1-0.1-0.3-0.1-0.4-0.2c-0.2-0.1-0.4-0.2-0.6-0.2
							c-0.2-0.1-0.3-0.1-0.6-0.2c-0.3-0.1-0.5-0.3-0.6-0.4c-0.1-0.1-0.2-0.3-0.3-0.3c-0.1-0.1-0.2-0.1-0.3-0.2
							c-0.1,0-0.2-0.1-0.3-0.2c-0.3-0.4-0.6-0.7-1-1c-0.4-0.3-0.6-0.6-0.9-1.1c-0.3-0.2-0.5-0.4-0.5-0.5c-0.1-0.1-0.1-0.1-0.2-0.2
							c-0.2-0.1-0.4-0.3-0.4-0.4c-0.1-0.1-0.2-0.2-0.3-0.2c0-0.2,0-0.3-0.1-0.4c-0.1-0.1-0.2-0.2-0.2-0.2c-0.1-0.3-0.2-0.5-0.2-0.6
							c-0.1-0.1-0.1-0.2-0.2-0.3l-0.1-0.6c-0.1-0.2-0.1-0.3-0.2-0.3c-0.1-0.1-0.1-0.1-0.2-0.2c-0.1-0.3-0.2-0.5-0.2-0.8
							c0-0.3-0.1-0.6-0.2-0.9c-0.1-0.2-0.2-0.3-0.3-0.5c-0.1-0.1-0.1-0.3-0.1-0.5c0-0.2,0.1-0.4,0.1-0.5c0.1-0.1,0.2-0.3,0.4-0.5
							c0.2-0.1,0.3,0,0.3,0c0.1,0.1,0.2,0.1,0.3,0.1c0.2-0.1,0.5-0.2,0.9-0.3c0.1,0,0.2,0,0.4,0c0.1,0,0.3-0.1,0.4-0.1
							c0.3,0,0.5,0,0.8-0.1c0.2-0.1,0.5-0.1,0.6-0.1c0.2-0.1,0.3-0.1,0.5-0.1c0.2,0,0.3,0,0.5-0.1c0.1,0,0.3-0.1,0.4-0.2
							c0.1-0.1,0.3-0.1,0.5-0.1c0.2,0,0.3,0.1,0.5,0.2c0.2,0.1,0.3,0.2,0.4,0.3c0,0.4,0,0.7,0,1c0,0.3,0,0.6,0.1,1
							c0,0.1,0.1,0.2,0.1,0.3c0,0.1,0,0.2,0,0.3c0,0.1,0.1,0.1,0.1,0.2c0.1,0.1,0.1,0.2,0.2,0.3c0,0.1,0.1,0.3,0.1,0.4
							c0,0.1,0,0.2,0.1,0.3c0.2,0.3,0.4,0.6,0.5,0.8c0.1,0.2,0.2,0.4,0.4,0.6c0.1,0.1,0.3,0.3,0.5,0.5c0.1,0.1,0.1,0.1,0.2,0.2
							c0.1,0.1,0.1,0.1,0.2,0.2c0.1,0.1,0.2,0.1,0.4,0.1c0.1,0,0.3,0,0.5,0c0.4,0.1,0.7,0.2,0.9,0.2c0.2,0,0.4,0.1,0.7,0.1
							c0.3,0.1,0.5,0.1,0.7,0.1c0.2,0,0.4,0,0.8-0.1c0.1,0,0.3-0.1,0.4-0.1c0.2,0,0.3,0,0.5-0.1c0.2-0.1,0.3-0.1,0.5-0.2
							c0.2-0.1,0.3-0.1,0.5-0.2c0.2-0.1,0.4-0.2,0.6-0.2c0.2,0,0.4-0.1,0.5-0.2c0.1-0.1,0.2-0.2,0.4-0.3c0.1-0.1,0.2-0.2,0.3-0.3
							c0.2-0.1,0.3-0.3,0.6-0.4c0.2-0.2,0.4-0.3,0.5-0.5c0.2-0.3,0.4-0.5,0.5-0.8c0.1-0.3,0.2-0.5,0.4-0.8c0-0.2,0-0.5,0.1-0.8
							c0-0.3,0.1-0.6,0.2-0.7c-0.2-0.1-0.3-0.3-0.2-0.5c0-0.2,0-0.4,0-0.8c-0.1-0.6-0.1-1-0.1-1.4c0-0.4-0.1-0.7-0.2-0.9
							c-0.1-0.2-0.2-0.3-0.4-0.5c-0.1-0.2-0.2-0.3-0.3-0.6c-0.2-0.1-0.3-0.4-0.5-0.6c-0.1-0.3-0.3-0.5-0.4-0.7c-0.2,0-0.4,0-0.5-0.1
							c-0.2-0.1-0.4-0.1-0.7-0.1c-0.1-0.1-0.2-0.2-0.3-0.3c-0.1-0.1-0.2-0.2-0.3-0.2c-0.2,0-0.3-0.1-0.5-0.1c-0.2,0-0.3-0.1-0.5-0.1
							c-0.2,0-0.4-0.1-0.5-0.2c-0.2-0.1-0.4-0.1-0.5-0.1c-0.3,0-0.5,0-0.8,0.1c-0.3,0.1-0.5,0.1-0.8,0.2c-0.2,0.1-0.4,0.2-0.7,0.3
							c-0.2,0.1-0.4,0.2-0.7,0.2c-0.2,0.1-0.3,0.2-0.4,0.3c-0.1,0.1-0.3,0.2-0.5,0.2c-0.2,0-0.4,0-0.5-0.2c-0.1-0.1-0.3-0.3-0.5-0.4
							c0-0.5,0-1.1,0-1.6c0-0.6,0-1.1,0-1.6c0-0.1-0.1-0.2-0.2-0.3c-0.1-0.1-0.2-0.2-0.2-0.3c-0.1-0.3-0.2-0.5-0.3-0.6
							c-0.1-0.1-0.1-0.3-0.2-0.4c0-0.2,0.1-0.4,0.1-0.6c0.1-0.2,0.2-0.3,0.3-0.5c0.5-0.1,1,0,1.4,0.2c0.6-0.1,1.3-0.3,2.1-0.4
							c0.8-0.2,1.5-0.3,2.2-0.5c0.1,0,0.3-0.1,0.4-0.1c0.1,0,0.2-0.1,0.4,0c0.2-0.3,0.5-0.5,0.8-0.6c0.3-0.1,0.5-0.4,0.6-0.7
							c0.2-0.1,0.3-0.2,0.4-0.4c0-0.2,0.2-0.3,0.3-0.4c0-0.3,0-0.6,0-0.9c0-0.3-0.1-0.5-0.1-0.8c0-0.2,0.1-0.4,0.1-0.6
							c0-0.1,0-0.3-0.1-0.6c0-0.1,0-0.3-0.1-0.4c-0.1-0.1-0.1-0.3-0.2-0.5c-0.2-0.4-0.5-0.8-0.7-1.1c-0.1-0.1-0.3-0.2-0.4-0.3
							c-0.1-0.1-0.3-0.2-0.4-0.3c-0.2-0.1-0.3-0.2-0.5-0.3c-0.1-0.1-0.3-0.2-0.4-0.3c-0.1,0.1-0.2,0.1-0.3,0.1
							c-0.1,0-0.2-0.1-0.3-0.1c-0.4,0.1-0.7,0.1-0.9,0.1c-0.2,0-0.4-0.1-0.5-0.1c-0.2,0-0.3,0-0.5,0.1c-0.2,0-0.4,0.1-0.5,0.1
							c-0.3,0.1-0.7,0.2-1.1,0.4c-0.1,0-0.2,0.1-0.3,0.1c-0.1,0-0.2,0-0.3,0.1c-0.5,0.3-0.9,0.6-1.2,0.8c-0.3,0.2-0.5,0.4-0.8,0.5
							c0.1,0.4,0.1,0.7-0.2,1c-0.2,0.3-0.3,0.7-0.4,1.1c0,0.1,0,0.3,0,0.4c0,0.1,0,0.3,0,0.5c0,0.2,0,0.3,0,0.5c0,0.1,0,0.3,0,0.4
							c0.1,0.2,0.1,0.4,0.2,0.5c0.1,0.1,0.1,0.3,0,0.6c-0.1,0.1-0.1,0.2-0.2,0.4c-0.1,0.2-0.2,0.3-0.3,0.3c-0.3,0.1-0.5,0.1-0.6,0
							c-0.1-0.1-0.3-0.2-0.6-0.2c-0.1,0-0.3,0-0.4,0.1c-0.1,0-0.3,0.1-0.5,0.1c-0.3,0-0.5,0-0.8,0c-0.2,0-0.5-0.1-0.7-0.1
							c-0.1,0-0.2,0-0.3,0.1c-0.1,0-0.2,0.1-0.3,0.1c-0.3,0-0.6,0-0.8,0c-0.3,0-0.5-0.1-0.8-0.1c-0.3-0.3-0.5-0.5-0.7-0.4
							c-0.2,0-0.3,0-0.3-0.1c-0.2-0.3-0.3-0.8-0.3-1.4c0-0.1,0-0.3,0.1-0.3c0-0.1,0-0.2,0-0.3c0-0.1,0-0.3,0-0.4c0-0.1,0-0.2,0-0.4
							c0.1-0.3,0.1-0.5,0.1-0.7c0-0.1,0-0.3,0-0.4c0.1-0.2,0.2-0.4,0.2-0.6c0-0.2,0.1-0.3,0.2-0.4c0-0.2,0-0.3-0.1-0.5
							c-0.1-0.1-0.1-0.3,0-0.5c0.1-0.4,0.2-0.6,0.2-0.7c0-0.1,0-0.2,0.1-0.2c0.1-0.2,0.1-0.3,0.1-0.4c0-0.1,0.1-0.2,0.2-0.4
							c0.1-0.1,0.1-0.2,0.2-0.2c0-0.1,0.1-0.1,0.1-0.2c0-0.1,0.1-0.1,0.1-0.2c0.1-0.2,0.3-0.3,0.3-0.3c0.1,0,0.1-0.1,0.1-0.1
							c0.3-0.3,0.5-0.6,0.7-0.8c0.2-0.2,0.4-0.4,0.5-0.6c0.1-0.1,0.2-0.2,0.3-0.3c0.1-0.1,0.2-0.2,0.4-0.3c0.4-0.3,0.7-0.6,0.8-0.7
							c0.1-0.2,0.2-0.3,0.4-0.4c0.2-0.1,0.4-0.2,0.6-0.3c0.2-0.1,0.5-0.2,0.7-0.3c0.4-0.1,0.8-0.2,1.1-0.3c0.3-0.1,0.5-0.2,0.8-0.3
							c0.3,0.1,0.6,0.1,0.9,0.1c0.3,0,0.6,0,0.8,0c0.3,0,0.7,0,1.2-0.1c0.5,0,1-0.1,1.5-0.2c0.2,0,0.4,0,0.7-0.1c0.3,0,0.5,0,0.8,0
							c0.3,0.2,0.5,0.3,0.7,0.3c0.2,0,0.4,0.1,0.5,0.1c0.1,0.1,0.4,0.2,0.7,0.4c0.3,0.1,0.5,0.2,0.6,0.3c0.1,0.1,0.3,0.1,0.5,0.2
							c0.3,0.1,0.5,0.3,0.6,0.4c0.1,0.1,0.2,0.2,0.3,0.3c0.4,0.2,0.7,0.4,0.9,0.7c0.2,0.2,0.5,0.3,0.7,0.4c0.1,0.2,0.2,0.3,0.3,0.4
							c0.1,0.1,0.2,0.2,0.3,0.4c0.1,0.1,0.2,0.2,0.3,0.3c0.1,0.2,0.2,0.3,0.3,0.3c0.1,0.3,0.2,0.6,0.3,1c0.1,0.3,0.2,0.6,0.3,1
							c0.1,0.1,0.1,0.2,0.2,0.3c0.1,0.1,0.1,0.2,0.2,0.4c0.1,0.1,0.1,0.1,0.1,0.2c0,0.1,0,0.2,0.1,0.4c0.1,0.3,0.2,0.6,0.2,0.7
							c0,0.2,0,0.3,0.1,0.5c0,0.2,0.1,0.3,0.1,0.5c0,0.1,0.1,0.3,0.1,0.5c0.1,0.4,0.2,1,0.2,1.7c0,0.4,0.1,0.7,0.1,0.9
							c0,0.2,0,0.4-0.2,0.5c0,0.4,0.1,0.6,0.1,0.7c0,0.1,0,0.2,0.1,0.3c0,0.1,0,0.2-0.1,0.3c-0.1,0.1-0.1,0.2-0.1,0.3
							c0,0.1,0,0.2,0,0.3c0,0.1,0,0.2,0,0.3c0,0.1,0,0.3-0.1,0.3c0,0.1-0.1,0.2-0.1,0.3c-0.1,0.4-0.2,0.8-0.4,1
							c-0.1,0.1-0.1,0.2-0.3,0.4c-0.1,0.1-0.2,0.3-0.3,0.4c0.1,0.3,0.3,0.5,0.6,0.6c0.3,0.1,0.4,0.3,0.6,0.6
							c0.1,0.1,0.2,0.2,0.3,0.2c0.1,0.1,0.3,0.1,0.4,0.2c0,0.2,0.1,0.3,0.2,0.3c0.1,0.1,0.3,0.1,0.4,0.2c0.1,0.2,0.2,0.4,0.3,0.5
							c0.1,0.1,0.3,0.2,0.4,0.4c0.1,0.3,0.2,0.5,0.2,0.6c0.5,0.4,0.8,0.7,0.8,1c0.1,0.2,0.1,0.5,0.1,0.8c0,0.4,0.1,0.7,0.1,0.9
							c0,0.2-0.1,0.3,0,0.4c0,0.1,0.1,0.1,0.2,0.2C457.4,486.9,457.6,487.3,457.6,487.7z"/>
					</g>
				</g>
			</g>
		</g>
	</g>
</g>
</svg>
