<?xml version="1.0" encoding="utf-8"?>
<!-- Generator: Adobe Illustrator 24.1.2, SVG Export Plug-In . SVG Version: 6.00 Build 0)  -->
<svg version="1.1" xmlns="http://www.w3.org/2000/svg" xmlns:xlink="http://www.w3.org/1999/xlink" x="0px" y="0px"
	 viewBox="0 0 300.8 274.7" style="enable-background:new 0 0 300.8 274.7;" xml:space="preserve">
<style type="text/css">
	.st0{fill:url(#SVGID_1_);}
	.st1{fill:url(#SVGID_2_);}
	.st2{fill:#9BA4A1;}
	.st3{fill:#E4EFEB;}
	.st4{opacity:0.23;}
	.st5{fill:#444444;}
	.st6{fill:#AECFEE;}
	.st7{fill:#5483AD;}
	.st8{fill:#335066;}
	.st9{fill:#61A1C1;}
	.st10{fill:#6394B4;}
	.st11{fill:#88BBD6;}
	.st12{fill:#ABDAEF;}
	.st13{fill:url(#SVGID_3_);}
	.st14{fill:url(#SVGID_4_);}
	.st15{fill:none;stroke:#FFFFFF;stroke-linecap:round;stroke-miterlimit:10;}
	.st16{fill:none;stroke:#000000;stroke-miterlimit:10;}
	.st17{fill:#EBF1FF;}
	.st18{fill:url(#SVGID_5_);}
	.st19{fill:url(#SVGID_6_);}
	.st20{opacity:0.23;fill:#444444;}
	.st21{fill:#B4AA91;}
	.st22{fill:#837960;}
	.st23{fill:#1D3F1D;}
	.st24{fill:#459B45;}
	.st25{fill:#A4B3D0;}
	.st26{fill:#8A9BB5;}
	.st27{fill:#C1DAF9;}
	.st28{fill:#4A5059;}
	.st29{fill:#BFD8F7;}
	.st30{fill:#6E7C89;}
	.st31{fill:#40484F;}
	.st32{fill:#605F68;}
	.st33{opacity:0.3;}
	.st34{fill:#3C3B41;}
	.st35{fill:url(#SVGID_7_);}
	.st36{fill:url(#SVGID_8_);}
	.st37{fill:#FFF0CF;}
	.st38{fill:#B77A37;}
	.st39{fill:#E29942;}
	.st40{fill:#D9B15C;}
	.st41{fill:#CEBE99;}
	.st42{fill:#333333;}
	.st43{fill:#EEFFA6;}
	.st44{fill:#474135;}
	.st45{fill:#D8EF84;}
	.st46{fill:#839945;}
	.st47{fill:#193019;}
	.st48{fill:#346B34;}
	.st49{fill:#5659BA;}
	.st50{fill:#D2E0FB;}
	.st51{fill:#3C3E4B;}
	.st52{fill:#FFFFFF;}
	.st53{fill:#5465C1;}
	.st54{fill:#B95438;}
	.st55{fill:url(#SVGID_9_);}
	.st56{fill:url(#SVGID_10_);}
	.st57{fill:#7893A4;}
	.st58{fill:#BA77AD;}
	.st59{fill:#B48CCB;}
	.st60{fill:#9D7FB2;}
	.st61{fill:#88729B;}
	.st62{fill:#C5B0EB;}
	.st63{fill:#A0C3E9;}
	.st64{fill:url(#SVGID_11_);}
	.st65{fill:url(#SVGID_12_);}
	.st66{fill:#A3C0D8;}
	.st67{fill:#D88A5A;}
	.st68{fill:#9C9777;}
	.st69{fill:#A2A793;}
	.st70{fill:#636864;}
	.st71{fill:#0C0C0C;}
	.st72{fill:#26240B;}
	.st73{fill:#A5A174;}
	.st74{fill:#F2B879;}
	.st75{fill:#8D897E;}
	.st76{fill:#D8AD5E;}
	.st77{fill:#B3AF80;}
	.st78{fill:url(#SVGID_13_);}
	.st79{fill:url(#SVGID_14_);}
	.st80{fill:#231F1E;}
	.st81{fill:#302C2D;}
	.st82{fill:#C96B49;}
	.st83{fill:#535454;}
	.st84{fill:#494949;}
	.st85{fill:#71797C;}
	.st86{fill:#DFC571;}
	.st87{fill:#C05648;}
	.st88{fill:#D3CF78;}
	.st89{fill:#BD5B42;}
	.st90{fill:#5086F3;}
	.st91{fill:#4B4724;}
	.st92{fill:#877D40;}
	.st93{fill:#62AAFC;}
	.st94{fill:#A64C34;}
	.st95{fill:#BB5338;}
	.st96{fill:#A0A035;}
	.st97{fill:#3750B5;}
	.st98{fill:#A3A034;}
	.st99{fill:#D1D540;}
	.st100{fill:#2A417A;}
	.st101{fill:#C0664E;}
	.st102{fill:#7F7F7F;}
	.st103{fill:#6C8AA4;}
	.st104{fill:#4F5249;}
	.st105{fill:#BFAF5C;}
	.st106{fill:#E28D4D;}
	.st107{fill:url(#SVGID_15_);}
	.st108{fill:url(#SVGID_16_);}
	.st109{fill:#5B969C;}
	.st110{fill:#9FACC1;}
	.st111{fill:#D8BF48;}
	.st112{fill:#CB8142;}
	.st113{fill:#D7A23C;}
	.st114{fill:#5B5D5C;}
	.st115{fill:#60868F;}
	.st116{fill:#6BADBB;}
	.st117{fill:#798293;}
	.st118{fill:#52575A;}
	.st119{fill:#757C84;}
	.st120{fill:#54483A;}
	.st121{fill:#9B8973;}
	.st122{fill:#C78636;}
	.st123{fill:#BE7A33;}
	.st124{fill:#CB9336;}
	.st125{fill:#767C7A;}
	.st126{fill:#D8DCE5;}
	.st127{fill:#CFD3D1;}
	.st128{fill:none;}
	.st129{stroke:#000000;stroke-miterlimit:10;}
	.st130{fill:#FFFFFF;stroke:#000000;stroke-miterlimit:10;}
	.st131{stroke:#000000;stroke-linecap:round;stroke-linejoin:round;stroke-miterlimit:10;}
</style>
<g id="IMG_x5F_1254_xA0_Image_1_">
</g>
<g id="Layer_2">
	<g>
		<polygon class="st110" points="207.9,90 283.5,105.5 180.5,156.7 104.9,141.3 		"/>
		<polygon class="st111" points="169.7,212.7 245.3,228.1 204.6,247.8 129,232.4 		"/>
		<polygon class="st112" points="204.6,274.7 204.6,247.8 129,232.4 129,259.2 		"/>
		<polygon class="st5" points="178.9,269.4 178.9,242.1 176.8,241.3 176.8,269 		"/>
		<polygon class="st113" points="245.3,228.1 245.3,237.6 211.8,253.5 211.5,271.4 204.6,274.7 204.6,247.8 		"/>
		<polygon class="st114" points="207.5,89.9 283.1,105.4 283.1,88.5 207.5,73.1 		"/>
		<polygon class="st111" points="51.1,36 0,58.5 57.9,74.1 109,51.6 		"/>
		<polygon class="st115" points="132.3,156.7 132.3,43.8 57.9,23.3 57.9,136.3 		"/>
		<polygon class="st112" points="0,78.5 0,58.5 57.9,74.1 57.9,94.1 		"/>
		<polygon class="st5" points="55.1,93.3 55.1,73.4 57.9,74.1 57.9,94.1 		"/>
		<polygon class="st109" points="132.3,156.7 132.3,43.8 180.5,20.4 180.5,133.4 		"/>
		<polygon class="st5" points="132.3,156.7 132.3,153.9 57.9,133.4 57.9,136.3 		"/>
		<polygon class="st5" points="132.3,156.7 132.3,153.9 180.5,130.6 180.5,133.4 		"/>
		<polygon class="st116" points="57.9,23.3 132.3,43.8 180.5,20.4 106.1,0 		"/>
		<polygon class="st117" points="283.5,200.1 283.5,105.5 180.5,156.7 180.5,251.4 		"/>
		<polygon class="st118" points="283.1,200 283.1,88.5 300.8,79.5 300.8,191.1 		"/>
		<polygon class="st119" points="207.5,73.1 283.1,88.5 300.8,79.5 225.1,64.2 		"/>
		<polygon class="st120" points="132.3,274.7 132.3,180.1 57.9,159.6 57.9,254.3 		"/>
		<polygon class="st121" points="132.3,274.7 132.3,180.1 180.5,156.7 180.5,251.4 		"/>
		<polygon class="st5" points="183.3,250.1 183.3,155.5 180.5,156.7 180.5,251.4 		"/>
		<polygon class="st5" points="283.1,200.1 283.1,105.5 280.3,106.7 280.3,201.4 		"/>
		<polygon class="st2" points="132.3,156.7 132.3,180.1 57.9,159.6 57.9,136.3 		"/>
		<polygon class="st17" points="132.3,156.7 132.3,180.1 180.5,156.7 180.5,133.4 		"/>
		<polygon class="st5" points="132.3,182.9 132.3,180.1 57.9,159.6 57.9,162.5 		"/>
		<polygon class="st5" points="132.3,182.9 132.3,180.1 180.5,156.7 180.5,159.6 		"/>
		<g>
			<polygon class="st42" points="109.6,90.7 96.6,87.2 96.6,71.7 109.6,75.2 			"/>
			<polygon class="st5" points="113.6,88.4 109.6,90.7 109.6,75.2 113.6,72.8 			"/>
			<polygon class="st5" points="100.6,69.3 96.6,71.7 109.6,75.2 113.6,72.8 			"/>
		</g>
	</g>
</g>
</svg>
