<svg xmlns="http://www.w3.org/2000/svg" viewBox="0 0 596.03 19.96"><defs><style>.cls-1{fill:#bfd8f7;}.cls-2{fill:#6e7c89;}.cls-3{fill:#40484f;}.cls-4{fill:#a4b3d0;}.cls-5{fill:#8a9bb5;}.cls-6{fill:#c1daf9;}.cls-7{fill:#4a5059;}.cls-8{fill:#605f68;}.cls-9{fill:#3c3b41;}</style></defs><g id="Layer_2" data-name="Layer 2"><g id="Layer_2-2" data-name="Layer 2"><polygon class="cls-1" points="441.53 11.3 443.76 10.31 444.15 16.79 441.55 18.13 441.53 11.3"/><polygon class="cls-2" points="441.54 11.28 443.76 10.31 439.67 3.84 437.71 4.83 441.54 11.28"/><polygon class="cls-3" points="439.67 2.51 444.45 10.06 445 16.96 444.15 16.74 443.76 10.26 439.67 3.79 437.71 3.79 437.71 3.08 439.67 2.51"/><polygon class="cls-3" points="442.2 18.49 441.55 18.13 444.15 16.74 445 16.96 442.2 18.49"/><polygon class="cls-4" points="297.91 8.02 596.03 9.23 297.91 10.83 297.91 8.02"/><polygon class="cls-5" points="596.03 6.82 596.03 9.23 329.08 8.02 596.03 6.82"/><polygon class="cls-6" points="596.03 6.82 436.57 7.54 498.69 5.61 596.03 6.82"/><polygon class="cls-7" points="297.91 13.24 297.91 10.83 596.03 9.23 596.03 9.87 297.91 13.24"/><polygon class="cls-8" points="432.33 6.49 435.02 6.49 435.02 13.72 432.13 13.72 432.33 6.49"/><polygon class="cls-1" points="432.44 4.25 435.02 4.25 435.02 6.49 432.33 6.49 432.44 4.25"/><polygon class="cls-2" points="427.6 3.84 430.29 3.84 430.29 13.72 427.4 13.72 427.6 3.84"/><polygon class="cls-1" points="424.82 3.15 427.4 3.13 427.52 19.94 424.84 19.96 424.82 3.15"/><polygon class="cls-8" points="436.99 7.74 439.67 7.74 439.67 13.72 436.78 13.72 436.99 7.74"/><polygon class="cls-1" points="437.09 3.84 439.67 3.84 439.67 7.61 436.99 7.61 437.09 3.84"/><polygon class="cls-2" points="189.33 12.93 192.01 12.93 192.01 16.68 189.13 16.68 189.33 12.93"/><polygon class="cls-8" points="201.09 11.06 203.78 11.06 203.78 15.28 200.89 15.28 201.09 11.06"/><polygon class="cls-1" points="201.19 6.51 203.78 6.51 203.78 11.06 201.09 11.06 201.19 6.51"/><polygon class="cls-8" points="196.75 10.39 199.43 10.39 199.43 16.09 196.54 16.09 196.75 10.39"/><polygon class="cls-1" points="196.85 5.84 199.43 5.84 199.43 10.39 196.75 10.39 196.85 5.84"/><polygon class="cls-8" points="192.05 8.78 194.73 8.78 194.73 16.19 191.84 16.19 192.05 8.78"/><polygon class="cls-8" points="189.16 1.38 191.84 1.38 191.84 8.13 188.96 8.13 189.16 1.38"/><polygon class="cls-1" points="192.15 5.93 194.73 5.93 194.73 8.78 192.05 8.78 192.15 5.93"/><polygon class="cls-1" points="189.33 0 191.91 0 191.91 1.43 189.23 1.43 189.33 0"/><polygon class="cls-2" points="201.47 15.64 205.62 10.06 208.33 11.06 204.33 17.07 201.47 15.64"/><polygon class="cls-4" points="298.13 8.02 0 9.23 298.13 10.83 298.13 8.02"/><polygon class="cls-5" points="0 6.82 0 9.23 266.95 8.02 0 6.82"/><polygon class="cls-6" points="0 6.82 159.47 7.54 97.34 5.61 0 6.82"/><polygon class="cls-7" points="298.13 13.24 298.13 10.83 0 9.23 0 9.87 298.13 13.24"/><polygon class="cls-1" points="206.76 0.61 205.62 10.06 208.33 11.06 209.48 0.61 206.76 0.61"/><polygon class="cls-9" points="205.62 2 206.76 0.61 205.62 10.06 201.47 15.64 201.47 14.72 204.9 9.7 205.62 2"/></g></g></svg>