<?xml version="1.0" encoding="UTF-8"?>
<svg width="33px" height="24px" viewBox="0 0 33 24" version="1.1" xmlns="http://www.w3.org/2000/svg" xmlns:xlink="http://www.w3.org/1999/xlink">
    <title>Group 9</title>
    <g id="Page-1" stroke="none" stroke-width="1" fill="none" fill-rule="evenodd">
        <g id="Desktop-HD" transform="translate(-929.000000, -111.000000)">
            <g id="Group-9" transform="translate(929.000000, 111.000000)">
                <polygon id="Fill-1" fill="#AECFEE" points="18.5112 21.0918 25.1242 22.9238 32.6022 5.1458 24.9472 3.4868"></polygon>
                <polygon id="Fill-2" fill="#5483AD" points="17.6805 22.1421 18.0995 22.4851 18.5175 22.8291 25.0815 23.3651 24.6605 23.0221 24.6635 23.0221 24.2455 22.6781 24.2415 22.6781 23.8255 22.3351 17.2615 21.7981"></polygon>
                <polygon id="Fill-3" fill="#335066" points="23.8259 22.3356 23.8549 21.4736 17.3259 20.9396 17.2619 21.7986"></polygon>
                <polygon id="Fill-4" fill="#61A1C1" points="23.8257 22.3356 24.2417 22.6776 24.2417 22.6786 24.6597 23.0226 24.6877 22.1606 24.2717 21.8176 24.2687 21.9126 24.2707 21.8176 23.8557 21.4736"></polygon>
                <polygon id="Fill-5" fill="#61A1C1" points="24.6636 23.0223 25.0826 23.3653 25.1086 22.5033 24.6936 22.1603"></polygon>
                <polygon id="Fill-6" fill="#6394B4" points="17.2404 21.3834 23.7784 21.8714 8.3174 1.5954 0.0004 0.2134"></polygon>
                <polygon id="Fill-7" fill="#88BBD6" points="0.0412 0.0003 0.0002 0.2133 8.3792 1.6133 8.4132 1.4403 0.0462 0.0003"></polygon>
                <polygon id="Fill-8" fill="#ABDAEF" points="8.3791 1.613 23.7781 21.871 8.4131 1.44"></polygon>
            </g>
        </g>
    </g>
</svg>