<?xml version="1.0" encoding="UTF-8"?>
<svg width="54px" height="43px" viewBox="0 0 54 43" version="1.1" xmlns="http://www.w3.org/2000/svg" xmlns:xlink="http://www.w3.org/1999/xlink">
    <title>Group 7</title>
    <g id="Page-1" stroke="none" stroke-width="1" fill="none" fill-rule="evenodd">
        <g id="Desktop-HD" transform="translate(-1191.000000, -287.000000)">
            <g id="Group-7" transform="translate(1191.000000, 287.000000)">
                <polygon id="Fill-1" fill="#EEFFA6" points="0 11.4193 25.512 36.5033 33.006 25.8813 8.9 1.7773"></polygon>
                <polygon id="Fill-2" fill="#474135" points="17.8623 31.4695 17.8563 31.4655 16.6413 32.1585 16.6453 32.1635 15.4273 32.8545 26.3123 42.2325 27.5283 41.5385 28.7433 40.8445 29.9583 40.1505 19.0723 30.7725"></polygon>
                <polygon id="Fill-3" fill="#837960" points="19.0728 30.7724 20.4828 27.1164 31.3108 36.4454 29.9588 40.1514"></polygon>
                <polygon id="Fill-4" fill="#D8EF84" points="53.5761 0.0001 25.5121 10.0731 25.5121 36.5031 53.5761 25.3701"></polygon>
                <polygon id="Fill-5" fill="#CEBE99" points="20.483 27.1162 19.272 27.8132 19.114 28.2202 19.271 27.8132 18.06 28.5112 16.646 32.1642 17.862 31.4702 17.864 31.4632 19.073 30.7722"></polygon>
                <polygon id="Fill-6" fill="#CEBE99" points="18.0509 28.5029 16.8399 29.1999 15.4259 32.8539 16.6409 32.1589"></polygon>
            </g>
        </g>
    </g>
</svg>