<?xml version="1.0" encoding="UTF-8"?>
<svg width="108px" height="43px" viewBox="0 0 108 43" version="1.1" xmlns="http://www.w3.org/2000/svg" xmlns:xlink="http://www.w3.org/1999/xlink">
    <title>Group 13</title>
    <g id="Page-1" stroke="none" stroke-width="1" fill="none" fill-rule="evenodd">
        <g id="Desktop-HD" transform="translate(-276.000000, -320.000000)">
            <g id="Group-13" transform="translate(276.000000, 320.000000)">
                <polygon id="Fill-1" fill="#A3C0D8" points="53.3997 34.8461 66.7437 38.6801 107.2517 14.7261 91.3937 12.3551"></polygon>
                <polygon id="Fill-2" fill="#AECFEE" points="74.3472 -0.0001 53.4002 34.8459 66.7442 38.6799 90.2042 2.3709"></polygon>
                <polygon id="Fill-3" fill="#5483AD" points="49.9482 38.8286 50.5922 40.0856 51.2372 41.3436 51.8812 42.6006 66.2572 40.6796 65.6102 39.4236 65.6152 39.4236 64.9722 38.1656 64.9652 38.1676 64.3252 36.9086"></polygon>
                <polygon id="Fill-4" fill="#335066" points="64.3252 36.9088 65.1512 33.0408 50.8502 34.9498 49.9482 38.8288"></polygon>
                <polygon id="Fill-5" fill="#61A1C1" points="65.1514 33.0407 65.7904 34.2987 65.6984 34.7297 65.7914 34.2987 66.4294 35.5567 65.6084 39.4247 64.9644 38.1667 64.9654 38.1597 64.3244 36.9087"></polygon>
                <polygon id="Fill-6" fill="#61A1C1" points="66.4419 35.5544 67.0809 36.8134 66.2599 40.6804 65.6149 39.4234"></polygon>
                <polyline id="Fill-7" fill="#6394B4" points="64.6279 34.863 19.2309 6.424 1.6299 5.723 50.2649 36.988"></polyline>
                <polygon id="Fill-8" fill="#88BBD6" points="19.5806 5.6676 19.3526 6.4596 1.6296 5.7236 1.9116 4.7416"></polygon>
                <polygon id="Fill-9" fill="#ABDAEF" points="64.6279 34.863 19.5809 5.668 19.3529 6.46"></polygon>
                <polygon id="Fill-10" fill="#6394B4" points="50.265 36.9881 64.628 34.8631 17.6 21.6881 0 20.9881"></polygon>
                <polygon id="Fill-11" fill="#88BBD6" points="0 20.9879 17.724 21.7229 17.951 20.9319 0.283 20.0069"></polygon>
                <polygon id="Fill-12" fill="#ABDAEF" points="17.7236 21.7233 64.6276 34.8633 17.9506 20.9323"></polygon>
            </g>
        </g>
    </g>
</svg>