<?xml version="1.0" encoding="UTF-8"?>
<svg width="473px" height="219px" viewBox="0 0 473 219" version="1.1" xmlns="http://www.w3.org/2000/svg" xmlns:xlink="http://www.w3.org/1999/xlink">
    <title>Group 26</title>
    <g id="Page-1" stroke="none" stroke-width="1" fill="none" fill-rule="evenodd">
        <g id="Desktop-HD" transform="translate(-489.000000, -735.000000)">
            <g id="Group-26" transform="translate(489.000000, 735.000000)">
                <polygon id="Fill-1" fill="#459B45" points="29.0638 61.0438 45.9258 218.1188 63.2938 218.1188 42.8218 20.8688"></polygon>
                <polygon id="Fill-2" fill="#459B45" points="0.0334 126.427 11.0784 218.119 28.4454 218.119 15.0354 99.549"></polygon>
                <polygon id="Fill-3" fill="#459B45" points="88.1389 87.5434 102.0269 218.1194 119.3939 218.1194 102.5329 54.1654"></polygon>
                <polygon id="Fill-4" fill="#1D3F1D" points="120.5578 131.575 130.0778 218.119 147.4448 218.119 135.8878 108.186"></polygon>
                <polygon id="Fill-5" fill="#1D3F1D" points="50.5684 43.6072 68.8614 218.1192 86.2294 218.1192 64.0194 0.1592"></polygon>
                <polygon id="Fill-6" fill="#459B45" points="54.703 218.119 64.753 218.119 66.942 109.341 57.36 80.808"></polygon>
                <polygon id="Fill-7" fill="#459B45" points="74.8693 218.119 84.9193 218.119 86.3533 155.386 76.6103 136.637"></polygon>
                <polygon id="Fill-8" fill="#459B45" points="22.2364 218.119 32.2874 218.119 34.0904 132.171 24.4254 108.639"></polygon>
                <polygon id="Fill-9" fill="#1D3F1D" points="6.004 218.119 16.054 218.119 17.29 166.238 7.504 150.056"></polygon>
                <polygon id="Fill-10" fill="#1D3F1D" points="41.4298 218.119 51.4798 218.119 53.8548 97.871 44.3128 66.929"></polygon>
                <polygon id="Fill-11" fill="#459B45" points="237.7189 218.119 251.2859 218.119 263.1659 84.086 252.1409 44.558"></polygon>
                <polygon id="Fill-12" fill="#459B45" points="264.9412 218.119 278.5082 218.119 286.2892 148.134 274.3882 121.934"></polygon>
                <polygon id="Fill-13" fill="#459B45" points="193.8934 218.119 207.4604 218.119 217.2454 113.023 205.7734 80.307"></polygon>
                <polygon id="Fill-14" fill="#1D3F1D" points="171.9811 218.119 185.5481 218.119 192.2541 158.342 180.1231 135.638"></polygon>
                <polygon id="Fill-15" fill="#1D3F1D" points="219.8017 218.119 233.3687 218.119 246.2577 67.583 235.4487 24.775"></polygon>
                <polygon id="Fill-16" fill="#459B45" points="394.1371 64.1425 391.0191 218.1195 404.6131 218.1195 408.3981 25.6635"></polygon>
                <polygon id="Fill-17" fill="#459B45" points="365.7844 126.0535 363.7414 218.1195 377.3364 218.1195 379.8154 100.9305"></polygon>
                <polygon id="Fill-18" fill="#459B45" points="437.5009 96.7864 434.9319 218.1194 448.5269 218.1194 451.6449 65.1344"></polygon>
                <polygon id="Fill-19" fill="#1D3F1D" points="458.6491 144.0211 456.8891 218.1191 470.4831 218.1191 472.6211 122.3991"></polygon>
                <polygon id="Fill-20" fill="#1D3F1D" points="412.3549 49.0981 408.9719 218.1191 422.5659 218.1191 426.6729 7.3331"></polygon>
                <polygon id="Fill-21" fill="#459B45" points="215.6635 218.119 223.4625 218.119 213.3515 126.446 203.3895 104.998"></polygon>
                <polygon id="Fill-22" fill="#459B45" points="231.3109 218.119 239.1089 218.119 232.4859 160.704 223.2709 146.918"></polygon>
                <polygon id="Fill-23" fill="#459B45" points="190.4734 218.119 198.2714 218.119 189.9444 147.192 180.3634 129.661"></polygon>
                <polygon id="Fill-24" fill="#1D3F1D" points="177.8788 218.119 185.6768 218.119 179.9698 175.297 170.9488 163.52"></polygon>
                <polygon id="Fill-25" fill="#1D3F1D" points="205.3657 218.119 213.1637 218.119 202.1947 118.642 192.0497 95.309"></polygon>
            </g>
        </g>
    </g>
</svg>