<?xml version="1.0" encoding="UTF-8"?>
<svg width="493px" height="60px" viewBox="0 0 493 60" version="1.1" xmlns="http://www.w3.org/2000/svg" xmlns:xlink="http://www.w3.org/1999/xlink">
    <title>Group 21</title>
    <g id="Page-1" stroke="none" stroke-width="1" fill="none" fill-rule="evenodd">
        <g id="Desktop-HD" transform="translate(-114.000000, -509.000000)">
            <g id="Group-21" transform="translate(114.000000, 509.000000)">
                <polygon id="Fill-12" fill="#444444" opacity="0.3" transform="translate(458.452500, 37.134500) scale(-1, 1) translate(-458.452500, -37.134500) " points="442.729 24 424 30.857 474.43 50.269 492.905 43.714"></polygon>
                <polygon id="Fill-1" fill="#9BA4A1" points="477.4035 16.4414 458.9285 22.9204 458.9285 43.6454 477.4035 37.0914"></polygon>
                <polygon id="Fill-2" fill="#E4EFEB" points="464.8424 11.9043 446.3674 18.3833 458.9284 22.9273 477.4034 16.3743"></polygon>
                <polygon id="Fill-3" fill="#9BA4A1" points="477.4035 16.4414 458.9285 22.9204 458.9285 43.6454 477.4035 37.0914"></polygon>
                <polygon id="Fill-4" fill="#E4EFEB" points="464.8424 11.9043 446.3674 18.3833 458.9284 22.9273 477.4034 16.3743"></polygon>
                <polygon id="Fill-6" fill="#9BA4A1" points="488.5382 10.8037 484.7702 11.9907 484.7702 14.4277 488.5382 13.1637"></polygon>
                <polygon id="Fill-7" fill="#E4EFEB" points="484.1989 9.6162 481.0019 10.5772 485.3419 11.9902 488.5379 10.9542"></polygon>
                <polygon id="Fill-8" fill="#000000" points="487.3869 12.9482 477.0339 16.6202 477.0339 37.3462 487.3869 33.5982"></polygon>
                <polygon id="Fill-9" fill="#444444" points="475.4298 8.7139 465.0768 12.3849 477.0338 16.6289 487.3868 12.8809"></polygon>
                <g id="Group-20">
                    <path d="M432.4132,30.0439 L424.7802,27.3489 L423.2532,21.6239 L431.4592,16.4409 L429.9322,14.4279 L432.4132,11.9899 L434.1302,12.9479 C434.1302,12.9479 441.0492,10.7519 446.3672,18.3829 L458.9282,22.9279 L458.9282,43.6459 L451.6862,46.2399 L441.0912,42.0419 C441.0912,42.0419 441.0002,29.8759 432.4132,30.0439" id="Fill-10" fill="#000000"></path>
                    <polygon id="Fill-12" fill="#444444" opacity="0.3" points="18.7292 33.3203 0.0002 40.1773 50.4302 59.5893 68.9052 53.0343"></polygon>
                    <polygon id="Fill-14" fill="#9BA4A1" points="68.905 24.2285 50.43 30.7075 50.43 59.5885 68.905 53.0345"></polygon>
                    <polygon id="Fill-16" fill="#B4AA91" points="68.905 24.2285 50.43 30.7075 37.508 7.0525 55.984 0.4985"></polygon>
                    <polygon id="Fill-18" fill="#EBF1FF" points="50.4299 30.2373 37.5079 7.0523 24.5869 21.5333 24.5869 49.8263 50.4299 59.5893"></polygon>
                </g>
            </g>
        </g>
    </g>
</svg>