<?xml version="1.0" encoding="utf-8"?>
<!-- Generator: Adobe Illustrator 24.1.2, SVG Export Plug-In . SVG Version: 6.00 Build 0)  -->
<svg version="1.1" xmlns="http://www.w3.org/2000/svg" xmlns:xlink="http://www.w3.org/1999/xlink" x="0px" y="0px"
	 viewBox="0 0 114 390.9" style="enable-background:new 0 0 114 390.9;" xml:space="preserve">
<style type="text/css">
	.st0{fill:url(#SVGID_1_);}
	.st1{fill:url(#SVGID_2_);}
	.st2{fill:#9BA4A1;}
	.st3{fill:#E4EFEB;}
	.st4{opacity:0.23;}
	.st5{fill:#444444;}
	.st6{fill:#AECFEE;}
	.st7{fill:#5483AD;}
	.st8{fill:#335066;}
	.st9{fill:#61A1C1;}
	.st10{fill:#6394B4;}
	.st11{fill:#88BBD6;}
	.st12{fill:#ABDAEF;}
	.st13{fill:url(#SVGID_3_);}
	.st14{fill:url(#SVGID_4_);}
	.st15{fill:none;stroke:#FFFFFF;stroke-linecap:round;stroke-miterlimit:10;}
	.st16{fill:none;stroke:#000000;stroke-miterlimit:10;}
	.st17{fill:#EBF1FF;}
	.st18{fill:url(#SVGID_5_);}
	.st19{fill:url(#SVGID_6_);}
	.st20{opacity:0.23;fill:#444444;}
	.st21{fill:#B4AA91;}
	.st22{fill:#837960;}
	.st23{fill:#1D3F1D;}
	.st24{fill:#459B45;}
	.st25{fill:#A4B3D0;}
	.st26{fill:#8A9BB5;}
	.st27{fill:#C1DAF9;}
	.st28{fill:#4A5059;}
	.st29{fill:#BFD8F7;}
	.st30{fill:#6E7C89;}
	.st31{fill:#40484F;}
	.st32{fill:#605F68;}
	.st33{opacity:0.3;}
	.st34{fill:#3C3B41;}
	.st35{fill:url(#SVGID_7_);}
	.st36{fill:url(#SVGID_8_);}
	.st37{fill:#FFF0CF;}
	.st38{fill:#B77A37;}
	.st39{fill:#E29942;}
	.st40{fill:#D9B15C;}
	.st41{fill:#CEBE99;}
	.st42{fill:#333333;}
	.st43{fill:#EEFFA6;}
	.st44{fill:#474135;}
	.st45{fill:#D8EF84;}
	.st46{fill:#839945;}
	.st47{fill:#193019;}
	.st48{fill:#346B34;}
	.st49{fill:#5659BA;}
	.st50{fill:#D2E0FB;}
	.st51{fill:#3C3E4B;}
	.st52{fill:#FFFFFF;}
	.st53{fill:#5465C1;}
	.st54{fill:#B95438;}
	.st55{fill:url(#SVGID_9_);}
	.st56{fill:url(#SVGID_10_);}
	.st57{fill:#7893A4;}
	.st58{fill:#BA77AD;}
	.st59{fill:#B48CCB;}
	.st60{fill:#9D7FB2;}
	.st61{fill:#88729B;}
	.st62{fill:#C5B0EB;}
	.st63{fill:#A0C3E9;}
	.st64{fill:url(#SVGID_11_);}
	.st65{fill:url(#SVGID_12_);}
	.st66{fill:#A3C0D8;}
	.st67{fill:#D88A5A;}
	.st68{fill:#9C9777;}
	.st69{fill:#A2A793;}
	.st70{fill:#636864;}
	.st71{fill:#0C0C0C;}
	.st72{fill:#26240B;}
	.st73{fill:#A5A174;}
	.st74{fill:#F2B879;}
	.st75{fill:#8D897E;}
	.st76{fill:#D8AD5E;}
	.st77{fill:#B3AF80;}
	.st78{fill:url(#SVGID_13_);}
	.st79{fill:url(#SVGID_14_);}
	.st80{fill:#231F1E;}
	.st81{fill:#302C2D;}
	.st82{fill:#C96B49;}
	.st83{fill:#535454;}
	.st84{fill:#494949;}
	.st85{fill:#71797C;}
	.st86{fill:#DFC571;}
	.st87{fill:#C05648;}
	.st88{fill:#D3CF78;}
	.st89{fill:#BD5B42;}
	.st90{fill:#5086F3;}
	.st91{fill:#4B4724;}
	.st92{fill:#877D40;}
	.st93{fill:#62AAFC;}
	.st94{fill:#A64C34;}
	.st95{fill:#BB5338;}
	.st96{fill:#A0A035;}
	.st97{fill:#3750B5;}
	.st98{fill:#A3A034;}
	.st99{fill:#D1D540;}
	.st100{fill:#2A417A;}
	.st101{fill:#C0664E;}
	.st102{fill:#7F7F7F;}
	.st103{fill:#6C8AA4;}
	.st104{fill:#4F5249;}
	.st105{fill:#BFAF5C;}
	.st106{fill:#E28D4D;}
	.st107{fill:url(#SVGID_15_);}
	.st108{fill:url(#SVGID_16_);}
	.st109{fill:#5B969C;}
	.st110{fill:#9FACC1;}
	.st111{fill:#D8BF48;}
	.st112{fill:#CB8142;}
	.st113{fill:#D7A23C;}
	.st114{fill:#5B5D5C;}
	.st115{fill:#60868F;}
	.st116{fill:#6BADBB;}
	.st117{fill:#798293;}
	.st118{fill:#52575A;}
	.st119{fill:#757C84;}
	.st120{fill:#54483A;}
	.st121{fill:#9B8973;}
	.st122{fill:#C78636;}
	.st123{fill:#BE7A33;}
	.st124{fill:#CB9336;}
	.st125{fill:#767C7A;}
	.st126{fill:#D8DCE5;}
	.st127{fill:#CFD3D1;}
	.st128{fill:none;}
	.st129{stroke:#000000;stroke-miterlimit:10;}
	.st130{fill:#FFFFFF;stroke:#000000;stroke-miterlimit:10;}
	.st131{stroke:#000000;stroke-linecap:round;stroke-linejoin:round;stroke-miterlimit:10;}
</style>
<g id="IMG_x5F_1254_xA0_Image_1_">
</g>
<g id="Layer_2">
	<g>
		<g>
			<rect x="14.2" y="369.3" class="st21" width="6.7" height="21.6"/>
			<rect x="25.1" y="369.3" class="st21" width="6.7" height="21.6"/>
			<rect x="36" y="369.3" class="st21" width="6.7" height="21.6"/>
			<rect x="51.4" y="369.3" class="st21" width="6.7" height="21.6"/>
			<rect x="62.7" y="369.3" class="st21" width="6.7" height="21.6"/>
			<rect x="74.1" y="369.3" class="st21" width="6.7" height="21.6"/>
			<rect x="14.2" y="361.5" class="st37" width="6.7" height="7.8"/>
			<rect x="25.1" y="361.5" class="st37" width="6.7" height="7.8"/>
			<rect x="36" y="361.5" class="st37" width="6.7" height="7.8"/>
			<rect x="51.4" y="361.5" class="st37" width="6.7" height="7.8"/>
			<rect x="62.7" y="361.5" class="st37" width="6.7" height="7.8"/>
			<rect x="74.1" y="361.5" class="st37" width="6.7" height="7.8"/>
			<g>
				<polygon class="st21" points="36.8,227.1 39.4,228.1 39.4,364.2 36.8,363.2 				"/>
				<polygon class="st22" points="41.9,227.1 39.4,228.1 39.4,364.2 41.9,363.2 				"/>
			</g>
			<g>
				<polygon class="st21" points="52.2,227.1 54.8,228.1 54.8,364.2 52.2,363.2 				"/>
				<polyline class="st22" points="57.3,227.1 54.8,228.1 54.8,364.2 57.3,363.2 				"/>
			</g>
		</g>
		<g>
			<polygon class="st22" points="0,18.4 18.5,25 18.5,226.2 0,219.7 			"/>
			<polygon class="st21" points="18.5,25 37,31.5 37,232.8 18.5,226.2 			"/>
			<polygon class="st2" points="37,31.6 55.4,38.1 55.4,239.3 37,232.8 			"/>
			<polygon class="st17" points="55.4,38.1 107.1,19.6 107.1,219.8 55.4,239.3 			"/>
			<path class="st20" d="M93.4,35.6l-18.1,7.7c0,0-3.5,4.5,0,10.4c-3.5,5.9,0,12.8,0,12.8L89,103.8l3.1-43.2L93.4,35.6z"/>
			<g>
				<path class="st38" d="M75.2,53.6l38.8,5.5L75.2,43.2C75.2,43.2,71.8,47.7,75.2,53.6z"/>
				<path class="st39" d="M75.2,53.6l38.8,5.5l-38.8,7.3C75.2,66.4,71.8,59.5,75.2,53.6z"/>
				<polygon class="st40" points="75.2,43.2 93.4,35.6 114,59.2 				"/>
			</g>
			<polygon class="st3" points="88.6,13.1 107.1,19.6 55.4,38.1 37,31.5 			"/>
			<polygon class="st37" points="70.2,6.6 88.6,13.1 37,31.6 18.5,25 			"/>
			<polygon class="st41" points="51.7,0 70.2,6.5 18.5,25 0,18.4 			"/>
			<polygon class="st42" points="29.6,77.9 22,74.7 22,65.6 29.6,68.8 			"/>
			<polygon class="st5" points="29.6,68.8 22,65.6 25.8,64 33.4,67.2 			"/>
			<polygon class="st5" points="33.4,76.3 29.6,77.9 29.6,68.8 33.4,67.2 			"/>
		</g>
	</g>
</g>
</svg>
