<?xml version="1.0" encoding="utf-8"?>
<!-- Generator: Adobe Illustrator 24.1.2, SVG Export Plug-In . SVG Version: 6.00 Build 0)  -->
<svg version="1.1" xmlns="http://www.w3.org/2000/svg" xmlns:xlink="http://www.w3.org/1999/xlink" x="0px" y="0px"
	 viewBox="0 0 836.1 170" style="enable-background:new 0 0 836.1 170;" xml:space="preserve">
<style type="text/css">
	.st0{fill:url(#SVGID_1_);}
	.st1{fill:url(#SVGID_2_);}
	.st2{fill:#9BA4A1;}
	.st3{fill:#E4EFEB;}
	.st4{opacity:0.23;}
	.st5{fill:#444444;}
	.st6{fill:#AECFEE;}
	.st7{fill:#5483AD;}
	.st8{fill:#335066;}
	.st9{fill:#61A1C1;}
	.st10{fill:#6394B4;}
	.st11{fill:#88BBD6;}
	.st12{fill:#ABDAEF;}
	.st13{fill:url(#SVGID_3_);}
	.st14{fill:url(#SVGID_4_);}
	.st15{fill:none;stroke:#FFFFFF;stroke-linecap:round;stroke-miterlimit:10;}
	.st16{fill:none;stroke:#000000;stroke-miterlimit:10;}
	.st17{fill:#EBF1FF;}
	.st18{fill:url(#SVGID_5_);}
	.st19{fill:url(#SVGID_6_);}
	.st20{opacity:0.23;fill:#444444;}
	.st21{fill:#B4AA91;}
	.st22{fill:#837960;}
	.st23{fill:#1D3F1D;}
	.st24{fill:#459B45;}
	.st25{fill:#A4B3D0;}
	.st26{fill:#8A9BB5;}
	.st27{fill:#C1DAF9;}
	.st28{fill:#4A5059;}
	.st29{fill:#BFD8F7;}
	.st30{fill:#6E7C89;}
	.st31{fill:#40484F;}
	.st32{fill:#605F68;}
	.st33{opacity:0.3;}
	.st34{fill:#3C3B41;}
	.st35{fill:url(#SVGID_7_);}
	.st36{fill:url(#SVGID_8_);}
	.st37{fill:#FFF0CF;}
	.st38{fill:#B77A37;}
	.st39{fill:#E29942;}
	.st40{fill:#D9B15C;}
	.st41{fill:#CEBE99;}
	.st42{fill:#333333;}
	.st43{fill:#EEFFA6;}
	.st44{fill:#474135;}
	.st45{fill:#D8EF84;}
	.st46{fill:#839945;}
	.st47{fill:#193019;}
	.st48{fill:#346B34;}
	.st49{fill:#5659BA;}
	.st50{fill:#D2E0FB;}
	.st51{fill:#3C3E4B;}
	.st52{fill:#FFFFFF;}
	.st53{fill:#5465C1;}
	.st54{fill:#B95438;}
	.st55{fill:url(#SVGID_9_);}
	.st56{fill:url(#SVGID_10_);}
	.st57{fill:#7893A4;}
	.st58{fill:#BA77AD;}
	.st59{fill:#B48CCB;}
	.st60{fill:#9D7FB2;}
	.st61{fill:#88729B;}
	.st62{fill:#C5B0EB;}
	.st63{fill:#A0C3E9;}
	.st64{fill:url(#SVGID_11_);}
	.st65{fill:url(#SVGID_12_);}
	.st66{fill:#A3C0D8;}
	.st67{fill:#D88A5A;}
	.st68{fill:#9C9777;}
	.st69{fill:#A2A793;}
	.st70{fill:#636864;}
	.st71{fill:#0C0C0C;}
	.st72{fill:#26240B;}
	.st73{fill:#A5A174;}
	.st74{fill:#F2B879;}
	.st75{fill:#8D897E;}
	.st76{fill:#D8AD5E;}
	.st77{fill:#B3AF80;}
	.st78{fill:url(#SVGID_13_);}
	.st79{fill:url(#SVGID_14_);}
	.st80{fill:#231F1E;}
	.st81{fill:#302C2D;}
	.st82{fill:#C96B49;}
	.st83{fill:#535454;}
	.st84{fill:#494949;}
	.st85{fill:#71797C;}
	.st86{fill:#DFC571;}
	.st87{fill:#C05648;}
	.st88{fill:#D3CF78;}
	.st89{fill:#BD5B42;}
	.st90{fill:#5086F3;}
	.st91{fill:#4B4724;}
	.st92{fill:#877D40;}
	.st93{fill:#62AAFC;}
	.st94{fill:#A64C34;}
	.st95{fill:#BB5338;}
	.st96{fill:#A0A035;}
	.st97{fill:#3750B5;}
	.st98{fill:#A3A034;}
	.st99{fill:#D1D540;}
	.st100{fill:#2A417A;}
	.st101{fill:#C0664E;}
	.st102{fill:#7F7F7F;}
	.st103{fill:#6C8AA4;}
	.st104{fill:#4F5249;}
	.st105{fill:#BFAF5C;}
	.st106{fill:#E28D4D;}
	.st107{fill:url(#SVGID_15_);}
	.st108{fill:url(#SVGID_16_);}
	.st109{fill:#5B969C;}
	.st110{fill:#9FACC1;}
	.st111{fill:#D8BF48;}
	.st112{fill:#CB8142;}
	.st113{fill:#D7A23C;}
	.st114{fill:#5B5D5C;}
	.st115{fill:#60868F;}
	.st116{fill:#6BADBB;}
	.st117{fill:#798293;}
	.st118{fill:#52575A;}
	.st119{fill:#757C84;}
	.st120{fill:#54483A;}
	.st121{fill:#9B8973;}
	.st122{fill:#C78636;}
	.st123{fill:#BE7A33;}
	.st124{fill:#CB9336;}
	.st125{fill:#767C7A;}
	.st126{fill:#D8DCE5;}
	.st127{fill:#CFD3D1;}
	.st128{fill:none;}
	.st129{stroke:#000000;stroke-miterlimit:10;}
	.st130{fill:#FFFFFF;stroke:#000000;stroke-miterlimit:10;}
	.st131{stroke:#000000;stroke-linecap:round;stroke-linejoin:round;stroke-miterlimit:10;}
</style>
<g id="IMG_x5F_1254_xA0_Image_1_">
</g>
<g id="Layer_2">
	<g>
		<path class="st129" d="M375,80c30.2-20,8-65.7-19.1-70.7c0,0-29,0-47.9,0V3.4l-15.7,5.9l2.2,154.2h65.1
			C400,165.8,410.6,90.7,375,80z M326.3,36.6c31-7,59.1,27.3,19.8,31.8C319.3,71.5,325.6,59.8,326.3,36.6z M326.3,139.5V99.8
			c17.3,3.1,41.2-10.9,46,19.8C366.2,149.3,343.5,136.8,326.3,139.5z"/>
		<path class="st130" d="M390.7,74.1c30.2-20,8-65.7-19.1-70.7c0,0-63.6,0-63.6,0l2.2,154.2h65.1C415.8,159.9,426.3,84.8,390.7,74.1
			z M342.1,30.7c31-7,59.1,27.3,19.8,31.8C335,65.6,341.3,53.9,342.1,30.7z M342.1,133.6V93.9c17.3,3.1,41.2-10.9,46,19.8
			C381.9,143.4,359.2,130.9,342.1,133.6z"/>
		<g>
			<path d="M230.3,169.5c-6,0-9.5-0.8-10.4-2.5c-0.5-0.8-0.3-2,0.5-3.4l0.5-0.9l-1,0.1c-7.6,1.1-14.6,1.6-20.9,1.6
				c-17.8,0-30.5-4.3-39-13c-15.6-16.1-14.8-45.5-13.9-76.7c0.2-6.5,0.4-13.1,0.4-19.7l14.7-5.5l-0.1,5.7h19.8c0,5.3,0,51.4,0,69.7
				c2.5,13.5,7.5,19,17.2,19c2.3,0,4.7-0.3,7.2-0.6c2.5-0.3,5.1-0.6,7.6-0.6c2,0,3.7,0.2,5.2,0.5l0.6,0.1V55.1l14.7-5.5v5.7h18.8
				c1.2,6.2,15.7,81.7,15.7,104l0.7,5.2l-15.9,4.3c-0.5-0.3-1.5-0.4-3-0.4c-2,0-4.6,0.2-7.7,0.4C238.3,169.2,234,169.5,230.3,169.5z
				"/>
			<path d="M232.9,50.3v4.5v1h1h17.9c1.6,8.5,15.6,81.7,15.6,103.5v0.1l0,0.1l0.7,4.7l-15.3,4.2c-0.6-0.2-1.6-0.3-3-0.3
				c-2,0-4.7,0.2-7.8,0.4c-3.7,0.3-7.9,0.6-11.7,0.6c-7.2,0-9.4-1.2-10-2.2c-0.4-0.7-0.2-1.6,0.5-2.9l1-1.8l-2,0.3
				c-7.6,1.1-14.6,1.6-20.9,1.6c-17.6,0-30.3-4.2-38.7-12.9c-15.5-15.9-14.6-45.3-13.7-76.4c0.2-6.3,0.4-12.9,0.4-19.4l13.7-5.1
				l-0.1,4.4l0,1h1h18.8c0,7.2,0,51.4,0,69.2v0.1l0,0.1c3.2,17,10.7,19.3,17.7,19.3c2.3,0,4.8-0.3,7.2-0.6c2.5-0.3,5-0.6,7.5-0.6
				c1.9,0,3.6,0.2,5.1,0.5l1.2,0.3v-1.3V55.5L232.9,50.3 M233.9,48.9l-15.7,5.9v88.1c-1.8-0.4-3.6-0.6-5.4-0.6
				c-5,0-10.1,1.2-14.8,1.2c-7.5,0-13.8-3-16.7-18.5c0-19.3,0-70.2,0-70.2s-10.1,0-19.8,0l0.1-5.9l-15.7,5.9
				c-0.3,55-10.8,110.3,53,110.3c6.3,0,13.2-0.5,21-1.6c-3,5.3,2.8,6.6,10.4,6.6c6.8,0,15-1,19.4-1c1.5,0,2.5,0.1,2.9,0.4l16.5-4.5
				l-0.8-5.6c0-23.4-15.7-104.5-15.7-104.5s-9.4,0-18.7,0V48.9L233.9,48.9z"/>
		</g>
		<path class="st130" d="M161.7,48.9c-0.4,60.4-12.9,121.2,74,108.7c-6.7,11.7,29.6,3.8,32.7,6c0,0,0-114.6,0-114.6s-34.4,0-34.4,0
			V137c-14.5-3.4-31.5,10.8-36.8-17.9c0-19.3,0-70.2,0-70.2S161.7,48.9,161.7,48.9z"/>
		<polygon class="st129" points="445.7,48.9 429.9,54.8 429.9,167.2 461.6,167.2 477.3,161.3 		"/>
		<rect x="445.7" y="48.9" class="st130" width="31.6" height="112.4"/>
		<path class="st129" d="M445.7,0.9L426,10.7c-1,37.4-3.2,29.3,31.6,29.8l19.7-9.8L445.7,0.9z"/>
		<path class="st130" d="M445.7,0.9c-1,37.4-3.2,29.3,31.6,29.8C478.3-6.7,480.5,1.4,445.7,0.9z"/>
		<polygon class="st129" points="516.8,43.8 501.1,49.7 501.1,167.2 536.7,167.2 552.4,161.3 549.3,76.4 558.5,68.9 572.2,76.8 
			588,70.9 573,45.3 547.9,52.3 		"/>
		<path class="st130" d="M516.8,43.8h31.1v14.1c4.2-6,49.3-32.5,40.1,13c-52.4-6.1-32,73.4-35.6,90.4c0,0-35.6,0-35.6,0V43.8z"/>
		<path class="st129" d="M787.4,99.8c-46.3-17.9-10.3-37.3,16.4-13.5l15.7-5.9l-8.9-5.9l5-8.5c0,0-17.5-17.5-46.9-16.4
			c-43.7,4.1-61.3,47.8-26,58.7c35.8,11.1,51.6,46.9,9.4,28l6.9-10.2l-15.7,5.9L730,151.8c-0.1,0.1-0.1,0.1-0.1,0.1
			s26.4,17.5,54.1,17.5C833.2,162.4,829.3,115.7,787.4,99.8z"/>
		<path class="st130" d="M819.5,80.5l11.9-20.3c0,0-17.5-17.5-46.9-16.4c-43.7,4.1-61.3,47.8-26,58.7c38.1,11.8,53.6,51.6,0.6,23.7
			c0,0-13.4,19.8-13.4,19.8s26.4,17.5,54.1,17.5c49.2-7,45.3-53.7,3.4-69.6C756.8,76.1,792.9,56.6,819.5,80.5z"/>
		<path class="st131" d="M114,115.5L99,122C14.8,216.2,10.5-26.7,99,57l15.7-5.9l-4.1-3.5c4.5-3.7,8.7-7,8.7-7S97.9,6.7,65.2,9.3
			c-79.6,0.4-90.5,159-5.9,160.1c38.7,0,60.1-27.1,60.1-27.1l-15.8-15.8L114,115.5z"/>
		<path class="st130" d="M114.8,116.1c-84.2,94.2-88.5-148.7,0-64.9c0,0,20.3-16.4,20.3-16.4S113.7,0.8,80.9,3.4
			C1.3,3.8-9.6,162.4,75,163.5c38.7,0,60.1-27.1,60.1-27.1L114.8,116.1z"/>
		<path class="st129" d="M695.3,86.7V6.8H679l-1.2-5.9L662,6.8l0.9,42.9C624.2,42.4,594,64,591.5,99.8c-8.5,36.6,33.4,85.1,73.7,59
			l0.2,10.6h29.9l15.7-5.9L695.3,86.7z M661.2,65.6c0,0,3,75.1,3,75.1C607.3,162.3,612.7,50.9,661.2,65.6z"/>
		<path class="st130" d="M677.8,0.9c0,0,1.1,42.9,1.1,42.9c-38.8-7.4-69.2,14.2-71.7,50.1c-8.6,36.7,33.6,85.3,74,58.9v10.7h29.9
			V0.9H677.8z M676.9,59.7c0,0,3,75.1,3,75.1C623,156.4,628.4,45,676.9,59.7z"/>
	</g>
</g>
</svg>
