<svg xmlns="http://www.w3.org/2000/svg" viewBox="0 0 1440 903.41"><defs><style>.cls-1{fill:none;}.cls-2{fill:#fff;}</style></defs><g id="Layer_2" data-name="Layer 2"><g id="Layer_2-2" data-name="Layer 2"><rect class="cls-1" width="1440" height="903.41"/><circle class="cls-2" cx="521.82" cy="189.93" r="4"/><circle class="cls-2" cx="329.53" cy="81.13" r="6.64"/><circle class="cls-2" cx="1256.65" cy="283.91" r="4"/><circle class="cls-2" cx="751.82" cy="653.83" r="5"/><circle class="cls-2" cx="551.82" cy="459.93" r="4"/><circle class="cls-2" cx="521.82" cy="189.93" r="4"/><circle class="cls-2" cx="155.11" cy="148.94" r="6.64"/><circle class="cls-2" cx="1074.13" cy="497.29" r="4"/><circle class="cls-2" cx="353.33" cy="592.28" r="5"/><circle class="cls-2" cx="551.82" cy="459.93" r="4"/><path class="cls-2" d="M1155,245.62s12.84,53.66-50.63,77.84c0,0,40.8,22.67,63.47-15.12S1155,245.62,1155,245.62Z"/><circle class="cls-2" cx="521.82" cy="189.93" r="4"/><circle class="cls-2" cx="976.37" cy="155.58" r="6.64"/><circle class="cls-2" cx="1292.18" cy="459.93" r="4"/><circle class="cls-2" cx="839.38" cy="66.52" r="5"/><circle class="cls-2" cx="208.25" cy="396.94" r="4"/></g></g></svg>