<?xml version="1.0" encoding="utf-8"?>
<!-- Generator: Adobe Illustrator 24.1.2, SVG Export Plug-In . SVG Version: 6.00 Build 0)  -->
<svg version="1.1" xmlns="http://www.w3.org/2000/svg" xmlns:xlink="http://www.w3.org/1999/xlink" x="0px" y="0px"
	 viewBox="0 0 491.8 382.9" style="enable-background:new 0 0 491.8 382.9;" xml:space="preserve">
<style type="text/css">
	.st0{fill:url(#SVGID_1_);}
	.st1{fill:url(#SVGID_2_);}
	.st2{fill:#9BA4A1;}
	.st3{fill:#E4EFEB;}
	.st4{opacity:0.23;}
	.st5{fill:#444444;}
	.st6{fill:#AECFEE;}
	.st7{fill:#5483AD;}
	.st8{fill:#335066;}
	.st9{fill:#61A1C1;}
	.st10{fill:#6394B4;}
	.st11{fill:#88BBD6;}
	.st12{fill:#ABDAEF;}
	.st13{fill:url(#SVGID_3_);}
	.st14{fill:url(#SVGID_4_);}
	.st15{fill:none;stroke:#FFFFFF;stroke-linecap:round;stroke-miterlimit:10;}
	.st16{fill:none;stroke:#000000;stroke-miterlimit:10;}
	.st17{fill:#EBF1FF;}
	.st18{fill:url(#SVGID_5_);}
	.st19{fill:url(#SVGID_6_);}
	.st20{opacity:0.23;fill:#444444;}
	.st21{fill:#B4AA91;}
	.st22{fill:#837960;}
	.st23{fill:#1D3F1D;}
	.st24{fill:#459B45;}
	.st25{fill:#A4B3D0;}
	.st26{fill:#8A9BB5;}
	.st27{fill:#C1DAF9;}
	.st28{fill:#4A5059;}
	.st29{fill:#BFD8F7;}
	.st30{fill:#6E7C89;}
	.st31{fill:#40484F;}
	.st32{fill:#605F68;}
	.st33{opacity:0.3;}
	.st34{fill:#3C3B41;}
	.st35{fill:url(#SVGID_7_);}
	.st36{fill:url(#SVGID_8_);}
	.st37{fill:#FFF0CF;}
	.st38{fill:#B77A37;}
	.st39{fill:#E29942;}
	.st40{fill:#D9B15C;}
	.st41{fill:#CEBE99;}
	.st42{fill:#333333;}
	.st43{fill:#EEFFA6;}
	.st44{fill:#474135;}
	.st45{fill:#D8EF84;}
	.st46{fill:#839945;}
	.st47{fill:#193019;}
	.st48{fill:#346B34;}
	.st49{fill:#5659BA;}
	.st50{fill:#D2E0FB;}
	.st51{fill:#3C3E4B;}
	.st52{fill:#FFFFFF;}
	.st53{fill:#5465C1;}
	.st54{fill:#B95438;}
	.st55{fill:url(#SVGID_9_);}
	.st56{fill:url(#SVGID_10_);}
	.st57{fill:#7893A4;}
	.st58{fill:#BA77AD;}
	.st59{fill:#B48CCB;}
	.st60{fill:#9D7FB2;}
	.st61{fill:#88729B;}
	.st62{fill:#C5B0EB;}
	.st63{fill:#A0C3E9;}
	.st64{fill:url(#SVGID_11_);}
	.st65{fill:url(#SVGID_12_);}
	.st66{fill:#A3C0D8;}
	.st67{fill:#D88A5A;}
	.st68{fill:#9C9777;}
	.st69{fill:#A2A793;}
	.st70{fill:#636864;}
	.st71{fill:#0C0C0C;}
	.st72{fill:#26240B;}
	.st73{fill:#A5A174;}
	.st74{fill:#F2B879;}
	.st75{fill:#8D897E;}
	.st76{fill:#D8AD5E;}
	.st77{fill:#B3AF80;}
	.st78{fill:url(#SVGID_13_);}
	.st79{fill:url(#SVGID_14_);}
	.st80{fill:#231F1E;}
	.st81{fill:#302C2D;}
	.st82{fill:#C96B49;}
	.st83{fill:#535454;}
	.st84{fill:#494949;}
	.st85{fill:#71797C;}
	.st86{fill:#DFC571;}
	.st87{fill:#C05648;}
	.st88{fill:#D3CF78;}
	.st89{fill:#BD5B42;}
	.st90{fill:#5086F3;}
	.st91{fill:#4B4724;}
	.st92{fill:#877D40;}
	.st93{fill:#62AAFC;}
	.st94{fill:#A64C34;}
	.st95{fill:#BB5338;}
	.st96{fill:#A0A035;}
	.st97{fill:#3750B5;}
	.st98{fill:#A3A034;}
	.st99{fill:#D1D540;}
	.st100{fill:#2A417A;}
	.st101{fill:#C0664E;}
	.st102{fill:#7F7F7F;}
	.st103{fill:#6C8AA4;}
	.st104{fill:#4F5249;}
	.st105{fill:#BFAF5C;}
	.st106{fill:#E28D4D;}
	.st107{fill:url(#SVGID_15_);}
	.st108{fill:url(#SVGID_16_);}
	.st109{fill:#5B969C;}
	.st110{fill:#9FACC1;}
	.st111{fill:#D8BF48;}
	.st112{fill:#CB8142;}
	.st113{fill:#D7A23C;}
	.st114{fill:#5B5D5C;}
	.st115{fill:#60868F;}
	.st116{fill:#6BADBB;}
	.st117{fill:#798293;}
	.st118{fill:#52575A;}
	.st119{fill:#757C84;}
	.st120{fill:#54483A;}
	.st121{fill:#9B8973;}
	.st122{fill:#C78636;}
	.st123{fill:#BE7A33;}
	.st124{fill:#CB9336;}
	.st125{fill:#767C7A;}
	.st126{fill:#D8DCE5;}
	.st127{fill:#CFD3D1;}
	.st128{fill:none;}
	.st129{stroke:#000000;stroke-miterlimit:10;}
	.st130{fill:#FFFFFF;stroke:#000000;stroke-miterlimit:10;}
	.st131{stroke:#000000;stroke-linecap:round;stroke-linejoin:round;stroke-miterlimit:10;}
</style>
<g id="IMG_x5F_1254_xA0_Image_1_">
</g>
<g id="Layer_2">
	<g>
		<polygon class="st31" points="462.6,309.2 461.4,308.5 466.3,305.9 468,306.3 		"/>
		
			<rect x="113.6" y="32.3" transform="matrix(-0.7071 0.7071 -0.7071 -0.7071 331.4452 22.3)" class="st49" width="94.9" height="94.9"/>
		<polygon points="94,79.8 50.7,67.3 117.9,134.5 161.1,146.9 		"/>
		<polygon class="st42" points="65,71.4 50.7,67.3 2.6,79.8 77.2,83.7 		"/>
		<polygon points="302.4,204.5 280.8,198.2 459.3,376.7 480.9,382.9 		"/>
		<polygon class="st50" points="260.1,246 216.9,233.5 117.9,134.5 161.1,146.9 		"/>
		<polygon class="st42" points="94,79.8 161.1,12.7 117.9,0 50.7,67.1 		"/>
		<polygon class="st42" points="193.8,308.5 201.3,302.1 189.4,290.2 239.5,239.7 231.8,237.1 177.4,292 		"/>
		<polygon class="st42" points="230.5,306.9 238,300.5 226.1,288.6 283.6,230.2 275.9,227.6 214,290.4 		"/>
		<polygon class="st42" points="177.6,310.6 185,304.2 173.2,292.3 181.6,283.5 173.9,280.9 161.1,294.1 		"/>
		<polygon class="st42" points="248.1,305.4 255.6,299 243.7,287.1 252.2,278.3 244.5,275.7 231.7,288.9 		"/>
		
			<rect x="146.5" y="111.7" transform="matrix(-0.7071 0.7071 -0.7071 -0.7071 410.7989 55.1694)" class="st51" width="94.9" height="2"/>
		
			<rect x="252.3" y="69.8" transform="matrix(-0.7071 0.7071 -0.7071 -0.7071 555.0496 49.8486)" class="st49" width="29.9" height="140.1"/>
		
			<rect x="389.4" y="162" transform="matrix(-0.7071 0.7071 -0.7071 -0.7071 881.7381 211.1983)" class="st49" width="15.5" height="252.4"/>
		
			<rect x="201.1" y="103.4" transform="matrix(0.7071 -0.7071 0.7071 0.7071 -54.2177 216.004)" class="st52" width="65.1" height="140.1"/>
		
			<rect x="186.6" y="149.5" transform="matrix(-0.7071 -0.7071 0.7071 -0.7071 331.8182 438.3911)" class="st51" width="140.2" height="2"/>
		<path d="M149.5,85.3L149.5,85.3c-3.2-3.2-3.2-8.4,0-11.6l0,0c3.2-3.2,8.4-3.2,11.6,0l0,0c3.2,3.2,3.2,8.4,0,11.6l0,0
			C157.9,88.5,152.7,88.5,149.5,85.3z"/>
		<polygon points="65.3,71 77.2,59.1 69.5,56.9 0,48.5 		"/>
		<polygon points="65.3,71 2.6,79.8 77.2,83.7 		"/>
	</g>
</g>
</svg>
