<?xml version="1.0" encoding="utf-8"?>
<!-- Generator: Adobe Illustrator 24.1.2, SVG Export Plug-In . SVG Version: 6.00 Build 0)  -->
<svg version="1.1" xmlns="http://www.w3.org/2000/svg" xmlns:xlink="http://www.w3.org/1999/xlink" x="0px" y="0px"
	 viewBox="0 0 189.5 482.1" style="enable-background:new 0 0 189.5 482.1;" xml:space="preserve">
<style type="text/css">
	.st0{fill:url(#SVGID_1_);}
	.st1{fill:url(#SVGID_2_);}
	.st2{fill:#9BA4A1;}
	.st3{fill:#E4EFEB;}
	.st4{opacity:0.23;}
	.st5{fill:#444444;}
	.st6{fill:#AECFEE;}
	.st7{fill:#5483AD;}
	.st8{fill:#335066;}
	.st9{fill:#61A1C1;}
	.st10{fill:#6394B4;}
	.st11{fill:#88BBD6;}
	.st12{fill:#ABDAEF;}
	.st13{fill:url(#SVGID_3_);}
	.st14{fill:url(#SVGID_4_);}
	.st15{fill:none;stroke:#FFFFFF;stroke-linecap:round;stroke-miterlimit:10;}
	.st16{fill:none;stroke:#000000;stroke-miterlimit:10;}
	.st17{fill:#EBF1FF;}
	.st18{fill:url(#SVGID_5_);}
	.st19{fill:url(#SVGID_6_);}
	.st20{opacity:0.23;fill:#444444;}
	.st21{fill:#B4AA91;}
	.st22{fill:#837960;}
	.st23{fill:#1D3F1D;}
	.st24{fill:#459B45;}
	.st25{fill:#A4B3D0;}
	.st26{fill:#8A9BB5;}
	.st27{fill:#C1DAF9;}
	.st28{fill:#4A5059;}
	.st29{fill:#BFD8F7;}
	.st30{fill:#6E7C89;}
	.st31{fill:#40484F;}
	.st32{fill:#605F68;}
	.st33{opacity:0.3;}
	.st34{fill:#3C3B41;}
	.st35{fill:url(#SVGID_7_);}
	.st36{fill:url(#SVGID_8_);}
	.st37{fill:#FFF0CF;}
	.st38{fill:#B77A37;}
	.st39{fill:#E29942;}
	.st40{fill:#D9B15C;}
	.st41{fill:#CEBE99;}
	.st42{fill:#333333;}
	.st43{fill:#EEFFA6;}
	.st44{fill:#474135;}
	.st45{fill:#D8EF84;}
	.st46{fill:#839945;}
	.st47{fill:#193019;}
	.st48{fill:#346B34;}
	.st49{fill:#5659BA;}
	.st50{fill:#D2E0FB;}
	.st51{fill:#3C3E4B;}
	.st52{fill:#FFFFFF;}
	.st53{fill:#5465C1;}
	.st54{fill:#B95438;}
	.st55{fill:url(#SVGID_9_);}
	.st56{fill:url(#SVGID_10_);}
	.st57{fill:#7893A4;}
	.st58{fill:#BA77AD;}
	.st59{fill:#B48CCB;}
	.st60{fill:#9D7FB2;}
	.st61{fill:#88729B;}
	.st62{fill:#C5B0EB;}
	.st63{fill:#A0C3E9;}
	.st64{fill:url(#SVGID_11_);}
	.st65{fill:url(#SVGID_12_);}
	.st66{fill:#A3C0D8;}
	.st67{fill:#D88A5A;}
	.st68{fill:#9C9777;}
	.st69{fill:#A2A793;}
	.st70{fill:#636864;}
	.st71{fill:#0C0C0C;}
	.st72{fill:#26240B;}
	.st73{fill:#A5A174;}
	.st74{fill:#F2B879;}
	.st75{fill:#8D897E;}
	.st76{fill:#D8AD5E;}
	.st77{fill:#B3AF80;}
	.st78{fill:url(#SVGID_13_);}
	.st79{fill:url(#SVGID_14_);}
	.st80{fill:#231F1E;}
	.st81{fill:#302C2D;}
	.st82{fill:#C96B49;}
	.st83{fill:#535454;}
	.st84{fill:#494949;}
	.st85{fill:#71797C;}
	.st86{fill:#DFC571;}
	.st87{fill:#C05648;}
	.st88{fill:#D3CF78;}
	.st89{fill:#BD5B42;}
	.st90{fill:#5086F3;}
	.st91{fill:#4B4724;}
	.st92{fill:#877D40;}
	.st93{fill:#62AAFC;}
	.st94{fill:#A64C34;}
	.st95{fill:#BB5338;}
	.st96{fill:#A0A035;}
	.st97{fill:#3750B5;}
	.st98{fill:#A3A034;}
	.st99{fill:#D1D540;}
	.st100{fill:#2A417A;}
	.st101{fill:#C0664E;}
	.st102{fill:#7F7F7F;}
	.st103{fill:#6C8AA4;}
	.st104{fill:#4F5249;}
	.st105{fill:#BFAF5C;}
	.st106{fill:#E28D4D;}
	.st107{fill:url(#SVGID_15_);}
	.st108{fill:url(#SVGID_16_);}
	.st109{fill:#5B969C;}
	.st110{fill:#9FACC1;}
	.st111{fill:#D8BF48;}
	.st112{fill:#CB8142;}
	.st113{fill:#D7A23C;}
	.st114{fill:#5B5D5C;}
	.st115{fill:#60868F;}
	.st116{fill:#6BADBB;}
	.st117{fill:#798293;}
	.st118{fill:#52575A;}
	.st119{fill:#757C84;}
	.st120{fill:#54483A;}
	.st121{fill:#9B8973;}
	.st122{fill:#C78636;}
	.st123{fill:#BE7A33;}
	.st124{fill:#CB9336;}
	.st125{fill:#767C7A;}
	.st126{fill:#D8DCE5;}
	.st127{fill:#CFD3D1;}
	.st128{fill:none;}
	.st129{stroke:#000000;stroke-miterlimit:10;}
	.st130{fill:#FFFFFF;stroke:#000000;stroke-miterlimit:10;}
	.st131{stroke:#000000;stroke-linecap:round;stroke-linejoin:round;stroke-miterlimit:10;}
</style>
<g id="IMG_x5F_1254_xA0_Image_1_">
</g>
<g id="Layer_2">
	<g>
		<polygon class="st111" points="0,33.5 101.8,59.8 171.7,26.2 69.9,0 		"/>
		<polygon class="st112" points="0,33.4 101.8,59.7 101.8,75.9 0,49.8 		"/>
		<polygon class="st112" points="64.8,171.8 81.5,176.1 81.5,375.3 64.8,371 		"/>
		<polygon class="st112" points="83,194.6 99.8,198.9 99.8,398.1 83,393.8 		"/>
		<polygon class="st112" points="47.5,165.4 64.2,169.8 64.2,368.9 47.5,364.6 		"/>
		<polygon class="st112" points="11,117.2 27.8,121.5 27.8,320.7 11,316.3 		"/>
		<polygon class="st112" points="29.2,144.5 46,148.8 46,348 29.2,343.7 		"/>
		<g>
			<polygon class="st122" points="26.4,482.1 19.2,480.6 19.2,459 26.4,460.5 			"/>
			<polygon class="st123" points="46.4,450 39.1,448.6 19.2,459 26.4,460.5 			"/>
			<polygon class="st124" points="46.4,450 26.4,460.5 26.4,466.7 26.4,482.1 32.3,479.2 32.3,463.7 46.4,456.3 			"/>
		</g>
		<g>
			<polygon class="st122" points="41,482.1 33.7,480.6 33.7,459 41,460.5 			"/>
			<polygon class="st123" points="60.9,450 53.7,448.6 33.7,459 41,460.5 			"/>
			<polygon class="st124" points="60.9,450 41,460.5 41,466.7 41,482.1 46.8,479.2 46.8,463.7 60.9,456.3 			"/>
		</g>
		<g>
			<polygon class="st122" points="55.8,481.3 48.5,479.9 48.5,458.3 55.8,459.7 			"/>
			<polygon class="st123" points="75.7,449.3 68.5,447.9 48.5,458.3 55.8,459.7 			"/>
			<polygon class="st124" points="75.7,449.3 55.8,459.7 55.8,466 55.8,481.3 61.6,478.5 61.6,463 75.7,455.6 			"/>
		</g>
		<polygon class="st122" points="48.1,374.5 54.6,376.2 54.6,453.5 48.1,451.8 		"/>
		<polygon class="st124" points="59.1,374 54.6,376.2 54.6,453.5 59.1,451.4 		"/>
		<polygon class="st125" points="38.7,190.9 55.5,195.2 55.5,394.4 38.7,390.1 		"/>
		<polygon class="st126" points="67,189.7 55.5,195.2 55.5,394.4 67,388.9 		"/>
		<polygon class="st112" points="161.2,167.7 178,172 178,371.2 161.2,366.9 		"/>
		<polygon class="st106" points="189.5,166.5 178,172 178,371.2 189.5,365.7 		"/>
		<polygon class="st112" points="131.6,181.8 148.4,186.1 148.4,385.3 131.6,381 		"/>
		<polygon class="st106" points="159.9,180.6 148.4,186.1 148.4,385.3 159.9,379.8 		"/>
		<polygon class="st112" points="101.6,200 118.4,204.3 118.4,403.5 101.6,399.2 		"/>
		<polygon class="st106" points="129.9,198.8 118.4,204.3 118.4,403.5 129.9,398 		"/>
		<polygon class="st112" points="101.6,172.7 118.4,177 118.4,376.2 101.6,371.9 		"/>
		<polygon class="st106" points="129.9,171.5 118.4,177 118.4,376.2 129.9,370.7 		"/>
		<g>
			<g>
				<polygon class="st122" points="100.5,482.1 93.2,480.6 93.2,459 100.5,460.5 				"/>
				<polygon class="st123" points="120.4,450 113.2,448.6 93.2,459 100.5,460.5 				"/>
				<polygon class="st124" points="120.4,450 100.5,460.5 100.5,466.7 100.5,482.1 106.3,479.2 106.3,463.7 120.4,456.3 				"/>
			</g>
			<g>
				<polygon class="st122" points="115,482.1 107.7,480.6 107.7,459 115,460.5 				"/>
				<polygon class="st123" points="135,450 127.7,448.6 107.7,459 115,460.5 				"/>
				<polygon class="st124" points="135,450 115,460.5 115,466.7 115,482.1 120.9,479.2 120.9,463.7 135,456.3 				"/>
			</g>
			<g>
				<polygon class="st122" points="129.8,481.3 122.6,479.9 122.6,458.3 129.8,459.7 				"/>
				<polygon class="st123" points="149.8,449.3 142.5,447.9 122.6,458.3 129.8,459.7 				"/>
				<polygon class="st124" points="149.8,449.3 129.8,459.7 129.8,466 129.8,481.3 135.7,478.5 135.7,463 149.8,455.6 				"/>
			</g>
			<polygon class="st122" points="122.2,374.5 128.7,376.2 128.7,453.5 122.2,451.8 			"/>
			<polygon class="st124" points="133.1,374 128.7,376.2 128.7,453.5 133.1,451.4 			"/>
		</g>
		<polygon class="st125" points="111.6,172.7 128.4,177 128.4,376.2 111.6,371.9 		"/>
		<polygon class="st126" points="139.9,171.5 128.4,177 128.4,376.2 139.9,370.7 		"/>
		<polygon class="st127" points="89.6,186.9 101.8,190.2 112.4,185.2 99.8,181.4 		"/>
		<polygon class="st2" points="100.2,140.6 112.4,143.9 112.4,185.2 99.8,181.4 		"/>
		<polygon class="st17" points="100.2,140.6 89.6,145.7 89.6,186.9 99.8,181.4 		"/>
		<polygon class="st17" points="101.8,76.2 101.8,149 112.4,143.9 112.4,185.6 101.8,190.6 101.8,351.5 171.7,318.1 171.7,42.7 		
			"/>
		<polygon class="st2" points="101.8,76.2 101.8,149 89.6,145.7 89.6,187.3 101.8,190.6 101.8,351.5 0,325.2 0,49.8 		"/>
		<polygon class="st106" points="171.7,26.2 101.8,59.7 101.8,75.9 171.7,42.6 		"/>
		<polygon class="st5" points="171.7,156.7 101.8,190.2 101.8,194.4 171.7,161 		"/>
		<polygon class="st111" points="161.2,167.7 178,172.1 189.5,166.5 172.7,162.2 		"/>
		<polygon class="st111" points="148.5,174.1 165.3,178.4 176.8,172.9 160,168.5 		"/>
		<polygon class="st112" points="148.5,174 165.3,178.4 165.3,302.8 148.5,298.5 		"/>
		<polygon class="st106" points="176.8,172.9 165.3,178.4 165.3,302.8 176.8,297.3 		"/>
		<polygon class="st22" points="93,146.6 101.8,149 101.8,187.5 93,185.2 		"/>
		<polygon class="st41" points="108.6,145.6 101.8,149 101.8,187.5 108.6,184.1 		"/>
		<g>
			<polygon class="st42" points="58.7,135.2 36.7,129.4 36.7,103.1 58.7,109 			"/>
			<polygon class="st5" points="65.6,131.3 58.7,135.2 58.7,109 65.6,105.1 			"/>
			<polygon class="st5" points="43.6,99.2 36.7,103.1 58.7,109 65.6,105.1 			"/>
		</g>
		<g>
			<polygon class="st5" points="136.6,131.8 128.9,129.8 128.9,103.6 136.6,105.5 			"/>
			<polygon class="st42" points="155.2,123 136.6,131.8 136.6,105.6 155.2,96.7 			"/>
			<polygon class="st5" points="147.5,94.8 128.9,103.6 136.6,105.6 155.2,96.7 			"/>
		</g>
		<polygon class="st5" points="0,168.1 101.8,194.4 101.8,190.2 0,164 		"/>
	</g>
</g>
</svg>
