<?xml version="1.0" encoding="utf-8"?>
<!-- Generator: Adobe Illustrator 24.1.2, SVG Export Plug-In . SVG Version: 6.00 Build 0)  -->
<svg version="1.1" xmlns="http://www.w3.org/2000/svg" xmlns:xlink="http://www.w3.org/1999/xlink" x="0px" y="0px"
	 viewBox="0 0 206.9 618.4" style="enable-background:new 0 0 206.9 618.4;" xml:space="preserve">
<style type="text/css">
	.st0{fill:url(#SVGID_1_);}
	.st1{fill:url(#SVGID_2_);}
	.st2{fill:#9BA4A1;}
	.st3{fill:#E4EFEB;}
	.st4{opacity:0.23;}
	.st5{fill:#444444;}
	.st6{fill:#AECFEE;}
	.st7{fill:#5483AD;}
	.st8{fill:#335066;}
	.st9{fill:#61A1C1;}
	.st10{fill:#6394B4;}
	.st11{fill:#88BBD6;}
	.st12{fill:#ABDAEF;}
	.st13{fill:url(#SVGID_3_);}
	.st14{fill:url(#SVGID_4_);}
	.st15{fill:none;stroke:#FFFFFF;stroke-linecap:round;stroke-miterlimit:10;}
	.st16{fill:none;stroke:#000000;stroke-miterlimit:10;}
	.st17{fill:#EBF1FF;}
	.st18{fill:url(#SVGID_5_);}
	.st19{fill:url(#SVGID_6_);}
	.st20{opacity:0.23;fill:#444444;}
	.st21{fill:#B4AA91;}
	.st22{fill:#837960;}
	.st23{fill:#1D3F1D;}
	.st24{fill:#459B45;}
	.st25{fill:#A4B3D0;}
	.st26{fill:#8A9BB5;}
	.st27{fill:#C1DAF9;}
	.st28{fill:#4A5059;}
	.st29{fill:#BFD8F7;}
	.st30{fill:#6E7C89;}
	.st31{fill:#40484F;}
	.st32{fill:#605F68;}
	.st33{opacity:0.3;}
	.st34{fill:#3C3B41;}
	.st35{fill:url(#SVGID_7_);}
	.st36{fill:url(#SVGID_8_);}
	.st37{fill:#FFF0CF;}
	.st38{fill:#B77A37;}
	.st39{fill:#E29942;}
	.st40{fill:#D9B15C;}
	.st41{fill:#CEBE99;}
	.st42{fill:#333333;}
	.st43{fill:#EEFFA6;}
	.st44{fill:#474135;}
	.st45{fill:#D8EF84;}
	.st46{fill:#839945;}
	.st47{fill:#193019;}
	.st48{fill:#346B34;}
	.st49{fill:#5659BA;}
	.st50{fill:#D2E0FB;}
	.st51{fill:#3C3E4B;}
	.st52{fill:#FFFFFF;}
	.st53{fill:#5465C1;}
	.st54{fill:#B95438;}
	.st55{fill:url(#SVGID_9_);}
	.st56{fill:url(#SVGID_10_);}
	.st57{fill:#7893A4;}
	.st58{fill:#BA77AD;}
	.st59{fill:#B48CCB;}
	.st60{fill:#9D7FB2;}
	.st61{fill:#88729B;}
	.st62{fill:#C5B0EB;}
	.st63{fill:#A0C3E9;}
	.st64{fill:url(#SVGID_11_);}
	.st65{fill:url(#SVGID_12_);}
	.st66{fill:#A3C0D8;}
	.st67{fill:#D88A5A;}
	.st68{fill:#9C9777;}
	.st69{fill:#A2A793;}
	.st70{fill:#636864;}
	.st71{fill:#0C0C0C;}
	.st72{fill:#26240B;}
	.st73{fill:#A5A174;}
	.st74{fill:#F2B879;}
	.st75{fill:#8D897E;}
	.st76{fill:#D8AD5E;}
	.st77{fill:#B3AF80;}
	.st78{fill:url(#SVGID_13_);}
	.st79{fill:url(#SVGID_14_);}
	.st80{fill:#231F1E;}
	.st81{fill:#302C2D;}
	.st82{fill:#C96B49;}
	.st83{fill:#535454;}
	.st84{fill:#494949;}
	.st85{fill:#71797C;}
	.st86{fill:#DFC571;}
	.st87{fill:#C05648;}
	.st88{fill:#D3CF78;}
	.st89{fill:#BD5B42;}
	.st90{fill:#5086F3;}
	.st91{fill:#4B4724;}
	.st92{fill:#877D40;}
	.st93{fill:#62AAFC;}
	.st94{fill:#A64C34;}
	.st95{fill:#BB5338;}
	.st96{fill:#A0A035;}
	.st97{fill:#3750B5;}
	.st98{fill:#A3A034;}
	.st99{fill:#D1D540;}
	.st100{fill:#2A417A;}
	.st101{fill:#C0664E;}
	.st102{fill:#7F7F7F;}
	.st103{fill:#6C8AA4;}
	.st104{fill:#4F5249;}
	.st105{fill:#BFAF5C;}
	.st106{fill:#E28D4D;}
	.st107{fill:url(#SVGID_15_);}
	.st108{fill:url(#SVGID_16_);}
	.st109{fill:#5B969C;}
	.st110{fill:#9FACC1;}
	.st111{fill:#D8BF48;}
	.st112{fill:#CB8142;}
	.st113{fill:#D7A23C;}
	.st114{fill:#5B5D5C;}
	.st115{fill:#60868F;}
	.st116{fill:#6BADBB;}
	.st117{fill:#798293;}
	.st118{fill:#52575A;}
	.st119{fill:#757C84;}
	.st120{fill:#54483A;}
	.st121{fill:#9B8973;}
	.st122{fill:#C78636;}
	.st123{fill:#BE7A33;}
	.st124{fill:#CB9336;}
	.st125{fill:#767C7A;}
	.st126{fill:#D8DCE5;}
	.st127{fill:#CFD3D1;}
	.st128{fill:none;}
	.st129{stroke:#000000;stroke-miterlimit:10;}
	.st130{fill:#FFFFFF;stroke:#000000;stroke-miterlimit:10;}
	.st131{stroke:#000000;stroke-linecap:round;stroke-linejoin:round;stroke-miterlimit:10;}
</style>
<g id="IMG_x5F_1254_xA0_Image_1_">
</g>
<g id="Layer_2">
	<g>
		<polygon class="st89" points="0,24.9 98.7,51.1 202.1,26.3 103.5,0 		"/>
		<polygon class="st90" points="61.3,525.8 82,532.5 82,331.8 61.3,326 		"/>
		<polygon class="st90" points="61.3,618.4 82,618.4 82,331.8 61.3,326 		"/>
		<rect x="84.3" y="330.8" class="st91" width="47.1" height="287.7"/>
		
			<rect x="131.4" y="330.8" transform="matrix(-1 -1.224647e-16 1.224647e-16 -1 285.9843 949.1805)" class="st92" width="23.1" height="287.7"/>
		<polygon class="st93" points="82,618.4 82,331.8 83.9,330.8 111.9,618.4 		"/>
		<polygon class="st94" points="117.9,341.2 117.9,182.2 49.3,164.9 49.3,323.8 		"/>
		<polygon class="st95" points="98.7,186.7 98.7,51.2 202.1,26.4 202.1,161.7 		"/>
		<polygon class="st95" points="117.9,341.2 117.9,182.2 187.7,164.8 187.7,323.7 		"/>
		<polygon class="st96" points="65.4,283.3 65.4,147.8 67.3,147 67.3,282.4 		"/>
		<polygon class="st97" points="17.4,295 90.3,315.7 90.3,78.4 17.4,57.6 		"/>
		<polygon class="st98" points="65.4,283.3 65.4,147.8 67.3,147 67.3,282.4 		"/>
		<polygon class="st99" points="14.1,268.8 65.4,283.3 65.4,45.2 14.1,30.6 		"/>
		<polygon class="st100" points="90.3,315.7 90.3,180.3 92.2,179.5 92.2,314.8 		"/>
		<polygon class="st94" points="28,244.3 28,108.9 29.9,108.1 29.9,243.4 		"/>
		<polygon class="st101" points="98.7,51.1 0,24.9 0,160.4 0,235.2 28.2,244.3 28.2,167.9 98.7,186.5 		"/>
		<polygon class="st17" points="98.7,136.1 98.7,80.7 206.9,54.6 206.9,110 		"/>
		<polygon class="st5" points="96.3,80 98.7,80.7 206.9,54.6 204.5,53.9 		"/>
		<polygon class="st2" points="51.3,123.1 98.7,136.1 98.7,80.7 51.3,67.5 		"/>
		<polygon class="st5" points="53.7,66.9 98.7,79.3 98.7,80.7 51.3,67.5 		"/>
		<g>
			<polygon class="st42" points="80.3,112.5 67.3,109 67.3,93.5 80.3,97 			"/>
			<polygon class="st5" points="84.3,110.2 80.3,112.5 80.3,97 84.3,94.6 			"/>
			<polygon class="st5" points="71.3,91.2 67.3,93.5 80.3,97 84.3,94.6 			"/>
		</g>
		<polygon class="st5" points="117.9,184.1 117.9,182.2 187.7,164.8 187.7,166.7 		"/>
		<polygon class="st97" points="28,499.5 48.7,506.2 48.7,305.5 28,299.7 		"/>
		<polygon class="st5" points="29,298.8 50.5,304.7 48.7,305.5 28,299.7 		"/>
		<polygon class="st100" points="48.7,506.2 48.7,323.8 64.1,328 64.1,499.4 		"/>
		<polygon class="st100" points="48.7,506.2 48.7,305.5 50.7,304.5 50.7,505.1 		"/>
		<line class="st20" x1="154.5" y1="590" x2="154.3" y2="392.4"/>
		<polygon class="st5" points="149,90.3 141.3,93 141.3,142 176.6,133.6 194.6,122.9 164.3,130.7 		"/>
		<polygon class="st20" points="175.3,110.1 141.3,124 141.3,176.2 175.5,167.7 		"/>
		<polygon class="st102" points="179.6,83.4 149,90.3 164.3,130.7 194.6,122.9 		"/>
	</g>
</g>
</svg>
