<?xml version="1.0" encoding="utf-8"?>
<!-- Generator: Adobe Illustrator 24.1.3, SVG Export Plug-In . SVG Version: 6.00 Build 0)  -->
<svg version="1.1" xmlns="http://www.w3.org/2000/svg" xmlns:xlink="http://www.w3.org/1999/xlink" x="0px" y="0px"
	 viewBox="0 0 565.1 782.8" style="enable-background:new 0 0 565.1 782.8;" xml:space="preserve">
<style type="text/css">
	.st0{opacity:0.73;fill:#5659BA;}
	.st1{fill:url(#SVGID_1_);}
	.st2{fill:url(#SVGID_2_);}
	.st3{opacity:0.23;fill:#444444;}
	.st4{fill:#3B435E;}
	.st5{fill:#202433;}
	.st6{fill:#333333;}
	.st7{fill:url(#SVGID_3_);}
	.st8{fill:url(#SVGID_4_);}
	.st9{fill:#9BA4A1;}
	.st10{fill:#E4EFEB;}
	.st11{fill:#444444;}
	.st12{fill:none;stroke:#FFFFFF;stroke-linecap:round;stroke-miterlimit:10;}
	.st13{fill:none;stroke:#000000;stroke-miterlimit:10;}
	.st14{fill:#EBF1FF;}
	.st15{fill:url(#SVGID_5_);}
	.st16{fill:url(#SVGID_6_);}
	.st17{fill:#BFD8F7;}
	.st18{fill:#6E7C89;}
	.st19{fill:#40484F;}
	.st20{fill:#A4B3D0;}
	.st21{fill:#8A9BB5;}
	.st22{fill:#C1DAF9;}
	.st23{fill:#4A5059;}
	.st24{fill:#605F68;}
	.st25{fill:#B4AA91;}
	.st26{fill:#837960;}
	.st27{fill:#1D3F1D;}
	.st28{fill:#459B45;}
	.st29{fill:#FFF0CF;}
	.st30{fill:#B77A37;}
	.st31{fill:#E29942;}
	.st32{fill:#D9B15C;}
	.st33{fill:#CEBE99;}
	.st34{fill:#3C3B41;}
	.st35{fill:#EEFFA6;}
	.st36{fill:#474135;}
	.st37{fill:#D8EF84;}
	.st38{fill:#AECFEE;}
	.st39{fill:#5483AD;}
	.st40{fill:#335066;}
	.st41{fill:#61A1C1;}
	.st42{fill:#6394B4;}
	.st43{fill:#88BBD6;}
	.st44{fill:#ABDAEF;}
	.st45{fill:#839945;}
	.st46{fill:#193019;}
	.st47{fill:#346B34;}
	.st48{fill:url(#SVGID_7_);}
	.st49{fill:url(#SVGID_8_);}
	.st50{fill:#5659BA;}
	.st51{fill:#D2E0FB;}
	.st52{fill:#3C3E4B;}
	.st53{fill:#FFFFFF;}
	.st54{opacity:0.3;}
	.st55{fill:#5465C1;}
	.st56{fill:#B95438;}
	.st57{fill:url(#SVGID_9_);}
	.st58{fill:url(#SVGID_10_);}
	.st59{fill:#7893A4;}
	.st60{fill:#BA77AD;}
	.st61{fill:#B48CCB;}
	.st62{fill:#9D7FB2;}
	.st63{fill:#88729B;}
	.st64{fill:#C5B0EB;}
	.st65{fill:#A0C3E9;}
	.st66{fill:url(#SVGID_11_);}
	.st67{fill:url(#SVGID_12_);}
	.st68{fill:#A3C0D8;}
	.st69{fill:#D88A5A;}
	.st70{fill:#9C9777;}
	.st71{fill:#A2A793;}
	.st72{fill:#636864;}
	.st73{fill:#0C0C0C;}
	.st74{fill:#26240B;}
	.st75{fill:#A5A174;}
	.st76{fill:#F2B879;}
	.st77{fill:#8D897E;}
	.st78{fill:#D8AD5E;}
	.st79{fill:#B3AF80;}
	.st80{fill:url(#SVGID_13_);}
	.st81{fill:url(#SVGID_14_);}
	.st82{fill:#231F1E;}
	.st83{fill:#302C2D;}
	.st84{fill:#C96B49;}
	.st85{fill:#535454;}
	.st86{fill:#494949;}
	.st87{fill:#71797C;}
	.st88{fill:#DFC571;}
	.st89{fill:#C05648;}
	.st90{fill:#D3CF78;}
	.st91{fill:#BD5B42;}
	.st92{fill:#5086F3;}
	.st93{fill:#4B4724;}
	.st94{fill:#877D40;}
	.st95{fill:#62AAFC;}
	.st96{fill:#A64C34;}
	.st97{fill:#BB5338;}
	.st98{fill:#A0A035;}
	.st99{fill:#3750B5;}
	.st100{fill:#A3A034;}
	.st101{fill:#D1D540;}
	.st102{fill:#2A417A;}
	.st103{fill:#C0664E;}
	.st104{fill:#7F7F7F;}
	.st105{fill:#6C8AA4;}
	.st106{fill:#4F5249;}
	.st107{fill:url(#SVGID_15_);}
	.st108{fill:url(#SVGID_16_);}
	.st109{fill:#5B969C;}
	.st110{fill:#9FACC1;}
	.st111{fill:#D8BF48;}
	.st112{fill:#CB8142;}
	.st113{fill:#D7A23C;}
	.st114{fill:#5B5D5C;}
	.st115{fill:#60868F;}
	.st116{fill:#6BADBB;}
	.st117{fill:#798293;}
	.st118{fill:#52575A;}
	.st119{fill:#757C84;}
	.st120{fill:#54483A;}
	.st121{fill:#9B8973;}
	.st122{fill:none;}
	.st123{fill:#495370;}
	.st124{fill:url(#SVGID_17_);}
	.st125{fill:url(#SVGID_18_);}
	.st126{fill:#BFAF5C;}
	.st127{fill:#E28D4D;}
	.st128{fill:#C78636;}
	.st129{fill:#BE7A33;}
	.st130{fill:#CB9336;}
	.st131{fill:#767C7A;}
	.st132{fill:#D8DCE5;}
	.st133{fill:#CFD3D1;}
	.st134{stroke:#000000;stroke-miterlimit:10;}
	.st135{fill:#FFFFFF;stroke:#000000;stroke-miterlimit:10;}
	.st136{stroke:#000000;stroke-linecap:round;stroke-linejoin:round;stroke-miterlimit:10;}
	.st137{opacity:0.5;}
	.st138{fill:url(#SVGID_19_);}
	.st139{fill:url(#SVGID_20_);}
	.st140{opacity:0.45;}
</style>
<g id="IMG_x5F_1254_xA0_Image_1_">
</g>
<g id="Layer_2">
	<g class="st137">
		<g>
			<radialGradient id="SVGID_1_" cx="282.5484" cy="391.2694" r="341.3443" gradientUnits="userSpaceOnUse">
				<stop  offset="0" style="stop-color:#99C1DA"/>
				<stop  offset="1" style="stop-color:#6FC0DE"/>
			</radialGradient>
			<rect y="-0.1" class="st1" width="565.1" height="782.8"/>
			
				<linearGradient id="SVGID_2_" gradientUnits="userSpaceOnUse" x1="282.4524" y1="-1573.2756" x2="282.6494" y2="-2330.2192" gradientTransform="matrix(1 0 0 0.4621 0 1499.2749)">
				<stop  offset="0" style="stop-color:#B7D856"/>
				<stop  offset="0.6916" style="stop-color:#CAD19E"/>
				<stop  offset="1" style="stop-color:#D4D754"/>
			</linearGradient>
			<rect y="421" class="st2" width="565.1" height="361.7"/>
		</g>
		<g>
			<polygon class="st68" points="476,134.4 468.5,133.3 450.3,144 456.7,145.9 			"/>
			<polyline class="st38" points="456.7,145.9 467.9,128.5 460.3,127.4 450.3,144 			"/>
			<g>
				<polygon class="st39" points="455.8,145.6 455.8,145.6 456.1,146.2 456.1,146.2 456.4,146.8 449.6,147.8 449.3,147.2 449,146.5 
					448.7,145.9 455.5,145 				"/>
				<polygon class="st40" points="455.5,145 455.9,143.2 449.1,144.1 448.7,145.9 				"/>
				<g>
					<polygon class="st41" points="455.9,143.2 456.2,143.8 456.2,144 456.2,143.8 456.5,144.4 456.1,146.2 455.8,145.6 
						455.8,145.6 455.5,145 					"/>
					<polygon class="st41" points="456.5,144.4 456.8,145 456.5,146.8 456.1,146.2 					"/>
				</g>
			</g>
			<g>
				<polyline class="st42" points="455.7,144.1 434,130.5 425.6,130.1 448.8,145.1 				"/>
				<polygon class="st43" points="434.1,130.1 434,130.5 425.6,130.1 425.7,129.7 				"/>
				<polyline class="st44" points="455.7,144.1 434.1,130.1 434,130.5 455.7,144.1 				"/>
				<polygon class="st42" points="433.2,137.8 424.8,137.4 448.8,145.1 455.7,144.1 				"/>
				<polygon class="st43" points="433.4,137.4 433.2,137.8 424.8,137.4 424.9,137 				"/>
				<polygon class="st44" points="433.2,137.8 455.7,144.1 433.4,137.4 				"/>
			</g>
		</g>
		<g>
			<polygon class="st3" points="462.6,469.9 444.7,476.6 410.2,456.2 			"/>
			<g>
				<polygon class="st25" points="442.2,462 444.7,462.1 444.7,476.6 442.2,475.7 				"/>
				<polygon class="st26" points="447.3,462 444.7,462.1 444.7,476.6 447.3,475.7 				"/>
				<polygon class="st27" points="444.7,397.5 444.7,466.9 426.3,460.3 				"/>
				<polygon class="st28" points="462.6,460.1 444.7,466.9 444.7,397.7 				"/>
			</g>
		</g>
		<g>
			<polygon class="st3" points="515,459.4 497.2,466.1 462.6,445.6 			"/>
			<g>
				<polygon class="st25" points="494.6,451.4 497.2,451.5 497.2,466.1 494.6,465.2 				"/>
				<polygon class="st26" points="499.7,451.4 497.2,451.5 497.2,466.1 499.7,465.1 				"/>
				<polygon class="st27" points="497.2,368.4 497.2,456.4 478.7,449.8 				"/>
				<polygon class="st28" points="515,449.6 497.2,456.4 497.2,368.4 				"/>
			</g>
		</g>
		<g>
			<polygon class="st18" points="54.2,560.3 59.3,560.3 59.3,553.2 53.8,553.2 			"/>
			<polygon class="st24" points="76.5,563.9 81.6,563.9 81.6,555.9 76.1,555.9 			"/>
			<polygon class="st17" points="76.7,572.5 81.6,572.5 81.6,563.9 76.5,563.9 			"/>
			<polygon class="st24" points="68.2,565.2 73.3,565.2 73.3,554.3 67.9,554.3 			"/>
			<polygon class="st17" points="68.4,573.8 73.3,573.8 73.3,565.2 68.2,565.2 			"/>
			<polygon class="st24" points="59.3,568.2 64.4,568.2 64.4,554.2 59,554.2 			"/>
			<polygon class="st24" points="53.9,582.2 59,582.2 59,569.5 53.5,569.5 			"/>
			<polygon class="st17" points="59.5,573.6 64.4,573.6 64.4,568.2 59.3,568.2 			"/>
			<polygon class="st17" points="54.2,584.9 59.1,584.9 59.1,582.1 54,582.1 			"/>
			<polygon class="st17" points="87.2,583.7 85.1,565.8 90.2,563.9 92.4,583.7 			"/>
			<polygon class="st18" points="77.2,555.2 85.1,565.8 90.2,563.9 82.6,552.5 			"/>
			<polygon class="st34" points="85.1,581.1 87.2,583.7 85.1,565.8 77.2,555.2 77.2,557 83.7,566.5 			"/>
		</g>
		<g>
			<polygon class="st20" points="0,559.9 565.1,562.1 0,565.2 			"/>
			<polygon class="st21" points="565.1,557.6 565.1,562.1 59.1,559.9 			"/>
			<polygon class="st22" points="565.1,557.6 262.8,558.9 380.6,555.3 			"/>
			<polygon class="st23" points="0,569.7 0,565.2 565.1,562.1 565.1,563.3 			"/>
		</g>
		<g>
			<polygon class="st17" points="494.5,566.1 498.7,564.2 499.4,576.5 494.5,579 			"/>
			<polygon class="st18" points="494.5,566 498.7,564.2 490.9,551.9 487.2,553.8 			"/>
			<polygon class="st19" points="490.9,549.4 500,563.7 501,576.8 499.4,576.4 498.7,564.1 490.9,551.8 487.2,551.8 487.2,550.5 			
				"/>
			<polygon class="st19" points="495.7,579.7 494.5,579 499.4,576.4 501,576.8 			"/>
			<polygon class="st24" points="477,556.9 482.1,556.9 482.1,570.6 476.6,570.6 			"/>
			<polygon class="st17" points="477.2,552.7 482.1,552.7 482.1,556.9 477,556.9 			"/>
			<polygon class="st18" points="468.1,551.9 473.1,551.9 473.1,570.6 467.7,570.6 			"/>
			<polygon class="st17" points="462.8,550.6 467.7,550.6 467.9,582.4 462.8,582.5 			"/>
			<polygon class="st24" points="485.8,559.3 490.9,559.3 490.9,570.6 485.5,570.6 			"/>
			<polygon class="st17" points="486,551.9 490.9,551.9 490.9,559.1 485.8,559.1 			"/>
		</g>
		<path class="st14" d="M50.8,421.7c0,0-2.2-30.4,30.4-29.3c0,0,4.4-31.5,31.5-31.5s34.1,13.7,38.6,26.7c0,0,25.9-10,41.1,5.6
			c15.2,15.6,12.2,28.5,12.2,28.5H50.8z"/>
	</g>
	<g class="st140">
		<polygon class="st35" points="98.2,200.9 122.3,225 114.8,235.6 89.2,210.6 		"/>
		<polygon class="st36" points="107.1,230.6 107.1,230.6 105.9,231.3 105.9,231.3 104.7,232 115.6,241.4 116.8,240.7 118,240 
			119.2,239.3 108.3,229.9 		"/>
		<polygon class="st26" points="108.3,229.9 109.7,226.2 120.6,235.6 119.2,239.3 		"/>
		<polygon class="st37" points="114.8,209.2 142.8,199.1 142.8,224.5 114.8,235.6 		"/>
		<g>
			<polygon class="st33" points="109.7,226.2 108.5,226.9 108.4,227.4 108.5,226.9 107.3,227.6 105.9,231.3 107.1,230.6 
				107.1,230.6 108.3,229.9 			"/>
			<polygon class="st33" points="107.3,227.6 106.1,228.3 104.7,232 105.9,231.3 			"/>
		</g>
	</g>
</g>
</svg>
