<?xml version="1.0" encoding="utf-8"?>
<!-- Generator: Adobe Illustrator 24.1.3, SVG Export Plug-In . SVG Version: 6.00 Build 0)  -->
<svg version="1.1" xmlns="http://www.w3.org/2000/svg" xmlns:xlink="http://www.w3.org/1999/xlink" x="0px" y="0px"
	 viewBox="0 0 565.1 782.8" style="enable-background:new 0 0 565.1 782.8;" xml:space="preserve">
<style type="text/css">
	.st0{opacity:0.73;fill:#5659BA;}
	.st1{fill:url(#SVGID_1_);}
	.st2{fill:url(#SVGID_2_);}
	.st3{opacity:0.23;fill:#444444;}
	.st4{fill:#3B435E;}
	.st5{fill:#202433;}
	.st6{fill:#333333;}
	.st7{fill:url(#SVGID_3_);}
	.st8{fill:url(#SVGID_4_);}
	.st9{fill:#9BA4A1;}
	.st10{fill:#E4EFEB;}
	.st11{fill:#444444;}
	.st12{fill:none;stroke:#FFFFFF;stroke-linecap:round;stroke-miterlimit:10;}
	.st13{fill:none;stroke:#000000;stroke-miterlimit:10;}
	.st14{fill:#EBF1FF;}
	.st15{fill:url(#SVGID_5_);}
	.st16{fill:url(#SVGID_6_);}
	.st17{fill:#BFD8F7;}
	.st18{fill:#6E7C89;}
	.st19{fill:#40484F;}
	.st20{fill:#A4B3D0;}
	.st21{fill:#8A9BB5;}
	.st22{fill:#C1DAF9;}
	.st23{fill:#4A5059;}
	.st24{fill:#605F68;}
	.st25{fill:#B4AA91;}
	.st26{fill:#837960;}
	.st27{fill:#1D3F1D;}
	.st28{fill:#459B45;}
	.st29{fill:#FFF0CF;}
	.st30{fill:#B77A37;}
	.st31{fill:#E29942;}
	.st32{fill:#D9B15C;}
	.st33{fill:#CEBE99;}
	.st34{fill:#3C3B41;}
	.st35{fill:#EEFFA6;}
	.st36{fill:#474135;}
	.st37{fill:#D8EF84;}
	.st38{fill:#AECFEE;}
	.st39{fill:#5483AD;}
	.st40{fill:#335066;}
	.st41{fill:#61A1C1;}
	.st42{fill:#6394B4;}
	.st43{fill:#88BBD6;}
	.st44{fill:#ABDAEF;}
	.st45{fill:#839945;}
	.st46{fill:#193019;}
	.st47{fill:#346B34;}
	.st48{fill:url(#SVGID_7_);}
	.st49{fill:url(#SVGID_8_);}
	.st50{fill:#5659BA;}
	.st51{fill:#D2E0FB;}
	.st52{fill:#3C3E4B;}
	.st53{fill:#FFFFFF;}
	.st54{opacity:0.3;}
	.st55{fill:#5465C1;}
	.st56{fill:#B95438;}
	.st57{fill:url(#SVGID_9_);}
	.st58{fill:url(#SVGID_10_);}
	.st59{fill:#7893A4;}
	.st60{fill:#BA77AD;}
	.st61{fill:#B48CCB;}
	.st62{fill:#9D7FB2;}
	.st63{fill:#88729B;}
	.st64{fill:#C5B0EB;}
	.st65{fill:#A0C3E9;}
	.st66{fill:url(#SVGID_11_);}
	.st67{fill:url(#SVGID_12_);}
	.st68{fill:#A3C0D8;}
	.st69{fill:#D88A5A;}
	.st70{fill:#9C9777;}
	.st71{fill:#A2A793;}
	.st72{fill:#636864;}
	.st73{fill:#0C0C0C;}
	.st74{fill:#26240B;}
	.st75{fill:#A5A174;}
	.st76{fill:#F2B879;}
	.st77{fill:#8D897E;}
	.st78{fill:#D8AD5E;}
	.st79{fill:#B3AF80;}
	.st80{fill:url(#SVGID_13_);}
	.st81{fill:url(#SVGID_14_);}
	.st82{fill:#231F1E;}
	.st83{fill:#302C2D;}
	.st84{fill:#C96B49;}
	.st85{fill:#535454;}
	.st86{fill:#494949;}
	.st87{fill:#71797C;}
	.st88{fill:#DFC571;}
	.st89{fill:#C05648;}
	.st90{fill:#D3CF78;}
	.st91{fill:#BD5B42;}
	.st92{fill:#5086F3;}
	.st93{fill:#4B4724;}
	.st94{fill:#877D40;}
	.st95{fill:#62AAFC;}
	.st96{fill:#A64C34;}
	.st97{fill:#BB5338;}
	.st98{fill:#A0A035;}
	.st99{fill:#3750B5;}
	.st100{fill:#A3A034;}
	.st101{fill:#D1D540;}
	.st102{fill:#2A417A;}
	.st103{fill:#C0664E;}
	.st104{fill:#7F7F7F;}
	.st105{fill:#6C8AA4;}
	.st106{fill:#4F5249;}
	.st107{fill:url(#SVGID_15_);}
	.st108{fill:url(#SVGID_16_);}
	.st109{fill:#5B969C;}
	.st110{fill:#9FACC1;}
	.st111{fill:#D8BF48;}
	.st112{fill:#CB8142;}
	.st113{fill:#D7A23C;}
	.st114{fill:#5B5D5C;}
	.st115{fill:#60868F;}
	.st116{fill:#6BADBB;}
	.st117{fill:#798293;}
	.st118{fill:#52575A;}
	.st119{fill:#757C84;}
	.st120{fill:#54483A;}
	.st121{fill:#9B8973;}
	.st122{fill:none;}
	.st123{fill:#495370;}
	.st124{fill:url(#SVGID_17_);}
	.st125{fill:url(#SVGID_18_);}
	.st126{fill:#BFAF5C;}
	.st127{fill:#E28D4D;}
	.st128{fill:#C78636;}
	.st129{fill:#BE7A33;}
	.st130{fill:#CB9336;}
	.st131{fill:#767C7A;}
	.st132{fill:#D8DCE5;}
	.st133{fill:#CFD3D1;}
	.st134{stroke:#000000;stroke-miterlimit:10;}
	.st135{fill:#FFFFFF;stroke:#000000;stroke-miterlimit:10;}
	.st136{stroke:#000000;stroke-linecap:round;stroke-linejoin:round;stroke-miterlimit:10;}
	.st137{fill:url(#SVGID_19_);}
	.st138{fill:url(#SVGID_20_);}
	.st139{opacity:0.95;fill:#5659BA;}
</style>
<g id="IMG_x5F_1254_xA0_Image_1_">
</g>
<g id="Layer_2">
	<rect class="st0" width="565.1" height="782.8"/>
	<path class="st14" d="M94.4,539.5c0,0,6-28.6,28.6-29.3s36.8,4.5,42.1,29.3c0,0,30.1-20.3,48.9,18.8s-39.1,57.1-48.1,42.1
		c0,0-34.6,27.1-63.1-6c0,0-35.3,5.3-37.6-27.8C62.8,533.5,94.4,539.5,94.4,539.5z"/>
	<g>
		<polygon class="st35" points="328.3,240.7 399.8,312.1 377.6,343.6 302,269.2 		"/>
		<polygon class="st36" points="354.9,328.7 354.9,328.7 351.3,330.7 351.3,330.8 347.7,332.8 380,360.6 383.6,358.6 387.2,356.5 
			390.8,354.4 358.5,326.6 		"/>
		<polygon class="st26" points="358.5,326.6 362.7,315.8 394.8,343.5 390.8,354.4 		"/>
		<polygon class="st37" points="377.6,265.3 460.8,235.4 460.8,310.6 377.6,343.6 		"/>
		<g>
			<polygon class="st33" points="362.7,315.8 359.1,317.9 358.6,319.1 359.1,317.9 355.5,319.9 351.3,330.8 354.9,328.7 
				354.9,328.7 358.5,326.6 			"/>
			<polygon class="st33" points="355.5,319.9 351.9,322 347.7,332.8 351.3,330.7 			"/>
		</g>
	</g>
	<g>
		<polygon class="st68" points="243,388.3 223.5,385.4 176.6,413.1 193,417.9 		"/>
		<polyline class="st38" points="193,417.9 222,373 202.4,370.1 176.6,413.1 		"/>
		<g>
			<polygon class="st39" points="190.8,417.2 190.9,417.2 191.6,418.8 191.6,418.8 192.4,420.3 174.7,422.7 173.9,421.2 
				173.1,419.6 172.3,418 190.1,415.7 			"/>
			<polygon class="st40" points="190.1,415.7 191.1,410.9 173.4,413.3 172.3,418 			"/>
			<g>
				<polygon class="st41" points="191.1,410.9 191.9,412.5 191.7,413 191.9,412.5 192.7,414 191.6,418.8 190.8,417.2 190.8,417.2 
					190.1,415.7 				"/>
				<polygon class="st41" points="192.7,414 193.5,415.6 192.4,420.3 191.6,418.8 				"/>
			</g>
		</g>
		<g>
			<polyline class="st42" points="190.4,413.2 134.4,378.1 112.7,377.2 172.7,415.8 			"/>
			<polygon class="st43" points="134.8,377.1 134.5,378.1 112.7,377.2 113,376 			"/>
			<polyline class="st44" points="190.4,413.2 134.8,377.1 134.5,378.1 190.4,413.2 			"/>
			<polygon class="st42" points="132.4,396.9 110.7,396 172.7,415.8 190.4,413.2 			"/>
			<polygon class="st43" points="132.8,396 132.5,396.9 110.7,396 111,394.8 			"/>
			<polygon class="st44" points="132.5,396.9 190.4,413.2 132.8,396 			"/>
		</g>
	</g>
	<path class="st14" d="M526.8,0c0,0,5.6,76.1-76.1,73.3c0,0-11.1,78.9-78.9,78.9s-85.3-34.3-96.5-66.8c0,0-64.9,25-103-13.9
		S141.9,0,141.9,0H526.8z"/>
</g>
</svg>
