<?xml version="1.0" encoding="UTF-8"?>
<svg width="170px" height="117px" viewBox="0 0 170 117" version="1.1" xmlns="http://www.w3.org/2000/svg" xmlns:xlink="http://www.w3.org/1999/xlink">
    <title>Group 36</title>
    <defs>
        <polygon id="path-1" points="8.01592231e-05 0.247 154.111818 0.247 154.111818 61.0438 8.01592231e-05 61.0438"></polygon>
        <polygon id="path-3" points="0.8952 0.0133 53.296 0.0133 53.296 20.4783 0.8952 20.4783"></polygon>
        <polygon id="path-5" points="0.4372 0.5413 18.296 0.5413 18.296 69.7313 0.4372 69.7313"></polygon>
    </defs>
    <g id="Page-1" stroke="none" stroke-width="1" fill="none" fill-rule="evenodd">
        <g id="Desktop-HD" transform="translate(-1016.000000, -468.000000)">
            <g id="Group-36" transform="translate(1016.000000, 468.000000)">
                <g id="Group-3" transform="translate(0.000000, 0.753000)">
                    <mask id="mask-2" fill="white">
                        <use xlink:href="#path-1"></use>
                    </mask>
                    <g id="Clip-2"></g>
                    <path d="M0.0321,61.0438 C0.0321,61.0438 -2.1919,30.6458 30.4301,31.7578 C30.4301,31.7578 34.8791,0.2468 61.9411,0.2468 C89.0031,0.2468 96.0471,13.9638 100.4951,26.9388 C100.4951,26.9388 126.4451,16.9298 141.6441,32.4988 C156.8441,48.0688 153.8781,61.0438 153.8781,61.0438 L0.0321,61.0438 Z" id="Fill-1" fill="#EBF1FF" mask="url(#mask-2)"></path>
                </g>
                <polygon id="Fill-4" fill="#444444" opacity="0.3" points="97.4569 88.7675 79.5979 95.5135 45.0549 75.0485"></polygon>
                <polygon id="Fill-6" fill="#B4AA91" points="77.056 80.8427 79.598 80.9527 79.598 95.5137 77.056 94.6127"></polygon>
                <polygon id="Fill-8" fill="#837960" points="82.14 80.8427 79.598 80.9527 79.598 95.5137 82.14 94.5537"></polygon>
                <polygon id="Fill-10" fill="#1D3F1D" points="79.598 16.4033 79.598 85.7663 61.123 79.2133"></polygon>
                <polygon id="Fill-12" fill="#459B45" points="97.4569 79.0205 79.5979 85.7665 79.5979 16.5775"></polygon>
                <polygon id="Fill-14" fill="#444444" opacity="0.3" points="116.8949 110.0068 99.0359 116.7528 64.4929 96.2878"></polygon>
                <polygon id="Fill-16" fill="#B4AA91" points="96.494 102.082 99.036 102.192 99.036 116.753 96.494 115.852"></polygon>
                <polygon id="Fill-18" fill="#837960" points="101.578 102.082 99.036 102.192 99.036 116.753 101.578 115.793"></polygon>
                <polygon id="Fill-20" fill="#1D3F1D" points="99.036 37.6416 99.036 107.0056 80.561 100.4516"></polygon>
                <polygon id="Fill-22" fill="#459B45" points="116.8949 100.2588 99.0359 107.0058 99.0359 37.8158"></polygon>
                <g id="Group-26" opacity="0.3" transform="translate(116.000000, 85.753000)">
                    <mask id="mask-4" fill="white">
                        <use xlink:href="#path-3"></use>
                    </mask>
                    <g id="Clip-25"></g>
                    <polygon id="Fill-24" fill="#444444" mask="url(#mask-4)" points="53.2962 13.7323 35.4372 20.4783 0.8952 0.0133"></polygon>
                </g>
                <polygon id="Fill-27" fill="#B4AA91" points="148.8954 91.5605 151.4374 91.6705 151.4374 106.2315 148.8954 105.3305"></polygon>
                <polygon id="Fill-29" fill="#837960" points="153.9794 91.5605 151.4374 91.6705 151.4374 106.2315 153.9794 105.2715"></polygon>
                <polygon id="Fill-31" fill="#1D3F1D" points="151.4374 27.1201 151.4374 96.4841 132.9624 89.9301"></polygon>
                <g id="Group-35" transform="translate(151.000000, 26.753000)">
                    <mask id="mask-6" fill="white">
                        <use xlink:href="#path-5"></use>
                    </mask>
                    <g id="Clip-34"></g>
                    <polygon id="Fill-33" fill="#459B45" mask="url(#mask-6)" points="18.2962 62.9843 0.4372 69.7313 0.4372 0.5413"></polygon>
                </g>
            </g>
        </g>
    </g>
</svg>