<svg xmlns="http://www.w3.org/2000/svg" viewBox="0 0 414.61 521.94"><defs><style>.cls-1{fill:#231f1e;}.cls-2{fill:#302c2d;}.cls-3{fill:#c96b49;}.cls-4{fill:#535454;}.cls-5{fill:#494949;}.cls-6{fill:#333;}.cls-7{fill:#9ba4a1;}.cls-10,.cls-8{fill:#444;}.cls-9{fill:#71797c;}.cls-10{opacity:0.23;}.cls-11{fill:#ebf1ff;}.cls-12{fill:#dfc571;}.cls-13{fill:#c05648;}.cls-14{fill:#d3cf78;}</style></defs><g id="Layer_2" data-name="Layer 2"><g id="Layer_2-2" data-name="Layer 2"><polygon class="cls-1" points="322.35 363.12 284.59 373.47 284.59 346.82 322.35 336.39 322.35 363.12"/><polygon class="cls-2" points="284.59 373.3 268.74 367.08 268.74 339.54 284.59 346.82 284.59 373.3"/><path class="cls-3" d="M91.71,63l0,0,23.75,8.77,2.23,105.61L24.86,200.44,0,191.82C2.86,92.35,90.47,63.43,91.71,63Z"/><polygon class="cls-4" points="414.61 200.94 323.24 227.12 263.12 206.9 354.48 180.65 414.61 200.94"/><polygon class="cls-5" points="380.29 311.99 380.29 521.94 357.76 514.98 357.76 304.96 380.29 311.99"/><polygon class="cls-6" points="392.31 348.98 379.76 351.99 379.76 521.94 392.31 518.86 392.31 348.98"/><polygon class="cls-5" points="402.06 311.99 402.06 481.94 341.94 461.72 341.94 291.7 402.06 311.99"/><polygon class="cls-7" points="323.24 47.97 277.56 61.02 277.56 240.46 323.24 227.34 323.24 47.97"/><polygon class="cls-6" points="323.24 337.47 277.56 350.52 277.56 240.46 323.24 227.34 323.24 337.47"/><polygon class="cls-8" points="277.56 350.52 217.44 329.25 217.44 218.13 277.56 240.46 277.56 350.52"/><polygon class="cls-6" points="414.61 311.26 368.93 324.31 368.93 214.25 414.61 201.13 414.61 311.26"/><polygon class="cls-6" points="414.61 308.98 402.06 311.99 402.06 481.94 414.61 478.86 414.61 308.98"/><polygon class="cls-6" points="323.24 33.42 277.56 46.47 277.56 61.02 323.24 47.9 323.24 33.42"/><polygon class="cls-4" points="368.93 20.29 277.56 46.47 217.44 26.25 308.8 0 368.93 20.29"/><polygon points="377.96 520.98 380.29 521.94 380.29 320.41 377.96 319.38 377.96 520.98"/><polygon points="357.76 514.83 360.08 515.79 360.08 314.26 357.76 313.23 357.76 514.83"/><polygon class="cls-1" points="393.5 374.06 355.74 384.42 355.74 328.28 393.5 317.85 393.5 374.06"/><polygon class="cls-2" points="355.74 384.42 339.89 378.19 339.89 321 355.74 328.28 355.74 384.42"/><polygon class="cls-9" points="292.31 383.81 296.26 387.13 296.26 392.95 281.3 397.1 281.3 409.77 288.78 407.49 288.78 414.34 277.98 417.67 274.03 416 274.03 389.42 292.31 383.81"/><polygon class="cls-10" points="315.44 393.82 315.44 387.13 333.2 382.25 337.14 385.57 337.14 388 315.44 393.82"/><polygon class="cls-10" points="315.44 393.82 315.44 387.13 333.2 382.25 337.14 385.57 337.14 388 315.44 393.82"/><polygon class="cls-10" points="292.62 394.16 292.62 387.48 295.4 386.41 296.26 387.13 296.26 392.95 292.62 394.16"/><polygon class="cls-9" points="351.79 374.67 355.74 378 355.74 383.81 301.83 397.1 301.83 409.77 309.31 407.49 309.31 414.34 298.51 417.67 294.56 416 294.56 389.42 351.79 374.67"/><polygon class="cls-10" points="315.44 393.82 315.44 387.13 333.2 382.25 337.14 385.57 337.14 388 315.44 393.82"/><polygon class="cls-9" points="332.46 385.16 336.41 388.49 336.41 394.3 321.46 398.46 321.46 411.13 328.93 408.84 328.93 415.7 318.13 419.02 314.19 417.36 314.19 390.77 332.46 385.16"/><polygon class="cls-6" points="368.93 324.32 323.24 337.38 323.24 33.42 368.93 20.29 368.93 324.32"/><polygon points="368.93 324.32 366.69 324.91 366.69 20.95 368.93 20.29 368.93 324.32"/><polygon points="324.36 337.12 322.13 337.7 322.13 33.75 324.36 33.09 324.36 337.12"/><polygon points="266.31 12.45 264.08 13.04 322.13 33.75 324.36 33.09 266.31 12.45"/><polygon class="cls-11" points="277.56 61.02 217.44 39.75 217.44 218.13 277.56 240.46 277.56 61.02"/><polygon class="cls-8" points="277.56 46.47 217.44 26.25 217.44 39.75 277.56 61.02 277.56 46.47"/><polygon points="414.61 311.26 277.56 350.52 277.56 348.32 414.61 308.98 414.61 311.26"/><polygon class="cls-6" points="291.74 95.17 299.35 93.15 299.35 84.07 291.74 86.1 291.74 95.17"/><polygon class="cls-8" points="289.37 93.81 291.74 95.17 291.74 86.1 289.37 84.73 289.37 93.81"/><polygon class="cls-8" points="296.99 82.69 299.35 84.06 291.74 86.1 289.37 84.73 296.99 82.69"/><polygon class="cls-12" points="253.43 38.54 115.49 71.64 115.49 177.96 253.43 144.77 253.43 38.54"/><polygon class="cls-10" points="230.97 135.54 253.78 144.67 253.78 341.61 230.82 333.15 230.97 135.54"/><polygon class="cls-12" points="253.43 38.54 115.49 71.64 115.49 177.96 253.43 144.77 253.43 38.54"/><path class="cls-13" d="M24.86,200.44l91.75-22.56V71.65S27.74,100.27,24.86,200.44Z"/><polygon class="cls-14" points="115.49 71.64 253.43 38.54 229.28 29.95 91.74 62.99 115.49 71.64"/><polygon points="253.43 144.81 251.2 145.4 251.2 39.2 253.43 38.54 253.43 144.81"/><polygon points="117.72 177.37 115.49 177.96 115.49 71.76 117.72 71.1 117.72 177.37"/><polygon points="93.57 62.57 91.25 63.13 115.49 71.82 117.72 71.16 93.57 62.57"/><polygon points="229.28 29.95 226.96 30.51 251.2 39.2 253.43 38.54 229.28 29.95"/><polygon class="cls-9" points="182.81 383.06 186.76 386.38 186.76 392.2 171.81 396.36 171.81 409.02 179.28 406.74 179.28 413.6 168.48 416.92 164.54 415.26 164.54 388.67 182.81 383.06"/><polygon class="cls-10" points="183.25 393.33 183.25 386.64 186.03 385.58 186.88 386.3 186.88 392.12 183.25 393.33"/><polygon class="cls-9" points="280.38 364.03 284.32 367.35 284.32 373.17 192.34 396.36 192.34 409.02 199.81 406.74 199.81 413.6 189.01 416.92 185.07 415.26 185.07 388.67 280.38 364.03"/><polygon class="cls-10" points="206.58 393.82 206.58 387.13 224.34 382.25 228.29 385.57 228.29 388 206.58 393.82"/><polygon class="cls-9" points="222.97 384.42 226.92 387.74 226.92 393.55 211.96 397.71 211.96 410.38 219.44 408.09 219.44 414.95 208.64 418.27 204.69 416.61 204.69 390.02 222.97 384.42"/></g></g></svg>